<svg xmlns="http://www.w3.org/2000/svg" width="102.468" height="85.931" viewBox="0 0 27.111 22.736" version="1.1"><path d="M.472 3.859h.56v2.487c0 .608.159.926.503 1.032.106.053.211.053.317.053.318 0 .609-.106.82-.397V3.912h1.032v3.915c0 .265 0 .45.053.556H2.646v-.35c-.358.26-.702.377-1.111.377-.45 0-.82-.16-1.112-.45-.156-.157-.265-.38-.329-.649a6.207 6.207 0 0 0 7.236 5.046 9.187 9.187 0 0 0 3.142 6.69c.174.154.323.279.327.279-.087-.26-.088-.565-.064-.821.046-.242.172-.46.368-.641.25-.226.57-.34.955-.34.342 0 .616.099.814.288a.994.994 0 0 1 .307.648v.002c.107-.146.19-.3.257-.477.065-.16.21-.626.548-1.93l.862-3.375c-.01-.037-.114-.041-.58-.043-.328 0-.675-.016-.768-.038a.987.987 0 0 1-.553-.361.407.407 0 0 1-.104-.262c-.104-.446.193-.968.891-.968h1.54l.023-.087.205-.801c-.608-.028-.978-.036-1.529-.168-.297-.109-.36-.218-.426-.412a.83.83 0 0 1 .033-.635c.183-.329.435-.409.769-.448l1.542.014c.602-1.212 1.363-2.554 2.387-3.308a4.42 4.42 0 0 1 .383-.248 4.116 4.116 0 0 1 1.31-.49 5.28 5.28 0 0 1 1.53 0c-2.975-2.16-7.355-1.697-9.448-.326C9.995-1.37 2.736-1.282.472 3.859zm5.772-.133c.609 0 1.112.16 1.535.503 0 .053-.053.16-.053.212-.053.159-.106.318-.159.397l-.105.265v.052l-.054-.106c-.158-.211-.45-.317-.82-.397-.106 0-.211-.052-.397-.052-.502 0-.767.159-.767.503 0 .105.053.158.159.264.211.106.503.159.82.211.318.053.609.106.82.212.16.106.318.159.45.318.212.211.318.503.318.873 0 .397-.159.714-.503.979-.212.317-.662.423-1.27.423-.82 0-1.43-.159-1.826-.45V7.67l.053-.318c0-.211.053-.317.053-.396V6.9l.053.054c.053.052.106.105.212.158.105.053.264.106.45.159a3.49 3.49 0 0 0 1.031.159c.503 0 .715-.16.715-.503 0-.106-.053-.159-.159-.212-.159-.105-.45-.158-.767-.158-.318-.053-.609-.106-.82-.212-.212-.106-.397-.159-.503-.317-.212-.212-.397-.503-.397-.874 0-.45.159-.767.503-1.032.317-.264.82-.397 1.428-.397zm4.551.054c.609 0 1.111.21 1.482.608.397.397.555.873.555 1.481 0 .212 0 .398-.052.45-.265.053-.874.106-1.773.106H9.525a.942.942 0 0 0 .503.715c.264.158.609.264 1.032.264.423 0 .82-.053 1.164-.212.106-.053.159-.052.159-.105v.397l-.053.661c-.212.159-.556.265-1.032.317h-.397c-.714 0-1.323-.211-1.825-.608-.477-.503-.715-1.059-.715-1.72 0-.318.053-.662.159-.926.106-.265.264-.555.502-.767.45-.45 1.032-.661 1.773-.661zm-.158.872c-.45 0-.768.159-.98.556a2.039 2.039 0 0 0-.158.397h1.878c.08-.027.185-.027.238-.027-.105-.608-.45-.926-.978-.926zM.027 5.676A6.29 6.29 0 0 0 .044 6.97c-.01-.091-.019-.182-.019-.28zM2.751 7.96c-.013.01-.026.016-.038.026h.038zm13.745-6.456c-1.747 0-3.493.43-5.068 1.286a6.214 6.214 0 0 1 .302.498 10.03 10.03 0 0 1 11.86 1.737 10.03 10.03 0 0 1 0 14.19 10.003 10.003 0 0 1-7.095 2.94c-2.567 0-5.135-.979-7.096-2.94a9.996 9.996 0 0 1-2.932-6.745 6.214 6.214 0 0 1-.185.007 6.214 6.214 0 0 1-.395-.02 10.576 10.576 0 0 0 3.1 7.171 10.585 10.585 0 0 0 7.508 3.108c2.718 0 5.436-1.036 7.508-3.108 4.143-4.144 4.143-10.872 0-15.016a10.583 10.583 0 0 0-7.507-3.107zm-.598 19.78a8.982 8.982 0 0 1-2.563-.518 11.65 11.65 0 0 1-1.446-.659l-.163-.095.456.02c1.563.065 2.77-.633 3.709-2.133.555-.895.981-2.067 1.562-4.302l.25-.965.7-.022c.81-.024.934-.06 1.17-.328.318-.36.236-.852-.182-1.128-.192-.125-.411-.17-.868-.17-.287-.001-.387-.013-.387-.048 0-.027.049-.236.106-.464l.106-.417.773-.02c.84-.021.94-.043 1.155-.257.177-.176.217-.296.201-.596-.01-.242-.027-.296-.128-.418-.206-.258-.339-.298-.974-.312-.428-.01-.558-.025-.558-.063 0-.092.336-1.03.504-1.413.242-.542.45-.884.714-1.166.127-.136.244-.244.26-.244.017 0 .013.063-.007.138-.052.19-.022.57.057.733.265.55 1.009.778 1.578.49.192-.097.44-.366.537-.585.122-.277.142-.727.041-1.023a1.297 1.297 0 0 1-.068-.238c.025-.025.925.892 1.145 1.165 1.486 1.843 2.235 4.178 2.066 6.438-.1 1.326-.366 2.313-.932 3.471-.505 1.025-1.023 1.739-1.845 2.542a8.608 8.608 0 0 1-2.362 1.668c-1.435.705-2.943 1.006-4.606.919" fill="#918bb8" fill-opacity="1" fill-rule="nonzero" stroke="none" stroke-width=".53"/></svg>