<?xml version="1.0" encoding="UTF-8" standalone="no"?>
<!-- Created with Inkscape (http://www.inkscape.org/) -->

<svg
   xmlns:dc="http://purl.org/dc/elements/1.1/"
   xmlns:cc="http://creativecommons.org/ns#"
   xmlns:rdf="http://www.w3.org/1999/02/22-rdf-syntax-ns#"
   xmlns:svg="http://www.w3.org/2000/svg"
   xmlns="http://www.w3.org/2000/svg"
   xmlns:sodipodi="http://sodipodi.sourceforge.net/DTD/sodipodi-0.dtd"
   xmlns:inkscape="http://www.inkscape.org/namespaces/inkscape"
   width="50"
   height="50"
   viewBox="0 0 13.229167 13.229167"
   version="1.1"
   id="svg961"
   inkscape:version="0.92.2 (5c3e80d, 2017-08-06)"
   sodipodi:docname="icon_paint.svg">
  <defs
     id="defs955">
    <filter
       inkscape:collect="always"
       style="color-interpolation-filters:sRGB"
       id="filter914"
       x="-0.028614499"
       width="1.057229"
       y="-0.059043206"
       height="1.1180865">
      <feGaussianBlur
         inkscape:collect="always"
         stdDeviation="0.35455562"
         id="feGaussianBlur916" />
    </filter>
  </defs>
  <sodipodi:namedview
     id="base"
     pagecolor="#ffffff"
     bordercolor="#666666"
     borderopacity="1.0"
     inkscape:pageopacity="0.0"
     inkscape:pageshadow="2"
     inkscape:zoom="15.839192"
     inkscape:cx="21.35585"
     inkscape:cy="23.696686"
     inkscape:document-units="mm"
     inkscape:current-layer="layer1"
     showgrid="false"
     fit-margin-top="0"
     fit-margin-left="0"
     fit-margin-right="0"
     fit-margin-bottom="0"
     inkscape:window-width="2160"
     inkscape:window-height="1356"
     inkscape:window-x="0"
     inkscape:window-y="42"
     inkscape:window-maximized="1"
     units="px" />
  <metadata
     id="metadata958">
    <rdf:RDF>
      <cc:Work
         rdf:about="">
        <dc:format>image/svg+xml</dc:format>
        <dc:type
           rdf:resource="http://purl.org/dc/dcmitype/StillImage" />
        <dc:title />
      </cc:Work>
    </rdf:RDF>
  </metadata>
  <g
     inkscape:label="Calque 1"
     inkscape:groupmode="layer"
     id="layer1"
     transform="translate(355.83487,35.459788)">
    <path
       transform="matrix(0.28037595,-0.05289714,0.04509966,0.1120893,-315.01673,-42.139233)"
       style="opacity:0.54100001;fill:#747474;fill-opacity:1;stroke:none;stroke-width:1.06500006;stroke-miterlimit:4;stroke-dasharray:none;stroke-opacity:1;filter:url(#filter914)"
       d="m -118.4004,77.638535 a 14.833458,3.0067821 0 0 1 -14.83346,3.006782 14.833458,3.0067821 0 0 1 -14.83345,-3.006782 14.833458,3.0067821 0 0 1 14.83345,-3.006783 14.833458,3.0067821 0 0 1 14.83346,3.006783 z"
       id="path23"
       inkscape:connector-curvature="0" />
    <path
       style="fill:#000000;stroke-width:0.029155"
       d="m -345.84534,-32.736081 c -0.43718,0.124667 -2.90613,2.227068 -4.06887,3.488586 -0.18477,0.200437 -0.35957,0.373662 -0.3889,0.385069 -0.0617,0.02413 -0.0701,0.04647 -0.0168,0.0444 0.13768,-0.0051 0.19156,0.01564 0.25185,0.09722 l 0.0659,0.08957 -0.16919,0.180669 c -0.093,0.09906 -0.31656,0.33536 -0.49759,0.525163 l -0.3292,0.344495 0.0582,0.07426 c 0.0856,0.108851 0.0717,0.148464 -0.0214,0.05971 l -0.0804,-0.07656 -0.10178,0.08344 c -0.0738,0.06043 -0.11231,0.07465 -0.13857,0.05282 -0.0199,-0.01659 -0.0288,-0.04167 -0.0199,-0.05588 0.009,-0.01429 10e-4,-0.02603 -0.0168,-0.02603 -0.018,0 -0.005,-0.03977 0.0306,-0.08881 0.0349,-0.04903 0.0579,-0.09454 0.052,-0.10105 -0.006,-0.0064 -0.0442,0.04066 -0.0834,0.104121 -0.0684,0.110634 -0.0775,0.114832 -0.22355,0.114832 -0.31398,0 -0.59179,0.173278 -0.73416,0.457794 -0.0337,0.06749 -0.0882,0.238738 -0.12097,0.379711 -0.0327,0.140963 -0.0893,0.350651 -0.12097,0.416456 -0.0537,0.111439 -0.35292,0.386647 -0.51904,0.504494 h -7.9e-4 c -0.2122,0.151755 0.95028,0.09136 1.56937,-0.329185 0.18697,-0.147154 0.36527,-0.412711 0.41416,-0.617028 0.0218,-0.08759 0.0295,-0.225081 0.0192,-0.332247 -0.0171,-0.181701 -0.0168,-0.184001 0.0811,-0.258753 0.0544,-0.04146 0.11181,-0.07502 0.12708,-0.07502 0.0152,0 0.0477,-0.02975 0.0719,-0.06583 0.0243,-0.03608 0.27409,-0.236324 0.55578,-0.444781 0.28166,-0.208457 0.51376,-0.391992 0.51521,-0.408036 10e-4,-0.01604 0.0945,-0.108183 0.20594,-0.2044 0.22447,-0.194085 1.27475,-1.291035 1.8419,-1.923813 1.09056,-1.216741 1.93507,-2.308991 1.85109,-2.393091 -0.01,-0.01015 -0.0299,-0.01065 -0.0589,-0.0024 z m -2.7644,2.367829 c -0.0253,0.0313 -0.0836,0.121927 -0.12936,0.202103 -0.10562,0.18502 -0.34004,0.437019 -0.50756,0.544302 -0.12466,0.07978 -0.20594,0.104914 -0.20594,0.06354 0,-0.0252 0.28175,-0.353756 0.37819,-0.440952 0.17077,-0.154357 0.50719,-0.421405 0.46467,-0.368993 z m -1.78448,1.612236 c -10e-4,-0.0015 -0.0129,0.0072 -0.036,0.02526 -0.0281,0.022 -0.77932,1.025879 -0.77932,1.031954 h 7.8e-4 c 0,0.024 0.75198,-0.972661 0.79004,-1.021236 0.0177,-0.02309 0.0261,-0.03449 0.0245,-0.03598 z m -1.43386,1.699509 c 0.006,0.01261 -0.0421,0.114188 -0.13474,0.275596 -0.0821,0.14285 -0.15484,0.264953 -0.16076,0.271767 -0.063,0.06629 0.12875,-0.334148 0.2243,-0.468512 0.0443,-0.0622 0.0676,-0.08641 0.0712,-0.07885 z"
       id="path21"
       inkscape:connector-curvature="0"
       sodipodi:nodetypes="cccccccccccccccscccscccccccccsccccccccccsccccccccccccc" />
  </g>
</svg>
