<?xml version="1.0" encoding="UTF-8" standalone="no"?>
<!-- Created with Inkscape (http://www.inkscape.org/) -->

<svg
   xmlns:dc="http://purl.org/dc/elements/1.1/"
   xmlns:cc="http://creativecommons.org/ns#"
   xmlns:rdf="http://www.w3.org/1999/02/22-rdf-syntax-ns#"
   xmlns:svg="http://www.w3.org/2000/svg"
   xmlns="http://www.w3.org/2000/svg"
   xmlns:xlink="http://www.w3.org/1999/xlink"
   xmlns:sodipodi="http://sodipodi.sourceforge.net/DTD/sodipodi-0.dtd"
   xmlns:inkscape="http://www.inkscape.org/namespaces/inkscape"
   width="50"
   height="50"
   viewBox="0 0 13.229166 13.229167"
   version="1.1"
   id="svg1683"
   inkscape:version="0.92.2 (5c3e80d, 2017-08-06)"
   sodipodi:docname="icon_foodanddrink.svg">
  <defs
     id="defs1677">
    <inkscape:path-effect
       effect="powerstroke"
       id="path-effect1505"
       is_visible="true"
       offset_points="0.17067398,0.059501125"
       sort_points="true"
       interpolator_type="CubicBezierJohan"
       interpolator_beta="0.2"
       start_linecap_type="zerowidth"
       linejoin_type="extrp_arc"
       miter_limit="4"
       end_linecap_type="zerowidth" />
    <linearGradient
       inkscape:collect="always"
       id="linearGradient1489">
      <stop
         style="stop-color:#c19206;stop-opacity:1"
         offset="0"
         id="stop1485" />
      <stop
         id="stop1495"
         offset="0.14548008"
         style="stop-color:#f3dd07;stop-opacity:0.99215686;" />
      <stop
         id="stop1493"
         offset="0.89999974"
         style="stop-color:#f3dd07;stop-opacity:0.85882353;" />
      <stop
         style="stop-color:#ffffff;stop-opacity:0.98440981"
         offset="1"
         id="stop1487" />
    </linearGradient>
    <linearGradient
       inkscape:collect="always"
       xlink:href="#linearGradient1489"
       id="linearGradient1491"
       x1="5.8799295"
       y1="293.74435"
       x2="5.8799295"
       y2="288.49747"
       gradientUnits="userSpaceOnUse" />
    <inkscape:path-effect
       effect="powerstroke"
       id="path-effect1031"
       is_visible="true"
       offset_points="0,0.12728589"
       sort_points="true"
       interpolator_type="CubicBezierJohan"
       interpolator_beta="0.2"
       start_linecap_type="zerowidth"
       linejoin_type="extrp_arc"
       miter_limit="4"
       end_linecap_type="zerowidth" />
    <inkscape:path-effect
       effect="powerstroke"
       id="path-effect1031-3"
       is_visible="true"
       offset_points="0.10261312,0.11790686"
       sort_points="true"
       interpolator_type="CubicBezierJohan"
       interpolator_beta="0.2"
       start_linecap_type="zerowidth"
       linejoin_type="extrp_arc"
       miter_limit="4"
       end_linecap_type="zerowidth" />
  </defs>
  <sodipodi:namedview
     id="base"
     pagecolor="#ffffff"
     bordercolor="#666666"
     borderopacity="1.0"
     inkscape:pageopacity="0.0"
     inkscape:pageshadow="2"
     inkscape:zoom="5.6568543"
     inkscape:cx="12.093272"
     inkscape:cy="19.588074"
     inkscape:document-units="mm"
     inkscape:current-layer="layer1"
     showgrid="false"
     units="px"
     inkscape:window-width="2160"
     inkscape:window-height="1356"
     inkscape:window-x="0"
     inkscape:window-y="42"
     inkscape:window-maximized="1"
     inkscape:snap-global="false" />
  <metadata
     id="metadata1680">
    <rdf:RDF>
      <cc:Work
         rdf:about="">
        <dc:format>image/svg+xml</dc:format>
        <dc:type
           rdf:resource="http://purl.org/dc/dcmitype/StillImage" />
        <dc:title></dc:title>
      </cc:Work>
    </rdf:RDF>
  </metadata>
  <g
     inkscape:label="Calque 1"
     inkscape:groupmode="layer"
     id="layer1"
     transform="translate(0,-283.77082)">
    <path
       style="opacity:1;fill:#80c790;fill-opacity:1;stroke:none;stroke-width:0.19299737;stroke-miterlimit:4;stroke-dasharray:none;stroke-opacity:1"
       d="m 12.37754,290.32987 a 5.5857795,5.5857795 0 0 1 -5.58578,5.58579 5.5857795,5.5857795 0 0 1 -5.5857795,-5.58579 5.5857795,5.5857795 0 0 1 5.5857795,-5.58577 5.5857795,5.5857795 0 0 1 5.58578,5.58577 z"
       id="path1497"
       inkscape:connector-curvature="0" />
    <g
       id="g891"
       transform="matrix(1.0376599,0,0,1.0376599,-1.0231382,-22.082437)">
      <g
         transform="matrix(0.66877382,0,0,0.66877382,21.029299,110.14693)"
         id="g897">
        <rect
           style="opacity:1;fill:#4d1800;fill-opacity:1;stroke:none;stroke-width:0.51499999;stroke-linecap:round;stroke-miterlimit:4;stroke-dasharray:none;stroke-opacity:1"
           id="rect884"
           width="1.0523738"
           height="2.0755148"
           x="-18.796566"
           y="280.12109" />
        <path
           style="opacity:1;fill:#804200;fill-opacity:1;stroke:none;stroke-width:0.01747192;stroke-linecap:round;stroke-miterlimit:4;stroke-dasharray:none;stroke-opacity:1"
           d="m -25.803298,286.12967 c -0.02312,-0.0379 -0.02312,-0.11592 0,-0.15367 l 0.01637,-0.0269 h 2.980888 2.980887 v 0.1038 0.1038 h -2.980887 -2.980888 z"
           id="path854"
           inkscape:connector-curvature="0" />
        <path
           style="opacity:1;fill:#409903;fill-opacity:0.98886414;stroke:none;stroke-width:0.03372955;stroke-linecap:round;stroke-miterlimit:4;stroke-dasharray:none;stroke-opacity:0.99215686"
           d="m -24.928456,285.54155 c 0.02357,-0.0465 0.07742,-0.0985 0.132575,-0.12829 0.04161,-0.0224 0.289014,-0.079 0.355643,-0.079 0.280283,0.0884 0.308448,0.16639 0.414144,-0.0481 0.02169,-0.12406 0.05729,-0.2094 0.119942,-0.2875 0.100568,-0.12536 0.207764,-0.18062 0.350943,-0.18092 0.0999,-2.2e-4 0.173105,0.0234 0.249427,0.0802 0.06606,0.0493 0.13989,0.14131 0.176091,0.21951 0.05278,0.11401 0.12315,0.16651 0.224847,0.16771 0.07187,8.5e-4 0.120522,-0.0219 0.173783,-0.0811 0.04545,-0.0506 0.06288,-0.1 0.07438,-0.21062 0.03077,-0.29611 0.173766,-0.53033 0.397842,-0.65165 0.112653,-0.061 0.180078,-0.0782 0.30554,-0.0776 0.07821,3.1e-4 0.122187,0.006 0.173531,0.0217 0.199626,0.0616 0.366102,0.21807 0.455657,0.42821 0.04561,0.10703 0.062,0.1757 0.07431,0.31143 0.01135,0.12514 0.0188,0.15285 0.05631,0.20937 0.359352,-0.12344 0.56027,0.0113 0.825356,0.13664 0.04875,0.0527 0.112773,0.15948 0.112773,0.18822 0,0.0103 -0.418506,0.0132 -2.344431,0.0132 h -2.344429 z"
           id="path1027"
           inkscape:connector-curvature="0"
           sodipodi:nodetypes="ccccccccccccccccccsscc" />
        <path
           style="fill:#83fc30;fill-opacity:0.99215686;fill-rule:nonzero;stroke:none;stroke-width:0.25197881px;stroke-linecap:butt;stroke-linejoin:miter;stroke-opacity:1"
           d="m -21.803946,284.38292 c 0,0 -0.01879,-0.12589 -0.01879,-0.12589 0.03889,-0.006 -0.150816,0.0269 -0.37173,0.13366 -0.09197,0.0445 -0.19688,0.10589 -0.288214,0.18847 -0.08785,0.0794 -0.163535,0.1788 -0.202564,0.30108 -0.176639,0.56338 -0.07946,0.68774 -0.07946,0.68774 0,0 -0.03024,-0.13268 0.198524,-0.64274 0.04118,-0.0902 0.109649,-0.16084 0.188487,-0.21651 0.08284,-0.0585 0.176944,-0.10025 0.261832,-0.12945 0.220218,-0.0758 0.334912,-0.0711 0.330704,-0.0705 0,0 -0.01879,-0.12589 -0.01879,-0.12589 z"
           id="path1029"
           inkscape:connector-curvature="0"
           inkscape:path-effect="#path-effect1031"
           inkscape:original-d="m -21.803946,284.38292 c 0,0 -0.662656,0.0989 -0.821765,0.51982 -0.159108,0.42089 -0.138993,0.66524 -0.138993,0.66524"
           sodipodi:nodetypes="ccc" />
        <path
           style="opacity:1;fill:#d6b29c;fill-opacity:1;stroke:#b4c96e;stroke-width:0.08881673;stroke-linecap:round;stroke-miterlimit:4;stroke-dasharray:none;stroke-opacity:0.99215686"
           d="m -23.75167,289.12531 c -0.733519,-0.10146 -1.358487,-0.66139 -1.542879,-1.38234 -0.03971,-0.15527 -0.04759,-0.27315 -0.04759,-0.71228 v -0.5262 h 2.72475 2.72475 v 0.48187 c 0,0.59766 -0.03033,0.76625 -0.201392,1.11952 -0.10849,0.22404 -0.152417,0.28493 -0.337996,0.46851 -0.222379,0.21998 -0.391763,0.3348 -0.644482,0.43687 -0.298113,0.12042 -0.439019,0.13197 -1.561543,0.12797 -0.571806,-0.002 -1.072935,-0.008 -1.113622,-0.0139 z"
           id="path1025"
           inkscape:connector-curvature="0" />
        <path
           style="fill:#83fc30;fill-opacity:0.99215686;fill-rule:nonzero;stroke:none;stroke-width:0.1484631px;stroke-linecap:butt;stroke-linejoin:miter;stroke-opacity:1"
           d="m -23.319291,284.84904 c 0,0 -0.0094,-0.11795 -0.01569,-0.11784 -0.01269,2.2e-4 -0.125195,0.008 -0.256046,0.0575 -0.06629,0.0249 -0.144432,0.0634 -0.212657,0.12335 -0.06495,0.057 -0.119707,0.13246 -0.147066,0.23096 -0.05646,0.17075 -0.108565,0.26077 -0.142004,0.30794 -0.04356,0.0615 -0.06071,0.0674 -0.06071,0.0674 0,0 0.02108,0.0197 0.09546,-0.0312 0.05624,-0.0386 0.13699,-0.12211 0.224822,-0.29929 0.03139,-0.07 0.07838,-0.11435 0.12874,-0.14503 0.05443,-0.0332 0.115624,-0.0519 0.169979,-0.0625 0.101273,-0.0198 0.203585,-0.0133 0.203631,-0.0133 0.0055,-9e-5 0.01154,-0.11793 0.01154,-0.11793 z"
           id="path1029-6"
           inkscape:connector-curvature="0"
           inkscape:path-effect="#path-effect1031-3"
           inkscape:original-d="m -23.319291,284.84904 c 0,0 -0.458531,-0.0104 -0.572041,0.31472 -0.14128,0.34125 -0.262135,0.35461 -0.262135,0.35461"
           sodipodi:nodetypes="ccc" />
        <path
           style="opacity:1;fill:#450027;fill-opacity:1;stroke:none;stroke-width:0.02342236;stroke-linecap:round;stroke-miterlimit:4;stroke-dasharray:none;stroke-opacity:1"
           d="m -19.571736,289.41804 c -0.01115,-0.0111 -0.01444,-0.61661 -0.01444,-2.65203 0,-2.35608 0.002,-2.64829 0.01905,-2.73803 0.02416,-0.12736 0.05563,-0.21995 0.116041,-0.34141 0.07011,-0.14098 0.13552,-0.22643 0.302692,-0.39543 0.0822,-0.0831 0.185216,-0.19869 0.228932,-0.25688 0.09473,-0.1261 0.231146,-0.39157 0.272377,-0.53008 l 0.02958,-0.0994 0.334366,0.003 0.334367,0.003 0.04109,0.12247 c 0.06188,0.18446 0.16161,0.37122 0.28159,0.52733 0.03053,0.0398 0.128698,0.148 0.218171,0.24066 0.232869,0.24116 0.336262,0.4103 0.406726,0.66538 l 0.03227,0.11679 0.0031,2.65794 c 0.0023,1.96996 -3.8e-4,2.66221 -0.0105,2.67441 -0.01891,0.0228 -2.572728,0.0248 -2.595477,0.002 z"
           id="path874"
           inkscape:connector-curvature="0" />
        <g
           transform="translate(-96.167395,119.37494)"
           id="layer1-0"
           inkscape:label="Capa 1">
          <g
             style="display:inline;stroke:#000000;stroke-width:0.29281661;stroke-miterlimit:4;stroke-dasharray:none;stroke-opacity:1"
             transform="matrix(0.70692714,0,0,0.70692714,-96.595415,326.0733)"
             id="g10318">
            <path
               inkscape:connector-curvature="0"
               d="m 245.25883,-229.5703 c -0.46383,0.43069 -0.72888,1.04362 -0.72888,1.68967 v 6.99062 c 0,0.31474 0.24848,0.56322 0.56322,0.56322 h 3.46218 c 0.31474,0 0.56322,-0.24848 0.56322,-0.56322 v -7.00719 c 0,-0.66261 -0.28161,-1.27553 -0.77857,-1.7228 -0.4307,-0.38101 -0.67918,-0.94423 -0.67918,-1.52402 v -1.4412 c 0.14909,-0.0497 0.24848,-0.18222 0.24848,-0.34787 v -0.76201 c 0,-0.19879 -0.16566,-0.36444 -0.36444,-0.36444 h -1.44119 c -0.19879,0 -0.36445,0.16565 -0.36445,0.36444 v 0.76201 c 0,0.14909 0.0828,0.26505 0.19879,0.33131 v 1.54059 c 0,0.54665 -0.23191,1.07675 -0.67918,1.49089 z m 2.86582,0.21535 c 0.41413,0.381 0.66262,0.9111 0.66262,1.47432 v 6.99062 c 0,0.13252 -0.0994,0.23191 -0.23192,0.23191 h -3.46218 c -0.13252,0 -0.23192,-0.0994 -0.23192,-0.23191 v -7.00719 c 0,-0.54665 0.21536,-1.06018 0.62949,-1.44119 0.39757,-0.36444 0.64605,-0.8117 0.74545,-1.2921 h 1.15958 c 0.0994,0.4804 0.34787,0.92766 0.72888,1.27554 z m -0.77858,-1.60685 h -1.07675 c 0,-0.0331 0,-0.0663 0,-0.0994 v -1.50746 h 1.06018 v 1.4412 c 0,0.0497 0.0166,0.11595 0.0166,0.16565 z m -1.27554,-2.7333 c 0,-0.0166 0.0166,-0.0331 0.0331,-0.0331 h 1.45776 c 0.0166,0 0.0331,0.0166 0.0331,0.0331 v 0.76201 c 0,0.0166 -0.0166,0.0331 -0.0331,0.0331 h -0.0497 -1.40807 v 0 c -0.0166,0 -0.0331,-0.0166 -0.0331,-0.0331 z"
               id="path40-80"
               style="stroke:#000000;stroke-width:0.29281661;stroke-miterlimit:4;stroke-dasharray:none;stroke-opacity:1" />
            <path
               inkscape:connector-curvature="0"
               d="m 244.62076,-226.01776 -0.2786,-0.008 c -0.0132,-0.31394 -0.13452,-0.55796 -0.34289,-0.75302 -0.21208,-0.19857 -0.48877,-0.30755 -0.77919,-0.29786 -0.0946,0.003 -0.18836,0.0163 -0.27849,0.0435 -0.0567,-0.29978 -0.20635,-0.57423 -0.43323,-0.78664 -0.28265,-0.26456 -0.65128,-0.40354 -1.03811,-0.39099 -0.60946,0.0201 -1.1191,0.40652 -1.31501,0.95139 -0.21699,-0.20337 -0.50911,-0.3183 -0.81836,-0.30798 -0.47196,0.0155 -0.87689,0.32117 -1.03385,0.7478 -0.13622,-0.0689 -0.2884,-0.0929 -0.44558,-0.0878 -0.48186,0.0158 -0.86634,0.3715 -0.89306,0.88167 h -0.50006 c -0.31382,0 -0.56912,0.2553 -0.56912,0.56913 0,0.31382 0.2553,0.56912 0.56912,0.56912 h 0.0338 v 1.20359 c 0,1.14112 0.62787,2.13539 1.56807,2.64268 h -1.13665 c -0.0976,0 -0.17666,0.0791 -0.17666,0.17666 0,0.0976 0.0791,0.17665 0.17666,0.17665 h 2.38994 c 0.0551,0.003 0.11067,0.005 0.16654,0.005 0.0237,0 2.37898,0 2.38824,-1e-4 1.64054,-0.014 2.98312,-1.36003 2.98312,-3.001 v -1.20359 h -0.17875 c -0.31383,0 0.0731,-0.2553 0.0731,-0.56912 -0.0632,-0.38784 0.18491,-0.55036 -0.13099,-0.56074 z m -6.75192,-0.53704 c 0.15825,-0.005 0.30798,0.0488 0.42131,0.16133 0.0484,0.048 0.12004,0.0614 0.18411,0.0383 0.0642,-0.0231 0.10929,-0.0821 0.11599,-0.14994 0.0389,-0.39098 0.3648,-0.6963 0.75812,-0.70928 0.31585,-0.0102 0.60531,0.16697 0.73961,0.45228 0.0344,0.0731 0.11408,0.11344 0.19347,0.098 0.0794,-0.0153 0.13834,-0.0827 0.14292,-0.16335 0.0326,-0.56913 0.48771,-1.01257 1.05812,-1.03141 0.29307,-0.01 0.57231,0.0951 0.786,0.2952 0.21369,0.20007 0.33852,0.47133 0.3482,0.76388 1.1e-4,0.004 0.004,0.008 0.004,0.0117 v 0.0122 c 0,0.0632 0.0315,0.12132 0.0866,0.15217 0.0551,0.031 0.11897,0.03 0.17335,-0.002 0.1061,-0.0633 0.22763,-0.099 0.35129,-0.10301 0.19613,-0.007 0.38289,0.0735 0.52613,0.20762 0.13664,0.12792 0.2172,0.29893 0.22997,0.49517 h -6.66925 c 0.0261,-0.31383 0.25934,-0.51901 0.55029,-0.52858 z m 6.63539,2.87042 c 0,1.44771 -1.1855,2.63534 -2.63204,2.64737 -0.0244,1e-4 -2.05866,1e-4 -2.34791,1e-4 -0.0128,-0.003 -0.0299,-0.005 -0.0436,-0.005 h -0.14898 c -1.38823,-0.0802 -2.48061,-1.23455 -2.48061,-2.64257 v -1.20359 h 7.65317 z m -0.17043,-1.55679 h 0.50787 -8.35628 -0.0213 c -0.11897,0 -0.21581,-0.0968 -0.21581,-0.21582 0,-0.11897 0.0968,-0.21581 0.21581,-0.21581 h 7.86968 c 0.11898,0 0.3855,0.0164 0.40186,0.18333 0.024,0.2444 -0.28284,0.2483 -0.40186,0.2483 z"
               id="path54"
               style="stroke:#000000;stroke-width:0.29281661;stroke-miterlimit:4;stroke-dasharray:none;stroke-opacity:1"
               sodipodi:nodetypes="ccccccccccccssscscssscscscscccccccccccccsscccccccccccscsccccccssssscc" />
          </g>
        </g>
      </g>
      <path
         sodipodi:nodetypes="cccccccccccccccccccccccccccsccccc"
         inkscape:connector-curvature="0"
         id="path1566"
         d="m 7.237796,304.1278 c -0.3584861,-0.011 -0.6110971,-0.0313 -0.7139062,-0.0571 -0.05907,-0.0148 -0.08645,-0.0431 -0.117439,-0.12138 -0.03338,-0.0843 -0.1556388,-0.22342 -0.15504,-0.33592 8.466e-4,-0.15825 0.07057,-0.36331 0.1384062,-0.53103 0.05354,-0.13232 0.1398748,-0.21832 0.234043,-0.33407 0.1481568,-0.18213 0.3255978,-0.18716 0.3768338,-0.18676 0.05287,3.9e-4 0.1094722,0.0521 0.1405941,0.1284 0.04473,0.10965 0.06757,0.24576 0.1141841,0.6803 0.01977,0.18405 0.0373,0.33633 0.03898,0.33841 0.00169,0.002 0.006,-0.006 0.0096,-0.017 0.09192,-0.26797 0.1297749,-0.36149 0.1711571,-0.48471 0.1210058,-0.3499 0.154941,-0.43709 0.2088949,-0.53682 0.1354079,-0.25024 0.338669,-0.41813 0.4328982,-0.35757 0.049234,0.0316 0.081562,0.10296 0.093488,0.20621 0.00909,0.0786 0.00442,0.14652 -0.022008,0.31869 -0.041479,0.27097 -0.041346,0.42934 4.233e-4,0.5395 0.026146,0.069 0.05292,0.0919 0.1013741,0.0868 0.095327,-0.0101 0.1884841,-0.17576 0.2848191,-0.50644 0.053398,-0.18331 0.085779,-0.2685 0.1404562,-0.36955 0.079925,-0.14772 0.198006,-0.26462 0.2857058,-0.28286 0.1401591,-0.0291 0.2076458,0.18576 0.1543461,0.49142 -0.039839,0.22844 -0.043679,0.45564 -0.00965,0.56873 0.043908,0.12025 0.067961,0.12415 0.1740077,0.11323 0.072746,-0.0446 0.1463011,-0.18635 0.2093989,-0.4035 0.072578,-0.24977 0.1781038,-0.45795 0.2632708,-0.51935 0.026358,-0.019 0.035834,-0.0213 0.067594,-0.0164 0.088479,0.0137 0.2706958,0.0229 0.3845778,0.1625 0.122427,0.15006 0.315804,0.35597 0.396178,0.55854 0.08408,0.21193 0.05504,0.36591 0.03019,0.51404 -0.05102,0.30393 -0.328937,0.29785 -1.7677225,0.34082 -0.5399532,0.0161 -1.3558271,0.0224 -1.6656222,0.0129 z"
         style="opacity:1;fill:#c57f36;fill-opacity:1;stroke:#eda61b;stroke-width:0.10010265;stroke-linecap:round;stroke-miterlimit:4;stroke-dasharray:none;stroke-opacity:1" />
      <path
         inkscape:connector-curvature="0"
         id="path1564"
         d="m 6.3940548,304.29784 c -0.7813309,-0.3144 -0.5266959,-1.39884 0.452715,-1.92803 0.6794021,-0.3671 2.5844823,-0.3671 3.2638892,0 1.008661,0.545 1.233853,1.62137 0.405135,1.93646 -0.479707,0.18237 -3.6637132,0.17587 -4.1217392,-0.008 z m 4.1832052,-0.70932 c 0.04703,-0.33048 -0.43457,-0.95899 -0.7348295,-0.95899 -0.085636,0 -0.2222553,0.17505 -0.3035975,0.389 -0.1832247,0.48191 -0.4880239,0.33783 -0.3604675,-0.1704 0.1412189,-0.56266 -0.3712562,-0.4862 -0.5704126,0.0851 -0.1841854,0.52834 -0.5022413,0.4482 -0.3665701,-0.0924 0.1458007,-0.58091 -0.4094859,-0.47205 -0.6658309,0.13052 l -0.2100749,0.49382 -0.06124,-0.41784 c -0.07274,-0.49627 -0.237567,-0.52522 -0.6488269,-0.11396 -0.303158,0.30316 -0.398282,0.7666 -0.1983851,0.96651 0.05802,0.058 0.9981692,0.0865 2.0892051,0.0633 1.9098699,-0.0406 1.9854629,-0.0546 2.0310309,-0.3747 z"
         style="fill:#060606;fill-opacity:1;stroke-width:0.15194201" />
      <path
         sodipodi:nodetypes="cccccccccccccccscccccccccccccccc"
         inkscape:connector-curvature="0"
         id="path1520-6"
         d="m 8.1240721,302.42688 c -0.063511,-0.003 -0.1411193,0.0265 -0.2203472,0.0846 0.2122591,-0.13146 0.3895572,-0.0199 0.2978005,0.38883 -0.1401204,0.62419 0.1883585,0.71669 0.3785955,0.10661 0.011202,-0.0359 0.023775,-0.0694 0.036739,-0.10193 -0.1843574,0.52469 -0.5008501,0.44395 -0.3654634,-0.0955 0.063787,-0.25414 -0.00646,-0.37608 -0.1273114,-0.3826 z m 0.9552752,0.006 c -0.134956,-0.0171 -0.3390871,0.14046 -0.4529304,0.44714 0.2283626,-0.54126 0.6784673,-0.5773 0.5430721,0.0274 0.00474,-0.0289 0.01094,-0.0593 0.018907,-0.091 0.061784,-0.24616 -0.00169,-0.3699 -0.109062,-0.38348 z m 0.090142,0.47452 c -5.16e-5,2.3e-4 -1.119e-4,4.2e-4 -2.278e-4,10e-4 -0.1317434,0.58686 0.1831168,0.75322 0.3723632,0.19676 0.084017,-0.24705 0.2251536,-0.44915 0.3136025,-0.44915 0.047825,-0.0143 0.2349608,0.0413 -0.00259,-0.0579 -0.085636,0 -0.2222465,0.17511 -0.3035887,0.38905 -0.1717728,0.4518 -0.450428,0.35337 -0.3794829,-0.0795 z m -2.0928364,-0.29046 c -0.06295,0.006 -0.1418609,0.051 -0.2361499,0.12687 0.227902,-0.15982 0.3370419,-0.0329 0.3930629,0.39439 l 0.06321,0.48254 0.0848,-0.19075 -0.06721,-0.41443 c -0.04092,-0.27914 -0.1110429,-0.41037 -0.237704,-0.39862 z M 6.821139,302.7585 c -0.0053,0.004 -0.0099,0.007 -0.01538,0.012 0.0051,-0.004 0.01034,-0.008 0.01538,-0.012 z"
         style="fill:#803300;stroke-width:0.16593203" />
    </g>
  </g>
</svg>
