<?xml version="1.0" encoding="UTF-8" standalone="no"?>
<!-- Created with Inkscape (http://www.inkscape.org/) -->

<svg
   xmlns:dc="http://purl.org/dc/elements/1.1/"
   xmlns:cc="http://creativecommons.org/ns#"
   xmlns:rdf="http://www.w3.org/1999/02/22-rdf-syntax-ns#"
   xmlns:svg="http://www.w3.org/2000/svg"
   xmlns="http://www.w3.org/2000/svg"
   xmlns:xlink="http://www.w3.org/1999/xlink"
   xmlns:sodipodi="http://sodipodi.sourceforge.net/DTD/sodipodi-0.dtd"
   xmlns:inkscape="http://www.inkscape.org/namespaces/inkscape"
   width="50"
   height="50"
   viewBox="0 0 13.229166 13.229167"
   version="1.1"
   id="svg1683"
   inkscape:version="0.92.2 (5c3e80d, 2017-08-06)"
   sodipodi:docname="icon_accessories.svg">
  <defs
     id="defs1677">
    <inkscape:path-effect
       effect="powerstroke"
       id="path-effect1721"
       is_visible="true"
       offset_points="0,0.13229166"
       sort_points="true"
       interpolator_type="CubicBezierJohan"
       interpolator_beta="0.2"
       start_linecap_type="zerowidth"
       linejoin_type="extrp_arc"
       miter_limit="4"
       end_linecap_type="zerowidth" />
    <inkscape:path-effect
       effect="powerstroke"
       id="path-effect1717"
       is_visible="true"
       offset_points="0,0.13229166"
       sort_points="true"
       interpolator_type="CubicBezierJohan"
       interpolator_beta="0.2"
       start_linecap_type="zerowidth"
       linejoin_type="extrp_arc"
       miter_limit="4"
       end_linecap_type="zerowidth" />
    <inkscape:path-effect
       effect="powerstroke"
       id="path-effect1713"
       is_visible="true"
       offset_points="0,0.13229166"
       sort_points="true"
       interpolator_type="CubicBezierJohan"
       interpolator_beta="0.2"
       start_linecap_type="zerowidth"
       linejoin_type="extrp_arc"
       miter_limit="4"
       end_linecap_type="zerowidth" />
    <inkscape:path-effect
       effect="powerstroke"
       id="path-effect1505"
       is_visible="true"
       offset_points="0.17067398,0.059501125"
       sort_points="true"
       interpolator_type="CubicBezierJohan"
       interpolator_beta="0.2"
       start_linecap_type="zerowidth"
       linejoin_type="extrp_arc"
       miter_limit="4"
       end_linecap_type="zerowidth" />
    <linearGradient
       inkscape:collect="always"
       id="linearGradient1489">
      <stop
         style="stop-color:#c19206;stop-opacity:1"
         offset="0"
         id="stop1485" />
      <stop
         id="stop1495"
         offset="0.14548008"
         style="stop-color:#f3dd07;stop-opacity:0.99215686;" />
      <stop
         id="stop1493"
         offset="0.89999974"
         style="stop-color:#f3dd07;stop-opacity:0.85882353;" />
      <stop
         style="stop-color:#ffffff;stop-opacity:0.98440981"
         offset="1"
         id="stop1487" />
    </linearGradient>
    <linearGradient
       inkscape:collect="always"
       xlink:href="#linearGradient1489"
       id="linearGradient1491"
       x1="5.8799295"
       y1="293.74435"
       x2="5.8799295"
       y2="288.49747"
       gradientUnits="userSpaceOnUse" />
    <radialGradient
       inkscape:collect="always"
       xlink:href="#linearGradient1438"
       id="radialGradient1440"
       cx="-182.68631"
       cy="9.8998499"
       fx="-182.68631"
       fy="9.8998499"
       r="0.51261503"
       gradientTransform="matrix(1.7576903,0.01260132,-0.08241633,11.495764,139.23538,-101.49863)"
       gradientUnits="userSpaceOnUse" />
    <linearGradient
       inkscape:collect="always"
       id="linearGradient1438">
      <stop
         style="stop-color:#5a2d00;stop-opacity:1"
         offset="0"
         id="stop1434" />
      <stop
         id="stop1444"
         offset="0.55184513"
         style="stop-color:#a75d2d;stop-opacity:1" />
      <stop
         style="stop-color:#a05a2c;stop-opacity:1"
         offset="1"
         id="stop1436" />
    </linearGradient>
    <radialGradient
       inkscape:collect="always"
       xlink:href="#linearGradient1450"
       id="radialGradient1452"
       cx="-182.3499"
       cy="9.2057781"
       fx="-182.3499"
       fy="9.2057781"
       r="1.72393"
       gradientTransform="matrix(0.91612248,0.0027095,-0.00852206,2.8814339,-14.756645,-15.393744)"
       gradientUnits="userSpaceOnUse" />
    <linearGradient
       inkscape:collect="always"
       id="linearGradient1450">
      <stop
         style="stop-color:#442d16;stop-opacity:1"
         offset="0"
         id="stop1446" />
      <stop
         id="stop1454"
         offset="0.45111889"
         style="stop-color:#6c3d1d;stop-opacity:0.97647059" />
      <stop
         style="stop-color:#99572a;stop-opacity:0.96470588"
         offset="1"
         id="stop1448" />
    </linearGradient>
    <inkscape:path-effect
       end_linecap_type="zerowidth"
       miter_limit="4"
       linejoin_type="extrp_arc"
       start_linecap_type="zerowidth"
       interpolator_beta="0.2"
       interpolator_type="CubicBezierJohan"
       sort_points="true"
       offset_points="0,0.13229166"
       is_visible="true"
       id="path-effect1721-7"
       effect="powerstroke" />
    <inkscape:path-effect
       end_linecap_type="zerowidth"
       miter_limit="4"
       linejoin_type="extrp_arc"
       start_linecap_type="zerowidth"
       interpolator_beta="0.2"
       interpolator_type="CubicBezierJohan"
       sort_points="true"
       offset_points="0,0.13229166"
       is_visible="true"
       id="path-effect1717-5"
       effect="powerstroke" />
    <inkscape:path-effect
       end_linecap_type="zerowidth"
       miter_limit="4"
       linejoin_type="extrp_arc"
       start_linecap_type="zerowidth"
       interpolator_beta="0.2"
       interpolator_type="CubicBezierJohan"
       sort_points="true"
       offset_points="0,0.13229166"
       is_visible="true"
       id="path-effect1713-3"
       effect="powerstroke" />
    <inkscape:path-effect
       end_linecap_type="zerowidth"
       miter_limit="4"
       linejoin_type="extrp_arc"
       start_linecap_type="zerowidth"
       interpolator_beta="0.2"
       interpolator_type="CubicBezierJohan"
       sort_points="true"
       offset_points="0.17067398,0.059501125"
       is_visible="true"
       id="path-effect1505-5"
       effect="powerstroke" />
    <radialGradient
       gradientUnits="userSpaceOnUse"
       gradientTransform="matrix(1.7576903,0.01260132,-0.08241633,11.495764,139.23538,-101.49863)"
       r="0.51261503"
       fy="9.8998499"
       fx="-182.68631"
       cy="9.8998499"
       cx="-182.68631"
       id="radialGradient1440-2"
       xlink:href="#linearGradient1438"
       inkscape:collect="always" />
    <radialGradient
       gradientUnits="userSpaceOnUse"
       gradientTransform="matrix(0.91612248,0.0027095,-0.00852206,2.8814339,-14.756645,-15.393744)"
       r="1.72393"
       fy="9.2057781"
       fx="-182.3499"
       cy="9.2057781"
       cx="-182.3499"
       id="radialGradient1452-3"
       xlink:href="#linearGradient1450"
       inkscape:collect="always" />
  </defs>
  <sodipodi:namedview
     id="base"
     pagecolor="#ffffff"
     bordercolor="#666666"
     borderopacity="1.0"
     inkscape:pageopacity="0.0"
     inkscape:pageshadow="2"
     inkscape:zoom="8.0000004"
     inkscape:cx="9.9239203"
     inkscape:cy="25.102671"
     inkscape:document-units="mm"
     inkscape:current-layer="g1701"
     showgrid="false"
     units="px"
     inkscape:window-width="2160"
     inkscape:window-height="1356"
     inkscape:window-x="0"
     inkscape:window-y="42"
     inkscape:window-maximized="1"
     inkscape:snap-global="false" />
  <metadata
     id="metadata1680">
    <rdf:RDF>
      <cc:Work
         rdf:about="">
        <dc:format>image/svg+xml</dc:format>
        <dc:type
           rdf:resource="http://purl.org/dc/dcmitype/StillImage" />
        <dc:title></dc:title>
      </cc:Work>
    </rdf:RDF>
  </metadata>
  <g
     inkscape:label="Calque 1"
     inkscape:groupmode="layer"
     id="layer1"
     transform="translate(0,-283.77082)">
    <g
       id="g1701"
       transform="matrix(1.5703751,0,0,1.5703751,303.39895,279.41861)">
      <g
         id="g2076"
         transform="matrix(0.74891314,0,0,0.74891314,-142.08103,46.631539)">
        <g
           transform="translate(-22.489583,28.045833)"
           id="g2047">
          <path
             inkscape:connector-curvature="0"
             id="path1949"
             d="m -38.830537,-84.301245 -0.01137,0.0021 c -0.0895,0.0075 -0.126288,0.03569 -0.181901,0.06615 -0.05561,0.03045 -0.117253,0.06934 -0.183452,0.113689 -0.132392,0.0887 -0.28607,0.201083 -0.439766,0.312124 -0.153694,0.11104 -0.30792,0.219273 -0.42943,0.29714 -0.06076,0.03893 -0.113432,0.0697 -0.150378,0.08785 -0.0098,0.0048 -0.01466,0.0054 -0.02222,0.0078 -0.0067,-0.0027 -0.01049,-0.0032 -0.0186,-0.0078 -0.03525,-0.01985 -0.08543,-0.0532 -0.142627,-0.09405 -0.11439,-0.0817 -0.258791,-0.195524 -0.404627,-0.308507 -0.145836,-0.112985 -0.292592,-0.225483 -0.425813,-0.312642 -0.06661,-0.04358 -0.130685,-0.08055 -0.19327,-0.109037 -0.06259,-0.02848 -0.121658,-0.0568 -0.22066,-0.04289 -0.141176,0.01983 -0.222509,0.09463 -0.318325,0.183452 -0.09582,0.08882 -0.193281,0.202517 -0.293005,0.33021 -0.199451,0.255389 -0.401587,0.568121 -0.548804,0.847495 -0.16701,0.316934 -0.326689,0.914678 -0.463021,1.460892 -0.0028,0.01128 -0.0024,0.0085 -0.0052,0.01964 -0.323353,0.143229 -0.597583,0.308332 -0.801502,0.50178 -0.235641,0.223527 -0.382924,0.491429 -0.382924,0.778764 0,0.287337 0.147283,0.55368 0.382924,0.777213 0.235638,0.223531 0.560861,0.412684 0.952912,0.569989 0.784106,0.314611 1.841799,0.501261 3.008085,0.501261 1.166292,0 2.223463,-0.18665 3.007569,-0.501261 0.392054,-0.157305 0.715724,-0.346458 0.951364,-0.569989 0.235639,-0.223533 0.384472,-0.489876 0.384472,-0.777213 0,-0.287335 -0.148833,-0.555237 -0.384472,-0.778764 -0.23564,-0.223536 -0.55931,-0.411136 -0.951364,-0.568442 -0.02703,-0.01085 -0.05643,-0.02054 -0.08423,-0.03101 -0.06376,-0.379942 -0.128834,-0.749324 -0.179317,-0.917774 -0.05236,-0.174715 -0.208737,-0.593066 -0.444933,-0.99632 -0.1181,-0.201628 -0.255469,-0.398934 -0.415997,-0.55449 -0.160528,-0.155554 -0.351838,-0.276736 -0.57826,-0.285253 z m 0.0098,0.386538 c 0.0903,0.007 0.198432,0.05997 0.316259,0.174151 0.122102,0.118316 0.244821,0.289478 0.351917,0.472321 0.214193,0.365689 0.371689,0.785291 0.41031,0.914157 0.02312,0.07714 0.07636,0.361579 0.13126,0.670761 -8.52e-4,-2.54e-4 -0.0017,-2.65e-4 -0.0026,-5.19e-4 0.01027,0.04914 0.0219,0.11798 0.03256,0.172601 0.012,0.06974 0.02431,0.133548 0.03566,0.202054 0.01656,0.09994 0.03047,0.217345 0.04651,0.33228 -0.01773,0.01753 -0.03458,0.03502 -0.05736,0.05323 -0.13284,0.106162 -0.343705,0.214106 -0.606166,0.302824 -0.52492,0.177427 -1.26293,0.287837 -2.076876,0.287837 -0.81394,0 -1.549371,-0.110423 -2.074291,-0.287837 -0.185251,-0.06261 -0.343056,-0.134895 -0.467672,-0.209288 -0.0019,-0.196072 0.0092,-0.389374 0.04806,-0.545187 0.134355,-0.538293 0.151082,-0.992966 0.266134,-1.211297 0.134844,-0.255889 0.317013,-0.723112 0.49971,-0.957046 0.09135,-0.116969 0.181737,-0.215971 0.254249,-0.283189 0.05622,-0.05212 0.09489,-0.07264 0.102836,-0.0801 0.0063,0.0015 0.01025,0.0017 0.02015,0.0062 0.03348,0.01524 0.08335,0.04474 0.14056,0.08216 0.114435,0.07487 0.258373,0.18285 0.402561,0.294558 0.144187,0.111704 0.289552,0.226464 0.415993,0.316775 0.06322,0.04515 0.122066,0.08387 0.177769,0.115239 0.0557,0.03136 0.09728,0.06239 0.191203,0.06615 0.09825,0.0039 0.144249,-0.02588 0.203087,-0.05478 0.05884,-0.0289 0.119964,-0.0657 0.187587,-0.109037 0.135244,-0.08667 0.292473,-0.198933 0.447,-0.310576 0.154527,-0.111641 0.307861,-0.223094 0.429948,-0.30489 0.06104,-0.0409 0.11398,-0.07454 0.152445,-0.0956 0.02541,-0.01392 0.01968,-0.01244 0.02119,-0.01395 z m 1.694987,2.821016 c 0.277641,0.126468 0.50311,0.268103 0.656291,0.413412 0.182546,0.173167 0.265616,0.342664 0.265616,0.513149 0,0.170481 -0.08307,0.338428 -0.265616,0.511595 -0.182547,0.173167 -0.462855,0.342525 -0.818555,0.485241 -0.711401,0.285438 -1.71971,0.468706 -2.835487,0.468706 -1.115774,0 -2.124601,-0.183268 -2.836002,-0.468706 -0.355701,-0.142716 -0.636008,-0.312074 -0.818555,-0.485241 -0.182544,-0.173167 -0.267684,-0.341114 -0.267684,-0.511595 0,-0.170485 0.08514,-0.339982 0.267684,-0.513149 0.09977,-0.09464 0.221345,-0.190228 0.366903,-0.28112 -0.0343,0.126907 -0.08138,0.307255 -0.09922,0.375687 -0.0024,0.0069 -0.0036,0.01418 -0.0057,0.02119 -0.0016,0.0063 -0.0124,0.04806 -0.0124,0.04806 l 0.0041,0.0036 c -0.0049,0.02693 -0.01292,0.0528 -0.01292,0.08113 0,0.205793 0.133975,0.375423 0.314709,0.504362 0.180737,0.128934 0.422963,0.233921 0.714684,0.321943 0.583446,0.176045 1.369063,0.279569 2.238108,0.279569 0.869045,0 1.656728,-0.103524 2.240174,-0.279569 0.291722,-0.08802 0.532397,-0.193009 0.713134,-0.321943 0.180735,-0.128939 0.314193,-0.298569 0.314193,-0.504362 0,-0.07177 -0.0208,-0.137287 -0.04961,-0.199988 -0.01337,-0.08367 -0.04099,-0.256013 -0.0739,-0.461989 z m -0.310058,0.579811 c 0.01332,0.109704 0.01799,0.15173 0.02532,0.213423 -0.02604,0.02911 -0.05809,0.05977 -0.105421,0.09353 -0.132641,0.09462 -0.344257,0.190249 -0.61288,0.271304 -0.537253,0.162108 -1.299877,0.267682 -2.140956,0.267682 -0.841079,0 -1.601121,-0.105574 -2.13837,-0.267682 -0.114181,-0.03445 -0.212461,-0.07258 -0.304893,-0.111107 -0.01322,-0.08727 -0.02163,-0.126169 -0.03824,-0.285768 0.113414,0.05737 0.240154,0.109537 0.380857,0.157096 0.551847,0.186537 1.301985,0.299207 2.131134,0.299204 0.829154,0 1.581872,-0.112662 2.133722,-0.299204 0.275923,-0.09326 0.500951,-0.203504 0.669208,-0.337965 0,0 5.18e-4,-5.16e-4 5.18e-4,-5.16e-4 z"
             style="color:#000000;font-style:normal;font-variant:normal;font-weight:normal;font-stretch:normal;font-size:medium;line-height:normal;font-family:sans-serif;font-variant-ligatures:normal;font-variant-position:normal;font-variant-caps:normal;font-variant-numeric:normal;font-variant-alternates:normal;font-feature-settings:normal;text-indent:0;text-align:start;text-decoration:none;text-decoration-line:none;text-decoration-style:solid;text-decoration-color:#000000;letter-spacing:normal;word-spacing:normal;text-transform:none;writing-mode:lr-tb;direction:ltr;text-orientation:mixed;dominant-baseline:auto;baseline-shift:baseline;text-anchor:start;white-space:normal;shape-padding:0;clip-rule:nonzero;display:inline;overflow:visible;visibility:visible;opacity:1;isolation:auto;mix-blend-mode:normal;color-interpolation:sRGB;color-interpolation-filters:linearRGB;solid-color:#000000;solid-opacity:1;vector-effect:none;fill:#000000;fill-opacity:1;fill-rule:nonzero;stroke:none;stroke-width:0.38011107;stroke-linecap:butt;stroke-linejoin:miter;stroke-miterlimit:4;stroke-dasharray:none;stroke-dashoffset:0;stroke-opacity:1;color-rendering:auto;image-rendering:auto;shape-rendering:auto;text-rendering:auto;enable-background:accumulate" />
        </g>
      </g>
    </g>
  </g>
</svg>
