<?xml version="1.0" encoding="UTF-8" standalone="no"?>
<!-- Created with Inkscape (http://www.inkscape.org/) -->

<svg
   xmlns:dc="http://purl.org/dc/elements/1.1/"
   xmlns:cc="http://creativecommons.org/ns#"
   xmlns:rdf="http://www.w3.org/1999/02/22-rdf-syntax-ns#"
   xmlns:svg="http://www.w3.org/2000/svg"
   xmlns="http://www.w3.org/2000/svg"
   xmlns:xlink="http://www.w3.org/1999/xlink"
   xmlns:sodipodi="http://sodipodi.sourceforge.net/DTD/sodipodi-0.dtd"
   xmlns:inkscape="http://www.inkscape.org/namespaces/inkscape"
   width="50"
   height="50"
   viewBox="0 0 13.229166 13.229167"
   version="1.1"
   id="svg1683"
   inkscape:version="0.92.2 (5c3e80d, 2017-08-06)"
   sodipodi:docname="icon_eventsfaircoop.svg">
  <defs
     id="defs1677">
    <inkscape:path-effect
       effect="powerstroke"
       id="path-effect1721"
       is_visible="true"
       offset_points="0,0.13229166"
       sort_points="true"
       interpolator_type="CubicBezierJohan"
       interpolator_beta="0.2"
       start_linecap_type="zerowidth"
       linejoin_type="extrp_arc"
       miter_limit="4"
       end_linecap_type="zerowidth" />
    <inkscape:path-effect
       effect="powerstroke"
       id="path-effect1717"
       is_visible="true"
       offset_points="0,0.13229166"
       sort_points="true"
       interpolator_type="CubicBezierJohan"
       interpolator_beta="0.2"
       start_linecap_type="zerowidth"
       linejoin_type="extrp_arc"
       miter_limit="4"
       end_linecap_type="zerowidth" />
    <inkscape:path-effect
       effect="powerstroke"
       id="path-effect1713"
       is_visible="true"
       offset_points="0,0.13229166"
       sort_points="true"
       interpolator_type="CubicBezierJohan"
       interpolator_beta="0.2"
       start_linecap_type="zerowidth"
       linejoin_type="extrp_arc"
       miter_limit="4"
       end_linecap_type="zerowidth" />
    <inkscape:path-effect
       effect="powerstroke"
       id="path-effect1505"
       is_visible="true"
       offset_points="0.17067398,0.059501125"
       sort_points="true"
       interpolator_type="CubicBezierJohan"
       interpolator_beta="0.2"
       start_linecap_type="zerowidth"
       linejoin_type="extrp_arc"
       miter_limit="4"
       end_linecap_type="zerowidth" />
    <linearGradient
       inkscape:collect="always"
       id="linearGradient1489">
      <stop
         style="stop-color:#c19206;stop-opacity:1"
         offset="0"
         id="stop1485" />
      <stop
         id="stop1495"
         offset="0.14548008"
         style="stop-color:#f3dd07;stop-opacity:0.99215686;" />
      <stop
         id="stop1493"
         offset="0.89999974"
         style="stop-color:#f3dd07;stop-opacity:0.85882353;" />
      <stop
         style="stop-color:#ffffff;stop-opacity:0.98440981"
         offset="1"
         id="stop1487" />
    </linearGradient>
    <linearGradient
       inkscape:collect="always"
       xlink:href="#linearGradient1489"
       id="linearGradient1491"
       x1="5.8799295"
       y1="293.74435"
       x2="5.8799295"
       y2="288.49747"
       gradientUnits="userSpaceOnUse" />
    <radialGradient
       inkscape:collect="always"
       xlink:href="#linearGradient1438"
       id="radialGradient1440"
       cx="-182.68631"
       cy="9.8998499"
       fx="-182.68631"
       fy="9.8998499"
       r="0.51261503"
       gradientTransform="matrix(1.7576903,0.01260132,-0.08241633,11.495764,139.23538,-101.49863)"
       gradientUnits="userSpaceOnUse" />
    <linearGradient
       inkscape:collect="always"
       id="linearGradient1438">
      <stop
         style="stop-color:#5a2d00;stop-opacity:1"
         offset="0"
         id="stop1434" />
      <stop
         id="stop1444"
         offset="0.55184513"
         style="stop-color:#a75d2d;stop-opacity:1" />
      <stop
         style="stop-color:#a05a2c;stop-opacity:1"
         offset="1"
         id="stop1436" />
    </linearGradient>
    <radialGradient
       inkscape:collect="always"
       xlink:href="#linearGradient1450"
       id="radialGradient1452"
       cx="-182.3499"
       cy="9.2057781"
       fx="-182.3499"
       fy="9.2057781"
       r="1.72393"
       gradientTransform="matrix(0.91612248,0.0027095,-0.00852206,2.8814339,-14.756645,-15.393744)"
       gradientUnits="userSpaceOnUse" />
    <linearGradient
       inkscape:collect="always"
       id="linearGradient1450">
      <stop
         style="stop-color:#442d16;stop-opacity:1"
         offset="0"
         id="stop1446" />
      <stop
         id="stop1454"
         offset="0.45111889"
         style="stop-color:#6c3d1d;stop-opacity:0.97647059" />
      <stop
         style="stop-color:#99572a;stop-opacity:0.96470588"
         offset="1"
         id="stop1448" />
    </linearGradient>
  </defs>
  <sodipodi:namedview
     id="base"
     pagecolor="#ffffff"
     bordercolor="#666666"
     borderopacity="1.0"
     inkscape:pageopacity="0.0"
     inkscape:pageshadow="2"
     inkscape:zoom="11.313709"
     inkscape:cx="10.79729"
     inkscape:cy="19.030553"
     inkscape:document-units="mm"
     inkscape:current-layer="g1622"
     showgrid="false"
     units="px"
     inkscape:window-width="2160"
     inkscape:window-height="1356"
     inkscape:window-x="0"
     inkscape:window-y="42"
     inkscape:window-maximized="1"
     inkscape:snap-global="false" />
  <metadata
     id="metadata1680">
    <rdf:RDF>
      <cc:Work
         rdf:about="">
        <dc:format>image/svg+xml</dc:format>
        <dc:type
           rdf:resource="http://purl.org/dc/dcmitype/StillImage" />
        <dc:title></dc:title>
      </cc:Work>
    </rdf:RDF>
  </metadata>
  <g
     inkscape:label="Calque 1"
     inkscape:groupmode="layer"
     id="layer1"
     transform="translate(0,-283.77082)">
    <g
       transform="matrix(1.09903,0,0,1.09903,205.07277,282.29236)"
       id="g1460">
      <g
         id="g1622"
         transform="matrix(1.5136364,0,0,1.5136364,108.4918,-3.6390954)">
        <path
           inkscape:connector-curvature="0"
           style="color:#000000;font-style:normal;font-variant:normal;font-weight:normal;font-stretch:normal;font-size:medium;line-height:normal;font-family:sans-serif;font-variant-ligatures:normal;font-variant-position:normal;font-variant-caps:normal;font-variant-numeric:normal;font-variant-alternates:normal;font-feature-settings:normal;text-indent:0;text-align:start;text-decoration:none;text-decoration-line:none;text-decoration-style:solid;text-decoration-color:#000000;letter-spacing:normal;word-spacing:normal;text-transform:none;writing-mode:lr-tb;direction:ltr;text-orientation:mixed;dominant-baseline:auto;baseline-shift:baseline;text-anchor:start;white-space:normal;shape-padding:0;clip-rule:nonzero;display:inline;overflow:visible;visibility:visible;opacity:1;isolation:auto;mix-blend-mode:normal;color-interpolation:sRGB;color-interpolation-filters:linearRGB;solid-color:#000000;solid-opacity:1;vector-effect:none;fill:#000000;fill-opacity:1;fill-rule:nonzero;stroke:none;stroke-width:0.1568951;stroke-linecap:butt;stroke-linejoin:miter;stroke-miterlimit:4;stroke-dasharray:none;stroke-dashoffset:0;stroke-opacity:1;color-rendering:auto;image-rendering:auto;shape-rendering:auto;text-rendering:auto;enable-background:accumulate"
           d="m -190.81862,4.38244 c -0.0372,-6.044e-4 -0.0762,0.00359 -0.11338,0.016154 l -1.35192,0.4700027 h -3.2e-4 c -0.0841,0.029756 -0.1523,0.091511 -0.19104,0.1727175 -0.0387,0.081056 -0.0441,0.1728635 -0.0143,0.2569016 0.0616,0.173859 0.25019,0.264135 0.42402,0.2028498 l 0.88565,-0.3128174 c 0.0266,0.119066 0.1032,0.2239656 0.2277,0.2559698 h 3.2e-4 l 3.1e-4,3.181e-4 1.22984,0.3280389 h 3.2e-4 c 0.0279,0.00715 0.0561,0.010873 0.0842,0.010873 0.0382,0 0.076,-0.00696 0.11245,-0.019881 l 9.6e-4,-3.181e-4 c 0.0247,-0.00835 0.55889,-0.1893671 0.70454,-0.2488249 0.13383,-0.054643 0.30757,-0.148592 0.3619,-0.3525797 0.0702,-0.26481 -0.0889,-0.5386701 -0.35352,-0.6091707 -0.1134,-0.030237 -0.23451,-0.017948 -0.33829,0.032307 l 0.004,-0.00186 -0.36625,0.1329553 -1.20498,-0.3196516 -3.2e-4,-3.181e-4 c -0.0297,-0.00727 -0.065,-0.012947 -0.1022,-0.013669 z m -0.002,0.2016073 v 3.181e-4 c 0.0193,4.613e-4 0.04,0.00243 0.0553,0.00621 l 1.26307,0.3351837 0.43273,-0.1571853 0.002,-0.00124 c 0.0672,-0.032341 0.13683,-0.039528 0.20471,-0.021434 0.15907,0.04232 0.25378,0.2053248 0.21155,0.364384 -0.0248,0.093536 -0.0889,0.1552493 -0.24417,0.2186926 -0.0645,0.02633 -0.23877,0.087974 -0.39513,0.1422746 -0.0782,0.027171 -0.1522,0.052596 -0.2072,0.071448 -0.055,0.018815 -0.0942,0.032347 -0.0923,0.031686 h -6.4e-4 -3.2e-4 c -0.0282,0.0101 -0.0526,0.011563 -0.0805,0.00435 l -1.23014,-0.3283495 h -3.2e-4 c -0.0674,-0.017132 -0.10923,-0.085447 -0.0988,-0.1503512 l 0.006,-0.019881 v -3.181e-4 c 0.0122,-0.041779 0.0407,-0.071982 0.0808,-0.086048 0.0126,-0.00421 0.0338,-0.00702 0.0357,-0.00714 l 0.013,0.00124 c 0.0139,0.00121 0.0253,0.00288 0.032,0.00528 l 6.3e-4,3.181e-4 0.74399,0.1966371 0.051,-0.1935305 -0.73778,-0.1950838 -0.002,-3.181e-4 c -0.0263,-0.00818 -0.0501,-0.010251 -0.0677,-0.012115 l -0.0211,-0.00249 h -0.002 c -0.0373,-0.00121 -0.0761,0.0048 -0.11307,0.018328 -0.0762,0.02681 -0.12755,0.089424 -0.1662,0.1584279 l -0.98536,0.3482307 c -0.0716,0.025308 -0.14369,-0.00914 -0.16899,-0.080767 -0.012,-0.033784 -0.0102,-0.07046 0.006,-0.104376 0.0161,-0.033784 0.0433,-0.05783 0.077,-0.069895 l 3.2e-4,-3.181e-4 1.3513,-0.4687602 c 0.009,-0.00301 0.0267,-0.00402 0.046,-0.00342 z m -1.58334,0.8859535 c -0.13162,0.1357173 -0.3754,0.5133888 -0.48927,0.8545785 0.0935,0.07989 0.13891,0.1182049 0.21279,0.1826581 0.0344,-0.1251855 0.0682,-0.2047433 0.12519,-0.3180983 0.12481,0.102793 0.40455,0.3309471 0.50107,0.4243381 0.004,-0.1284198 -0.007,-0.2262195 3.2e-4,-0.3258644 -0.0787,-0.073772 -0.20928,-0.2035483 -0.30226,-0.281753 0.14202,-0.2906046 0.20085,-0.3749102 0.2625,-0.4613047 -0.17156,0.024947 -0.22646,-0.01996 -0.31034,-0.074554 z m 0.89496,0.1929093 c -0.0597,0 -0.11649,0.035031 -0.11649,0.094746 v 0.1494192 h -0.17396 a 0.20086018,0.20086018 0 0 0 -0.20627,0.2090626 v 1.5687466 c 0,0.1194304 0.0868,0.2308076 0.20627,0.2308076 h 1.75886 c 0.11943,0 0.20626,-0.1113772 0.20626,-0.2308076 V 6.1161379 a 0.20086018,0.20086018 0 0 0 -0.20626,-0.2090626 h -0.17365 V 5.7576561 c 0,-0.059715 -0.0571,-0.094746 -0.11681,-0.094746 h -0.15998 c -0.0597,0 -0.10313,0.035031 -0.10313,0.094746 v 0.1494192 h -0.65142 V 5.7576561 c 0,-0.059715 -0.0434,-0.094746 -0.10313,-0.094746 z m 2.35467,0.011494 c -0.16278,0.056807 -0.29652,0.102384 -0.32897,0.1133847 0.10842,0.1105059 0.17511,0.196216 0.25504,0.3339409 0.12447,0.2230797 0.23238,0.366557 0.3066,0.5060374 0.0796,0.1496334 0.10008,-0.150911 0.18608,-0.2068882 -0.0495,-0.1794857 -0.12134,-0.2941439 -0.21714,-0.4591301 -0.0677,-0.1166374 -0.11573,-0.1868898 -0.20161,-0.2873447 z m -2.35467,0.096921 h 0.1547 V 6.069853 h -0.1547 z m 1.01798,0 h 0.16836 V 6.069853 h -0.16836 z m -1.31961,0.2441654 a 0.09228711,0.09228711 0 0 1 0.0112,0 h 0.17396 v 0.059954 c 0,0.059715 0.0568,0.1031333 0.11649,0.1031333 h 0.16029 a 0.10043009,0.10043009 0 0 0 0.10313,-0.1031333 v -0.059954 h 0.65142 v 0.059954 a 0.10043009,0.10043009 0 0 0 0.10313,0.1031333 h 0.15998 c 0.0597,0 0.11681,-0.043418 0.11681,-0.1031333 v -0.059954 h 0.17365 a 0.09228711,0.09228711 0 0 1 0.0979,0.1006482 v 0.3066046 h -1.95426 V 6.1161387 a 0.09228711,0.09228711 0 0 1 0.0864,-0.1006482 z m -1.63678,0.022366 c -0.0462,-0.00361 -0.0951,4.453e-4 -0.14601,0.014289 -0.2639,0.071432 -0.4216,0.3453606 -0.3504,0.609792 0.0309,0.1133251 0.1021,0.2122193 0.19726,0.2761616 l 0.2948,0.2485143 0.32524,1.2031198 v 6.2e-4 c 0.0168,0.05879 0.0499,0.133689 0.10966,0.184833 l 1.08321,0.936899 c 0.063,0.05362 0.141,0.08015 0.21807,0.08015 0.0949,0 0.18966,-0.03998 0.25597,-0.117423 0.0578,-0.06735 0.0863,-0.153562 0.0795,-0.24137 -0.007,-0.08779 -0.0482,-0.168666 -0.11556,-0.226458 l -0.71448,-0.610724 c 0.09,-0.0824 0.14279,-0.201356 0.10841,-0.325243 l -0.33083,-1.2301461 V 6.840553 c -0.0182,-0.064736 -0.0551,-0.1214658 -0.10686,-0.1658833 -0.0209,-0.018395 -0.44371,-0.3894302 -0.56786,-0.4858456 -0.0857,-0.066257 -0.20155,-0.1410057 -0.34015,-0.1509723 z m -0.0301,0.1975688 c 0.0698,0 0.14645,0.031803 0.24851,0.1108996 0.055,0.04262 0.19543,0.1627251 0.32058,0.2708805 0.0626,0.054102 0.1215,0.1050527 0.16527,0.1432063 0.0438,0.038172 0.0749,0.065698 0.0733,0.064303 h 3.1e-4 c 0.024,0.020739 0.0374,0.042078 0.0451,0.069273 l 0.33083,1.2292145 c 0.0188,0.06733 -0.0197,0.138465 -0.0829,0.162155 l -0.0189,0.005 c -0.042,0.0104 -0.0825,0.0012 -0.11494,-0.02671 v -3.18e-4 h -3.2e-4 c -0.0113,-0.0096 -0.0219,-0.02398 -0.023,-0.02578 l -0.006,-0.01336 v -6.2e-4 c -0.006,-0.01244 -0.0103,-0.02248 -0.0118,-0.02951 l -3.2e-4,-0.0012 -0.20161,-0.7424369 -0.19198,0.051877 0.20006,0.7362239 c 7e-5,2.7e-4 1.5e-4,4.45e-4 3.1e-4,6.2e-4 l 3.2e-4,0.0019 c 0.006,0.02669 0.0162,0.04936 0.0233,0.06492 l 0.008,0.01771 6.4e-4,9.38e-4 c 0.0172,0.03348 0.0425,0.06418 0.073,0.09009 0.0613,0.0523 0.14102,0.06535 0.21962,0.0643 l 0.79494,0.679376 c 0.0278,0.02387 0.0442,0.05579 0.0469,0.09071 0.003,0.03493 -0.008,0.06854 -0.0323,0.0963 -0.0495,0.05765 -0.13592,0.06447 -0.19353,0.01553 l -1.08259,-0.936277 v -3.18e-4 c -0.0101,-0.0086 -0.0377,-0.05134 -0.0481,-0.08791 l -0.34109,-1.2618319 -0.35258,-0.2963534 -0.002,-9.384e-4 c -0.20047,-0.1571055 -0.12308,-0.468193 0.0892,-0.5324419 0.0219,-0.00601 0.0429,-0.0087 0.064,-0.0087 z m 5.01035,0.1211507 c -0.0654,6.044e-4 -0.12929,0.02057 -0.18359,0.05778 -0.0727,0.049894 -0.122,0.1265745 -0.13823,0.2140329 l -0.17179,0.9232307 c -0.11683,-0.036789 -0.24656,-0.02296 -0.33642,0.069584 l -0.89932,0.9011746 -3.1e-4,3.18e-4 c -0.0472,0.04857 -0.0779,0.108754 -0.0901,0.175203 -0.004,0.02272 -0.11542,0.578827 -0.13668,0.734671 -0.0196,0.143315 -0.0254,0.340969 0.12425,0.490194 0.0969,0.09634 0.22435,0.1444488 0.35134,0.1444488 0.12768,0 0.25568,-0.04887 0.35258,-0.1463128 0.0837,-0.08412 0.13305,-0.193462 0.14134,-0.30909 l -6.3e-4,0.0056 0.0683,-0.384265 0.87819,-0.882536 3.1e-4,-3.18e-4 c 0.0425,-0.0431 0.0911,-0.109644 0.10655,-0.188561 h 3.2e-4 l 0.26902,-1.4056586 v -3.181e-4 c 0.0338,-0.1821247 -0.0873,-0.3589274 -0.26933,-0.3929634 l -3.2e-4,-3.181e-4 c -0.0219,-0.00421 -0.0438,-0.00619 -0.0655,-0.00559 z m -3.4298,0.1748919 h 1.95425 v 1.153417 c 0,0.059715 -0.0381,0.1220827 -0.0979,0.1220827 h -1.75886 c -0.0597,0 -0.0975,-0.062367 -0.0975,-0.1220827 z m 3.40619,0.027026 c 0.0168,-0.00342 0.0345,-0.00337 0.0525,0 v 3.181e-4 c 0.0719,0.013405 0.12298,0.087753 0.10966,0.1593598 l -0.26871,1.4050374 c -0.003,0.01569 -0.0269,0.05982 -0.0528,0.08605 l -0.9223,0.926338 -0.0805,0.453849 v 0.0025 c -0.005,0.07354 -0.0344,0.137271 -0.0842,0.187628 h -3.2e-4 v 3.18e-4 c -0.11609,0.116331 -0.30434,0.116767 -0.42092,6.21e-4 -0.0686,-0.06835 -0.0899,-0.154758 -0.0671,-0.321205 0.009,-0.06896 0.0431,-0.250585 0.0742,-0.413155 0.0311,-0.16257 0.0589,-0.302388 0.0606,-0.310954 v -3.18e-4 -3.18e-4 c 0.006,-0.02982 0.017,-0.05194 0.037,-0.07238 l 0.89932,-0.9011752 v -3.181e-4 c 0.0256,-0.026269 0.0592,-0.039141 0.0941,-0.039141 0.0316,0 0.0639,0.010997 0.0901,0.033239 l 0.01,0.010563 c 0.0301,0.03174 0.0418,0.071552 0.0339,0.1133846 v 3.181e-4 c -0.003,0.014607 -0.009,0.030163 -0.0112,0.032928 v 3.181e-4 l -0.007,0.010562 c -0.008,0.011661 -0.0154,0.021295 -0.0208,0.026405 l -9.5e-4,6.203e-4 -0.54176,0.5454892 0.14165,0.141032 0.54021,-0.543625 -0.002,0.0012 c 0.0212,-0.01984 0.0362,-0.04088 0.0466,-0.0556 l 0.01,-0.013979 6.3e-4,-0.00124 c 0.0206,-0.03186 0.0342,-0.068828 0.0413,-0.1077932 v -3.181e-4 c 0.0149,-0.079109 -0.0138,-0.1548512 -0.0541,-0.222731 l 0.19135,-1.0279172 c 0.007,-0.036008 0.0259,-0.065996 0.0547,-0.085737 0.0144,-0.00989 0.0301,-0.016773 0.0469,-0.020192 z m -2.80603,0.1326446 c -0.0454,0 -0.0919,0.00418 -0.13917,0.012737 -0.0473,0.00819 -0.0948,0.020343 -0.14321,0.036345 v 0.1829687 c 0.0454,-0.028282 0.0879,-0.049541 0.12768,-0.063682 0.0398,-0.014513 0.0765,-0.021745 0.10997,-0.021745 0.0435,0 0.0783,0.011908 0.10437,0.035724 0.0264,0.023817 0.0398,0.055361 0.0398,0.094436 0,0.025305 -0.007,0.049556 -0.0196,0.073001 -0.013,0.023445 -0.0331,0.047508 -0.0603,0.072069 l -0.30443,0.2683955 V 7.539505 h 0.60575 V 7.3813875 h -0.36687 l 0.17831,-0.1562534 c 0.0752,-0.065868 0.12442,-0.118111 0.14787,-0.1571853 0.0234,-0.039446 0.0351,-0.081963 0.0351,-0.1273635 0,-0.078521 -0.0278,-0.1396781 -0.0833,-0.18359 -0.0551,-0.043912 -0.13232,-0.065856 -0.23205,-0.065856 z m 0.78095,0 c -0.0402,0 -0.0813,0.00274 -0.12301,0.0087 -0.0417,0.00595 -0.0837,0.015118 -0.12612,0.027026 v 0.1571853 c 0.035,-0.015258 0.0703,-0.026667 0.10562,-0.034481 0.0353,-0.00781 0.0704,-0.011805 0.10499,-0.011805 0.0469,0 0.083,0.00891 0.10873,0.026405 0.0257,0.01749 0.0385,0.04224 0.0385,0.074244 0,0.034608 -0.0133,0.060543 -0.0398,0.077661 -0.0264,0.016746 -0.0666,0.024851 -0.12053,0.024851 h -0.0904 v 0.1385456 h 0.0861 c 0.0607,0 0.10642,0.00979 0.1373,0.029511 0.0313,0.019351 0.0469,0.04809 0.0469,0.086048 0,0.036841 -0.0151,0.065082 -0.0457,0.084806 -0.0301,0.019723 -0.0738,0.029511 -0.13078,0.029511 -0.0383,0 -0.0773,-0.00486 -0.11711,-0.014911 -0.0394,-0.010419 -0.0794,-0.02588 -0.11959,-0.045975 v 0.1658833 c 0.042,0.013769 0.0846,0.024055 0.12736,0.030754 0.0432,0.00707 0.0861,0.010562 0.12891,0.010562 0.12132,0 0.21352,-0.021508 0.27679,-0.064303 0.0633,-0.043168 0.0951,-0.1059463 0.0951,-0.1885602 0,-0.055448 -0.0147,-0.1009581 -0.0441,-0.1366829 -0.029,-0.036097 -0.0718,-0.061594 -0.12798,-0.076108 0.0502,-0.012652 0.0883,-0.034348 0.114,-0.065235 0.0257,-0.031259 0.0385,-0.071159 0.0385,-0.1199082 0,-0.07145 -0.0271,-0.124939 -0.0811,-0.1602918 -0.0536,-0.035725 -0.13432,-0.05343 -0.24262,-0.05343 z m 0.63869,1.2301457 c -0.0765,0.067963 -0.12966,0.064771 -0.24914,0.070205 0.0112,0.071842 0.026,0.29101 0.0326,0.374635 l 0.25255,-0.253174 c -0.009,-0.07133 -0.0216,-0.1324194 -0.036,-0.1916664 z m -1.69487,0.97138 c 0.1519,0.125018 0.20459,0.156939 0.22024,0.29449 0.27684,0.04803 0.68726,0.05398 0.94001,0.0037 0.0207,-0.113578 0.0311,-0.173853 0.0513,-0.277404 -0.15955,0.04322 -0.30864,0.06681 -0.47994,0.06679 -0.1656,0 -0.57019,-0.04479 -0.73156,-0.0876 z"
           id="path6498-9" />
      </g>
    </g>
  </g>
</svg>
