<?xml version="1.0" encoding="UTF-8" standalone="no"?>
<!-- Created with Inkscape (http://www.inkscape.org/) -->

<svg
   xmlns:dc="http://purl.org/dc/elements/1.1/"
   xmlns:cc="http://creativecommons.org/ns#"
   xmlns:rdf="http://www.w3.org/1999/02/22-rdf-syntax-ns#"
   xmlns:svg="http://www.w3.org/2000/svg"
   xmlns="http://www.w3.org/2000/svg"
   xmlns:xlink="http://www.w3.org/1999/xlink"
   xmlns:sodipodi="http://sodipodi.sourceforge.net/DTD/sodipodi-0.dtd"
   xmlns:inkscape="http://www.inkscape.org/namespaces/inkscape"
   width="50"
   height="50"
   viewBox="0 0 13.229166 13.229167"
   version="1.1"
   id="svg1683"
   inkscape:version="0.92.2 (5c3e80d, 2017-08-06)"
   sodipodi:docname="icon_shoes.svg">
  <defs
     id="defs1677">
    <inkscape:path-effect
       effect="powerstroke"
       id="path-effect1721"
       is_visible="true"
       offset_points="0,0.13229166"
       sort_points="true"
       interpolator_type="CubicBezierJohan"
       interpolator_beta="0.2"
       start_linecap_type="zerowidth"
       linejoin_type="extrp_arc"
       miter_limit="4"
       end_linecap_type="zerowidth" />
    <inkscape:path-effect
       effect="powerstroke"
       id="path-effect1717"
       is_visible="true"
       offset_points="0,0.13229166"
       sort_points="true"
       interpolator_type="CubicBezierJohan"
       interpolator_beta="0.2"
       start_linecap_type="zerowidth"
       linejoin_type="extrp_arc"
       miter_limit="4"
       end_linecap_type="zerowidth" />
    <inkscape:path-effect
       effect="powerstroke"
       id="path-effect1713"
       is_visible="true"
       offset_points="0,0.13229166"
       sort_points="true"
       interpolator_type="CubicBezierJohan"
       interpolator_beta="0.2"
       start_linecap_type="zerowidth"
       linejoin_type="extrp_arc"
       miter_limit="4"
       end_linecap_type="zerowidth" />
    <inkscape:path-effect
       effect="powerstroke"
       id="path-effect1505"
       is_visible="true"
       offset_points="0.17067398,0.059501125"
       sort_points="true"
       interpolator_type="CubicBezierJohan"
       interpolator_beta="0.2"
       start_linecap_type="zerowidth"
       linejoin_type="extrp_arc"
       miter_limit="4"
       end_linecap_type="zerowidth" />
    <linearGradient
       inkscape:collect="always"
       id="linearGradient1489">
      <stop
         style="stop-color:#c19206;stop-opacity:1"
         offset="0"
         id="stop1485" />
      <stop
         id="stop1495"
         offset="0.14548008"
         style="stop-color:#f3dd07;stop-opacity:0.99215686;" />
      <stop
         id="stop1493"
         offset="0.89999974"
         style="stop-color:#f3dd07;stop-opacity:0.85882353;" />
      <stop
         style="stop-color:#ffffff;stop-opacity:0.98440981"
         offset="1"
         id="stop1487" />
    </linearGradient>
    <linearGradient
       inkscape:collect="always"
       xlink:href="#linearGradient1489"
       id="linearGradient1491"
       x1="5.8799295"
       y1="293.74435"
       x2="5.8799295"
       y2="288.49747"
       gradientUnits="userSpaceOnUse" />
    <radialGradient
       inkscape:collect="always"
       xlink:href="#linearGradient1438"
       id="radialGradient1440"
       cx="-182.68631"
       cy="9.8998499"
       fx="-182.68631"
       fy="9.8998499"
       r="0.51261503"
       gradientTransform="matrix(1.7576903,0.01260132,-0.08241633,11.495764,139.23538,-101.49863)"
       gradientUnits="userSpaceOnUse" />
    <linearGradient
       inkscape:collect="always"
       id="linearGradient1438">
      <stop
         style="stop-color:#5a2d00;stop-opacity:1"
         offset="0"
         id="stop1434" />
      <stop
         id="stop1444"
         offset="0.55184513"
         style="stop-color:#a75d2d;stop-opacity:1" />
      <stop
         style="stop-color:#a05a2c;stop-opacity:1"
         offset="1"
         id="stop1436" />
    </linearGradient>
    <radialGradient
       inkscape:collect="always"
       xlink:href="#linearGradient1450"
       id="radialGradient1452"
       cx="-182.3499"
       cy="9.2057781"
       fx="-182.3499"
       fy="9.2057781"
       r="1.72393"
       gradientTransform="matrix(0.91612248,0.0027095,-0.00852206,2.8814339,-14.756645,-15.393744)"
       gradientUnits="userSpaceOnUse" />
    <linearGradient
       inkscape:collect="always"
       id="linearGradient1450">
      <stop
         style="stop-color:#442d16;stop-opacity:1"
         offset="0"
         id="stop1446" />
      <stop
         id="stop1454"
         offset="0.45111889"
         style="stop-color:#6c3d1d;stop-opacity:0.97647059" />
      <stop
         style="stop-color:#99572a;stop-opacity:0.96470588"
         offset="1"
         id="stop1448" />
    </linearGradient>
    <inkscape:path-effect
       end_linecap_type="zerowidth"
       miter_limit="4"
       linejoin_type="extrp_arc"
       start_linecap_type="zerowidth"
       interpolator_beta="0.2"
       interpolator_type="CubicBezierJohan"
       sort_points="true"
       offset_points="0,0.13229166"
       is_visible="true"
       id="path-effect1721-7"
       effect="powerstroke" />
    <inkscape:path-effect
       end_linecap_type="zerowidth"
       miter_limit="4"
       linejoin_type="extrp_arc"
       start_linecap_type="zerowidth"
       interpolator_beta="0.2"
       interpolator_type="CubicBezierJohan"
       sort_points="true"
       offset_points="0,0.13229166"
       is_visible="true"
       id="path-effect1717-5"
       effect="powerstroke" />
    <inkscape:path-effect
       end_linecap_type="zerowidth"
       miter_limit="4"
       linejoin_type="extrp_arc"
       start_linecap_type="zerowidth"
       interpolator_beta="0.2"
       interpolator_type="CubicBezierJohan"
       sort_points="true"
       offset_points="0,0.13229166"
       is_visible="true"
       id="path-effect1713-3"
       effect="powerstroke" />
    <inkscape:path-effect
       end_linecap_type="zerowidth"
       miter_limit="4"
       linejoin_type="extrp_arc"
       start_linecap_type="zerowidth"
       interpolator_beta="0.2"
       interpolator_type="CubicBezierJohan"
       sort_points="true"
       offset_points="0.17067398,0.059501125"
       is_visible="true"
       id="path-effect1505-5"
       effect="powerstroke" />
    <radialGradient
       gradientUnits="userSpaceOnUse"
       gradientTransform="matrix(1.7576903,0.01260132,-0.08241633,11.495764,139.23538,-101.49863)"
       r="0.51261503"
       fy="9.8998499"
       fx="-182.68631"
       cy="9.8998499"
       cx="-182.68631"
       id="radialGradient1440-2"
       xlink:href="#linearGradient1438"
       inkscape:collect="always" />
    <radialGradient
       gradientUnits="userSpaceOnUse"
       gradientTransform="matrix(0.91612248,0.0027095,-0.00852206,2.8814339,-14.756645,-15.393744)"
       r="1.72393"
       fy="9.2057781"
       fx="-182.3499"
       cy="9.2057781"
       cx="-182.3499"
       id="radialGradient1452-3"
       xlink:href="#linearGradient1450"
       inkscape:collect="always" />
  </defs>
  <sodipodi:namedview
     id="base"
     pagecolor="#ffffff"
     bordercolor="#666666"
     borderopacity="1.0"
     inkscape:pageopacity="0.0"
     inkscape:pageshadow="2"
     inkscape:zoom="8.0000004"
     inkscape:cx="9.9239203"
     inkscape:cy="25.102671"
     inkscape:document-units="mm"
     inkscape:current-layer="g2081"
     showgrid="false"
     units="px"
     inkscape:window-width="2160"
     inkscape:window-height="1356"
     inkscape:window-x="0"
     inkscape:window-y="42"
     inkscape:window-maximized="1"
     inkscape:snap-global="false" />
  <metadata
     id="metadata1680">
    <rdf:RDF>
      <cc:Work
         rdf:about="">
        <dc:format>image/svg+xml</dc:format>
        <dc:type
           rdf:resource="http://purl.org/dc/dcmitype/StillImage" />
        <dc:title></dc:title>
      </cc:Work>
    </rdf:RDF>
  </metadata>
  <g
     inkscape:label="Calque 1"
     inkscape:groupmode="layer"
     id="layer1"
     transform="translate(0,-283.77082)">
    <g
       id="g1701"
       transform="matrix(1.5703751,0,0,1.5703751,303.39895,279.41861)">
      <g
         id="g2090"
         transform="matrix(0.81890658,0,0,0.81890658,-127.00357,53.668025)">
        <g
           id="g2081"
           transform="matrix(0.86811076,0,0,0.86811076,-11.487096,-17.774989)">
          <path
             inkscape:connector-curvature="0"
             id="path1853"
             d="m -73.338391,-46.838297 c -0.04748,0 -0.05578,0.0095 -0.07028,0.0155 -0.0145,0.0061 -0.02785,0.01376 -0.04289,0.0217 -0.03008,0.01588 -0.06435,0.0363 -0.107487,0.06253 -0.08628,0.05246 -0.20189,0.126526 -0.335899,0.214457 -0.268012,0.175862 -0.614794,0.409553 -0.962731,0.644922 -0.347935,0.235368 -0.697273,0.471899 -0.968933,0.652157 -0.13583,0.09013 -0.251619,0.16648 -0.337963,0.220658 -0.04317,0.02709 -0.07774,0.04792 -0.103352,0.06253 -0.02561,0.01461 -0.05228,0.02409 -0.02946,0.01757 -0.01753,0.005 -0.15721,0.03232 -0.32608,0.06253 -0.168865,0.03021 -0.379566,0.0668 -0.590143,0.103353 -0.210577,0.03656 -0.420674,0.07333 -0.585494,0.103869 -0.08241,0.01527 -0.153725,0.02915 -0.20929,0.04082 -0.05556,0.01167 -0.08445,0.016 -0.127125,0.03307 -0.12823,0.05129 -0.253521,0.145117 -0.310057,0.314709 -0.02703,0.0811 -0.02495,0.154965 -0.02946,0.267684 -0.0045,0.112719 -0.0062,0.247096 -0.0062,0.376721 3e-6,0.259251 0.0062,0.500228 0.0062,0.500228 l 0.0015,0.09767 a 0.13281676,0.13281676 0 0 0 0.101801,0.218591 c 1.596631,-0.01135 2.974901,-0.03739 4.04885,-0.08785 0.992376,-0.04663 1.644878,-0.118616 2.068608,-0.22686 v 0.361736 h 2.533179 v -1.061434 c 0.0078,-0.009 0.01617,-0.01625 0.02325,-0.02687 l 0.0098,-0.0155 0.0057,-0.0155 c 0.226867,-0.657325 0.202594,-1.623978 0.105937,-2.249992 l -0.0021,-0.0098 -0.0041,-0.0098 c -0.03869,-0.124165 -0.121028,-0.236897 -0.195337,-0.33383 -0.07431,-0.09693 -0.142626,-0.172082 -0.142626,-0.172082 l -0.02894,-0.03307 -0.113686,-0.01964 -0.04858,0.04858 c 0,0 -0.214479,0.215027 -0.52555,0.429947 -0.311065,0.214923 -0.716253,0.419613 -1.064532,0.419613 -0.340498,0 -0.700193,-0.233133 -0.985988,-0.482141 -0.142891,-0.124503 -0.265586,-0.250453 -0.363284,-0.347782 -0.04885,-0.04866 -0.09105,-0.08796 -0.129191,-0.120923 -0.01908,-0.01648 -0.03709,-0.0315 -0.0584,-0.04496 -0.0213,-0.01346 -0.04391,-0.03307 -0.09973,-0.03307 z m -0.0098,0.283187 c 0.02687,0.02364 0.06407,0.05804 0.109553,0.103353 0.09597,0.09561 0.22437,0.228475 0.376722,0.361218 0.304707,0.265487 0.705506,0.547254 1.160137,0.547254 0.446849,0 0.882864,-0.23929 1.214911,-0.468705 0.266054,-0.183818 0.381926,-0.301409 0.451136,-0.36742 0.0202,0.02426 0.02237,0.02467 0.04703,0.05684 0.06506,0.08488 0.132016,0.193476 0.150378,0.24598 0.08859,0.583308 0.09709,1.514511 -0.09198,2.085661 -0.0064,0.0038 -0.01849,0.01487 -0.05271,0.02377 -0.042,0.01091 -0.08683,0.01611 -0.118856,0.01964 0.01686,-0.0019 -0.01846,-7.08e-4 -0.05271,0 -0.03425,7.09e-4 -0.08074,0.0014 -0.136941,0.0021 -0.112403,0.0014 -0.262779,0.0025 -0.420129,0.0036 -0.314711,0.0022 -0.662869,0.0041 -0.825791,0.0041 -0.189984,0 -0.392803,0.05319 -0.582393,0.111104 -0.18959,0.05791 -0.367051,0.122638 -0.478523,0.150378 -1.565926,0.389699 -3.672625,0.319252 -5.615162,0.406177 -0.0017,-0.08388 -0.0036,-0.17014 -0.0036,-0.353467 0,-0.127621 0.0014,-0.260377 0.0057,-0.366902 0.0043,-0.106526 0.02121,-0.204724 0.01757,-0.193787 0.03701,-0.111029 0.05043,-0.111747 0.156061,-0.153996 -0.01344,0.0054 0.03237,-0.0067 0.08423,-0.01757 0.05187,-0.01089 0.121796,-0.02628 0.203089,-0.04134 0.162584,-0.03012 0.371504,-0.06476 0.581877,-0.101286 0.210373,-0.03652 0.421981,-0.07291 0.592212,-0.103353 0.170227,-0.03045 0.287075,-0.05191 0.351398,-0.07028 0.04328,-0.01237 0.05671,-0.02358 0.08785,-0.04134 0.03114,-0.01776 0.06819,-0.03999 0.113171,-0.06821 0.08996,-0.05645 0.206883,-0.134044 0.343648,-0.224792 0.06583,-0.04368 0.160015,-0.108261 0.233577,-0.157613 a 0.13230489,0.13230489 0 0 0 0.001,0.0015 l 0.328144,0.337964 a 0.13230489,0.13230489 0 1 0 0.189137,-0.183968 l -0.294039,-0.306441 c 0.108685,-0.07335 0.207452,-0.139024 0.321942,-0.216525 l 0.380339,0.380339 a 0.13230489,0.13230489 0 1 0 0.187587,-0.185518 l -0.3452,-0.345199 c 0.10168,-0.06874 0.182007,-0.12098 0.28112,-0.187586 l 0.380339,0.380856 a 0.13230489,0.13230489 0 1 0 0.186036,-0.187586 l -0.342098,-0.343648 c 0.105227,-0.07029 0.221636,-0.148719 0.314193,-0.209806 l 0.437697,0.436149 a 0.13264369,0.13264369 0 0 0 0.187587,-0.187586 l -0.398941,-0.396875 c 0.07487,-0.04858 0.157133,-0.102649 0.209288,-0.134358 0.03161,-0.01922 0.05384,-0.03146 0.07441,-0.04289 z m 3.361552,2.855123 v 0.674378 h -2.004012 v -0.422197 l -0.172082,0.05478 c -0.310394,0.09594 -0.995191,0.169695 -1.928048,0.220142 0.548206,-0.05279 1.073909,-0.12782 1.554943,-0.24753 0.138162,-0.03438 0.311835,-0.09726 0.492477,-0.152446 0.180644,-0.05518 0.36849,-0.09974 0.505912,-0.09974 0.164484,0 0.512601,-0.0014 0.827857,-0.0036 0.157626,-0.0011 0.306893,-0.0027 0.42013,-0.0041 0.05662,-6.89e-4 0.104947,-7.5e-4 0.14056,-0.0015 0.03561,-7.37e-4 0.04595,-7.82e-4 0.07596,-0.0041 0.01135,-0.0013 0.05445,-0.0093 0.0863,-0.01395 z"
             style="color:#000000;font-style:normal;font-variant:normal;font-weight:normal;font-stretch:normal;font-size:medium;line-height:normal;font-family:sans-serif;font-variant-ligatures:normal;font-variant-position:normal;font-variant-caps:normal;font-variant-numeric:normal;font-variant-alternates:normal;font-feature-settings:normal;text-indent:0;text-align:start;text-decoration:none;text-decoration-line:none;text-decoration-style:solid;text-decoration-color:#000000;letter-spacing:normal;word-spacing:normal;text-transform:none;writing-mode:lr-tb;direction:ltr;text-orientation:mixed;dominant-baseline:auto;baseline-shift:baseline;text-anchor:start;white-space:normal;shape-padding:0;clip-rule:nonzero;display:inline;overflow:visible;visibility:visible;opacity:1;isolation:auto;mix-blend-mode:normal;color-interpolation:sRGB;color-interpolation-filters:linearRGB;solid-color:#000000;solid-opacity:1;vector-effect:none;fill:#000000;fill-opacity:1;fill-rule:nonzero;stroke:none;stroke-width:0.26458332px;stroke-linecap:round;stroke-linejoin:miter;stroke-miterlimit:4;stroke-dasharray:none;stroke-dashoffset:0;stroke-opacity:1;color-rendering:auto;image-rendering:auto;shape-rendering:auto;text-rendering:auto;enable-background:accumulate" />
        </g>
      </g>
    </g>
  </g>
</svg>
