<?xml version="1.0" encoding="UTF-8" standalone="no"?>
<svg
   xmlns:dc="http://purl.org/dc/elements/1.1/"
   xmlns:cc="http://creativecommons.org/ns#"
   xmlns:rdf="http://www.w3.org/1999/02/22-rdf-syntax-ns#"
   xmlns:svg="http://www.w3.org/2000/svg"
   xmlns="http://www.w3.org/2000/svg"
   xmlns:xlink="http://www.w3.org/1999/xlink"
   xmlns:sodipodi="http://sodipodi.sourceforge.net/DTD/sodipodi-0.dtd"
   xmlns:inkscape="http://www.inkscape.org/namespaces/inkscape"
   sodipodi:docname="icon_communication.svg"
   inkscape:version="1.0alpha (9dee831, 2019-01-15)"
   id="svg1683"
   version="1.1"
   viewBox="0 0 13.229166 13.229167"
   height="50"
   width="50">
  <defs
     id="defs1677">
    <inkscape:path-effect
       end_linecap_type="zerowidth"
       miter_limit="4"
       linejoin_type="extrp_arc"
       start_linecap_type="zerowidth"
       interpolator_beta="0.2"
       interpolator_type="CubicBezierJohan"
       sort_points="true"
       offset_points="0.17067398,0.059501125"
       is_visible="true"
       id="path-effect1505"
       effect="powerstroke" />
    <linearGradient
       id="linearGradient1489"
       inkscape:collect="always">
      <stop
         id="stop1485"
         offset="0"
         style="stop-color:#c19206;stop-opacity:1" />
      <stop
         style="stop-color:#f3dd07;stop-opacity:0.99215686;"
         offset="0.14548008"
         id="stop1495" />
      <stop
         style="stop-color:#f3dd07;stop-opacity:0.85882353;"
         offset="0.89999974"
         id="stop1493" />
      <stop
         id="stop1487"
         offset="1"
         style="stop-color:#ffffff;stop-opacity:0.98440981" />
    </linearGradient>
    <linearGradient
       gradientUnits="userSpaceOnUse"
       y2="288.49747"
       x2="5.8799295"
       y1="293.74435"
       x1="5.8799295"
       id="linearGradient1491"
       xlink:href="#linearGradient1489"
       inkscape:collect="always" />
  </defs>
  <sodipodi:namedview
     inkscape:document-rotation="0"
     inkscape:snap-global="false"
     inkscape:window-maximized="1"
     inkscape:window-y="42"
     inkscape:window-x="0"
     inkscape:window-height="1356"
     inkscape:window-width="2160"
     units="px"
     showgrid="false"
     inkscape:current-layer="layer1"
     inkscape:document-units="mm"
     inkscape:cy="40.795487"
     inkscape:cx="12.017373"
     inkscape:zoom="8.0000001"
     inkscape:pageshadow="2"
     inkscape:pageopacity="0.0"
     borderopacity="1.0"
     bordercolor="#666666"
     pagecolor="#ffffff"
     id="base" />
  <metadata
     id="metadata1680">
    <rdf:RDF>
      <cc:Work
         rdf:about="">
        <dc:format>image/svg+xml</dc:format>
        <dc:type
           rdf:resource="http://purl.org/dc/dcmitype/StillImage" />
        <dc:title></dc:title>
      </cc:Work>
    </rdf:RDF>
  </metadata>
  <g
     transform="translate(0,-283.77082)"
     id="layer1"
     inkscape:groupmode="layer"
     inkscape:label="Calque 1">
    <path
       inkscape:connector-curvature="0"
       id="path1497"
       d="m 12.37754,290.32987 a 5.5857795,5.5857795 0 0 1 -5.58578,5.58579 5.5857795,5.5857795 0 0 1 -5.5857795,-5.58579 5.5857795,5.5857795 0 0 1 5.5857795,-5.58577 5.5857795,5.5857795 0 0 1 5.58578,5.58577 z"
       style="opacity:1;fill:#80c790;fill-opacity:1;stroke:none;stroke-width:0.19299737;stroke-miterlimit:4;stroke-dasharray:none;stroke-opacity:1" />
    <g
       transform="matrix(0.76548794,0,0,0.76548794,10.051735,67.600701)"
       id="g2297">
      <path
         inkscape:connector-curvature="0"
         id="path2167"
         d="m -5.6441095,289.53473 c -0.2584802,-0.0585 -0.6228292,-0.16953 -0.6228292,-0.1898 0,-0.0581 0.46609,-0.39087 0.7386108,-0.52736 0.136243,-0.0683 0.4376563,-0.1906 0.469618,-0.1906 0.0036,0 -0.038841,0.10118 -0.094262,0.22489 -0.055492,0.12366 -0.1386417,0.33524 -0.184785,0.47014 -0.046178,0.13493 -0.087489,0.24849 -0.091828,0.25239 -0.00434,0.004 -0.1008943,-0.0141 -0.2145241,-0.0397 z"
         style="fill:#c66c6c;fill-opacity:1;stroke:none;stroke-width:0.0202459;stroke-linecap:round;stroke-miterlimit:4;stroke-dasharray:none;stroke-opacity:1" />
      <path
         inkscape:connector-curvature="0"
         id="path2169"
         d="m -7.121578,290.94857 c 0.059937,-0.44696 0.2294466,-0.92564 0.446546,-1.26108 0.063182,-0.0976 0.089923,-0.1237 0.1162756,-0.11344 0.164606,0.0641 0.606425,0.19726 0.8292394,0.24987 0.2554465,0.0603 0.2733323,0.0676 0.2641954,0.10745 -0.042686,0.18683 -0.0774,0.46176 -0.1219554,0.96721 l -0.011007,0.12492 h -0.7666915 -0.766692 z"
         style="fill:#6c6fc6;fill-opacity:1;stroke:none;stroke-width:0.0202459;stroke-linecap:round;stroke-miterlimit:4;stroke-dasharray:none;stroke-opacity:1" />
      <path
         inkscape:connector-curvature="0"
         id="path2171"
         d="m -6.7209989,292.71772 c -0.2090915,-0.33107 -0.3815998,-0.79037 -0.433317,-1.1537 -0.00706,-0.0494 -0.017568,-0.11468 -0.023318,-0.1449 l -0.010513,-0.055 h 0.7694085 0.7694083 l 0.012348,0.15491 c 0.023918,0.29995 0.054363,0.557 0.092639,0.78266 0.021307,0.12539 0.036407,0.22939 0.033549,0.23109 -0.00282,0.003 -0.1176514,0.0285 -0.2550231,0.0591 -0.1374069,0.0307 -0.3830108,0.0999 -0.5457825,0.15366 -0.1627717,0.0537 -0.3036358,0.0977 -0.3130195,0.0977 -0.00942,0 -0.052776,-0.0565 -0.09638,-0.12552 z"
         style="fill:#c6996c;fill-opacity:1;stroke:none;stroke-width:0.0202459;stroke-linecap:round;stroke-miterlimit:4;stroke-dasharray:none;stroke-opacity:1" />
      <path
         inkscape:connector-curvature="0"
         id="path2175"
         d="m -5.3114047,293.71701 c -0.2284235,-0.0919 -0.4543073,-0.21612 -0.6520744,-0.35857 -0.2448279,-0.17634 -0.3488621,-0.26975 -0.3146779,-0.28267 0.1740958,-0.0658 0.8116713,-0.22556 0.8259588,-0.20697 0.00282,0.004 0.042827,0.1179 0.089006,0.25389 0.046143,0.13597 0.1240367,0.3348 0.1730727,0.44184 0.049107,0.107 0.089218,0.20039 0.089218,0.20749 0,0.023 -0.047166,0.0106 -0.2105025,-0.055 z"
         style="fill:#956cc6;fill-opacity:1;stroke:none;stroke-width:0.0202459;stroke-linecap:round;stroke-miterlimit:4;stroke-dasharray:none;stroke-opacity:1" />
      <path
         inkscape:connector-curvature="0"
         id="path2177"
         d="m -4.5344468,293.94366 c -0.1107016,-0.0214 -0.6137275,-1.08545 -0.545465,-1.1537 0.023106,-0.023 1.1849452,-0.0322 1.2076642,-0.01 0.035701,0.0357 -0.2410531,0.68915 -0.4160308,0.98228 -0.1207207,0.20227 -0.1239663,0.20464 -0.2461684,0.18091 z"
         style="fill:#407cf2;fill-opacity:1;stroke:none;stroke-width:0.0202459;stroke-linecap:round;stroke-miterlimit:4;stroke-dasharray:none;stroke-opacity:1" />
      <path
         inkscape:connector-curvature="0"
         id="path2179"
         d="m -5.2378857,292.44485 c -0.028116,-0.0838 -0.091616,-0.56027 -0.1214967,-0.91202 l -0.012311,-0.14494 h 0.9106961 0.9106252 v 0.11507 c 0,0.19169 -0.096943,0.92798 -0.1260123,0.95705 -0.00317,0.003 -0.1220962,-0.004 -0.2645833,-0.0157 -0.2525535,-0.0208 -1.0273946,-0.0109 -1.2030427,0.0154 -0.062794,0.01 -0.08696,0.006 -0.093874,-0.0147 z"
         style="fill:#6cc670;fill-opacity:1;stroke:none;stroke-width:0.0202459;stroke-linecap:round;stroke-miterlimit:4;stroke-dasharray:none;stroke-opacity:1" />
      <path
         inkscape:connector-curvature="0"
         id="path2181"
         d="m -5.3382864,290.89474 c 0.00596,-0.0577 0.015875,-0.1679 0.022013,-0.24485 0.00614,-0.0769 0.030163,-0.26441 0.05334,-0.41661 l 0.042192,-0.27666 0.2520598,0.015 c 0.3222977,0.0192 0.7869766,0.0192 1.0846152,4e-5 0.2209448,-0.0141 0.2335741,-0.0131 0.2453923,0.0243 0.026001,0.0818 0.092428,0.58265 0.104634,0.78889 l 0.012806,0.21485 h -0.9139764 -0.9139061 z"
         style="fill:#a1c66c;fill-opacity:1;stroke:none;stroke-width:0.0202459;stroke-linecap:round;stroke-miterlimit:4;stroke-dasharray:none;stroke-opacity:1" />
      <path
         inkscape:connector-curvature="0"
         id="path2183"
         d="m -5.005123,289.73774 -0.083502,-0.0118 0.086007,-0.23205 c 0.096555,-0.26048 0.2455333,-0.57561 0.3745089,-0.79212 0.084878,-0.14254 0.087454,-0.14475 0.1693686,-0.14494 0.080363,0 0.085796,0.004 0.1627364,0.12581 0.1121479,0.17759 0.2433813,0.44517 0.3499554,0.71349 0.1360665,0.3426 0.1353257,0.33141 0.022437,0.34689 -0.1143704,0.0157 -0.9648825,0.0115 -1.0815108,-0.005 z"
         style="fill:#6cc6a6;fill-opacity:1;stroke:none;stroke-width:0.0202459;stroke-linecap:round;stroke-miterlimit:4;stroke-dasharray:none;stroke-opacity:1" />
      <path
         inkscape:connector-curvature="0"
         id="path2195"
         d="m -3.2820857,291.03767 c -7.144e-4,-0.0141 -0.00444,-0.0701 -0.00751,-0.12453 -0.016616,-0.30014 -0.059549,-0.64872 -0.1146527,-0.93104 -0.00586,-0.0301 -0.010724,-0.058 -0.010724,-0.0619 0,-0.006 0.00642,-0.008 0.069744,-0.0208 0.3857625,-0.0755 0.7770283,-0.18964 1.1138252,-0.32489 0.031997,-0.0128 0.059831,-0.0233 0.061842,-0.0233 0.00727,3.9e-4 0.1086556,0.15737 0.1652412,0.25603 0.204329,0.35633 0.3381024,0.758 0.3877734,1.16425 0.00399,0.0321 0.00804,0.0658 0.00921,0.0751 l 0.00212,0.017 h -0.8374335 -0.8374592 z"
         style="fill:#6c90c6;fill-opacity:1;stroke:none;stroke-width:0.00357899;stroke-linecap:round;stroke-miterlimit:4;stroke-dasharray:none;stroke-opacity:1" />
      <path
         inkscape:connector-curvature="0"
         id="path2197"
         d="m -2.3089482,292.88296 c -0.3445934,-0.13716 -0.6989937,-0.24135 -1.0865202,-0.31948 -0.054398,-0.0109 -0.1006827,-0.0205 -0.1027994,-0.0211 -0.00246,0 3.44e-4,-0.024 0.00967,-0.0713 0.060254,-0.31068 0.1036815,-0.66471 0.1195565,-0.97463 0.00212,-0.0389 0.00455,-0.0838 0.00572,-0.0998 l 0.00212,-0.0291 h 0.837071 c 0.6739467,0 0.8371065,0 0.8371065,0.004 0,0.0141 -0.022508,0.18018 -0.031785,0.23404 -0.06597,0.38485 -0.203553,0.75285 -0.4074231,1.09005 -0.037959,0.0627 -0.1326447,0.20503 -0.1363134,0.20477 -0.00106,0 -0.022085,-0.008 -0.046355,-0.0176 z"
         style="fill:#c66ca0;fill-opacity:1;stroke:none;stroke-width:0.00357899;stroke-linecap:round;stroke-miterlimit:4;stroke-dasharray:none;stroke-opacity:1" />
      <path
         style="fill:#c6b26c;fill-opacity:1;stroke:none;stroke-width:0.0227026;stroke-linecap:round;stroke-miterlimit:4;stroke-dasharray:none;stroke-opacity:1"
         d="m -3.5766903,293.82152 c 0.2561519,-0.10306 0.5094462,-0.24235 0.7312377,-0.40207 0.2744965,-0.19774 0.3910894,-0.30249 0.3528132,-0.31697 -0.1951922,-0.0737 -0.9101315,-0.25293 -0.9261475,-0.2321 -0.0036,0.004 -0.048048,0.13222 -0.099836,0.28471 -0.051717,0.15247 -0.139065,0.37542 -0.1940984,0.49545 -0.055033,0.11999 -0.1000477,0.22471 -0.1000477,0.23267 0,0.0258 0.052952,0.0118 0.236079,-0.0617 z"
         id="path2175-1"
         inkscape:connector-curvature="0" />
      <path
         inkscape:connector-curvature="0"
         id="path2175-1-8"
         d="m -3.6050184,288.66522 c 0.2561166,0.10306 0.509411,0.24235 0.7312025,0.40207 0.2744965,0.19774 0.3910893,0.30249 0.3528483,0.31698 -0.1952273,0.0737 -0.9101667,0.25292 -0.9261827,0.23209 -0.00317,-0.004 -0.048048,-0.13222 -0.099836,-0.2847 -0.051682,-0.15248 -0.139065,-0.37543 -0.1940983,-0.49546 -0.055033,-0.11999 -0.1000125,-0.22471 -0.1000125,-0.23266 0,-0.0258 0.052917,-0.0118 0.236079,0.0617 z"
         style="fill:#c6b36c;fill-opacity:1;stroke:none;stroke-width:0.0227026;stroke-linecap:round;stroke-miterlimit:4;stroke-dasharray:none;stroke-opacity:1" />
      <path
         style="opacity:1;stroke:none;stroke-width:0.100305;stroke-miterlimit:4;stroke-dasharray:none;stroke-opacity:1;stop-opacity:1"
         id="path2-15"
         d="m -9.1567885,291.6365 v 1.88129 c 0,0.1609 0.1305278,0.29125 0.2913944,0.29125 h 2.7389669 c 0.4067527,0.27397 0.881239,0.45456 1.3927667,0.51157 0.033161,0.0126 0.068086,0.0211 0.1033639,0.0211 0.019756,0 0.039864,-0.003 0.059619,-0.007 0.061736,0.004 0.1234723,0.006 0.1862667,0.006 0.2293056,0 0.4526139,-0.0256 0.6678083,-0.0726 v 0.98965 c 0,0.16065 0.1305279,0.29101 0.2913946,0.29101 h 1.1743973 c 0.1217084,0.35609 0.458611,0.61337 0.855486,0.61337 0.49847496,0 0.90416966,-0.40569 0.90416966,-0.90463 0,-0.49847 -0.4056947,-0.90413 -0.90416966,-0.90413 -0.396875,0 -0.7337776,0.25728 -0.855486,0.61316 h -0.8833552 v -0.88738 c 0.7584723,-0.3321 1.3599583,-0.95638 1.6626416,-1.72977 h 1.27493896 c 0.160514,0 0.2910417,-0.13032 0.2910417,-0.29097 v -3.01251 c 0.3559531,-0.12153 0.6131281,-0.45861 0.6131281,-0.85528 0,-0.49872 -0.406047,-0.90462 -0.9048754,-0.90462 -0.498475,0 -0.90416936,0.4059 -0.90416936,0.90462 0,0.39688 0.25752766,0.73399 0.61348066,0.85549 v 2.72119 H -1.3074826 c 0.032456,-0.17971 0.050095,-0.36446 0.050095,-0.55341 0,-1.5568 -1.1444113,-2.851 -2.6363086,-3.08722 v -1.35711 c 0,-0.16065 -0.130175,-0.29097 -0.2910416,-0.29097 h -1.6023171 c -0.1217083,-0.35613 -0.458964,-0.61316 -0.8554863,-0.61316 -0.4988277,0 -0.9041694,0.40566 -0.9041694,0.90413 0,0.49873 0.4053417,0.90442 0.9041694,0.90442 0.3965223,0 0.733778,-0.25732 0.8554863,-0.61316 h 1.311275 v 1.02947 c -1.6820446,0.0487 -3.0353002,1.43069 -3.0353002,3.12371 0,0.7663 0.2776362,1.46868 0.7366002,2.01302 h -1.7998724 v -1.59053 c 0.3563055,-0.1215 0.6134805,-0.45861 0.6134805,-0.85549 0,-0.49847 -0.4060472,-0.90417 -0.9045223,-0.90417 -0.4988278,0 -0.9041694,0.4057 -0.9041694,0.90417 0,0.39688 0.2568222,0.7341 0.612775,0.85549 z m 7.7611116,3.2991 c 0.1778,0 0.3224389,0.14457 0.3224389,0.32191 0,0.17784 -0.1446389,0.32241 -0.3224389,0.32241 -0.1774474,0 -0.3220861,-0.14457 -0.3220861,-0.32241 0,-0.17734 0.1446387,-0.32191 0.3220861,-0.32191 z m 1.19838596,-7.06737 c 0.1778002,0 0.322439,0.14457 0.322439,0.3224 0,0.17759 -0.1446388,0.32216 -0.322439,0.32216 -0.1770944,0 -0.3217334,-0.14457 -0.3217334,-0.32216 0,-0.17783 0.144639,-0.3224 0.3217334,-0.3224 z m -6.44525026,-0.7765 c -0.177447,0 -0.3217333,-0.14457 -0.3217333,-0.32216 0,-0.17758 0.1442863,-0.32191 0.3217333,-0.32191 0.1778,0 0.322439,0.14433 0.322439,0.32191 0,0.17759 -0.144639,0.32216 -0.322439,0.32216 z m -0.2691693,4.41318 h 1.1835693 c 0.01411,0.30339 0.050095,0.60075 0.1061863,0.88713 -0.3026833,0.0604 -0.5930196,0.14503 -0.866775,0.25068 -0.2261306,-0.33168 -0.375003,-0.71952 -0.4229806,-1.13781 z m 2.5198916,-2.83457 c 0.171803,0.26134 0.314325,0.56564 0.4233334,0.89941 -0.149225,0.0116 -0.3005667,0.0192 -0.4536721,0.0192 -0.1615723,0 -0.320675,-0.008 -0.478014,-0.0208 0.1086557,-0.3319 0.2504723,-0.63483 0.4215694,-0.89571 0.028575,-10e-4 0.057856,-0.002 0.086783,-0.002 z m 0.6674557,2.83457 c -0.013758,0.27467 -0.046919,0.54307 -0.098425,0.79999 -0.19685,-0.0185 -0.396875,-0.029 -0.5993694,-0.029 -0.2109613,0 -0.4194529,0.0107 -0.6244167,0.0311 -0.051506,-0.25798 -0.084667,-0.52677 -0.098778,-0.80211 z m -1.4206361,-0.58222 c 0.013758,-0.26773 0.045508,-0.53033 0.09525,-0.78289 0.2060221,0.0206 0.4155721,0.0313 0.6275917,0.0313 0.2039054,0 0.4049887,-0.0104 0.6025444,-0.0292 0.049742,0.25164 0.081139,0.51368 0.094897,0.78081 z m 0.7228417,1.93537 c 0.1516944,0 0.3012721,0.007 0.449086,0.019 -0.10795,0.32596 -0.2480027,0.62402 -0.4169833,0.8812 -0.029986,0 -0.060325,-0.001 -0.090311,-0.002 -0.1679223,-0.25633 -0.3072696,-0.55291 -0.4152196,-0.87736 0.1559279,-0.0128 0.3136196,-0.0205 0.4734279,-0.0205 z m 1.0339917,0.0962 c 0.233539,0.0441 0.4593166,0.10297 0.6738056,0.17713 -0.2719916,0.2371 -0.5944306,0.41747 -0.9493252,0.52243 0.1072446,-0.21823 0.1993196,-0.45272 0.2755196,-0.69956 z m 0.141111,-0.56554 c 0.055739,-0.28533 0.09137,-0.58155 0.105128,-0.88378 h 1.2851693 c -0.048683,0.42781 -0.2042583,0.82353 -0.4388556,1.16029 -0.29845,-0.12002 -0.6180667,-0.21142 -0.9514417,-0.27651 z m 0.105128,-1.466 c -0.013758,-0.29482 -0.047978,-0.58491 -0.101953,-0.86502 0.3361973,-0.0658 0.6582833,-0.15882 0.9581446,-0.28035 0.2293054,0.33352 0.3806471,0.7238 0.4289777,1.14537 z m -0.2413,-1.4308 c -0.076906,-0.25358 -0.17145,-0.49396 -0.2808113,-0.71741 0.3615973,0.10703 0.6896806,0.29192 0.9648473,0.53555 -0.217311,0.0762 -0.445911,0.13681 -0.684036,0.18186 z m -2.1011447,-0.004 c -0.2099029,-0.0408 -0.4123973,-0.0945 -0.6067779,-0.15952 0.249414,-0.22603 0.5439833,-0.4028 0.8681863,-0.51633 -0.1016,0.21167 -0.1887363,0.43815 -0.2614084,0.67585 z m -0.1404056,0.56589 c -0.054328,0.28127 -0.089253,0.57239 -0.103011,0.86837 h -1.1839223 c 0.046919,-0.41159 0.1926166,-0.79354 0.41275,-1.12184 0.2758723,0.10728 0.5686776,0.19241 0.8741833,0.25347 z m 0.1449917,2.90381 c 0.071261,0.23099 0.1562806,0.45155 0.2550583,0.65775 -0.3164417,-0.1113 -0.604661,-0.283 -0.8505473,-0.50204 0.1908529,-0.0632 0.3894666,-0.11575 0.595489,-0.15571 z M -8.8653941,290.459 c 0.1778001,0 0.322439,0.14456 0.322439,0.32194 0,0.1778 -0.1446389,0.32237 -0.322439,0.32237 -0.1778,0 -0.3220861,-0.14457 -0.3220861,-0.32237 0,-0.17738 0.1442861,-0.32194 0.3220861,-0.32194 z"
         inkscape:connector-curvature="0" />
    </g>
  </g>
</svg>
