<?xml version="1.0" encoding="UTF-8" standalone="no"?>
<!-- Created with Inkscape (http://www.inkscape.org/) -->

<svg
   xmlns:dc="http://purl.org/dc/elements/1.1/"
   xmlns:cc="http://creativecommons.org/ns#"
   xmlns:rdf="http://www.w3.org/1999/02/22-rdf-syntax-ns#"
   xmlns:svg="http://www.w3.org/2000/svg"
   xmlns="http://www.w3.org/2000/svg"
   xmlns:xlink="http://www.w3.org/1999/xlink"
   xmlns:sodipodi="http://sodipodi.sourceforge.net/DTD/sodipodi-0.dtd"
   xmlns:inkscape="http://www.inkscape.org/namespaces/inkscape"
   width="50"
   height="50"
   viewBox="0 0 13.229166 13.229167"
   version="1.1"
   id="svg1683"
   inkscape:version="0.92.2 (5c3e80d, 2017-08-06)"
   sodipodi:docname="icon_healthcare.svg">
  <defs
     id="defs1677">
    <inkscape:path-effect
       effect="powerstroke"
       id="path-effect1505"
       is_visible="true"
       offset_points="0.17067398,0.059501125"
       sort_points="true"
       interpolator_type="CubicBezierJohan"
       interpolator_beta="0.2"
       start_linecap_type="zerowidth"
       linejoin_type="extrp_arc"
       miter_limit="4"
       end_linecap_type="zerowidth" />
    <linearGradient
       inkscape:collect="always"
       id="linearGradient1489">
      <stop
         style="stop-color:#c19206;stop-opacity:1"
         offset="0"
         id="stop1485" />
      <stop
         id="stop1495"
         offset="0.14548008"
         style="stop-color:#f3dd07;stop-opacity:0.99215686;" />
      <stop
         id="stop1493"
         offset="0.89999974"
         style="stop-color:#f3dd07;stop-opacity:0.85882353;" />
      <stop
         style="stop-color:#ffffff;stop-opacity:0.98440981"
         offset="1"
         id="stop1487" />
    </linearGradient>
    <linearGradient
       inkscape:collect="always"
       xlink:href="#linearGradient1489"
       id="linearGradient1491"
       x1="5.8799295"
       y1="293.74435"
       x2="5.8799295"
       y2="288.49747"
       gradientUnits="userSpaceOnUse" />
  </defs>
  <sodipodi:namedview
     id="base"
     pagecolor="#ffffff"
     bordercolor="#666666"
     borderopacity="1.0"
     inkscape:pageopacity="0.0"
     inkscape:pageshadow="2"
     inkscape:zoom="8"
     inkscape:cx="6.3622328"
     inkscape:cy="41.134423"
     inkscape:document-units="mm"
     inkscape:current-layer="layer1"
     showgrid="false"
     units="px"
     inkscape:window-width="2160"
     inkscape:window-height="1356"
     inkscape:window-x="0"
     inkscape:window-y="42"
     inkscape:window-maximized="1"
     inkscape:snap-global="false" />
  <metadata
     id="metadata1680">
    <rdf:RDF>
      <cc:Work
         rdf:about="">
        <dc:format>image/svg+xml</dc:format>
        <dc:type
           rdf:resource="http://purl.org/dc/dcmitype/StillImage" />
        <dc:title></dc:title>
      </cc:Work>
    </rdf:RDF>
  </metadata>
  <g
     inkscape:label="Calque 1"
     inkscape:groupmode="layer"
     id="layer1"
     transform="translate(0,-283.77082)">
    <path
       style="opacity:1;fill:#80c790;fill-opacity:1;stroke:none;stroke-width:0.19299737;stroke-miterlimit:4;stroke-dasharray:none;stroke-opacity:1"
       d="m 12.37754,290.32987 a 5.5857795,5.5857795 0 0 1 -5.58578,5.58579 5.5857795,5.5857795 0 0 1 -5.5857795,-5.58579 5.5857795,5.5857795 0 0 1 5.5857795,-5.58577 5.5857795,5.5857795 0 0 1 5.58578,5.58577 z"
       id="path1497"
       inkscape:connector-curvature="0" />
    <path
       style="fill:#000000;stroke:#0c0801;stroke-width:0.07560823;stroke-miterlimit:4;stroke-dasharray:none;stroke-opacity:1"
       d="m 6.6106305,295.3353 c -0.065183,-0.22957 0.091034,-0.87774 0.063354,-0.30319 -0.01196,0.048 0.025201,0.36436 -0.063354,0.30319 z m 0.00649,-0.74582 c 0.016468,-0.11541 0.100355,0.0656 0,0 z m -0.01543,-0.14722 c 0.041238,-0.13895 0.1492387,0.0599 0,0 z m 0.018482,-0.2003 c -0.049096,-0.20652 0.1017616,-0.42241 0.051298,-0.0666 l -0.021698,0.0575 -0.029598,0.009 z m 1.1641455,-0.78247 c -0.3558474,0.14697 -0.8513448,-0.005 -1.1044094,0.30754 -0.1323177,0.0756 -0.3197905,-0.37459 -0.1902194,-0.53956 -0.2090184,-0.39645 -0.4097308,-0.79843 -0.6550117,-1.1742 -0.4217145,0.0703 -0.8574679,0.2305 -1.282932,0.11809 -0.1788552,-0.13732 -0.5227227,0.09 -0.5111632,-0.26543 -0.2116554,-0.0523 0.2561794,-0.48467 0.3469767,-0.64633 0.3232882,-0.35077 0.4492033,-0.82759 0.7760046,-1.17539 0.2639014,-0.29328 -0.6825916,0.0392 -0.2758328,-0.3791 0.2387102,-0.21433 -0.3445244,-0.028 -0.087709,-0.29334 0.4822599,-0.80209 0.9568297,-1.6099 1.4000288,-2.43418 -0.2314715,0.0326 -0.5236611,0.18705 -0.7181647,0.1574 0.2461885,-0.10399 0.5115695,-0.15189 0.7682763,-0.22399 0.1792004,-0.25469 0.2819871,-0.59296 0.5037945,-0.79326 0.5240492,0.80684 0.9693768,1.66572 1.468811,2.48936 0.084302,0.26382 0.5108711,0.63823 0.390685,0.85438 -0.4543452,-0.0645 0.2708212,0.50674 -0.2311661,0.42648 -0.6185254,-0.0535 0.1744607,0.49961 0.1743893,0.7875 0.2188649,0.46734 0.6309963,0.80064 0.861031,1.25709 0.055192,0.16794 -0.1782665,0.13145 -0.2568537,0.28537 -0.3520711,-0.15274 -0.7788418,0.18835 -1.1875762,-10e-4 -0.2104802,0.006 -0.5209636,-0.26269 -0.581989,0.0563 -0.1791644,0.34656 -0.3775095,0.68263 -0.5767621,1.01789 0.066052,0.12481 0.1078808,0.29239 0.2847209,0.22164 0.4690232,-0.009 0.8991451,-0.21726 1.3471362,-0.3213 -0.2061399,0.11805 -0.4366657,0.19485 -0.6620653,0.26821 z m -0.9622383,0.0291 c 0.014365,-0.31802 -0.2874683,0.34218 -0.029767,0.0743 l 0.02977,-0.0743 z m -0.2334414,-0.0303 c -0.266697,-0.35161 0.1180028,0.55308 0,0 z m 0.298989,-0.41569 c 0.1494005,-0.31224 0.445257,-0.65466 0.4771737,-0.9666 -0.3422031,-0.11404 -0.8205017,-0.36615 -0.6677492,0.21305 0.00921,0.30959 -0.056545,0.82437 0.033278,1.01236 0.052858,-0.086 0.1051192,-0.17239 0.1572975,-0.25881 z M 6.632069,292.92725 c -0.049666,-0.33564 0.1077429,-0.83514 -0.076973,-1.07199 -0.2947545,0.0775 -0.8357906,0.13461 -0.457064,0.51961 0.1679765,0.2925 0.3748439,0.77598 0.5326905,0.94149 0.00148,-0.1297 0.0014,-0.25942 0.00135,-0.38911 z m 2.5996569,-1.03493 c 0.1325548,-0.21828 -0.3117374,-0.4712 -0.4567572,-0.73657 -0.2679385,-0.407 -0.474603,-0.85177 -0.765762,-1.24384 -0.142837,-0.37497 -0.1625221,-0.94028 -0.6936181,-0.94881 -0.3182867,-0.002 -0.4009994,-0.41976 -0.6902687,-0.12404 -0.1517776,0.16546 -0.1243229,-0.12931 -0.2281331,0.0849 0.039477,-0.30229 0.036664,-0.086 -0.074493,-0.0554 0.1357808,-0.25506 -0.4262852,0.44394 -0.2052442,0.10301 -0.1891095,0.12636 -0.4301488,0.10612 -0.5690777,0.28576 -0.077601,0.11784 -0.045662,0.38246 -0.139784,0.53725 0.014079,0.13556 -0.055007,0.0685 -0.067944,0.18082 -0.026236,0.16385 -0.2696118,0.31578 -0.413642,0.56138 -0.2034806,0.42701 -0.5010335,0.79214 -0.8089026,1.14724 -0.1256675,0.21915 -0.089656,0.11715 0.052149,0.0636 -0.1197569,0.12969 0.029014,0.51913 7.95e-5,0.15816 0.094519,-0.31872 0.3601847,0.18133 0.241352,-0.20166 0.1340233,-0.31648 0.1118875,0.43342 0.1619944,-0.0296 -0.048793,-0.54224 0.4674676,-0.76841 0.7599588,-1.12187 0.1502549,-0.349 0.4413401,-0.73441 0.4407547,-1.06709 0.055595,0.16285 0.1310226,0.35321 0.126637,0.36541 0.1950487,0.11795 -0.1446393,0.027 0.1437674,0.15856 0.2129478,0.1139 -0.3345017,-0.0497 -0.020571,0.10652 -0.1406606,-0.21077 0.2358587,0.24179 -0.084154,0.0203 0.089338,0.11043 0.2633696,0.24328 -0.00622,0.0902 -0.1175895,0.0519 0.439863,0.51097 0.011049,0.2151 0.00401,0.0678 0.3686208,0.28432 0.033788,0.12526 -0.2204895,0.0493 0.3691484,0.34036 -0.034819,0.17351 -0.1684031,-0.046 0.2988603,0.25541 0.026717,0.10973 -0.2421606,0.001 0.2756424,0.0748 0.3257231,0.14618 0.062248,0.52223 0.5233747,0.26391 0.7067649,-0.0264 0.2298734,-0.095 0.5864888,0.23491 0.3728508,-0.18983 -0.075427,-0.29775 -0.015254,-0.7668 -0.1237222,-0.82049 0.140034,-0.17189 -0.1520121,-0.11248 0.1116202,-0.26495 0.1118366,-0.29754 0.2094832,-0.11233 0.1607645,-0.0122 0.2459767,0.0269 -0.2005483,0.0443 0.068103,0.0843 0.2268081,0.0754 -0.3036333,0.0284 0.074757,0.0822 0.029534,0.1002 0.1262656,0.1012 -0.075523,0.10234 0.1827204,0.0188 0.3152417,0.14449 0.130615,0.14987 0.2397597,0.08 0.061695,0.0966 0.3176345,0.14489 -0.2029281,0.0683 -0.0618,0.0994 -0.025456,0.15859 -0.3949599,-0.0525 0.3825451,0.0785 -0.059496,0.0732 0.079943,0.0633 0.3622489,0.12549 0.042333,0.0877 -0.1227233,-0.0295 0.3681843,0.1709 -0.00228,0.0827 -0.075634,0.023 0.5769194,0.20351 0.1678003,0.17109 0.156628,0.0591 0.313214,0.0582 0.2519722,0.11866 0.1895139,0.0733 -0.2624725,0.0301 0.050669,0.0887 0.1847244,0.0549 -0.2640607,0.0622 0.07273,0.10253 0.093868,0.0269 -0.077797,0.0686 0.1107815,0.10114 -0.086635,0.0155 0.039162,0.49765 0.072668,0.70174 -0.040051,-0.19219 0.2058726,-0.47229 0.2200398,-0.12545 -0.2055775,0.31683 0.023196,-0.0306 0.1226441,-0.0247 0.051503,0.20208 0.0032,0.52786 0.092462,0.12496 0.083609,-0.0484 -0.042273,0.49667 0.090933,0.0892 l -0.00229,-0.0488 -0.013932,-0.055 z m -1.027217,-1.14497 c -0.1644426,-0.0941 0.1329365,-0.0148 0,0 z m -0.9867842,-0.0177 c -0.059093,-0.41609 0.141282,-0.14815 0,0 z m -0.098606,-0.0225 c 0.032356,-0.19075 0.095286,0.064 0,0 z m -1.0585439,-0.006 c 0.016468,-0.1154 0.1003591,0.0656 0,0 z m -0.090986,-0.0558 c 0.016465,-0.11541 0.1003621,0.0655 0,0 z m 1.7739618,-0.76745 c -0.010201,-0.11227 0.1183368,0.051 0,0 z m -1.6641595,0.53767 c -0.080607,-0.14489 0.1848134,0.0463 0,0 z m -0.115122,-0.0748 c 0.016465,-0.11541 0.1003613,0.0656 0,0 z m 1.1607499,-0.4945 c 0.022252,-0.077 0.1033792,0.0621 0,0 z m -1.9455871,0.76391 c 0.1622299,-0.37621 0.192924,-0.0643 0,0 z m 1.0104403,-0.60458 c 0.00862,-0.12549 0.089442,0.0781 0,0 z m -0.1420661,-0.0356 c 0.016466,-0.11541 0.100359,0.0656 0,0 z m 1.5662113,-0.8093 c -0.1290275,-0.17694 0.1806267,0.0901 0,0 z m -0.088085,0.0369 c 0.016466,-0.11541 0.1003582,0.0655 0,0 z m -1.5079517,-0.055 c 0.1929206,-0.17392 0.3445767,-0.0824 0,0 z m -0.1909857,-0.0356 c -0.05247,-0.099 0.145332,0.0529 0,0 z m 0.4341791,-0.17282 c 0.037338,-0.11276 0.05288,0.0842 0,0 z m 2.6447578,3.09955 c 0.3910921,-0.28493 -0.387887,0.18337 -0.275091,-0.23003 0.1064942,-0.38445 -0.4595767,-0.37328 -0.5688095,-0.3924 0.090063,0.17416 -0.3566931,-0.0716 -0.010462,0.12602 0.1887983,-0.002 0.5152299,0.35842 0.1570112,0.12148 -0.2508519,-0.11718 -0.7182075,-0.16479 -0.688614,-0.05 -0.061985,0.0621 -0.3412075,-0.0669 -0.095678,0.0648 -0.1521248,-0.009 -0.3921671,-0.0626 -0.096843,0.0444 -0.191625,-0.0174 -0.4902434,-0.0719 -0.1311907,0.0288 0.016521,0.19227 -0.6153487,-0.0805 -0.2506998,0.0857 0.2838729,0.17096 0.7519958,0.24971 1.121823,0.32939 0.2729243,0.0619 0.6156216,0.0633 0.8385542,-0.12821 z m -0.6180637,-0.49925 c -0.047095,-0.032 0.048753,0.11123 -0.1550571,-0.0244 -0.035547,-0.21682 0.5108261,0.19856 0.1550571,0.0244 z m -1.0354304,0.40968 c -0.1896569,-0.15048 0.3167754,0.0814 0,0 z m -0.1722243,-0.0439 c -0.1295827,-0.12176 0.1820915,0.007 0,0 z m 1.7936218,-0.0976 c 0.037266,-0.26054 -0.1649244,0.0352 -0.023843,0.0497 z m -0.499112,-0.62466 c -0.3118082,-0.3091 -0.5540673,-0.66882 -0.7660226,-1.05311 -0.1008049,-0.21042 -0.2577762,-0.36056 -0.2050156,-0.0204 3.189e-4,0.32677 -0.014204,0.67348 0.1612829,0.96365 0.296657,-0.11366 0.657752,0.01 0.8406507,0.25097 0.2725935,0.23961 0.061743,-0.0262 -0.030895,-0.14113 z m -1.1955177,0.59701 c -0.2645058,-0.0723 -0.07067,0.0338 0,0 z m 0.9483581,-0.57088 c -0.3322698,-0.19848 -0.7014166,0.0149 -1.0468591,-0.17968 -0.2846232,0.37549 -0.7649401,0.44554 -1.2093222,0.43188 -0.2992603,-0.0757 -0.6834913,0.16307 -0.8562367,0.21466 0.035425,-0.14161 0.5242666,-0.41387 0.1470997,-0.21561 -0.2699309,0.21444 0.086427,-0.13907 -0.1433493,0.002 -0.3208837,-0.13568 -0.5892985,0.61877 -0.582074,0.5375 0.3548914,0.26907 0.8313717,0.0897 1.2267964,0.0295 0.6557273,-0.1459 1.2754505,-0.41273 1.9223086,-0.58787 0.1677528,-0.10642 0.5622039,-0.16127 0.6315223,-0.19578 l -0.089861,-0.037 z m -0.8192639,0.25771 c -0.00639,-0.12461 0.1472044,0.065 0,0 z m 0.11493,-0.0457 c 0.2100197,-0.20476 0.4358334,-0.0641 0,0 z m -0.2176208,0.0559 c 0.016468,-0.11541 0.1003559,0.0656 0,0 z m -0.4121028,0.14133 c -0.3745401,0.13555 0.083554,-0.20615 0.2028235,-0.067 -0.063078,0.0311 -0.1376824,0.0393 -0.2028235,0.067 z m 0.2711003,-0.11587 c 0.013942,-0.12534 0.1518892,0.0613 0,0 z m -2.1882586,0.53481 c -0.1149253,-0.10837 0.3145793,-0.0162 2.4e-6,1e-5 z m 0.4419655,-0.39181 c 0.1939767,-0.18554 0.1302816,0.0684 -9e-7,-2e-5 z m 0.8612775,-0.31982 c 0.1097764,0.1075 0.1576048,-0.46263 -0.1479674,-0.28602 -0.2181367,0.1668 -0.8808677,-0.0305 -0.8810938,0.21011 0.2510144,0.0165 0.5997287,0.25849 0.79906,0.0957 0.1946916,0.10099 0.065576,-0.11147 0.2608572,0.0341 l -0.030856,-0.0538 z M 6.061366,291.11468 c -0.081811,-0.12095 0.2533575,0.0575 0,0 z m -1.7912264,0.76484 c 0.09456,-0.16908 -0.1892791,0.2042 0.020419,0.19137 0.00277,-0.0642 7.93e-5,-0.12995 -0.020419,-0.19137 z m 0.2035036,-0.16513 c -0.050205,-0.10201 -0.00556,0.15624 0,0 z m 1.3166194,-0.71187 c -0.1426178,-0.0714 0.1545986,0.16831 0,0 z m 0.061297,-0.0274 c -0.1703151,-0.0426 0.1924003,0.11365 0,0 z m 0.085844,-0.0555 c -0.3200651,-0.16237 0.2057334,0.19376 0,0 z m -1.06956,0.37448 c 0.2726823,-0.34509 0.9963014,-0.13598 0.9774534,-0.76365 0.045186,-0.2088 -0.040544,-0.90459 -0.2304567,-0.41301 -0.1081722,0.49949 -0.5358656,0.75417 -0.8630446,1.08981 -0.1582394,0.27243 -0.1218459,0.36145 0.1160479,0.0868 z m 0.1841319,-0.0587 c -0.1934762,0.0441 0.041644,0.0372 0,0 z m 3.4386129,-1.49408 c -0.5859984,-1.03814 -1.1616351,-2.08558 -1.7858042,-3.10003 -0.087968,-0.007 -0.1488491,0.24582 -0.2263281,0.33951 -0.5157092,0.96525 -1.0871291,1.90157 -1.5796036,2.87829 0.075686,0.071 0.4524244,0.10976 0.421502,-0.13116 0.018834,-0.4814 0.3291975,-0.79785 0.80098,-0.83259 0.4043121,-0.21107 -0.2102519,-0.68129 0.1415587,-1.00468 0.2977964,-0.4666 1.0420061,-0.0743 0.8600299,0.45132 -0.248468,0.26581 -0.1488516,0.58024 0.2568442,0.56454 0.5950233,-0.0286 0.4744254,0.72121 0.7671148,0.93455 0.081954,-0.0368 0.416488,0.0715 0.3437063,-0.0997 z m -1.7888557,-2.82284 c 0.01647,-0.11541 0.1003559,0.0656 0,0 z m 1.4390802,1.68155 c -0.3326517,-0.55309 -0.6244882,-1.13441 -0.9891238,-1.66619 -0.082487,-0.16295 -0.2018098,-0.42277 -0.3302644,-0.6161 -0.1048837,-0.32301 -0.2085573,0.14476 -0.3106563,0.2413 -0.5561718,0.99672 -1.1484318,1.97334 -1.694355,2.97556 0.3854313,-0.0572 0.4341682,-0.62631 0.6749729,-0.88965 0.3885905,-0.69355 0.7921204,-1.37929 1.1575097,-2.08543 0.2772583,0.14128 0.4187734,0.66943 0.6356533,0.95878 0.3626521,0.61531 0.6855264,1.25584 1.0792007,1.85187 0.4423708,0.18002 -0.080704,-0.45946 -0.1389851,-0.62392 l -0.041432,-0.0723 -0.042515,-0.0739 z m -1.1761125,-0.0992 c 0.2861075,-0.26037 -0.0244,-0.90014 -0.3625356,-0.71546 -0.1476891,-0.0289 -0.027789,0.0642 -0.1935094,0.027 0.2311715,0.2308 -0.3314418,0.002 0.00762,0.1757 0.03515,0.0726 -0.262601,-0.0703 -0.015253,0.0667 -0.052117,0.057 0.1184638,0.13525 -0.1359069,0.0331 0.2159072,0.0293 0.2209641,0.38608 -0.032938,0.19825 0.2712448,0.1496 0.059392,0.10014 -0.00115,0.083 0.1095463,0.0455 0.3753557,0.26537 0.137158,0.20983 0.3084807,0.1505 -0.1950161,0.005 0.1427996,0.13599 0.1748875,0.0471 0.3808013,-0.0467 0.4537121,-0.21402 z m -0.4119538,0.19454 c 0.016472,-0.11541 0.1003525,0.0656 0,0 z m 0.2865266,-0.16006 c 0.2073078,-0.23358 -0.062551,0.1841 0,0 z m -0.4102027,-0.017 c -0.2543366,-0.12453 -0.041889,0.0352 0,0 z m -0.029106,-0.23206 c -0.246793,-0.10835 -0.2721381,-0.0722 0,0 z m -0.048874,-0.0932 c -0.2767168,-0.11852 0.1764345,0.15347 0,0 z m 0.060651,-0.31685 c -0.1167826,-0.0752 0.083479,0.11667 0,0 z m 2.1499642,5.26714 c -0.056586,-0.11389 0.1277842,0.008 0,0 z m 0.1246829,-0.0829 c 0.1145176,-0.17027 0.2666656,0.013 0,0 z m 0.3058033,-0.15062 c 0.3354148,-0.20819 0.6576306,-0.58267 0.9258926,-0.78655 -0.206987,0.3479 -0.5598527,0.63198 -0.9207302,0.80063 z m -2.7048341,0.61211 c -0.087533,-0.18916 0.2124368,0.0316 0,0 z M 9.982366,292.0258 c -0.05659,-0.11389 0.127784,0.008 0,0 z m 0.05208,-0.0799 c -0.06665,-0.15572 0.145041,-0.0102 0,0 z m -4.0322282,1.54907 c -0.1370636,-0.15406 0.2798734,-0.006 0,0 z m 4.0899362,-1.66885 c 0.06076,-0.1431 0.101094,0.0832 0,0 z m -4.3329918,1.61833 c -0.059446,-0.21145 0.2195795,0.0781 0,0 z m 4.4361208,-1.74547 c 0.166543,-0.28231 0.268578,-0.7706 0.409599,-0.95014 -0.06713,0.31911 -0.180771,0.75823 -0.409599,0.95014 z m -4.0894884,1.59118 c -0.052475,-0.099 0.145336,0.0529 0,0 z m -0.3877519,-0.0566 c -0.1979398,-0.005 -0.6097738,-0.26164 -0.1929938,-0.11689 0.117203,0.004 0.6700102,0.21032 0.2760469,0.13823 z m -0.1911422,0.15299 c -0.1236325,-0.14204 0.1927645,0.002 0,0 z m -0.2437044,-0.0757 c -0.094848,-0.19485 0.2312756,0.0297 0,0 z m -0.2045317,-0.0781 c -0.1944886,-0.13208 0.2045728,-0.0364 0,0 z m 0.063543,-0.22034 c 0.00951,-0.11429 0.1115256,0.10463 0,0 z m -0.4053332,0.0838 c -0.084357,-0.22136 0.2448565,0.0407 0,0 z m 0.3129181,-0.11776 c -0.099317,-0.12201 0.1113234,0.01 0,0 z m -0.1572619,-0.0621 c -0.059356,-0.1303 0.1686587,0.0424 0,0 z m 5.6869946,-2.30996 c -0.0079,-0.24844 0.197195,0.0967 0,0 z m -0.233338,0.0738 c 0.03236,-0.19075 0.09529,0.064 0,0 z m -5.8301292,2.28918 c -0.083348,-0.21058 0.2744158,0.0289 0,0 z m 0.061711,-0.2535 c -0.2064327,-0.07 -0.3567796,-0.38008 -0.046507,-0.10689 0.141216,0.0622 0.5085037,0.34985 0.1350856,0.16146 l -0.043405,-0.0261 z m 5.8100562,-2.21645 c 0.03948,-0.18331 0.07241,0.10419 0,0 z m -6.0670419,2.33299 c -0.087531,-0.18916 0.2124393,0.0316 0,0 z m 6.0850039,-2.44852 c 0.01777,-0.11704 0.07805,0.0612 0,0 z m 0.215888,-0.084 c -0.04164,-0.26251 0.189046,0.0448 0,0 z m -0.184055,-0.009 c -0.01118,-0.22923 -0.156942,-0.70711 -0.07238,-0.79989 0.0509,0.24033 0.158203,0.61403 0.07238,0.79989 z m -6.2599673,2.44522 c -0.087533,-0.18916 0.2124361,0.0316 0,0 z m 6.4604253,-2.67214 c -0.123632,-0.14204 0.192764,0.002 0,0 z m -6.671024,2.45959 c -0.2059424,-0.11574 -0.4224199,-0.59447 -0.1218364,-0.20307 0.063359,0.071 0.4861387,0.45774 0.1218364,0.20307 z m 6.642813,-2.7131 c -0.104955,-0.22612 0.179194,0.043 0,0 z m -0.0211,-0.22675 c -0.131765,-0.14334 0.177579,-0.006 0,0 z m -7.0114238,2.50455 c 0.00862,-0.12549 0.089443,0.0781 0,0 z m 6.9438398,-2.75285 c -0.0882,-0.16527 0.158023,0.0101 0,0 z m -0.235641,0.0536 c 0.02338,-0.12451 0.07796,0.0623 0,0 z m -6.8002489,2.58253 c 0.016468,-0.11541 0.1003574,0.0656 0,0 z m 6.7614339,-2.70664 c -0.0074,-0.14551 0.117556,0.10258 0,0 z m 0.181299,-0.15152 c -0.08832,-0.19313 0.205963,0.0415 0,0 z m -0.197821,0.0523 c 0.02337,-0.12451 0.07796,0.0623 0,0 z m -6.9429682,2.48693 c -0.079132,-0.34692 -0.3761481,-0.60208 -0.3240205,-0.91724 0.047798,-0.19355 -0.061626,-0.68658 0.06707,-0.70875 -0.110603,0.41317 0.1614399,0.7376 0.1193205,1.10147 -0.013739,0.21236 0.3428092,0.66716 0.2363135,0.69682 -0.036876,-0.0551 -0.067714,-0.11381 -0.098683,-0.1723 z M 3.11012,290.93665 c 0.024421,-0.31944 -0.2858253,0.1392 0,0 z m 6.981501,-2.08551 c -0.207999,-0.39888 0.124146,-0.005 0.131956,0.19285 -0.06372,-0.0489 -0.09169,-0.12678 -0.131956,-0.19285 z m 0.242449,0.0399 c 0.0057,-0.17012 0.141294,0.11071 0,0 z m -0.07152,-0.15014 c -0.107696,-0.16232 0.170601,0.0349 0,0 z m -0.08714,-0.15124 c 0.01096,-0.16199 0.105278,0.0942 0,0 z m -0.06488,-0.14806 c -0.25519,-0.23794 -0.449268,-0.65634 -0.8166529,-0.7042 -0.2655731,-0.1132 -0.3798485,-0.45904 -0.7410783,-0.50511 -0.4063493,-0.21022 0.2947531,0.0346 0.4045271,0.14491 0.1614542,0.1243 0.5811084,-0.0287 0.4814444,0.31234 0.2408417,0.18026 0.6459237,0.5567 0.6717597,0.75206 z m -0.7489982,-0.89495 c -0.2860263,-0.25663 -0.2439759,0.33818 0.01045,0.0552 l -0.010449,-0.0552 z m -6.34821,2.34662 c -0.017911,-0.13263 0.091918,0.0169 0,0 z m 0.015191,-0.14769 c 0.1000844,-0.19305 0.030014,0.15209 0,0 z m 0.045,-0.14971 c 0.012749,-0.22387 0.1766679,-0.35873 0.065146,-0.0486 1.11e-5,0.0109 -0.04036,0.10156 -0.065146,0.0486 z m 0.1492775,-0.47837 c 0.1462079,-0.29736 0.4420654,-0.81971 0.6492851,-0.90455 -0.2547601,0.30229 -0.454031,0.64875 -0.6609936,0.98027 l -0.00325,-0.01 z m 5.0333494,-1.98007 c -0.1366604,-0.11201 0.1704138,-0.0657 0,0 z m -0.2107162,-0.0812 c 0.029198,-0.13293 0.1415495,0.0705 0,0 z m -0.184806,-0.0468 c 0.016471,-0.11541 0.100355,0.0656 0,0 z m -2.3169592,0.8292 c 0.1247916,-0.24166 0.084066,0.10481 -0.018704,0.0503 z m 2.0819485,-0.84729 c -0.088197,-0.16527 0.1580259,0.0101 0,0 z m -1.9651484,0.67913 c 0.063728,-0.13805 0.055835,0.0819 0,0 z m 0.062786,-0.0863 c 0.00862,-0.12549 0.089438,0.0781 0,0 z m 1.6473258,-0.6557 c -0.00639,-0.12461 0.1472035,0.065 0,0 z m -1.5815855,0.54518 c 0.042322,-0.15341 0.3410218,-0.54815 0.1462008,-0.17863 -0.042686,0.0266 -0.075117,0.22874 -0.1462008,0.17863 z m -0.1343557,0.0336 c 0.068284,-0.1741 0.3940038,-0.58449 0.1669435,-0.18107 -0.050953,0.0444 -0.085853,0.18881 -0.1669435,0.18107 z m -1.595747,0.494 c 0.01647,-0.11541 0.1003558,0.0656 0,0 z m 1.5853452,-0.62671 c 0.1101682,-0.35837 0.2126581,-0.1233 0,0 z m -1.4823554,0.52874 c 0.2179397,-0.22076 0.7350104,-0.615 0.906169,-0.55808 -0.3299486,0.12538 -0.6265169,0.41251 -0.906169,0.55808 z m 2.5453603,-1.89676 c -0.1276193,-0.14795 0.2287105,-0.0215 0,0 z m 0.00643,-0.18404 c 0.015948,-0.13952 0.1591898,0.0986 0,0 z"
       id="path1619"
       inkscape:connector-curvature="0"
       sodipodi:nodetypes="cccccccccccccccccccccccccccccccccccccccccccccccccccccccccccccccccccccccccccccccccccccccccccccccccccccccccccccccccccccccccccccccccccccccccccccccccccccccccccccccccccccccccccccccccccccccccccccccccccccccccccccccccccccccccccccccccccccccccccccccccccccccccccccccccccccccccccccccccccccccccccccccccccccccccccccccccccccccccccccccccccccccccccccccccccccccccccccccccccccccccccccccccccccccccccccccccccccccccccccccccccccccccccccccccccccccccccccccccccccccccccc" />
  </g>
</svg>
