<?xml version="1.0" encoding="UTF-8" standalone="no"?>
<!-- Created with Inkscape (http://www.inkscape.org/) -->

<svg
   xmlns:dc="http://purl.org/dc/elements/1.1/"
   xmlns:cc="http://creativecommons.org/ns#"
   xmlns:rdf="http://www.w3.org/1999/02/22-rdf-syntax-ns#"
   xmlns:svg="http://www.w3.org/2000/svg"
   xmlns="http://www.w3.org/2000/svg"
   xmlns:sodipodi="http://sodipodi.sourceforge.net/DTD/sodipodi-0.dtd"
   xmlns:inkscape="http://www.inkscape.org/namespaces/inkscape"
   width="50"
   height="50"
   viewBox="0 0 13.229167 13.229167"
   version="1.1"
   id="svg1483"
   inkscape:version="0.92.2 (5c3e80d, 2017-08-06)"
   sodipodi:docname="icon_solidarity.svg"
   inkscape:export-filename="/home/feel/software/dev/ufc-frontend/src/assets/icon/icon_solidarity.png"
   inkscape:export-xdpi="10.24"
   inkscape:export-ydpi="10.24">
  <defs
     id="defs1477" />
  <sodipodi:namedview
     id="base"
     pagecolor="#ffffff"
     bordercolor="#666666"
     borderopacity="1.0"
     inkscape:pageopacity="0.0"
     inkscape:pageshadow="2"
     inkscape:zoom="1.979899"
     inkscape:cx="4.3096894"
     inkscape:cy="93.68528"
     inkscape:document-units="mm"
     inkscape:current-layer="layer1"
     showgrid="false"
     fit-margin-top="0"
     fit-margin-left="0"
     fit-margin-right="0"
     fit-margin-bottom="0"
     inkscape:window-width="2160"
     inkscape:window-height="1356"
     inkscape:window-x="0"
     inkscape:window-y="42"
     inkscape:window-maximized="1"
     units="px" />
  <metadata
     id="metadata1480">
    <rdf:RDF>
      <cc:Work
         rdf:about="">
        <dc:format>image/svg+xml</dc:format>
        <dc:type
           rdf:resource="http://purl.org/dc/dcmitype/StillImage" />
        <dc:title></dc:title>
      </cc:Work>
    </rdf:RDF>
  </metadata>
  <g
     inkscape:label="Calque 1"
     inkscape:groupmode="layer"
     id="layer1"
     transform="translate(-117.17262,-495.43751)">
    <path
       style="fill:#000000;fill-opacity:1;stroke:none;stroke-width:0.23047209;stroke-miterlimit:4;stroke-dasharray:none;stroke-opacity:1"
       d="m 122.79141,506.35804 c -0.40658,-0.10947 -1.1106,-0.42494 -1.34736,-0.60375 -0.1054,-0.0796 -0.10624,-0.0902 -0.0144,-0.18201 0.0673,-0.0674 0.16997,-0.0923 0.33156,-0.0806 0.23084,0.0167 0.24514,0.006 1.03075,-0.77248 0.43815,-0.43416 0.79665,-0.8329 0.79665,-0.8861 0,-0.22431 -0.18423,-0.16377 -0.53937,0.17725 -0.56271,0.54033 -0.5116,0.40123 0.0708,-0.19262 0.28923,-0.29493 0.52587,-0.5623 0.52587,-0.59418 0,-0.0319 -0.0401,-0.0913 -0.0892,-0.13199 -0.0765,-0.0636 -0.156,-0.007 -0.55946,0.39379 -0.25864,0.25729 -0.49498,0.46782 -0.52519,0.46782 -0.0302,0 0.18544,-0.24137 0.47923,-0.53639 0.53819,-0.54044 0.63009,-0.72416 0.38575,-0.77122 -0.0739,-0.0142 -0.28271,0.15426 -0.67212,0.5422 -0.31073,0.30958 -0.56497,0.53693 -0.56497,0.50525 0,-0.0317 0.19409,-0.25023 0.43132,-0.48562 0.41973,-0.4165 0.51335,-0.61036 0.32477,-0.67249 -0.0408,-0.0134 -0.33856,0.23576 -0.66172,0.55377 -0.32318,0.31801 -0.61079,0.57821 -0.63918,0.57821 -0.0283,0 0.0603,-0.11404 0.19711,-0.25342 0.25504,-0.25986 0.28472,-0.43367 0.0741,-0.43367 -0.0581,0 -0.3706,0.26947 -0.69671,0.60086 l -0.59128,0.60086 0.0347,0.25252 c 0.0247,0.18008 0.0118,0.27146 -0.0449,0.31854 -0.0644,0.0535 -0.12331,-0.008 -0.30977,-0.32376 -0.38884,-0.65831 -0.5383,-1.19163 -0.56783,-2.02641 -0.0213,-0.60175 -0.006,-0.79915 0.0951,-1.19724 0.38605,-1.52665 1.54798,-2.70398 3.04597,-3.08637 0.41889,-0.10693 0.42528,-0.1069 0.44354,0.002 0.0111,0.0662 -0.0524,0.17654 -0.15866,0.2758 l -0.17718,0.16552 0.0156,1.16399 c 0.0149,1.12065 0.0197,1.16399 0.13002,1.16399 0.10508,0 0.11588,-0.0436 0.13098,-0.52962 0.009,-0.2913 0.0405,-0.52963 0.0699,-0.52963 0.0296,0 0.0606,0.33852 0.0694,0.75866 0.0151,0.71516 0.0226,0.75866 0.13049,0.75866 0.10657,0 0.11564,-0.0437 0.13089,-0.62905 0.0239,-0.91838 0.12676,-0.91078 0.12676,0.009 0,0.59574 0.0176,0.76335 0.0859,0.82006 0.0685,0.0569 0.10325,0.0569 0.17177,0 0.0688,-0.0572 0.0859,-0.22979 0.0859,-0.86925 0,-0.5174 0.0201,-0.78552 0.0573,-0.76258 0.0328,0.0203 0.0573,0.31683 0.0573,0.69445 0,0.65072 0.002,0.65882 0.12883,0.64077 0.12556,-0.0178 0.12955,-0.04 0.15746,-0.87716 0.0271,-0.81528 0.0925,-1.02109 0.12713,-0.4008 0.0136,0.24277 0.0334,0.28629 0.13053,0.28629 0.10875,0 0.1153,-0.0435 0.13027,-0.86363 0.0146,-0.80342 0.007,-0.87426 -0.10436,-1.01632 -0.0661,-0.0839 -0.15689,-0.1527 -0.20184,-0.1527 -0.0449,0 -0.0817,-0.0509 -0.0817,-0.11308 0,-0.13663 0.1421,-0.11986 0.8016,0.0946 1.22694,0.39896 2.22497,1.40001 2.67287,2.68098 0.14879,0.42553 0.16016,0.52108 0.16016,1.34554 0,0.82534 -0.0112,0.91957 -0.1606,1.34554 -0.18291,0.52168 -0.54313,1.17378 -0.64839,1.17378 -0.0488,0 -0.0673,-0.097 -0.0597,-0.31364 l 0.011,-0.31365 -0.57149,-0.57384 c -0.31432,-0.31562 -0.61788,-0.57384 -0.67458,-0.57384 -0.19568,0 -0.17995,0.17179 0.0361,0.39294 0.11444,0.1172 0.20807,0.23622 0.20807,0.26449 0,0.0283 -0.26938,-0.21368 -0.59862,-0.53768 -0.32925,-0.32399 -0.63199,-0.57808 -0.67277,-0.56464 -0.0408,0.0134 -0.0828,0.0839 -0.0935,0.15675 -0.0148,0.1013 0.0856,0.23793 0.42808,0.58241 0.24609,0.24754 0.42176,0.45007 0.39039,0.45007 -0.0313,0 -0.3008,-0.24477 -0.59872,-0.54394 -0.54755,-0.54983 -0.74435,-0.65928 -0.74435,-0.41393 0,0.0876 0.16782,0.29707 0.51352,0.64118 0.28244,0.28113 0.50066,0.524 0.48494,0.53973 -0.0158,0.0158 -0.24533,-0.18701 -0.51022,-0.45052 -0.41329,-0.41114 -0.49428,-0.46862 -0.57081,-0.40509 -0.049,0.0407 -0.0892,0.10361 -0.0892,0.13978 0,0.0361 0.23108,0.29576 0.51352,0.5769 0.58043,0.57774 0.65775,0.75392 0.0928,0.21141 -0.36436,-0.34987 -0.54906,-0.41263 -0.54906,-0.18655 0,0.0532 0.35849,0.45193 0.79665,0.8861 0.78561,0.77843 0.79991,0.78915 1.03074,0.77248 0.15676,-0.0113 0.26443,0.0134 0.32596,0.075 0.0843,0.0843 0.0596,0.11093 -0.3007,0.32378 -0.21592,0.12754 -0.59871,0.30232 -0.85065,0.3884 -0.39214,0.134 -0.56928,0.15918 -1.23103,0.17508 -0.63438,0.0153 -0.84917,-0.002 -1.19798,-0.0959 z m 1.36976,-3.83631 c 0.0637,-0.0637 0.11451,-0.19086 0.11451,-0.28629 0,-0.0954 -0.0509,-0.22266 -0.11451,-0.28628 -0.0637,-0.0637 -0.19087,-0.11452 -0.28629,-0.11452 -0.0954,0 -0.22268,0.0509 -0.28629,0.11452 -0.0636,0.0637 -0.11451,0.19086 -0.11451,0.28628 0,0.0954 0.0509,0.22267 0.11451,0.28629 0.0637,0.0636 0.19086,0.11452 0.28629,0.11452 0.0954,0 0.22266,-0.0509 0.28629,-0.11452 z"
       id="path1473"
       inkscape:connector-curvature="0" />
  </g>
</svg>
