<?xml version="1.0" encoding="UTF-8" standalone="no"?>
<!-- Created with Inkscape (http://www.inkscape.org/) -->

<svg
   xmlns:dc="http://purl.org/dc/elements/1.1/"
   xmlns:cc="http://creativecommons.org/ns#"
   xmlns:rdf="http://www.w3.org/1999/02/22-rdf-syntax-ns#"
   xmlns:svg="http://www.w3.org/2000/svg"
   xmlns="http://www.w3.org/2000/svg"
   xmlns:xlink="http://www.w3.org/1999/xlink"
   xmlns:sodipodi="http://sodipodi.sourceforge.net/DTD/sodipodi-0.dtd"
   xmlns:inkscape="http://www.inkscape.org/namespaces/inkscape"
   width="50"
   height="50"
   viewBox="0 0 13.229166 13.229167"
   version="1.1"
   id="svg1683"
   inkscape:version="0.92.2 (5c3e80d, 2017-08-06)"
   sodipodi:docname="icon_bar.svg">
  <defs
     id="defs1677">
    <inkscape:path-effect
       effect="powerstroke"
       id="path-effect1505"
       is_visible="true"
       offset_points="0.17067398,0.059501125"
       sort_points="true"
       interpolator_type="CubicBezierJohan"
       interpolator_beta="0.2"
       start_linecap_type="zerowidth"
       linejoin_type="extrp_arc"
       miter_limit="4"
       end_linecap_type="zerowidth" />
    <linearGradient
       inkscape:collect="always"
       id="linearGradient1489">
      <stop
         style="stop-color:#c19206;stop-opacity:1"
         offset="0"
         id="stop1485" />
      <stop
         id="stop1495"
         offset="0.14548008"
         style="stop-color:#f3dd07;stop-opacity:0.99215686;" />
      <stop
         id="stop1493"
         offset="0.89999974"
         style="stop-color:#f3dd07;stop-opacity:0.85882353;" />
      <stop
         style="stop-color:#ffffff;stop-opacity:0.98440981"
         offset="1"
         id="stop1487" />
    </linearGradient>
    <linearGradient
       inkscape:collect="always"
       xlink:href="#linearGradient1489"
       id="linearGradient1491"
       x1="5.8799295"
       y1="293.74435"
       x2="5.8799295"
       y2="288.49747"
       gradientUnits="userSpaceOnUse" />
  </defs>
  <sodipodi:namedview
     id="base"
     pagecolor="#ffffff"
     bordercolor="#666666"
     borderopacity="1.0"
     inkscape:pageopacity="0.0"
     inkscape:pageshadow="2"
     inkscape:zoom="16"
     inkscape:cx="27.59731"
     inkscape:cy="21.117827"
     inkscape:document-units="mm"
     inkscape:current-layer="layer1"
     showgrid="false"
     units="px"
     inkscape:window-width="2160"
     inkscape:window-height="1356"
     inkscape:window-x="0"
     inkscape:window-y="42"
     inkscape:window-maximized="1"
     inkscape:snap-global="false" />
  <metadata
     id="metadata1680">
    <rdf:RDF>
      <cc:Work
         rdf:about="">
        <dc:format>image/svg+xml</dc:format>
        <dc:type
           rdf:resource="http://purl.org/dc/dcmitype/StillImage" />
        <dc:title></dc:title>
      </cc:Work>
    </rdf:RDF>
  </metadata>
  <g
     inkscape:label="Calque 1"
     inkscape:groupmode="layer"
     id="layer1"
     transform="translate(0,-283.77082)">
    <path
       style="opacity:1;fill:#80c790;fill-opacity:1;stroke:none;stroke-width:0.19299737;stroke-miterlimit:4;stroke-dasharray:none;stroke-opacity:1"
       d="m 12.37754,290.32987 a 5.5857795,5.5857795 0 0 1 -5.58578,5.58579 5.5857795,5.5857795 0 0 1 -5.5857795,-5.58579 5.5857795,5.5857795 0 0 1 5.5857795,-5.58577 5.5857795,5.5857795 0 0 1 5.58578,5.58577 z"
       id="path1497"
       inkscape:connector-curvature="0" />
    <path
       style="fill:url(#linearGradient1491);stroke:none;stroke-width:0.26458332px;stroke-linecap:butt;stroke-linejoin:miter;stroke-opacity:1;fill-opacity:1"
       d="m 4.2512559,288.48077 1.2528259,-0.11693 1.2361216,0.0501 0.7182869,-0.0752 0.6681737,-0.0167 0.025056,1.7456 0.050113,2.56412 -0.033409,0.85192 -0.041761,0.61806 -1.8541823,0.11693 -1.9961693,-0.11693 -0.07517,-2.38037 z"
       id="path1483"
       inkscape:connector-curvature="0" />
    <path
       style="opacity:1;fill:#ffffff;fill-opacity:1;stroke:#fffdfd;stroke-width:0.64629922;stroke-miterlimit:4;stroke-dasharray:none;stroke-opacity:1"
       d="m 19.265623,21.584615 c -0.376267,-0.336195 -0.412095,-0.439119 -0.493326,-1.41722 -0.04818,-0.580084 -0.09211,-1.429488 -0.09763,-1.887566 l -0.01004,-0.832868 -1.649513,-0.08349 c -1.873185,-0.0948 -2.391097,-0.265727 -2.391097,-0.789116 0,-0.475348 0.610937,-1.010636 1.422851,-1.246666 0.977427,-0.284146 1.083858,-0.445468 0.743505,-1.12696 -0.338508,-0.677796 -0.342255,-1.032696 -0.01655,-1.566925 0.743547,-1.219562 2.389025,-0.818124 3.228022,0.787522 0.202075,0.386726 0.402111,0.703273 0.444523,0.703438 0.04241,1.64e-4 0.111854,-0.293024 0.154314,-0.651531 0.101877,-0.860191 0.553883,-1.744783 1.064201,-2.082678 0.48623,-0.321946 1.484692,-0.487132 1.926878,-0.318784 0.172165,0.06555 0.597133,0.35531 0.944373,0.643918 0.348983,0.290057 0.716054,0.497083 0.820749,0.462899 1.545982,-0.504788 2.016148,-0.60779 2.424588,-0.531166 0.467775,0.08775 1.159246,0.655838 1.03769,0.852521 -0.03812,0.06168 -0.03341,0.225286 0.01048,0.363561 0.06148,0.193692 0.191419,0.251408 0.566034,0.251408 0.930714,0 1.055507,0.194102 0.688901,1.071514 -0.238797,0.571522 -0.167647,0.667591 0.349778,0.472284 0.517788,-0.195443 0.730906,-0.02067 0.730906,0.599394 0,0.626287 -0.225357,1.242641 -0.510056,1.395007 -0.127026,0.06798 -0.664099,0.123604 -1.193496,0.123604 -1.211376,0 -2.050157,0.204853 -2.267219,0.553717 -0.09138,0.146868 -0.200812,0.710223 -0.243182,1.251902 -0.114776,1.467333 -0.427187,1.852362 -0.916989,1.130137 -0.185292,-0.273217 -0.235493,-0.582128 -0.235493,-1.449092 v -1.101851 l -0.505077,-0.06116 c -0.277792,-0.03364 -1.51365,-0.08502 -2.746352,-0.114182 -2.006904,-0.04748 -2.242181,-0.03149 -2.249933,0.152859 -0.0048,0.113234 -0.03339,1.086607 -0.06361,2.163051 -0.03022,1.076444 -0.08266,2.078751 -0.116521,2.227348 -0.09838,0.43169 -0.407871,0.451735 -0.85171,0.05517 z"
       id="path1481"
       inkscape:connector-curvature="0"
       transform="matrix(0.26458333,0,0,0.26458333,0,283.77082)" />
    <path
       style="color:#000000;font-style:normal;font-variant:normal;font-weight:normal;font-stretch:normal;font-size:medium;line-height:normal;font-family:sans-serif;font-variant-ligatures:normal;font-variant-position:normal;font-variant-caps:normal;font-variant-numeric:normal;font-variant-alternates:normal;font-feature-settings:normal;text-indent:0;text-align:start;text-decoration:none;text-decoration-line:none;text-decoration-style:solid;text-decoration-color:#000000;letter-spacing:normal;word-spacing:normal;text-transform:none;writing-mode:lr-tb;direction:ltr;text-orientation:mixed;dominant-baseline:auto;baseline-shift:baseline;text-anchor:start;white-space:normal;shape-padding:0;clip-rule:nonzero;display:inline;overflow:visible;visibility:visible;opacity:1;isolation:auto;mix-blend-mode:normal;color-interpolation:sRGB;color-interpolation-filters:linearRGB;solid-color:#000000;solid-opacity:1;vector-effect:none;fill:#000000;fill-opacity:1;fill-rule:nonzero;stroke:none;stroke-width:0.20156236;stroke-linecap:butt;stroke-linejoin:miter;stroke-miterlimit:4;stroke-dasharray:none;stroke-dashoffset:0;stroke-opacity:1;color-rendering:auto;image-rendering:auto;shape-rendering:auto;text-rendering:auto;enable-background:accumulate"
       d="m 6.0924509,286.46555 c -0.3277773,-0.0101 -0.7028434,0.18515 -0.7719426,0.52716 -0.2444307,-0.39317 -1.0003378,-0.38553 -1.1317359,0.10235 -0.097514,0.26462 0.2051778,0.57379 -0.2044093,0.60624 -0.4794293,0.11252 -0.4477652,0.76827 0.02564,0.84165 0.2913819,-0.0124 0.086592,0.38072 0.1414301,0.5685 -0.026317,1.68481 -0.039678,3.37056 0.018118,5.0549 1.3164991,0.11901 2.6473469,0.1574 3.9634362,0.0138 0.2025806,-0.25807 -0.107136,-0.96171 0.4005332,-0.77465 0.357146,0.0148 0.7250336,0.0819 1.0770493,0.002 0.1890815,-0.28135 0.06307,-0.69806 0.1137922,-1.0273 0.00694,-1.00969 0.0084,-2.02052 -0.040723,-3.02911 -0.2001167,-0.27923 -0.664912,-0.11041 -0.9742273,-0.14795 -0.2294627,-0.015 -0.6110847,0.14803 -0.506381,-0.22507 0.02136,-0.26308 -0.1202732,-0.57697 0.1611682,-0.69104 0.064829,-0.26078 0.2387146,-0.70129 -0.053043,-0.8651 -0.2086435,0.0368 -0.00894,-0.38067 -0.306914,-0.37751 -0.2739011,0.0413 -0.2129518,-0.39211 -0.5422028,-0.38911 -0.3076424,-0.17042 -0.6935701,0.26263 -0.8927511,-10e-4 -0.1270279,-0.12219 -0.301637,-0.18702 -0.4768368,-0.18845 z m 0,0.2008 c 0.2617974,-0.045 0.4394585,0.27343 0.6008779,0.33261 0.2774846,-0.1564 0.7854809,-0.30863 0.9571073,0.0547 -0.080672,0.29065 0.2016977,0.11063 0.3626146,0.2147 0.1257428,0.1038 -0.2280204,0.46599 0.00172,0.37988 0.309511,-0.15817 0.2704301,0.15962 0.2170229,0.38122 -0.054187,0.35696 -0.5799516,0.12272 -0.8379123,0.23485 -0.4480159,0.0385 -0.081147,0.66121 -0.3958114,0.84676 -0.2648394,-0.14438 -0.1950507,-0.52887 -0.1827794,-0.78953 -0.1343601,-0.0293 -0.3204001,-0.0133 -0.4745876,-0.0253 -0.321931,-0.0101 -0.6438622,-0.0197 -0.9657932,-0.0294 -0.013539,0.40564 0.015112,0.81501 -0.028354,1.21802 -0.1117675,0.28038 -0.4632002,-0.12336 -0.4003371,-0.32866 -0.00717,-0.25114 -0.014341,-0.50228 -0.021512,-0.75341 -0.2863181,-0.0205 -0.5761668,-0.0176 -0.8602652,-0.0529 -0.4512259,-0.10783 -0.1213155,-0.50443 0.1790337,-0.53986 0.202342,-0.0407 0.3222438,-0.0843 0.1768233,-0.27557 -0.1990535,-0.34056 0.1183252,-0.74707 0.4959808,-0.59687 0.2712642,0.0787 0.3825634,0.34936 0.5002964,0.57708 0.022537,-0.30339 0.064389,-0.67566 0.3958808,-0.79896 0.088509,-0.0361 0.1879566,-0.046 0.2799921,-0.0493 z m 1.9258072,1.74932 c 0.046261,1.76997 0.1109052,3.54167 0.055859,5.31202 0.097017,0.43541 -0.3958557,0.31024 -0.6649478,0.34978 -1.0193459,0.037 -2.0458219,0.0572 -3.0596671,-0.073 -0.1160149,-1.80837 -0.049682,-3.62132 -0.021412,-5.43136 0.1332866,0.007 0.2665732,0.0139 0.3998597,0.0208 0.014679,0.26421 9.604e-4,0.53625 0.032986,0.7957 0.1057318,0.30079 0.6074205,0.61515 0.7676221,0.19066 0.07269,-0.34216 0.030083,-0.69822 0.047111,-1.04688 -0.00791,-0.1286 0.2100161,-0.0216 0.2978893,-0.0504 0.2450212,0.008 0.4900423,0.0157 0.7350635,0.0234 -0.026991,0.298 0.018889,0.75526 0.3848193,0.8113 0.5376474,-0.0242 0.1304133,-0.87769 0.5679236,-0.87114 0.1520384,-0.0137 0.3048241,-0.0206 0.456895,-0.0309 z m 0.8060833,0.9519 c 0.2768706,0.0288 0.8413922,-0.15667 0.707958,0.31999 0.024798,1.16859 0.056397,2.33968 -0.00545,3.50742 -0.1946961,0.18796 -0.6527301,0.022 -0.945496,0.0447 -0.2437063,0.0233 -0.3966677,-0.032 -0.3222736,-0.29694 -0.1299877,-0.49907 0.4674253,-0.12135 0.7446771,-0.2464 0.2767958,-0.16342 0.1119309,-0.60262 0.1727104,-0.88099 0.00537,-0.5885 0.025691,-1.18031 -0.038449,-1.7662 -0.2024834,-0.25936 -0.6224265,-0.10358 -0.9125701,-0.10683 -0.02191,-0.31311 -0.093562,-0.675 0.3403916,-0.56562 0.086085,-0.003 0.1730082,-0.008 0.2585089,-0.009 z m -2.4691754,0.43978 c -0.1827293,0.0433 -0.088235,0.27358 -0.1116824,0.41085 0,0.90408 0,1.80815 0,2.71223 0.1147856,0.28971 0.2891821,-0.0447 0.225102,-0.21812 0,-0.93051 0,-1.86102 0,-2.79153 0.00236,-0.061 -0.052399,-0.11579 -0.1134196,-0.11343 z m -0.9004074,0.19154 c -0.1773009,0.0401 -0.088336,0.26085 -0.1099466,0.39215 0.00355,0.78934 -0.00712,1.57939 0.00537,2.36829 0.2008774,0.21412 0.2456809,-0.13999 0.2174154,-0.29199 0,-0.78464 0,-1.56927 0,-2.3539 0.00302,-0.0613 -0.051639,-0.11673 -0.1128405,-0.11455 z m 1.7475774,0.033 c -0.180091,0.0365 -0.090721,0.26068 -0.1122613,0.39219 0,0.76042 0,1.52085 0,2.28126 0.1147856,0.28972 0.2891821,-0.0447 0.2251019,-0.21811 0,-0.78026 0,-1.56051 0,-2.34075 0.00301,-0.0613 -0.051604,-0.11666 -0.1128406,-0.11459 z m 1.6590402,0.0486 c 0.2839615,0.0664 0.077797,0.56439 0.1512934,0.79684 1.561e-4,0.55045 0.01322,1.10344 -0.043081,1.65161 -0.228526,-0.0211 -0.7911664,0.12892 -0.7088436,-0.2413 -2.128e-4,-0.72574 -0.01281,-1.45141 -0.031271,-2.17689 0.2094169,-0.0241 0.4214706,-0.0412 0.6319011,-0.0302 z"
       id="path1385"
       inkscape:connector-curvature="0" />
    <path
       style="opacity:1;fill:#cfcdc9;fill-opacity:1;stroke:#4a4a4a;stroke-width:0.0204019;stroke-miterlimit:4;stroke-dasharray:none;stroke-opacity:1"
       d="m 34.563282,35.939568 c -0.09549,-0.0064 -0.491161,-0.04728 -0.879266,-0.09082 -0.552529,-0.06199 -0.836794,-0.07762 -1.310042,-0.07207 -0.641479,0.0075 -0.780296,-0.01246 -0.968836,-0.139516 -0.185305,-0.124878 -0.236757,-0.252626 -0.225655,-0.560279 0.01831,-0.507525 0.01796,-0.553066 -0.0061,-0.773398 -0.0215,-0.197012 -0.01615,-0.236373 0.04928,-0.363024 0.150993,-0.292261 0.426106,-0.325865 1.430782,-0.174764 0.59674,0.08975 1.035823,0.09634 1.285047,0.01931 0.167496,-0.05178 0.438331,-0.31212 0.539378,-0.518485 0.161584,-0.329998 0.188483,-0.530599 0.178417,-1.330578 -0.005,-0.399326 -0.0093,-0.789971 -0.0096,-0.8681 -2.53e-4,-0.07813 0.0163,-0.518493 0.03678,-0.978585 0.045,-1.010846 0.04835,-3.409721 0.0061,-4.387851 -0.01686,-0.390645 -0.05368,-0.994368 -0.08183,-1.341608 l -0.05117,-0.631346 -0.13083,-0.136021 c -0.176798,-0.183815 -0.510967,-0.344383 -0.841972,-0.404569 -0.322573,-0.05865 -0.808755,-0.04306 -1.577485,0.05059 -0.286473,0.0349 -0.608276,0.06354 -0.715117,0.06365 l -0.194258,1.94e-4 -0.02671,-0.339348 c -0.03893,-0.494603 -0.03138,-1.072519 0.01651,-1.262108 0.05395,-0.213602 0.189795,-0.398731 0.358835,-0.489018 0.120694,-0.06447 0.168793,-0.0707 0.46604,-0.06036 0.59867,0.02081 1.960452,0.01603 2.635867,-0.0092 0.759982,-0.02844 1.03716,0.0075 1.262691,0.163665 0.242794,0.168136 0.325795,0.494199 0.234346,0.920612 -0.02427,0.11314 -0.02422,0.576036 1.57e-4,1.619376 0.0742,3.176004 0.09893,6.115836 0.06704,7.968573 -0.03275,1.90285 -0.08737,3.546798 -0.124007,3.732585 -0.05081,0.257626 -0.713535,0.440258 -1.424446,0.392543 z"
       id="path1499"
       inkscape:connector-curvature="0"
       transform="matrix(0.26458333,0,0,0.26458333,0,283.77082)" />
    <path
       style="fill:#000000;fill-rule:nonzero;stroke:none;stroke-width:0.26458332px;stroke-linecap:butt;stroke-linejoin:miter;stroke-opacity:1"
       d="m 9.4069731,292.623 v 0 c 0,0 -0.058344,0.0213 -0.058096,0.032 3.594e-4,0.0155 0.00462,0.0885 -0.00519,0.16397 -0.00612,0.047 -0.018087,0.10051 -0.041533,0.14706 -0.021384,0.0425 -0.052608,0.0799 -0.099734,0.10156 -0.020528,0.01 -0.054518,0.0176 -0.092878,0.0231 -0.039226,0.006 -0.081541,0.009 -0.1184297,0.0102 -0.1045991,0.005 -0.1413689,0.004 -0.1413689,0.004 0,0 0.035205,0.0108 0.1404392,0.0229 0.037155,0.004 0.080315,0.008 0.1218632,0.009 0.039457,0.001 0.079805,-2e-5 0.1119374,-0.006 0.069859,-0.023 0.1182887,-0.0685 0.1525715,-0.12059 0.036599,-0.0556 0.057498,-0.1191 0.069827,-0.1718 0.020598,-0.0881 0.021952,-0.16486 0.021467,-0.18576 -2.871e-4,-0.0124 -0.060875,-0.0292 -0.060875,-0.0292 z"
       id="path1503" />
  </g>
</svg>
