<?xml version="1.0" encoding="UTF-8" standalone="no"?>
<svg
   xmlns:dc="http://purl.org/dc/elements/1.1/"
   xmlns:cc="http://creativecommons.org/ns#"
   xmlns:rdf="http://www.w3.org/1999/02/22-rdf-syntax-ns#"
   xmlns:svg="http://www.w3.org/2000/svg"
   xmlns="http://www.w3.org/2000/svg"
   xmlns:xlink="http://www.w3.org/1999/xlink"
   xmlns:sodipodi="http://sodipodi.sourceforge.net/DTD/sodipodi-0.dtd"
   xmlns:inkscape="http://www.inkscape.org/namespaces/inkscape"
   sodipodi:docname="icon_activism.svg"
   inkscape:version="1.0alpha (9dee831, 2019-01-15)"
   id="svg1683"
   version="1.1"
   viewBox="0 0 13.229166 13.229167"
   height="50"
   width="50">
  <defs
     id="defs1677">
    <inkscape:path-effect
       end_linecap_type="zerowidth"
       miter_limit="4"
       linejoin_type="extrp_arc"
       start_linecap_type="zerowidth"
       interpolator_beta="0.2"
       interpolator_type="CubicBezierJohan"
       sort_points="true"
       offset_points="0.17067398,0.059501125"
       is_visible="true"
       id="path-effect1505"
       effect="powerstroke" />
    <linearGradient
       id="linearGradient1489"
       inkscape:collect="always">
      <stop
         id="stop1485"
         offset="0"
         style="stop-color:#c19206;stop-opacity:1" />
      <stop
         style="stop-color:#f3dd07;stop-opacity:0.99215686;"
         offset="0.14548008"
         id="stop1495" />
      <stop
         style="stop-color:#f3dd07;stop-opacity:0.85882353;"
         offset="0.89999974"
         id="stop1493" />
      <stop
         id="stop1487"
         offset="1"
         style="stop-color:#ffffff;stop-opacity:0.98440981" />
    </linearGradient>
    <linearGradient
       gradientUnits="userSpaceOnUse"
       y2="288.49747"
       x2="5.8799295"
       y1="293.74435"
       x1="5.8799295"
       id="linearGradient1491"
       xlink:href="#linearGradient1489"
       inkscape:collect="always" />
  </defs>
  <sodipodi:namedview
     inkscape:document-rotation="0"
     inkscape:snap-global="false"
     inkscape:window-maximized="1"
     inkscape:window-y="42"
     inkscape:window-x="0"
     inkscape:window-height="1356"
     inkscape:window-width="2160"
     units="px"
     showgrid="false"
     inkscape:current-layer="layer1"
     inkscape:document-units="mm"
     inkscape:cy="44.518107"
     inkscape:cx="4.6883491"
     inkscape:zoom="5.6568543"
     inkscape:pageshadow="2"
     inkscape:pageopacity="0.0"
     borderopacity="1.0"
     bordercolor="#666666"
     pagecolor="#ffffff"
     id="base" />
  <metadata
     id="metadata1680">
    <rdf:RDF>
      <cc:Work
         rdf:about="">
        <dc:format>image/svg+xml</dc:format>
        <dc:type
           rdf:resource="http://purl.org/dc/dcmitype/StillImage" />
        <dc:title />
      </cc:Work>
    </rdf:RDF>
  </metadata>
  <g
     transform="translate(0,-283.77082)"
     id="layer1"
     inkscape:groupmode="layer"
     inkscape:label="Calque 1">
    <path
       inkscape:connector-curvature="0"
       id="path1497"
       d="m 12.37754,290.32987 a 5.5857795,5.5857795 0 0 1 -5.58578,5.58579 5.5857795,5.5857795 0 0 1 -5.5857795,-5.58579 5.5857795,5.5857795 0 0 1 5.5857795,-5.58577 5.5857795,5.5857795 0 0 1 5.58578,5.58577 z"
       style="opacity:1;fill:#80c790;fill-opacity:1;stroke:none;stroke-width:0.19299737;stroke-miterlimit:4;stroke-dasharray:none;stroke-opacity:1" />
    <path
       inkscape:connector-curvature="0"
       id="path1124"
       d="m 6.9429205,292.03664 -2.5910764,-0.69382 -0.00908,-1.05239 c -0.00499,-0.57883 -6.315e-4,-1.05239 0.00969,-1.05239 0.010317,0 1.1860568,-0.30888 2.6127533,-0.68638 1.4266966,-0.37752 2.5999059,-0.68638 2.6071318,-0.68638 0.00722,0 0.013137,1.09649 0.013137,2.43664 0,1.34015 -0.011584,2.43482 -0.025739,2.4326 -0.014156,-0.002 -1.1917236,-0.31627 -2.6168156,-0.69788 z"
       style="opacity:1;fill:#e30000;fill-opacity:1;stroke:none;stroke-width:0.0668002;stroke-linecap:round;stroke-miterlimit:4;stroke-dasharray:none;stroke-opacity:1" />
    <path
       inkscape:connector-curvature="0"
       id="path1126"
       d="m 3.2415826,291.38665 -0.1440759,-0.14407 v -0.94073 -0.94074 l 0.1440759,-0.14407 c 0.1427413,-0.14274 0.147649,-0.14408 0.5296911,-0.14408 h 0.385615 v 1.22889 1.22888 h -0.385615 c -0.3820421,0 -0.3869498,-0.001 -0.5296911,-0.14408 z"
       style="opacity:1;fill:#e30000;fill-opacity:1;stroke:none;stroke-width:0.0824816;stroke-linecap:round;stroke-miterlimit:4;stroke-dasharray:none;stroke-opacity:1" />
    <path
       inkscape:connector-curvature="0"
       id="path1128"
       d="m 9.7468722,290.29549 v -1.11898 l 0.2334309,8.4e-4 c 0.2707359,0.001 0.3808129,0.0231 0.5141549,0.10325 0.114632,0.0689 0.208933,0.17607 0.273606,0.31086 l 0.05333,0.11116 0.0047,0.55578 c 0.0041,0.48477 0.0015,0.56769 -0.02029,0.64886 -0.06181,0.23 -0.278048,0.43747 -0.512233,0.49146 -0.03577,0.008 -0.173417,0.0152 -0.3058797,0.0153 l -0.2408413,3.6e-4 z"
       style="opacity:1;fill:#e6e6e6;fill-opacity:1;stroke:none;stroke-width:0.0288484;stroke-linecap:round;stroke-miterlimit:4;stroke-dasharray:none;stroke-opacity:1" />
    <path
       style="opacity:1;stroke-width:0.0924886;stop-opacity:1"
       id="path8032"
       d="m 9.4978291,287.01418 v 0.53644 l -5.2718563,1.39657 H 3.560054 a 0.73990967,0.73990967 0 0 0 -0.7399097,0.73991 v 1.22085 a 0.73990967,0.73990967 0 0 0 0.7399097,0.73991 h 0.6566698 l 0.2127241,0.0555 v 0.7954 a 0.73990967,0.73990967 0 0 0 0.7399097,0.7399 h 1.6647967 a 0.73990967,0.73990967 0 0 0 0.7399097,-0.70291 l 1.9145163,0.50869 v 0.53643 h 0.369955 v -2.0255 h 0.3144617 a 0.92488709,0.92488709 0 0 0 0.924887,-0.92488 v -0.66593 a 0.92488709,0.92488709 0 0 0 -0.924887,-0.92488 H 9.8677841 v -2.0255 z m -6.3077299,3.89377 v -1.22085 a 0.36995484,0.36995484 0 0 1 0.3699548,-0.36995 h 0.4994391 v 1.96076 H 3.560054 a 0.36995484,0.36995484 0 0 1 -0.3699548,-0.36996 z m 4.01401,1.5908 a 0.36995484,0.36995484 0 0 1 -0.3699549,0.36997 H 5.1693576 a 0.36995484,0.36995484 0 0 1 -0.3699549,-0.36997 v -0.69366 l 2.4047065,0.63817 z m -2.7746613,-1.18384 v -2.04401 l 5.0683812,-1.34109 v 4.73542 z m 5.7527981,-1.90527 a 0.55493226,0.55493226 0 0 1 0.554932,0.55493 v 0.66592 a 0.55493226,0.55493226 0 0 1 -0.554932,0.55493 H 9.8677841 v -1.77578 z"
       data-name="Compound Path"
       inkscape:connector-curvature="0" />
  </g>
</svg>
