<?xml version="1.0" encoding="UTF-8" standalone="no"?>
<!-- Created with Inkscape (http://www.inkscape.org/) -->

<svg
   xmlns:dc="http://purl.org/dc/elements/1.1/"
   xmlns:cc="http://creativecommons.org/ns#"
   xmlns:rdf="http://www.w3.org/1999/02/22-rdf-syntax-ns#"
   xmlns:svg="http://www.w3.org/2000/svg"
   xmlns="http://www.w3.org/2000/svg"
   xmlns:xlink="http://www.w3.org/1999/xlink"
   xmlns:sodipodi="http://sodipodi.sourceforge.net/DTD/sodipodi-0.dtd"
   xmlns:inkscape="http://www.inkscape.org/namespaces/inkscape"
   width="50"
   height="50"
   viewBox="0 0 13.229166 13.229167"
   version="1.1"
   id="svg1683"
   inkscape:version="0.92.2 (5c3e80d, 2017-08-06)"
   sodipodi:docname="icon_faircoop.svg">
  <defs
     id="defs1677">
    <inkscape:path-effect
       effect="powerstroke"
       id="path-effect1505"
       is_visible="true"
       offset_points="0.17067398,0.059501125"
       sort_points="true"
       interpolator_type="CubicBezierJohan"
       interpolator_beta="0.2"
       start_linecap_type="zerowidth"
       linejoin_type="extrp_arc"
       miter_limit="4"
       end_linecap_type="zerowidth" />
    <linearGradient
       inkscape:collect="always"
       id="linearGradient1489">
      <stop
         style="stop-color:#c19206;stop-opacity:1"
         offset="0"
         id="stop1485" />
      <stop
         id="stop1495"
         offset="0.14548008"
         style="stop-color:#f3dd07;stop-opacity:0.99215686;" />
      <stop
         id="stop1493"
         offset="0.89999974"
         style="stop-color:#f3dd07;stop-opacity:0.85882353;" />
      <stop
         style="stop-color:#ffffff;stop-opacity:0.98440981"
         offset="1"
         id="stop1487" />
    </linearGradient>
    <linearGradient
       inkscape:collect="always"
       xlink:href="#linearGradient1489"
       id="linearGradient1491"
       x1="5.8799295"
       y1="293.74435"
       x2="5.8799295"
       y2="288.49747"
       gradientUnits="userSpaceOnUse" />
  </defs>
  <sodipodi:namedview
     id="base"
     pagecolor="#ffffff"
     bordercolor="#666666"
     borderopacity="1.0"
     inkscape:pageopacity="0.0"
     inkscape:pageshadow="2"
     inkscape:zoom="5.6568543"
     inkscape:cx="15.628806"
     inkscape:cy="24.007491"
     inkscape:document-units="mm"
     inkscape:current-layer="layer1"
     showgrid="false"
     units="px"
     inkscape:window-width="2160"
     inkscape:window-height="1356"
     inkscape:window-x="0"
     inkscape:window-y="42"
     inkscape:window-maximized="1"
     inkscape:snap-global="false" />
  <metadata
     id="metadata1680">
    <rdf:RDF>
      <cc:Work
         rdf:about="">
        <dc:format>image/svg+xml</dc:format>
        <dc:type
           rdf:resource="http://purl.org/dc/dcmitype/StillImage" />
        <dc:title></dc:title>
      </cc:Work>
    </rdf:RDF>
  </metadata>
  <g
     inkscape:label="Calque 1"
     inkscape:groupmode="layer"
     id="layer1"
     transform="translate(0,-283.77082)">
    <path
       style="opacity:1;fill:#80c790;fill-opacity:1;stroke:none;stroke-width:0.19299737;stroke-miterlimit:4;stroke-dasharray:none;stroke-opacity:1"
       d="m 12.37754,290.32987 a 5.5857795,5.5857795 0 0 1 -5.58578,5.58579 5.5857795,5.5857795 0 0 1 -5.5857795,-5.58579 5.5857795,5.5857795 0 0 1 5.5857795,-5.58577 5.5857795,5.5857795 0 0 1 5.58578,5.58577 z"
       id="path1497"
       inkscape:connector-curvature="0" />
    <g
       id="g6532"
       transform="matrix(0.23106535,0,0,0.23106535,-6.8884754,228.81798)">
      <path
         d="m 58.998235,281.31342 h -0.0014 c -1.304461,0 -2.609623,-0.17108 -3.879869,-0.50838 -3.909197,-1.0391 -7.180828,-3.53769 -9.210149,-7.03488 -2.030713,-3.49859 -2.576104,-7.57748 -1.537003,-11.48668 1.037008,-3.90849 3.534898,-7.17943 7.032786,-9.20945 3.460878,-2.00837 7.617279,-2.56632 11.485976,-1.5377 3.909894,1.03771 7.180828,3.5349 9.210149,7.03209 2.030714,3.49719 2.577501,7.57678 1.539797,11.48667 -1.761167,6.62846 -7.781385,11.25833 -14.64029,11.25833 m -0.02177,-29.55921 c -2.513256,0 -5.005562,0.67527 -7.207366,1.9525 -3.328194,1.93226 -5.70458,5.04467 -6.692702,8.76462 -0.988822,3.71996 -0.469273,7.60262 1.46298,10.93081 1.931552,3.32889 5.044665,5.70738 8.76532,6.6955 1.208791,0.32122 2.451105,0.48394 3.692719,0.48394 6.527198,6.9e-4 12.256919,-4.40571 13.933587,-10.71433 0.988122,-3.72066 0.467176,-7.60262 -1.465077,-10.93081 -1.931557,-3.3282 -5.044665,-5.70528 -8.76532,-6.69271 -1.222757,-0.32471 -2.474846,-0.48952 -3.724141,-0.48952"
         style="fill:#ffffff;fill-opacity:1;fill-rule:nonzero;stroke:none;stroke-width:0.69832045"
         id="path6498"
         inkscape:connector-curvature="0" />
      <path
         d="m 60.643619,280.48493 c -0.221377,0.0253 -0.444132,0.0454 -0.667595,0.0607 0.223475,-0.0154 0.44623,-0.0356 0.667595,-0.0607"
         style="fill:#527bb8;fill-opacity:1;fill-rule:nonzero;stroke:none;stroke-width:0.69832045"
         id="path6500"
         inkscape:connector-curvature="0" />
      <path
         d="m 61.523154,280.35679 c -0.256282,0.0461 -0.514661,0.0852 -0.775134,0.11733 0.260477,-0.0321 0.518852,-0.0719 0.775134,-0.11733"
         style="fill:#527bb8;fill-opacity:1;fill-rule:nonzero;stroke:none;stroke-width:0.69832045"
         id="path6502"
         inkscape:connector-curvature="0" />
      <path
         d="m 59.774279,280.55811 c -0.257667,0.0138 -0.516058,0.0238 -0.776531,0.023 0.260477,7e-4 0.518852,-0.009 0.776531,-0.023"
         style="fill:#527bb8;fill-opacity:1;fill-rule:nonzero;stroke:none;stroke-width:0.69832045"
         id="path6504"
         inkscape:connector-curvature="0" />
      <path
         d="m 71.466259,258.93609 c -1.931553,-3.3282 -5.044666,-5.70458 -8.76532,-6.6927 -1.222757,-0.32471 -2.475547,-0.48953 -3.724141,-0.48953 -2.513257,0 -5.005563,0.67528 -7.207367,1.9532 -2.393145,1.38966 -4.291178,3.39105 -5.53768,5.78838 0.147335,-0.28283 0.301674,-0.56145 0.466476,-0.83309 8.747164,6.94619 7.729709,11.46432 13.715016,9.81489 4.228331,-1.16549 5.110307,5.12148 5.115198,10.53417 -0.488827,0.24931 -0.99371,0.47066 -1.510468,0.6634 4.289781,-1.59776 7.686411,-5.19271 8.913362,-9.80791 0.987426,-3.72065 0.467177,-7.60262 -1.465076,-10.93081"
         style="fill:#527bb8;fill-opacity:1;fill-rule:nonzero;stroke:none;stroke-width:0.69832045"
         id="path6506"
         inkscape:connector-curvature="0" />
      <path
         d="m 45.753051,260.50333 c -0.119395,0.28003 -0.226957,0.56634 -0.3289,0.85544 0.101943,-0.28909 0.209505,-0.57541 0.3289,-0.85544"
         style="fill:#527bb8;fill-opacity:1;fill-rule:nonzero;stroke:none;stroke-width:0.69832045"
         id="path6508"
         inkscape:connector-curvature="0" />
      <path
         d="m 45.35103,261.56973 c -0.09985,0.29681 -0.193439,0.59637 -0.274447,0.90153 0.08101,-0.30515 0.174562,-0.60474 0.274447,-0.90153"
         style="fill:#527bb8;fill-opacity:1;fill-rule:nonzero;stroke:none;stroke-width:0.69832045"
         id="path6510"
         inkscape:connector-curvature="0" />
      <path
         d="m 62.338721,280.18605 c -0.23044,0.0552 -0.462289,0.10404 -0.696227,0.14804 0.233922,-0.044 0.465783,-0.0929 0.696227,-0.14804"
         style="fill:#527bb8;fill-opacity:1;fill-rule:nonzero;stroke:none;stroke-width:0.69832045"
         id="path6512"
         inkscape:connector-curvature="0" />
      <path
         d="m 46.171836,259.6106 c -0.147334,0.28909 -0.286991,0.5824 -0.414804,0.88267 0.128497,-0.29957 0.267442,-0.59357 0.414804,-0.88267"
         style="fill:#527bb8;fill-opacity:1;fill-rule:nonzero;stroke:none;stroke-width:0.69832045"
         id="path6514"
         inkscape:connector-curvature="0" />
      <path
         d="m 63.980963,279.68857 c -0.50768,0.18785 -1.027229,0.34706 -1.557253,0.47765 0.530024,-0.12988 1.049573,-0.29052 1.557253,-0.47765"
         style="fill:#527bb8;fill-opacity:1;fill-rule:nonzero;stroke:none;stroke-width:0.69832045"
         id="path6516"
         inkscape:connector-curvature="0" />
      <path
         d="m 60.413524,268.4771 c -5.986003,1.65013 -4.967852,-2.8687 -13.715016,-9.81489 -0.711586,1.17038 -1.260467,2.44831 -1.622198,3.80933 -0.988822,3.71996 -0.468573,7.60192 1.462984,10.93081 1.931552,3.3289 5.044665,5.70668 8.765316,6.6955 1.208795,0.32055 2.451105,0.48324 3.692719,0.48324 2.3282,7e-4 4.553748,-0.56215 6.531393,-1.56983 -0.0047,-5.41268 -0.886867,-11.69966 -5.115198,-10.53416"
         style="fill:#59c25b;fill-opacity:1;fill-rule:nonzero;stroke:none;stroke-width:0.69832045"
         id="path6518"
         inkscape:connector-curvature="0" />
      <path
         d="m 62.986414,283.38422 c -0.171079,1.24929 0.0035,2.02932 0.583798,2.60753 0.973455,0.96857 2.555153,0.96577 3.524422,-0.008 0.417594,-0.42109 0.662007,-0.96508 0.707399,-1.57332 l 0.555862,-3.1419 6.563515,-6.59425 c 0.232538,-0.23534 0.427373,-0.56354 0.473461,-0.79817 l 1.936444,-10.11657 c 0.132692,-0.7095 -0.35684,-1.42318 -1.067733,-1.55516 -0.346353,-0.0649 -0.693433,0.007 -0.97695,0.20183 -0.284221,0.19482 -0.476255,0.49371 -0.540499,0.84077 l -1.376392,7.39941 c 0.355455,0.4581 0.496505,1.03211 0.388262,1.60613 -0.04329,0.23955 -0.12917,0.46579 -0.248605,0.65084 l -0.06775,0.0956 c -0.07472,0.10546 -0.167597,0.23602 -0.286992,0.34778 l -3.641744,3.66618 -0.526533,-0.52234 3.652915,-3.67666 c 0.074,-0.0699 0.136887,-0.15783 0.196921,-0.24303 l 0.06284,-0.0887 c 0.05307,-0.0831 0.103367,-0.21929 0.12917,-0.36381 0.07753,-0.40922 -0.04468,-0.81703 -0.334481,-1.1222 l -0.09359,-0.0985 c -0.253473,-0.21785 -0.567734,-0.3268 -0.879187,-0.3268 -0.339387,0 -0.675272,0.12921 -0.927367,0.38826 l -6.475527,6.49019 c -0.189243,0.19415 -0.307966,0.42388 -0.358225,0.69972 -0.0091,0.0468 -0.830304,4.18643 -0.973459,5.23461"
         style="fill:#d99b76;fill-opacity:1;fill-rule:nonzero;stroke:none;stroke-width:0.69832045"
         id="path6520"
         inkscape:connector-curvature="0" />
      <path
         d="m 65.329142,287.45738 c -0.826113,0 -1.651526,-0.31283 -2.282112,-0.93994 -0.965778,-0.96299 -0.932259,-2.23393 -0.795388,-3.23392 0.145949,-1.06983 0.946225,-5.10263 0.979744,-5.27372 0.0761,-0.41341 0.264672,-0.77863 0.558656,-1.081 l 6.47483,-6.48879 c 0.649439,-0.669 1.659908,-0.78841 2.455292,-0.35546 l 1.296784,-6.97273 c 0.100558,-0.54189 0.402231,-1.00907 0.849854,-1.31633 0.446226,-0.30725 0.990219,-0.42178 1.532816,-0.31984 1.124993,0.20951 1.870102,1.29608 1.661301,2.42178 l -1.937837,10.12006 c -0.0894,0.4574 -0.407819,0.90851 -0.675277,1.17946 l -6.400106,6.43083 -0.510474,2.87499 c -0.05378,0.74999 -0.372195,1.456 -0.916893,2.00348 -0.630585,0.63408 -1.460886,0.95111 -2.29119,0.95111 m 6.392425,-16.88609 c -0.3401,0 -0.675973,0.12989 -0.928068,0.38827 l -6.475527,6.49018 c -0.189243,0.19416 -0.307253,0.42458 -0.358225,0.69972 -0.0091,0.0468 -0.830304,4.18643 -0.973459,5.23461 -0.171079,1.2493 0.0035,2.02932 0.583797,2.60753 0.974156,0.96857 2.555153,0.96578 3.524422,-0.008 0.417598,-0.42109 0.662708,-0.96508 0.707399,-1.57331 l 0.556563,-3.14105 6.563511,-6.59494 c 0.231865,-0.23535 0.426676,-0.56354 0.472764,-0.79818 l 1.937141,-10.11657 c 0.13198,-0.70949 -0.357552,-1.42248 -1.06843,-1.55516 -0.346352,-0.0649 -0.693433,0.007 -0.97695,0.20183 -0.284221,0.19482 -0.476254,0.49372 -0.539802,0.84078 l -1.377088,7.3994 c 0.355454,0.4581 0.496508,1.03282 0.388261,1.60614 -0.04329,0.23954 -0.12917,0.46578 -0.248604,0.65084 l -0.06775,0.0956 c -0.07472,0.10546 -0.167596,0.23602 -0.286992,0.34777 l -3.641739,3.66618 -0.525837,-0.52234 3.652215,-3.67666 c 0.074,-0.0698 0.136887,-0.15782 0.196921,-0.24302 l 0.06284,-0.0887 c 0.05307,-0.0824 0.103368,-0.21928 0.129882,-0.36384 0.07753,-0.40922 -0.04539,-0.81704 -0.335192,-1.1222 l -0.09359,-0.0985 c -0.253472,-0.2179 -0.567734,-0.32681 -0.878486,-0.32681"
         style="fill:#ffffff;fill-opacity:1;fill-rule:nonzero;stroke:none;stroke-width:0.69832045"
         id="path6522"
         inkscape:connector-curvature="0" />
      <path
         d="m 57.406204,251.98298 c -0.111045,0.65084 0.303771,1.31843 0.970666,1.48812 l 8.856099,2.36172 c 0.264672,0.0677 0.523043,0.0552 0.78631,-0.0392 0.0461,-0.0154 4.041181,-1.37359 5.020925,-1.77303 1.166193,-0.47695 1.752784,-1.01815 1.962978,-1.80865 0.352645,-1.32821 -0.441338,-2.69692 -1.769544,-3.05026 -0.569131,-0.15082 -1.162006,-0.0908 -1.715074,0.1746 l -2.996496,1.08938 -8.99297,-2.38896 c -0.273061,-0.067 -0.671086,-0.0971 -0.926671,-0.008 l -9.731095,3.38057 c -0.330997,0.11663 -0.599856,0.36033 -0.754884,0.68436 -0.154339,0.3247 -0.175273,0.68505 -0.05726,1.01675 0.243697,0.68855 0.974856,1.03701 1.662702,0.79399 l 7.094236,-2.50697 c 0.217895,-0.53701 0.645248,-0.94692 1.196923,-1.14035 0.22763,-0.081 0.465779,-0.12082 0.682257,-0.11172 l 0.141082,0.0146 c 0.130594,0.0135 0.278641,0.0281 0.428769,0.0754 l 4.992294,1.31982 -0.09498,0.35823 v 0 0 l -0.09498,0.35893 -5.009753,-1.32471 c -0.09359,-0.0293 -0.196921,-0.0398 -0.296094,-0.0503 l -0.127112,-0.0138 c -0.07333,7e-4 -0.234635,0.0238 -0.375004,0.0726 -0.391744,0.13756 -0.683655,0.44763 -0.801673,0.85056 z"
         style="fill:#bf9016;fill-opacity:1;fill-rule:nonzero;stroke:none;stroke-width:0.69832045"
         id="path6524"
         inkscape:connector-curvature="0" />
      <path
         d="m 67.56551,256.61689 c -0.172503,0 -0.346352,-0.0218 -0.519548,-0.0663 l -8.856103,-2.36172 c -0.903628,-0.23044 -1.513259,-1.04399 -1.535606,-1.94692 l -6.685721,2.36172 c -1.079601,0.38059 -2.226245,-0.1655 -2.608923,-1.2451 -0.183663,-0.51816 -0.152241,-1.081 0.08797,-1.58379 0.240214,-0.50349 0.659217,-0.88128 1.178766,-1.06494 l 9.732491,-3.38127 c 0.426676,-0.14733 0.978347,-0.10265 1.354044,-0.0103 l 8.775095,2.331 2.743004,-0.99511 c 0.670389,-0.32471 1.460886,-0.40433 2.194123,-0.20879 1.722059,0.45879 2.752082,2.23393 2.295381,3.95738 -0.350548,1.31633 -1.466474,1.92317 -2.40013,2.30446 -1.000695,0.40851 -4.891735,1.73114 -5.056538,1.787 -0.228342,0.0817 -0.462289,0.12292 -0.698321,0.12292 m -10.159167,-4.63406 c -0.111045,0.65084 0.303771,1.31843 0.970666,1.48812 l 8.856103,2.36242 c 0.264671,0.067 0.523039,0.0545 0.786305,-0.0398 0.0461,-0.0154 4.041181,-1.3736 5.020925,-1.77304 1.165497,-0.47625 1.752785,-1.01745 1.962979,-1.80865 0.352645,-1.3282 -0.441338,-2.69621 -1.769544,-3.04956 -0.569131,-0.15153 -1.162003,-0.0915 -1.715075,0.1746 l -2.996492,1.08868 -8.99297,-2.38896 c -0.273061,-0.067 -0.671089,-0.0964 -0.926671,-0.008 l -9.731098,3.38057 c -0.330998,0.11733 -0.599856,0.36032 -0.754884,0.68505 -0.154339,0.32403 -0.175274,0.68505 -0.05726,1.01605 0.243025,0.68855 0.974857,1.03701 1.662702,0.79399 l 7.094252,-2.50736 c 0.217856,-0.53701 0.645248,-0.94623 1.196919,-1.14036 0.22767,-0.081 0.465083,-0.12011 0.682262,-0.11172 l 0.141042,0.0146 c 0.130594,0.0135 0.278641,0.0281 0.428769,0.0761 l 4.992293,1.31913 -0.189955,0.71718 -5.00975,-1.32472 c -0.09427,-0.0293 -0.19692,-0.0398 -0.296093,-0.0503 l -0.127112,-0.0138 c -0.07333,7e-4 -0.234635,0.0237 -0.375004,0.0733 -0.391744,0.13756 -0.683655,0.44693 -0.801673,0.85056 z"
         style="fill:#ffffff;fill-opacity:1;fill-rule:nonzero;stroke:none;stroke-width:0.69832045"
         id="path6526"
         inkscape:connector-curvature="0" />
      <path
         d="m 46.396973,264.86532 c -0.07333,-0.25977 -0.215085,-0.47835 -0.43226,-0.6655 -0.03403,-0.0301 -3.206689,-2.80935 -4.043274,-3.45808 -0.765359,-0.59288 -1.393848,-0.87081 -2.002786,-0.87081 -0.184336,0 -0.366615,0.0253 -0.550975,0.0754 -1.327505,0.35822 -2.115908,1.73183 -1.757672,3.06144 0.155012,0.57122 0.504887,1.05376 1.01047,1.39594 l 2.44063,2.05306 2.429458,8.9825 c 0.0915,0.3226 0.279314,0.65572 0.453907,0.80446 l 7.796051,6.74159 c 0.558656,0.47555 1.404323,0.40852 1.884764,-0.15014 0.229055,-0.26745 0.340773,-0.60475 0.313546,-0.94902 -0.02651,-0.34426 -0.189243,-0.66061 -0.457401,-0.89036 l -5.722737,-4.89243 c -0.571224,0.0796 -1.137565,-0.0838 -1.581697,-0.46299 -0.187146,-0.15921 -0.344255,-0.35193 -0.442035,-0.5419 l -0.05378,-0.12011 c -0.05168,-0.11524 -0.116625,-0.25909 -0.149432,-0.4134 l -1.353344,-4.98182 0.709493,-0.19205 1.358235,5.00068 c 0.02097,0.0971 0.06356,0.19205 0.105465,0.28422 l 0.04959,0.11171 c 0.04191,0.0796 0.138272,0.19554 0.252799,0.29329 0.316356,0.27096 0.73114,0.368 1.138262,0.26815 l 0.171079,-0.0419 c 0.628488,-0.23182 0.999998,-0.92597 0.814942,-1.58938 z"
         style="fill:#974e2a;fill-opacity:1;fill-rule:nonzero;stroke:none;stroke-width:0.69832045"
         id="path6528"
         inkscape:connector-curvature="0" />
      <path
         d="m 52.604484,284.03659 c -0.475558,0 -0.953906,-0.16202 -1.342872,-0.49302 l -7.796047,-6.74228 C 43.12408,276.5101 42.888052,276.008 42.78191,275.63579 l -2.370101,-8.76462 -2.233926,-1.88197 c -0.613126,-0.41201 -1.078209,-1.05586 -1.277927,-1.7891 -0.463686,-1.72206 0.557959,-3.49998 2.276524,-3.96366 1.31424,-0.35684 2.398032,0.30725 3.195514,0.92387 0.853348,0.66271 3.944114,3.3694 4.0747,3.48462 0.324033,0.27793 0.546087,0.6236 0.659214,1.02514 l 2.381273,8.85331 c 0.250702,0.89733 -0.15153,1.83239 -0.922481,2.30166 l 5.395225,4.61171 c 0.417594,0.35822 0.670385,0.85195 0.712286,1.39245 0.04191,0.5405 -0.131979,1.06773 -0.489523,1.48463 -0.409216,0.47765 -0.992313,0.72276 -1.578204,0.72276 M 39.918795,259.87051 c -0.184376,0 -0.366614,0.0257 -0.550974,0.0754 -1.32751,0.35822 -2.115913,1.73184 -1.757672,3.06214 0.155012,0.57052 0.504882,1.05376 1.010469,1.39594 l 2.44063,2.05306 2.428758,8.9818 c 0.09217,0.32261 0.280026,0.65572 0.454607,0.80446 l 7.795351,6.74229 c 0.559352,0.47485 1.405019,0.40852 1.884768,-0.15015 0.229728,-0.26744 0.341485,-0.60474 0.314258,-0.94902 -0.02651,-0.34496 -0.189243,-0.66131 -0.457401,-0.89105 l -5.722752,-4.89244 c -0.571921,0.0796 -1.137562,-0.0831 -1.581694,-0.46299 -0.187146,-0.1592 -0.344255,-0.35125 -0.442039,-0.54189 l -0.05378,-0.12011 c -0.05236,-0.11524 -0.116625,-0.25838 -0.149432,-0.41341 l -1.353347,-4.98112 0.709496,-0.19272 1.357535,5.00067 c 0.02176,0.0978 0.06423,0.19272 0.106137,0.28422 l 0.04959,0.11243 c 0.04191,0.0789 0.138272,0.19553 0.252799,0.29261 0.316356,0.27096 0.731144,0.36871 1.138262,0.26815 l 0.171079,-0.0419 c 0.628488,-0.23187 0.999994,-0.92598 0.814938,-1.58938 l -2.381273,-8.85191 c -0.07333,-0.25977 -0.215085,-0.47835 -0.43226,-0.6662 -0.03403,-0.0301 -3.207386,-2.80934 -4.043275,-3.45738 -0.766055,-0.59358 -1.393847,-0.87151 -2.002782,-0.87151"
         style="fill:#ffffff;fill-opacity:1;fill-rule:nonzero;stroke:none;stroke-width:0.69832045"
         id="path6530"
         inkscape:connector-curvature="0" />
    </g>
  </g>
</svg>
