<?xml version="1.0" encoding="UTF-8" standalone="no"?>
<svg
   xmlns:dc="http://purl.org/dc/elements/1.1/"
   xmlns:cc="http://creativecommons.org/ns#"
   xmlns:rdf="http://www.w3.org/1999/02/22-rdf-syntax-ns#"
   xmlns:svg="http://www.w3.org/2000/svg"
   xmlns="http://www.w3.org/2000/svg"
   xmlns:xlink="http://www.w3.org/1999/xlink"
   xmlns:sodipodi="http://sodipodi.sourceforge.net/DTD/sodipodi-0.dtd"
   xmlns:inkscape="http://www.inkscape.org/namespaces/inkscape"
   sodipodi:docname="icon_consulting.svg"
   inkscape:version="1.0alpha (9dee831, 2019-01-15)"
   id="svg1683"
   version="1.1"
   viewBox="0 0 13.229166 13.229167"
   height="50"
   width="50">
  <defs
     id="defs1677">
    <inkscape:path-effect
       end_linecap_type="zerowidth"
       miter_limit="4"
       linejoin_type="extrp_arc"
       start_linecap_type="zerowidth"
       interpolator_beta="0.2"
       interpolator_type="CubicBezierJohan"
       sort_points="true"
       offset_points="0.17067398,0.059501125"
       is_visible="true"
       id="path-effect1505"
       effect="powerstroke" />
    <linearGradient
       id="linearGradient1489"
       inkscape:collect="always">
      <stop
         id="stop1485"
         offset="0"
         style="stop-color:#c19206;stop-opacity:1" />
      <stop
         style="stop-color:#f3dd07;stop-opacity:0.99215686;"
         offset="0.14548008"
         id="stop1495" />
      <stop
         style="stop-color:#f3dd07;stop-opacity:0.85882353;"
         offset="0.89999974"
         id="stop1493" />
      <stop
         id="stop1487"
         offset="1"
         style="stop-color:#ffffff;stop-opacity:0.98440981" />
    </linearGradient>
    <linearGradient
       gradientUnits="userSpaceOnUse"
       y2="288.49747"
       x2="5.8799295"
       y1="293.74435"
       x1="5.8799295"
       id="linearGradient1491"
       xlink:href="#linearGradient1489"
       inkscape:collect="always" />
  </defs>
  <sodipodi:namedview
     inkscape:document-rotation="0"
     inkscape:snap-global="false"
     inkscape:window-maximized="1"
     inkscape:window-y="42"
     inkscape:window-x="0"
     inkscape:window-height="1356"
     inkscape:window-width="2160"
     units="px"
     showgrid="false"
     inkscape:current-layer="layer1"
     inkscape:document-units="mm"
     inkscape:cy="40.795487"
     inkscape:cx="12.017373"
     inkscape:zoom="8.0000001"
     inkscape:pageshadow="2"
     inkscape:pageopacity="0.0"
     borderopacity="1.0"
     bordercolor="#666666"
     pagecolor="#ffffff"
     id="base" />
  <metadata
     id="metadata1680">
    <rdf:RDF>
      <cc:Work
         rdf:about="">
        <dc:format>image/svg+xml</dc:format>
        <dc:type
           rdf:resource="http://purl.org/dc/dcmitype/StillImage" />
        <dc:title></dc:title>
      </cc:Work>
    </rdf:RDF>
  </metadata>
  <g
     transform="translate(0,-283.77082)"
     id="layer1"
     inkscape:groupmode="layer"
     inkscape:label="Calque 1">
    <path
       inkscape:connector-curvature="0"
       id="path1497"
       d="m 12.37754,290.32987 a 5.5857795,5.5857795 0 0 1 -5.58578,5.58579 5.5857795,5.5857795 0 0 1 -5.5857795,-5.58579 5.5857795,5.5857795 0 0 1 5.5857795,-5.58577 5.5857795,5.5857795 0 0 1 5.58578,5.58577 z"
       style="opacity:1;fill:#80c790;fill-opacity:1;stroke:none;stroke-width:0.19299737;stroke-miterlimit:4;stroke-dasharray:none;stroke-opacity:1" />
    <path
       id="path1955"
       d="m 3.8937266,286.76272 c -0.095298,0.0258 -0.1240866,0.0378 -0.1240866,0.0525 0,0.007 0.00894,0.0614 0.019852,0.12111 0.02184,0.12111 0.025813,0.25015 0.00789,0.28888 -0.00599,0.014 -0.033753,0.0386 -0.061547,0.0557 -0.040704,0.0258 -0.056581,0.0297 -0.09232,0.0258 -0.055595,-0.006 -0.12905,-0.0517 -0.2481724,-0.15288 l -0.095299,-0.0815 -0.047655,0.0416 c -0.025813,0.0229 -0.06552,0.0625 -0.088349,0.0894 l -0.041693,0.0467 0.05063,0.0557 c 0.1161464,0.12607 0.1896043,0.24222 0.1896043,0.29681 0,0.0386 -0.048644,0.1231 -0.081399,0.13999 -0.039706,0.0208 -0.1766997,0.0178 -0.3017781,-0.007 -0.057572,-0.0113 -0.1111813,-0.0179 -0.1171381,-0.0157 -0.011921,0.006 -0.044669,0.10527 -0.063533,0.19258 l -0.00994,0.0406 0.1042332,0.0368 c 0.1389766,0.0477 0.2312965,0.0952 0.269019,0.13897 0.027802,0.0309 0.031767,0.0427 0.031767,0.0943 0,0.0505 -0.00399,0.0635 -0.029779,0.0924 -0.037728,0.0438 -0.118129,0.0854 -0.2481725,0.13005 -0.057571,0.0198 -0.1091958,0.0378 -0.1151527,0.0397 -0.00894,0.002 -0.00789,0.0218 0.00295,0.0675 0.015887,0.0735 0.042691,0.15883 0.05162,0.16876 0.00295,0.005 0.055594,-0.002 0.1151511,-0.0129 0.136992,-0.0258 0.2670354,-0.0297 0.3067422,-0.009 0.036729,0.0179 0.083387,0.0933 0.084376,0.13403 0.00199,0.0606 -0.056582,0.15485 -0.1806703,0.2958 l -0.05956,0.0675 0.083387,0.0843 c 0.045668,0.0457 0.087357,0.0833 0.093313,0.0833 0.00599,0 0.038718,-0.0249 0.074457,-0.0557 0.1290491,-0.11318 0.2035006,-0.16083 0.2700116,-0.17274 0.030778,-0.006 0.045668,-0.002 0.089342,0.0249 0.028789,0.017 0.05857,0.0416 0.064522,0.0557 0.018863,0.0358 0.01489,0.1747 -0.00695,0.28887 -0.010911,0.0566 -0.019852,0.11013 -0.019852,0.11913 0,0.0129 0.020842,0.0238 0.077425,0.0406 0.041693,0.014 0.094306,0.0279 0.1171381,0.0308 l 0.040704,0.007 0.032756,-0.0923 c 0.05063,-0.14293 0.093312,-0.2293 0.1330197,-0.26901 0.034752,-0.0348 0.039715,-0.0368 0.1032404,-0.0368 0.064522,0 0.068497,8.7e-4 0.1042321,0.0368 0.040705,0.0428 0.091328,0.14593 0.1320279,0.27398 l 0.028789,0.0874 0.034742,-0.006 c 0.05261,-0.009 0.1826548,-0.0446 0.1965537,-0.0536 0.00994,-0.006 0.00789,-0.0318 -0.00894,-0.12607 -0.024816,-0.13699 -0.029779,-0.25413 -0.010911,-0.29682 0.01489,-0.0368 0.09629,-0.0843 0.1419534,-0.0843 0.063533,8.6e-4 0.1330214,0.0446 0.287882,0.18067 l 0.06651,0.0577 0.073459,-0.0685 c 0.039714,-0.0378 0.079412,-0.0794 0.086362,-0.0933 0.012902,-0.0249 0.010911,-0.0288 -0.047654,-0.0933 -0.085373,-0.0943 -0.1508883,-0.1916 -0.1647863,-0.24817 -0.011912,-0.0457 -0.011912,-0.0497 0.017866,-0.10425 0.020851,-0.0387 0.040704,-0.0607 0.061547,-0.0696 0.043679,-0.0189 0.1727282,-0.014 0.3017782,0.0113 0.091329,0.0178 0.1151518,0.0199 0.1211077,0.009 0.011921,-0.0187 0.047655,-0.15685 0.05063,-0.19458 l 0.00295,-0.0338 -0.1141602,-0.0416 c -0.1449322,-0.0536 -0.1945666,-0.0785 -0.2402302,-0.12308 -0.035742,-0.0338 -0.037728,-0.0387 -0.037728,-0.0983 0,-0.0406 0.00599,-0.0714 0.015879,-0.0874 0.030777,-0.0477 0.1141592,-0.0904 0.304756,-0.15882 l 0.077433,-0.0278 -0.00599,-0.0407 c -0.011921,-0.0704 -0.054596,-0.19456 -0.067507,-0.19456 -0.00695,0 -0.060557,0.009 -0.1201143,0.0199 -0.1221015,0.0229 -0.2571081,0.0258 -0.2928452,0.007 -0.038718,-0.0188 -0.090334,-0.11317 -0.083387,-0.14989 0.00994,-0.0546 0.061547,-0.13798 0.1469185,-0.23924 0.046656,-0.0546 0.084375,-0.10425 0.084375,-0.11013 0,-0.006 -0.037728,-0.0477 -0.084375,-0.0924 l -0.084376,-0.0823 -0.06651,0.0586 c -0.1379846,0.12209 -0.2342762,0.18165 -0.2908581,0.18165 -0.04368,0 -0.1260721,-0.0486 -0.1409626,-0.0844 -0.018863,-0.0438 -0.0139,-0.18166 0.00994,-0.30773 0.011921,-0.0595 0.017866,-0.11216 0.0139,-0.11613 -0.00894,-0.009 -0.1896034,-0.0577 -0.2154141,-0.0577 -0.016877,0 -0.025813,0.015 -0.048644,0.0864 -0.040705,0.12708 -0.098277,0.24322 -0.139969,0.27994 -0.031767,0.0278 -0.041693,0.0308 -0.098278,0.0308 -0.05857,0 -0.064522,-0.002 -0.099268,-0.0368 -0.043679,-0.0438 -0.085373,-0.12805 -0.1300434,-0.26008 -0.036729,-0.11024 -0.036729,-0.11115 -0.1489029,-0.0815 z m 0.5499513,0.76537 c 0.4179237,0.10029 0.6521981,0.54897 0.4963457,0.95299 -0.1111825,0.28887 -0.4050182,0.4755 -0.7147375,0.45366 -0.3126992,-0.0229 -0.5688136,-0.23825 -0.6452503,-0.54401 -0.017866,-0.0675 -0.019852,-0.10221 -0.016877,-0.19654 0.00894,-0.19557 0.069495,-0.33851 0.2015178,-0.47252 0.1786842,-0.18166 0.4298355,-0.25314 0.6790013,-0.19358 z"
       inkscape:connector-curvature="0"
       style="fill:#e8f475;fill-opacity:1;stroke-width:0.000992686" />
    <path
       id="path1957"
       d="m 4.1180745,287.74252 c -0.2154141,0.0735 -0.3484345,0.2561 -0.3484345,0.48145 0,0.28887 0.2551218,0.52613 0.5410167,0.50229 0.2035022,-0.0178 0.3653112,-0.14095 0.4417481,-0.33949 0.030768,-0.0794 0.033754,-0.23129 0.00599,-0.31269 -0.09232,-0.27399 -0.3772231,-0.4219 -0.6402862,-0.33156 z m 0.2749765,0.24816 c 0.094304,0.0467 0.1469176,0.14197 0.1389764,0.25015 -0.00493,0.0685 -0.027792,0.11714 -0.074449,0.16381 -0.046656,0.0467 -0.095298,0.0696 -0.1618082,0.0743 -0.1111815,0.008 -0.2015179,-0.0416 -0.2511522,-0.13897 -0.049632,-0.0963 -0.032763,-0.22136 0.040704,-0.29979 0.071472,-0.0764 0.2094581,-0.0983 0.3077358,-0.0497 z"
       inkscape:connector-curvature="0"
       style="fill:#e8f475;fill-opacity:1;stroke-width:0.000992686" />
    <path
       id="path1959"
       d="m 7.2168648,287.79485 c -0.0374,0.01 -0.086697,0.0229 -0.1087973,0.0297 l -0.04165,0.0136 0.00595,0.0391 c 0.00513,0.0349 0.00423,0.0375 -0.010208,0.0315 -0.058648,-0.0246 -0.1385452,-0.0485 -0.2150426,-0.0638 -0.074798,-0.0153 -0.1087965,-0.0178 -0.2124942,-0.0146 -0.1317448,0.005 -0.2082422,0.0213 -0.3187393,0.0698 -0.1240955,0.0553 -0.2813406,0.18274 -0.3714371,0.30175 -0.055246,0.0722 -0.1300457,0.22524 -0.1521456,0.31023 -0.024651,0.0935 -0.031449,0.27454 -0.01275,0.3604 0.011902,0.0569 0.011902,0.0647 -8.915e-4,0.0893 -0.018701,0.0366 -0.023797,0.16999 -0.00934,0.25329 0.00676,0.0366 0.011902,0.0663 0.011902,0.0663 -0.1869945,-0.0494 -0.1648947,-0.0578 -0.2133434,0.0824 -0.055246,0.16234 -0.097748,0.24734 -0.1487451,0.29493 l -0.04165,0.0391 h -0.073099 -0.073099 l -0.040803,-0.0416 c -0.050149,-0.0493 -0.092645,-0.13599 -0.1495951,-0.29918 l -0.039948,-0.11645 -0.073099,0.0161 c -0.079047,0.017 -0.1801942,0.0485 -0.1912435,0.0587 -0.00423,0.004 0.00342,0.0596 0.016999,0.1241 0.026352,0.136 0.033151,0.3094 0.01275,0.35785 -0.013603,0.0315 -0.1172967,0.096 -0.155546,0.096 -0.062044,0 -0.1580945,-0.0586 -0.3076895,-0.187 l -0.099447,-0.0859 -0.023797,0.017 c -0.01275,0.01 -0.058648,0.0527 -0.1028462,0.0977 l -0.079898,0.0808 0.050149,0.057 c 0.1691443,0.1904 0.2235426,0.27625 0.2243926,0.3502 0,0.0527 -0.056101,0.14874 -0.095197,0.16319 -0.072245,0.0255 -0.2005936,0.0178 -0.4011864,-0.0247 l -0.074798,-0.0162 -0.011902,0.0289 c -0.017854,0.0416 -0.051851,0.16489 -0.058648,0.2074 l -0.00513,0.0383 0.1087964,0.0374 c 0.1538448,0.0527 0.2600916,0.10455 0.3051397,0.14961 l 0.0374,0.0375 v 0.0774 0.0765 l -0.035699,0.0391 c -0.043351,0.0468 -0.1436447,0.0977 -0.2957903,0.14873 -0.058648,0.0195 -0.1096473,0.0383 -0.1138969,0.0425 -0.01275,0.011 0.053552,0.27113 0.069696,0.27113 0.00342,0 0.056101,-0.0102 0.1164475,-0.0221 0.061197,-0.0119 0.1563937,-0.0238 0.2133418,-0.0264 0.1376959,-0.006 0.1657454,0.005 0.2099429,0.085 0.021256,0.0374 0.031449,0.0662 0.031449,0.0884 0,0.0654 -0.059496,0.16235 -0.1937941,0.31618 l -0.077347,0.0884 0.048447,0.0535 c 0.026345,0.0297 0.070551,0.074 0.098597,0.0986 0.044198,0.0383 0.051851,0.0425 0.066301,0.0331 0.015297,-0.01 0.016151,-0.009 0.011903,0.0136 -0.00253,0.0128 -0.032304,0.15385 -0.065447,0.31278 -0.033151,0.15895 -0.06035,0.29835 -0.06035,0.30855 -8.916e-4,0.034 0.045046,0.0884 0.094346,0.1139 l 0.045052,0.0238 H 6.550411 c 1.9200876,0 2.3161759,-0.002 2.3391242,-0.011 0.044198,-0.0186 0.083298,-0.0578 0.1045469,-0.1037 0.018701,-0.0391 0.020401,-0.0535 0.020401,-0.17423 0,-0.11305 -0.00765,-0.18699 -0.050997,-0.51848 -0.028054,-0.2125 -0.055246,-0.44454 -0.059495,-0.51424 -0.00676,-0.1122 -0.01275,-0.16915 -0.029755,-0.2941 -0.00342,-0.0272 -0.0017,-0.0323 0.016151,-0.0366 0.025497,-0.006 0.093499,0.0306 0.113897,0.0612 0.019547,0.0298 0.016999,0.13175 -0.00513,0.24395 -0.00934,0.0468 -0.01445,0.0875 -0.011902,0.0909 0.00851,0.008 0.1096464,0.0374 0.1504449,0.0442 l 0.033998,0.006 0.028901,-0.0832 c 0.035699,-0.10455 0.068849,-0.16999 0.1002948,-0.19975 0.019547,-0.0186 0.032307,-0.0229 0.074799,-0.0247 0.028057,-7.4e-4 0.059492,0.002 0.068853,0.008 0.029751,0.0153 0.069696,0.0867 0.1096473,0.19379 l 0.037399,0.10114 0.028057,-0.002 c 0.033149,-0.002 0.1504454,-0.0357 0.1555446,-0.0443 0.00174,-0.004 -0.00426,-0.0468 -0.012751,-0.0977 -0.020398,-0.10965 -0.022093,-0.19975 -0.00513,-0.23204 0.00688,-0.0136 0.030602,-0.034 0.053547,-0.0459 0.034853,-0.0187 0.046742,-0.0213 0.073094,-0.0161 0.046742,0.011 0.096897,0.0442 0.1818933,0.11898 l 0.07651,0.0672 0.05185,-0.0468 c 0.0289,-0.0255 0.06035,-0.057 0.0697,-0.0706 l 0.01786,-0.0255 -0.06205,-0.0722 c -0.07311,-0.0841 -0.116447,-0.15215 -0.122396,-0.19294 -0.0043,-0.0221 8.92e-4,-0.0383 0.01955,-0.0706 0.03994,-0.068 0.0884,-0.0765 0.26264,-0.0468 0.05524,0.01 0.105398,0.0153 0.110499,0.0136 0.0052,-0.002 0.01786,-0.034 0.0272,-0.0704 0.0323,-0.12325 0.0374,-0.1071 -0.05015,-0.1377 -0.116447,-0.0407 -0.163196,-0.0638 -0.202295,-0.0986 -0.034,-0.0306 -0.03485,-0.0331 -0.03485,-0.085 0,-0.0519 8.92e-4,-0.0544 0.03485,-0.085 0.0391,-0.0349 0.08584,-0.0578 0.202295,-0.0986 0.08754,-0.0306 0.08244,-0.0146 0.05015,-0.1377 -0.0094,-0.0366 -0.02211,-0.0689 -0.02805,-0.0705 -0.0052,-0.002 -0.05355,0.004 -0.106246,0.0136 -0.175095,0.0315 -0.227794,0.0213 -0.266892,-0.0477 -0.01785,-0.0314 -0.02211,-0.0493 -0.01871,-0.0704 0.0059,-0.0399 0.05015,-0.1088 0.122397,-0.19294 l 0.06205,-0.0722 -0.0306,-0.0375 c -0.017,-0.0204 -0.0476,-0.051 -0.06885,-0.068 l -0.03825,-0.0314 -0.0238,0.0204 c -0.1606449,0.13176 -0.1903947,0.15216 -0.2439425,0.1632 -0.022103,0.005 -0.035696,7.5e-4 -0.0714,-0.0213 -0.023806,-0.0146 -0.047603,-0.0365 -0.051854,-0.0477 -0.011899,-0.0315 -0.00939,-0.1275 0.00591,-0.21164 0.022103,-0.1241 0.024649,-0.11389 -0.044195,-0.136 -0.034001,-0.011 -0.074799,-0.0204 -0.09265,-0.0221 l -0.030602,-0.002 -0.037399,0.10114 c -0.040806,0.10795 -0.077344,0.17425 -0.1104973,0.1955 -0.011899,0.008 -0.039103,0.0136 -0.0629,0.0136 -0.07565,0 -0.1198466,-0.057 -0.1801937,-0.23204 l -0.028901,-0.0832 -0.033997,0.006 c -0.040803,0.007 -0.1419449,0.0366 -0.1504442,0.0442 -0.00253,0.004 0.00253,0.0443 0.011902,0.0909 0.019547,0.10114 0.023797,0.20229 0.00849,0.238 -0.00676,0.017 -0.026345,0.034 -0.056101,0.0501 -0.045046,0.0238 -0.0459,0.0247 -0.084148,0.011 -0.047601,-0.0161 -0.1011456,-0.0519 -0.1818942,-0.12239 -0.033998,-0.0297 -0.0646,-0.0535 -0.067995,-0.0535 -0.00423,0 -0.0374,0.0306 -0.073947,0.0672 l -0.067148,0.0672 0.050997,0.0586 c 0.097748,0.11221 0.138546,0.1768 0.138546,0.22015 0,0.0366 -0.039948,0.0969 -0.073099,0.1105 -0.039102,0.0161 -0.082447,0.0153 -0.2107943,-0.006 -0.090947,-0.0153 -0.1096458,-0.017 -0.1164459,-0.007 -0.011903,0.0204 -0.042497,0.14364 -0.039948,0.16235 0.00171,0.0136 0.021248,0.0237 0.091797,0.0484 0.1070965,0.0383 0.1495956,0.0596 0.1852939,0.0926 0.025497,0.0238 0.0272,0.0297 0.0272,0.0823 0,0.0535 -0.00171,0.0587 -0.0272,0.0833 -0.028901,0.0264 -0.1215471,0.0731 -0.181895,0.0909 -0.033997,0.0102 -0.040803,0.009 -0.3909864,-0.12323 -0.1954939,-0.0739 -0.3739879,-0.14365 -0.3952372,-0.1547 -0.048447,-0.0255 -0.097747,-0.0756 -0.1385457,-0.1394 l -0.029748,-0.0485 0.022096,-0.0442 c 0.011902,-0.0247 0.036553,-0.0596 0.053552,-0.0774 0.031449,-0.0331 0.032304,-0.0331 0.096046,-0.0331 0.059495,0 0.067148,0.002 0.093498,0.0247 0.038247,0.034 0.068849,0.0926 0.1172959,0.22523 l 0.040804,0.11135 0.036553,-0.002 c 0.019547,-7.5e-4 0.069696,-0.0119 0.1104965,-0.0246 0.056101,-0.0178 0.074798,-0.0264 0.074798,-0.0375 0,-0.009 -0.00765,-0.0527 -0.017854,-0.0986 -0.021248,-0.10115 -0.025497,-0.2414 -0.00851,-0.28135 0.013604,-0.0331 0.089248,-0.0791 0.130045,-0.0791 0.056948,0 0.1529949,0.0603 0.2719922,0.17 l 0.057801,0.0519 0.030601,-0.023 c 0.016998,-0.0128 0.054398,-0.0501 0.084147,-0.0833 l 0.054399,-0.0586 -0.035698,-0.0416 c -0.1334448,-0.1547 -0.1776445,-0.22099 -0.187843,-0.27964 -0.00423,-0.0263 -8.915e-4,-0.04 0.025497,-0.0824 0.023805,-0.0407 0.0374,-0.0544 0.061197,-0.0629 0.045046,-0.0153 0.159795,-0.0102 0.2804914,0.0128 l 0.105396,0.0204 0.00851,-0.0221 c 0.011047,-0.0279 0.049294,-0.17765 0.049294,-0.19209 0,-0.007 -0.030601,-0.0213 -0.069696,-0.0349 -0.1657453,-0.0544 -0.2668917,-0.1088 -0.2915413,-0.15639 -0.016151,-0.0306 -0.015297,-0.10541 8.916e-4,-0.13771 0.023805,-0.0459 0.1121962,-0.0951 0.2779415,-0.15214 l 0.083298,-0.0289 -0.00595,-0.034 c -0.00676,-0.0442 -0.045046,-0.17679 -0.052698,-0.1836 -0.00342,-0.004 -0.053544,0.004 -0.1121962,0.0146 -0.1138969,0.0213 -0.2354432,0.0264 -0.2787916,0.011 -0.038247,-0.0128 -0.090097,-0.1071 -0.081597,-0.14621 0.01275,-0.0596 0.06035,-0.13428 0.1580959,-0.24563 0.032304,-0.0357 0.057801,-0.0689 0.057801,-0.0739 0,-0.011 -0.087547,-0.1054 -0.129195,-0.13769 l -0.033151,-0.0272 -0.0357,0.034 c -0.0646,0.062 -0.1784937,0.14874 -0.221842,0.16914 -0.023797,0.011 -0.055246,0.0204 -0.070551,0.0204 -0.038247,0 -0.1181451,-0.0485 -0.1317448,-0.0799 -0.016151,-0.0391 -0.011903,-0.17338 0.00934,-0.28133 0.00934,-0.0519 0.017846,-0.0978 0.017846,-0.10371 0,-0.0195 -0.2192922,-0.0774 -0.2252433,-0.0586 -0.048447,0.15809 -0.1045454,0.28218 -0.1478944,0.32808 -0.032304,0.034 -0.032304,0.034 -0.096897,0.034 -0.056101,0 -0.067148,-0.002 -0.089248,-0.0213 -0.033998,-0.0279 -0.086697,-0.13259 -0.1257959,-0.24649 -0.016999,-0.0519 -0.033997,-0.096 -0.036553,-0.0986 -0.00253,-0.004 -0.035699,0.002 -0.073099,0.0101 z m 0.4955328,0.72249 c 0.094348,0.0238 0.2039934,0.0841 0.2796416,0.15554 0.390987,0.36378 0.2252432,1.00551 -0.2940905,1.13641 -0.06035,0.0153 -0.088397,0.017 -0.1827445,0.0136 -0.068849,-0.002 -0.1283444,-0.01 -0.1546939,-0.0178 l -0.044198,-0.0136 0.022103,-0.0875 c 0.011047,-0.0477 0.023805,-0.0902 0.0272,-0.0935 0.00342,-0.005 0.026352,-7.5e-4 0.05185,0.006 0.072245,0.0212 0.1912427,0.0178 0.2685913,-0.008 0.3331883,-0.11219 0.4343346,-0.52783 0.1895429,-0.77773 -0.081597,-0.0817 -0.1827441,-0.12834 -0.30599,-0.14109 l -0.059495,-0.006 v -0.0969 -0.0977 l 0.070543,0.006 c 0.038255,0.004 0.097748,0.0136 0.1317452,0.0221 z m -0.073099,0.42158 c 0.088397,0.0399 0.1359953,0.11133 0.1410948,0.21333 0.00342,0.0561 8.915e-4,0.0672 -0.02295,0.11645 -0.045046,0.0909 -0.1164467,0.13516 -0.2175927,0.13431 -0.043351,0 -0.070551,-0.005 -0.099446,-0.0195 l -0.040803,-0.0187 v -0.1462 c 0,-0.1598 0.00342,-0.1836 0.025497,-0.1836 0.024652,0 0.044198,-0.0289 0.071398,-0.1054 0.00513,-0.0136 0.011903,-0.0153 0.055246,-0.011 0.0272,0.002 0.066293,0.0119 0.087547,0.0204 z m -1.6786957,0.51424 c 0.00513,0.006 0.015297,0.0399 0.02295,0.0748 0.00765,0.0349 0.033997,0.12323 0.058648,0.19549 0.023797,0.0722 0.044198,0.13514 0.044198,0.1394 0,0.0102 -0.052698,0.0289 -0.084147,0.0297 -0.015297,7.4e-4 -0.049294,-0.0127 -0.084147,-0.0341 -0.075647,-0.045 -0.085847,-0.0662 -0.085847,-0.1819 0,-0.0722 0.02295,-0.24989 0.034852,-0.26943 0.00423,-0.008 0.080747,0.0297 0.093496,0.0459 z m 3.5554349,0.62387 c 0.2439422,0.057 0.4249857,0.28814 0.4249857,0.54314 0,0.25498 -0.1810435,0.48617 -0.4249857,0.54312 -0.070548,0.017 -0.203144,0.017 -0.267741,7.4e-4 -0.1920952,-0.0484 -0.3459391,-0.19633 -0.4045871,-0.38674 -0.016151,-0.0501 -0.019546,-0.0841 -0.019546,-0.15724 0,-0.16064 0.050149,-0.28133 0.1640447,-0.39609 0.069697,-0.0698 0.1623441,-0.1224 0.2558418,-0.14703 0.062048,-0.0162 0.2031431,-0.017 0.2719911,0 z m -3.9838208,0.0662 c 0.1385459,0.0416 0.2541419,0.11049 0.3535884,0.21249 l 0.054398,0.0553 -0.01445,0.0341 c -0.020401,0.0442 -0.067995,0.0893 -0.1181452,0.11134 l -0.040803,0.0178 -0.066301,-0.0629 c -0.1206957,-0.11476 -0.2549912,-0.1649 -0.4249862,-0.15641 -0.1538447,0.007 -0.2617913,0.0553 -0.3756868,0.16745 -0.052698,0.0527 -0.072244,0.0799 -0.1036968,0.1445 -0.0374,0.0774 -0.065447,0.17764 -0.065447,0.23715 0,0.0247 -0.00253,0.0263 -0.061197,0.0442 -0.077347,0.0229 -0.1062467,0.0366 -0.140245,0.0689 l -0.026352,0.0255 -0.00676,-0.0407 c -0.00342,-0.0221 -0.00342,-0.0774 -8.915e-4,-0.12156 0.024651,-0.37653 0.2838905,-0.67572 0.6519299,-0.75392 0.0374,-0.008 0.096895,-0.0102 0.1827426,-0.009 0.1079474,0.002 0.1393966,0.006 0.2022942,0.0255 z m -0.1181473,0.50403 c 0.022103,0.009 0.04165,0.0187 0.042504,0.023 0,0.004 -0.045052,0.0229 -0.1011477,0.0433 -0.056101,0.0195 -0.151295,0.0535 -0.2116429,0.0756 -0.059495,0.0221 -0.1113455,0.0375 -0.1138953,0.0349 -0.00851,-0.008 0.021248,-0.0612 0.054398,-0.0978 0.083298,-0.0917 0.2124942,-0.12323 0.3297895,-0.0791 z"
       inkscape:connector-curvature="0"
       style="fill:#4f4f4f;fill-opacity:1;stroke-width:0.00084997" />
    <path
       id="path1961"
       d="m 9.2780477,290.23682 c -0.1742443,0.0485 -0.2923908,0.204 -0.2923908,0.38335 0,0.34592 0.4105372,0.52442 0.6655279,0.28813 0.105398,-0.0969 0.1504464,-0.24649 0.1155974,-0.38164 -0.038251,-0.14364 -0.1546956,-0.26094 -0.2940908,-0.29238 -0.050149,-0.0119 -0.1478954,-0.0102 -0.1946437,0.002 z m 0.1895436,0.19805 c 0.039103,0.0161 0.096049,0.079 0.1079462,0.12069 0.011899,0.0434 0.010204,0.1071 -0.00339,0.14025 -0.031445,0.0756 -0.1096473,0.12665 -0.1920938,0.12665 -0.1997433,-7.5e-4 -0.277942,-0.25499 -0.1147464,-0.36974 0.056946,-0.04 0.1283458,-0.0459 0.2022931,-0.0178 z"
       inkscape:connector-curvature="0"
       style="fill:#999999;fill-opacity:1;stroke-width:0.000849968" />
    <path
       id="path1963"
       d="m 7.9496106,291.44413 -0.130622,0.0372 0.010655,0.0549 c 0.063552,0.31243 0.056494,0.4148 -0.035304,0.46774 -0.033535,0.0211 -0.074127,0.0372 -0.088261,0.0372 -0.0459,0 -0.1359096,-0.0547 -0.2700621,-0.16406 l -0.1323713,-0.10574 -0.093548,0.10052 -0.093548,0.10053 0.097087,0.11299 c 0.097067,0.11479 0.1676756,0.23301 0.1676756,0.28066 0,0.0141 -0.015883,0.0547 -0.037053,0.0883 -0.028247,0.0477 -0.052956,0.0653 -0.1006052,0.0739 -0.058264,0.0101 -0.2859474,-0.0121 -0.3847956,-0.0388 -0.033535,-0.0101 -0.040591,0.002 -0.06884,0.11118 -0.017693,0.0654 -0.031766,0.12706 -0.033535,0.1359 -0.00185,0.008 0.049438,0.0318 0.1129698,0.0547 0.1411973,0.0477 0.2259319,0.0901 0.2788844,0.13772 0.052956,0.0494 0.054725,0.17311 0.00185,0.22593 -0.038843,0.0388 -0.2012208,0.11843 -0.3194844,0.15542 -0.077665,0.0247 -0.082953,0.0494 -0.038843,0.19422 l 0.026478,0.0935 0.065301,-0.0101 c 0.1376789,-0.0211 0.3371386,-0.0318 0.3794998,-0.0211 0.024709,0.004 0.061783,0.0389 0.084743,0.0739 0.033535,0.0547 0.035304,0.0707 0.019502,0.12707 -0.010655,0.037 -0.070609,0.12887 -0.1341605,0.20653 l -0.114719,0.14116 0.095318,0.0952 0.095318,0.0952 0.1200268,-0.0971 c 0.1994616,-0.16245 0.2665337,-0.18356 0.3706755,-0.12003 0.077665,0.0458 0.09003,0.12365 0.052956,0.33537 -0.015883,0.0919 -0.02294,0.1731 -0.015883,0.18014 0.021191,0.0201 0.2329947,0.0688 0.2506449,0.0581 0.010655,-0.004 0.017692,-0.0201 0.017692,-0.0281 0,-0.0442 0.1129698,-0.2983 0.1517925,-0.3389 0.035304,-0.0388 0.060014,-0.0477 0.1306221,-0.0477 0.081205,0 0.091779,0.004 0.1376789,0.0672 0.026478,0.037 0.070609,0.13229 0.098856,0.21358 l 0.049417,0.14294 0.065301,-0.0101 c 0.035304,-0.008 0.091779,-0.0211 0.1253344,-0.0334 0.06884,-0.0247 0.067091,-0.0101 0.044131,-0.27536 -0.017692,-0.18716 -0.00704,-0.2277 0.063552,-0.2683 0.105893,-0.0581 0.1765017,-0.0355 0.3618475,0.12185 0.091779,0.0779 0.1200267,0.0935 0.1447358,0.0794 0.035304,-0.0201 0.1623878,-0.1536 0.1623878,-0.1713 0,-0.004 -0.031766,-0.0458 -0.070609,-0.0899 -0.1076822,-0.12365 -0.1765017,-0.23478 -0.1765017,-0.28947 0,-0.0688 0.054725,-0.15542 0.1041439,-0.16948 0.02294,-0.004 0.1094314,-0.004 0.1941538,0.004 0.2771231,0.0229 0.2524105,0.0301 0.2859467,-0.0794 0.049423,-0.15179 0.049423,-0.14837 -0.1112002,-0.20475 -0.079435,-0.0282 -0.1747525,-0.0724 -0.211814,-0.0989 -0.061782,-0.0458 -0.06709,-0.0566 -0.06709,-0.13431 0,-0.0458 0.00704,-0.0919 0.014074,-0.10051 0.026478,-0.0389 0.1235451,-0.0935 0.2506448,-0.14115 0.072378,-0.0281 0.1394478,-0.0565 0.1465055,-0.0619 0.014078,-0.0121 -0.033536,-0.22769 -0.054728,-0.25066 -0.00707,-0.008 -0.088261,0 -0.1800406,0.0161 -0.211814,0.037 -0.2894775,0.0247 -0.3353712,-0.0528 -0.063552,-0.10414 -0.042361,-0.17129 0.1200268,-0.37068 l 0.097067,-0.12002 -0.093548,-0.0952 -0.093548,-0.0952 -0.1165083,0.0971 c -0.2100468,0.17472 -0.3071277,0.19764 -0.4024435,0.10234 -0.044131,-0.0442 -0.044131,-0.0511 -0.033535,-0.20652 0.00523,-0.0901 0.015883,-0.19241 0.021191,-0.22768 l 0.010655,-0.0653 -0.093548,-0.0264 c -0.1535619,-0.0458 -0.1676755,-0.0424 -0.2029879,0.0635 -0.044131,0.13953 -0.1253345,0.293 -0.1641572,0.31418 -0.019502,0.0101 -0.065301,0.0181 -0.1041439,0.0181 -0.1006052,0 -0.1553309,-0.0708 -0.2506467,-0.33184 -0.021191,-0.0601 -0.040612,-0.10936 -0.042361,-0.10776 0,0 -0.060014,0.0181 -0.130622,0.037 z m 0.6972186,0.86314 c 0.1676756,0.0566 0.3494928,0.2118 0.4253932,0.3636 0.1394482,0.27185 0.1147191,0.61075 -0.063552,0.84373 -0.2753557,0.36185 -0.8154801,0.41481 -1.1455577,0.10937 -0.2135791,-0.19603 -0.301832,-0.46246 -0.2453511,-0.73253 0.033536,-0.16063 0.1006054,-0.2877 0.2135792,-0.40244 0.2065183,-0.21004 0.5277678,-0.28065 0.8154822,-0.18175 z"
       inkscape:connector-curvature="0"
       style="fill:#8af4a6;fill-opacity:1;stroke-width:0.0017651" />
    <path
       id="path1965"
       d="m 8.2532099,292.49791 c -0.084743,0.0211 -0.2347599,0.10937 -0.2824186,0.16586 -0.024709,0.0301 -0.065301,0.0935 -0.09178,0.14295 -0.061782,0.12184 -0.06709,0.33008 -0.00885,0.4554 0.056475,0.12364 0.1659264,0.23125 0.2894754,0.2877 0.097067,0.0424 0.1235653,0.0477 0.2524141,0.0406 0.3053644,-0.0181 0.5012916,-0.21359 0.5189417,-0.51896 0.00704,-0.12887 0.00185,-0.15521 -0.040592,-0.2524 -0.056475,-0.12364 -0.1659264,-0.23477 -0.2877124,-0.28772 -0.088261,-0.0388 -0.2629992,-0.0566 -0.3494909,-0.0336 z m 0.2753578,0.30535 c 0.084743,0.0583 0.1270835,0.12365 0.1359097,0.21006 0.017692,0.1729 -0.1376789,0.3283 -0.3106602,0.31065 -0.088261,-0.0101 -0.1518127,-0.0513 -0.2100508,-0.13772 -0.052956,-0.0779 -0.049438,-0.2277 0.010655,-0.31067 0.079435,-0.11118 0.2630033,-0.14657 0.3742038,-0.0724 z"
       inkscape:connector-curvature="0"
       style="fill:#8af4a6;fill-opacity:1;stroke-width:0.0017651" />
    <path
       style="fill:#bf6911;fill-opacity:1;stroke-width:0.000916365"
       inkscape:connector-curvature="0"
       d="m 7.2868665,287.81768 c -0.087973,0.0238 -0.1145469,0.0349 -0.1145469,0.0487 0,0.007 0.00824,0.0569 0.018328,0.11179 0.020156,0.1118 0.023827,0.23093 0.00736,0.26667 -0.0055,0.0129 -0.031159,0.0358 -0.056813,0.0513 -0.037571,0.0238 -0.052236,0.0276 -0.085222,0.0238 -0.051316,-0.005 -0.1191288,-0.0477 -0.2290932,-0.14113 l -0.087972,-0.0751 -0.04399,0.0384 c -0.023827,0.021 -0.060484,0.0577 -0.081557,0.0825 l -0.038485,0.0431 0.04674,0.0513 c 0.1072163,0.11638 0.1750278,0.2236 0.1750278,0.27399 0,0.0358 -0.044904,0.11364 -0.075143,0.12922 -0.03665,0.0192 -0.1631137,0.0164 -0.2785768,-0.007 -0.053151,-0.0101 -0.1026329,-0.0164 -0.1081316,-0.0146 -0.010996,0.005 -0.041234,0.0971 -0.058648,0.17776 l -0.00917,0.0376 0.09622,0.0339 c 0.1282908,0.044 0.2135142,0.088 0.2483364,0.1283 0.025654,0.0284 0.029324,0.0394 0.029324,0.087 0,0.0468 -0.00364,0.0587 -0.027489,0.0852 -0.034822,0.0403 -0.1090483,0.0788 -0.2290924,0.12005 -0.053151,0.0184 -0.1008009,0.0349 -0.1062995,0.0366 -0.00824,0.002 -0.00736,0.0201 0.00274,0.0623 0.014658,0.0679 0.039406,0.14662 0.047653,0.15578 0.00274,0.004 0.051316,-0.002 0.1062986,-0.0119 0.1264588,-0.0238 0.2465044,-0.0275 0.2831587,-0.009 0.033908,0.0165 0.076976,0.0862 0.077892,0.12372 0.00186,0.0559 -0.052236,0.14295 -0.1667803,0.27308 l -0.054978,0.0623 0.076975,0.0779 c 0.042155,0.0421 0.080642,0.077 0.086138,0.077 0.0055,0 0.035744,-0.0229 0.068731,-0.0513 0.1191288,-0.10446 0.1878564,-0.14845 0.2492533,-0.15945 0.028411,-0.005 0.042155,-0.002 0.082473,0.0229 0.026575,0.0156 0.054064,0.0385 0.059563,0.0513 0.017415,0.033 0.013745,0.16128 -0.00639,0.26666 -0.010082,0.0522 -0.018328,0.10172 -0.018328,0.10996 0,0.0119 0.019243,0.022 0.071479,0.0376 0.038485,0.0129 0.087056,0.0257 0.1081316,0.0284 l 0.037571,0.007 0.030238,-0.0852 c 0.046732,-0.13196 0.086138,-0.21168 0.1227938,-0.24834 0.032073,-0.0321 0.03665,-0.034 0.095302,-0.034 0.059563,0 0.063233,7.5e-4 0.09622,0.034 0.037571,0.0394 0.084305,0.1347 0.1218769,0.25293 l 0.026575,0.0806 0.032074,-0.005 c 0.048566,-0.009 0.1686117,-0.0412 0.1814416,-0.0494 0.00917,-0.005 0.00736,-0.0293 -0.00824,-0.11638 -0.022913,-0.12646 -0.027489,-0.2346 -0.010074,-0.27399 0.013745,-0.034 0.088888,-0.078 0.1310413,-0.078 0.058648,7.5e-4 0.1227944,0.0412 0.2657475,0.16679 l 0.061397,0.0531 0.067809,-0.0632 c 0.03665,-0.0349 0.073307,-0.0733 0.079724,-0.0862 0.011916,-0.0229 0.010074,-0.0267 -0.043982,-0.0862 -0.078807,-0.087 -0.1392874,-0.17686 -0.1521174,-0.22909 -0.010996,-0.0421 -0.010996,-0.0458 0.016493,-0.0962 0.019243,-0.0358 0.037571,-0.0559 0.056814,-0.0641 0.04032,-0.0174 0.1594496,-0.0129 0.2785776,0.0101 0.084305,0.0165 0.1062994,0.0184 0.1117966,0.009 0.010996,-0.0174 0.04399,-0.14479 0.046732,-0.17961 l 0.00274,-0.0312 -0.1053819,-0.0385 c -0.1337902,-0.0494 -0.1796089,-0.0723 -0.2217625,-0.11363 -0.032988,-0.0312 -0.034822,-0.0357 -0.034822,-0.0907 0,-0.0376 0.0055,-0.0659 0.014658,-0.0807 0.028411,-0.044 0.1053835,-0.0833 0.2813257,-0.14663 l 0.071479,-0.0257 -0.0055,-0.0376 c -0.010996,-0.0651 -0.050402,-0.17959 -0.062312,-0.17959 -0.00639,0 -0.055901,0.009 -0.1108804,0.0184 -0.1127143,0.021 -0.2373415,0.0237 -0.2703308,0.007 -0.035743,-0.0173 -0.08339,-0.10446 -0.076976,-0.13836 0.00917,-0.0503 0.056814,-0.12738 0.1356238,-0.22085 0.043069,-0.0503 0.077891,-0.0962 0.077891,-0.10172 0,-0.005 -0.034822,-0.044 -0.077891,-0.0852 l -0.077892,-0.0761 -0.061397,0.0541 c -0.1273762,0.11271 -0.2162646,0.16771 -0.2684972,0.16771 -0.04032,0 -0.1163798,-0.0449 -0.1301252,-0.078 -0.017415,-0.0402 -0.012831,-0.16768 0.00917,-0.28406 0.010996,-0.055 0.016493,-0.10355 0.012831,-0.10721 -0.00824,-0.009 -0.1750271,-0.0531 -0.1988528,-0.0531 -0.015581,0 -0.023827,0.0138 -0.044904,0.0797 -0.037571,0.11731 -0.09072,0.22453 -0.1292085,0.25843 -0.029324,0.0257 -0.038485,0.0284 -0.090721,0.0284 -0.054064,0 -0.059563,-0.002 -0.091637,-0.0339 -0.04032,-0.0403 -0.078807,-0.1182 -0.1200441,-0.24008 -0.033908,-0.10172 -0.033908,-0.10264 -0.1374552,-0.0751 z m 0.5076698,0.70652 c 0.3857925,0.0926 0.6020564,0.50676 0.4581857,0.87972 -0.1026337,0.26667 -0.3738799,0.43895 -0.6597863,0.41879 -0.2886581,-0.021 -0.525082,-0.21993 -0.5956432,-0.50217 -0.016493,-0.0623 -0.018328,-0.0944 -0.015581,-0.18145 0.00824,-0.18052 0.064147,-0.31248 0.1860242,-0.43619 0.1649475,-0.1677 0.3967889,-0.23367 0.6267978,-0.1787 z"
       id="path1955-0" />
    <path
       style="fill:#bf6911;fill-opacity:1;stroke-width:0.000916365"
       inkscape:connector-curvature="0"
       d="m 7.4939661,288.72215 c -0.1988528,0.0679 -0.3216465,0.23642 -0.3216465,0.44443 0,0.26667 0.2355078,0.48569 0.499423,0.4637 0.1878563,-0.0165 0.3372248,-0.13014 0.4077859,-0.3134 0.028411,-0.0733 0.031151,-0.21353 0.0055,-0.28866 -0.085223,-0.25292 -0.3482212,-0.38946 -0.5910603,-0.30607 z m 0.2538347,0.22908 c 0.087056,0.0431 0.1356239,0.13105 0.1282931,0.23093 -0.00461,0.0632 -0.025662,0.10814 -0.068731,0.15121 -0.043069,0.0431 -0.087973,0.0641 -0.1493684,0.0688 -0.1026342,0.008 -0.1860239,-0.0385 -0.2318425,-0.12829 -0.045818,-0.0889 -0.030238,-0.20436 0.037571,-0.27676 0.065981,-0.0706 0.1933547,-0.0907 0.2840752,-0.0458 z"
       id="path1957-9" />
    <path
       id="path1955-0-3"
       d="m 4.933007,289.24251 c -0.10498,0.0284 -0.1366944,0.0415 -0.1366944,0.0579 0,0.008 0.00984,0.0679 0.021872,0.13341 0.024057,0.13343 0.028433,0.27559 0.00875,0.31824 -0.00653,0.0153 -0.037185,0.0426 -0.067802,0.0611 -0.044837,0.0284 -0.062333,0.0328 -0.1017013,0.0284 -0.061242,-0.007 -0.1421634,-0.0568 -0.2733896,-0.1684 l -0.1049814,-0.0897 -0.052489,0.0459 c -0.028433,0.0251 -0.072178,0.0689 -0.097327,0.0984 l -0.045929,0.0514 0.055774,0.0612 c 0.1279469,0.13889 0.2088701,0.26684 0.2088701,0.32698 0,0.0427 -0.053581,0.13561 -0.089673,0.15419 -0.043745,0.023 -0.1946528,0.0196 -0.3324424,-0.008 -0.063425,-0.012 -0.1224787,-0.0196 -0.1290389,-0.0174 -0.01312,0.005 -0.049213,0.11591 -0.069987,0.21215 l -0.010936,0.0449 0.1148226,0.0404 c 0.1530994,0.0526 0.2548001,0.10497 0.2963564,0.15309 0.030624,0.0339 0.034993,0.0471 0.034993,0.1039 0,0.0558 -0.00439,0.0699 -0.032809,0.1017 -0.041554,0.0482 -0.1301333,0.094 -0.2733903,0.14325 -0.063425,0.0219 -0.1202915,0.0415 -0.1268533,0.0438 -0.00984,0.004 -0.00875,0.0241 0.00327,0.0743 0.017496,0.081 0.047021,0.17497 0.056866,0.18591 0.00327,0.005 0.061241,-0.002 0.126854,-0.0143 0.1509101,-0.0284 0.2941677,-0.0328 0.3379098,-0.01 0.040462,0.0196 0.09186,0.10278 0.092953,0.14763 0.00223,0.0667 -0.062333,0.17059 -0.1990288,0.32587 l -0.06561,0.0743 0.09186,0.0929 c 0.050305,0.0503 0.096235,0.0919 0.102795,0.0919 0.00653,0 0.042646,-0.0274 0.082016,-0.0612 0.1421641,-0.12465 0.2241809,-0.17715 0.2974494,-0.19027 0.033901,-0.007 0.050305,-0.002 0.09842,0.0272 0.031717,0.0186 0.064518,0.0459 0.071079,0.0612 0.02078,0.0394 0.016404,0.19244 -0.00765,0.31821 -0.012028,0.0623 -0.021872,0.12138 -0.021872,0.13123 0,0.0143 0.022965,0.0263 0.085298,0.0448 0.045929,0.0153 0.1038886,0.0306 0.1290413,0.0339 l 0.044837,0.008 0.036085,-0.1017 c 0.055774,-0.15746 0.1027956,-0.25262 0.1465369,-0.29635 0.038277,-0.0382 0.043745,-0.0404 0.113732,-0.0404 0.071079,0 0.075455,0.002 0.1148226,0.0404 0.044837,0.0471 0.1006084,0.16076 0.1454434,0.30182 l 0.031717,0.0962 0.038277,-0.007 c 0.057958,-0.01 0.2012146,-0.0492 0.2165254,-0.0591 0.010936,-0.007 0.00875,-0.035 -0.00984,-0.13888 -0.02734,-0.1509 -0.032809,-0.27995 -0.012028,-0.32696 0.016404,-0.0404 0.1060751,-0.093 0.1563796,-0.093 0.069987,0.002 0.1465379,0.0491 0.3171332,0.19903 l 0.07327,0.0634 0.080923,-0.0754 c 0.043745,-0.0415 0.087485,-0.0875 0.095141,-0.1028 0.01422,-0.0273 0.012028,-0.0316 -0.052489,-0.1028 -0.094046,-0.10388 -0.1662201,-0.21105 -0.1815317,-0.27339 -0.01312,-0.0502 -0.01312,-0.0547 0.019688,-0.11481 0.022964,-0.0426 0.044837,-0.0667 0.067801,-0.0766 0.048113,-0.0208 0.1902806,-0.0153 0.3324424,0.012 0.1006077,0.0196 0.1268532,0.0219 0.1334151,0.01 0.01312,-0.0208 0.052489,-0.17278 0.055774,-0.21433 l 0.00327,-0.0373 -0.1257583,-0.0459 c -0.1596613,-0.0591 -0.2143396,-0.0864 -0.2646428,-0.1356 -0.03937,-0.0372 -0.041554,-0.0427 -0.041554,-0.10826 0,-0.0448 0.00653,-0.0787 0.017496,-0.0962 0.033901,-0.0526 0.1257597,-0.0995 0.3357226,-0.17497 l 0.085298,-0.0306 -0.00654,-0.0449 c -0.01312,-0.0777 -0.060142,-0.21435 -0.074363,-0.21435 -0.00765,0 -0.066709,0.01 -0.1323206,0.0219 -0.1345079,0.0251 -0.2832337,0.0284 -0.3226013,0.008 -0.042646,-0.0208 -0.099514,-0.12467 -0.091858,-0.16513 0.010936,-0.0602 0.067801,-0.15201 0.1618463,-0.26356 0.051397,-0.0602 0.092953,-0.11481 0.092953,-0.12138 0,-0.007 -0.041554,-0.0525 -0.092953,-0.10171 l -0.092953,-0.0907 -0.07327,0.0645 c -0.1520052,0.13451 -0.2580817,0.20011 -0.3204148,0.20011 -0.048113,0 -0.1388816,-0.0535 -0.1552861,-0.0929 -0.020773,-0.0482 -0.015312,-0.20012 0.010936,-0.33901 0.01312,-0.0656 0.019688,-0.12356 0.015312,-0.12793 -0.00984,-0.01 -0.2088708,-0.0634 -0.2373028,-0.0634 -0.018589,0 -0.028433,0.0165 -0.053582,0.0951 -0.044837,0.13998 -0.1082609,0.26794 -0.1541909,0.3084 -0.034993,0.0306 -0.045929,0.0339 -0.1082623,0.0339 -0.064518,0 -0.071085,-0.002 -0.1093568,-0.0404 -0.048113,-0.0482 -0.094046,-0.14108 -0.1432562,-0.28652 -0.040462,-0.12138 -0.040462,-0.12248 -0.1640351,-0.0897 z m 0.6058335,0.84315 c 0.4603892,0.11044 0.7184695,0.60473 0.5467805,1.04981 -0.122478,0.31823 -0.446172,0.52382 -0.7873643,0.49976 -0.3444716,-0.0252 -0.6266101,-0.26247 -0.7108149,-0.59927 -0.019688,-0.0743 -0.021872,-0.11264 -0.018588,-0.21654 0.00984,-0.21542 0.07655,-0.37289 0.2219942,-0.52053 0.1968395,-0.20012 0.4735106,-0.27885 0.7479945,-0.21323 z"
       inkscape:connector-curvature="0"
       style="fill:#119abf;fill-opacity:1;stroke-width:0.00109355" />
    <path
       id="path1957-9-6"
       d="m 5.1801533,290.32186 c -0.2373036,0.081 -0.3838407,0.28214 -0.3838407,0.53036 0,0.31824 0.2810456,0.5796 0.5959908,0.55335 0.2241809,-0.0196 0.4024308,-0.15528 0.486635,-0.37399 0.033901,-0.0875 0.037185,-0.2548 0.00653,-0.34447 -0.1016965,-0.30183 -0.4155479,-0.46477 -0.7053411,-0.36525 z m 0.3029152,0.2734 c 0.1038894,0.0514 0.1618478,0.15637 0.1530996,0.27556 -0.0055,0.0754 -0.030624,0.12904 -0.082016,0.18044 -0.051397,0.0514 -0.1049814,0.0766 -0.1782507,0.082 -0.1224794,0.009 -0.2219934,-0.0459 -0.2766711,-0.15311 -0.054681,-0.10607 -0.036085,-0.24387 0.044837,-0.33026 0.078737,-0.0842 0.2307426,-0.10825 0.3390042,-0.0547 z"
       inkscape:connector-curvature="0"
       style="fill:#119abf;fill-opacity:1;stroke-width:0.00109355" />
    <path
       style="fill:#bf118a;fill-opacity:1;stroke-width:0.000777217"
       inkscape:connector-curvature="0"
       d="m 9.152264,289.45703 c -0.074612,0.0202 -0.097153,0.0295 -0.097153,0.0412 0,0.005 0.00698,0.0483 0.015543,0.0948 0.017096,0.0947 0.020208,0.19587 0.00624,0.22618 -0.00468,0.0109 -0.026427,0.0303 -0.048188,0.0436 -0.031865,0.0202 -0.044302,0.0234 -0.072282,0.0202 -0.043522,-0.005 -0.1010393,-0.0403 -0.1943044,-0.11969 l -0.074615,-0.0637 -0.037303,0.0326 c -0.020208,0.0178 -0.051301,0.0489 -0.069176,0.0699 l -0.032646,0.0365 0.039636,0.0436 c 0.090934,0.0987 0.1484485,0.18964 0.1484485,0.23239 0,0.0303 -0.038084,0.0964 -0.063731,0.10959 -0.031093,0.0163 -0.1383452,0.014 -0.2362769,-0.005 -0.045074,-0.009 -0.08705,-0.014 -0.091712,-0.0125 -0.00932,0.004 -0.034978,0.0823 -0.049741,0.15079 l -0.00778,0.0318 0.081609,0.0287 c 0.1088106,0.0373 0.1810933,0.0746 0.2106279,0.1088 0.021761,0.0241 0.024874,0.0334 0.024874,0.0738 0,0.0397 -0.00312,0.0496 -0.023321,0.0723 -0.029532,0.0342 -0.09249,0.0669 -0.1943066,0.10182 -0.045074,0.0155 -0.085494,0.0295 -0.090156,0.0311 -0.00698,0.002 -0.00624,0.0171 0.00231,0.0529 0.012437,0.0575 0.033418,0.12435 0.040417,0.13212 0.00231,0.003 0.043523,-0.002 0.090157,-0.0101 0.1072564,-0.0202 0.2090728,-0.0234 0.2401625,-0.007 0.028759,0.014 0.065291,0.073 0.066064,0.10493 0.00156,0.0475 -0.044302,0.12124 -0.1414567,0.23161 l -0.046627,0.0528 0.065291,0.066 c 0.035751,0.0357 0.068396,0.0653 0.073055,0.0653 0.00468,0 0.030312,-0.0193 0.058293,-0.0436 0.1010394,-0.0886 0.1593308,-0.12591 0.2114043,-0.13523 0.024094,-0.005 0.035751,-0.002 0.069948,0.0193 0.022542,0.0133 0.045855,0.0326 0.050521,0.0436 0.01477,0.0279 0.011658,0.13679 -0.00542,0.22617 -0.00855,0.0442 -0.015543,0.0863 -0.015543,0.0932 0,0.0101 0.016323,0.0187 0.060624,0.0319 0.032646,0.0109 0.073835,0.0218 0.091712,0.0241 l 0.031865,0.005 0.025647,-0.0723 c 0.039635,-0.11193 0.073066,-0.17955 0.1041472,-0.21064 0.027205,-0.0273 0.031097,-0.0287 0.080829,-0.0287 0.050517,0 0.053625,7.4e-4 0.081604,0.0287 0.031861,0.0334 0.071506,0.11426 0.1033698,0.21452 l 0.022539,0.0685 0.027205,-0.005 c 0.041184,-0.007 0.1430091,-0.0351 0.153891,-0.042 0.00775,-0.005 0.00619,-0.0249 -0.00697,-0.0987 -0.01943,-0.10725 -0.023322,-0.19897 -0.00852,-0.23238 0.011657,-0.0287 0.075388,-0.066 0.1111434,-0.066 0.049743,7.5e-4 0.104148,0.0351 0.225394,0.14145 l 0.05207,0.0451 0.05751,-0.0536 c 0.03109,-0.0296 0.06219,-0.0621 0.06762,-0.073 0.01011,-0.0193 0.0085,-0.0225 -0.03731,-0.073 -0.06684,-0.0738 -0.118137,-0.15001 -0.129019,-0.19431 -0.0093,-0.0358 -0.0093,-0.0388 0.01399,-0.0817 0.01632,-0.0303 0.03187,-0.0475 0.04819,-0.0544 0.0342,-0.0148 0.135236,-0.0109 0.236276,0.009 0.0715,0.014 0.09016,0.0155 0.09482,0.007 0.0093,-0.0148 0.03732,-0.1228 0.03964,-0.15234 l 0.0023,-0.0265 -0.08938,-0.0326 c -0.113475,-0.042 -0.152336,-0.0613 -0.188089,-0.0964 -0.02798,-0.0265 -0.02954,-0.0303 -0.02954,-0.077 0,-0.0319 0.0047,-0.056 0.01245,-0.0685 0.0241,-0.0373 0.08938,-0.0708 0.238609,-0.12435 l 0.06062,-0.0218 -0.0047,-0.0318 c -0.0093,-0.0552 -0.04276,-0.15234 -0.05285,-0.15234 -0.0054,0 -0.04741,0.007 -0.09404,0.0155 -0.0956,0.0179 -0.201304,0.0202 -0.229285,0.005 -0.03031,-0.0148 -0.07073,-0.0886 -0.06529,-0.11736 0.0077,-0.0427 0.04819,-0.10804 0.115029,-0.18731 0.03652,-0.0427 0.06606,-0.0817 0.06606,-0.0862 0,-0.005 -0.02953,-0.0374 -0.06606,-0.0723 l -0.06606,-0.0645 -0.05208,0.0458 c -0.108035,0.0955 -0.1834254,0.14224 -0.2277272,0.14224 -0.034195,0 -0.098706,-0.0381 -0.1103642,-0.066 -0.014774,-0.0342 -0.010872,-0.14224 0.00775,-0.24094 0.00929,-0.0467 0.013989,-0.0878 0.010882,-0.0909 -0.00697,-0.007 -0.1484481,-0.0451 -0.1686561,-0.0451 -0.013215,0 -0.020205,0.0116 -0.038087,0.0676 -0.031862,0.0995 -0.076948,0.19043 -0.1095891,0.21917 -0.024862,0.0218 -0.032646,0.0241 -0.076948,0.0241 -0.045861,0 -0.050517,-0.002 -0.077722,-0.0287 -0.034194,-0.0342 -0.06684,-0.10026 -0.1018169,-0.20363 -0.028759,-0.0863 -0.028759,-0.087 -0.1165842,-0.0638 z m 0.4305829,0.59926 c 0.3272097,0.0785 0.5106351,0.42979 0.3886109,0.74612 -0.087045,0.22617 -0.3171062,0.3723 -0.5596002,0.35519 -0.2448274,-0.0178 -0.4453496,-0.18652 -0.5051959,-0.42592 -0.013989,-0.0528 -0.015543,-0.0801 -0.013217,-0.15388 0.00698,-0.15311 0.054406,-0.26504 0.1577763,-0.36996 0.1398996,-0.14224 0.3365378,-0.19819 0.5316202,-0.15155 z"
       id="path1955-0-3-0" />
    <path
       style="fill:#bf118a;fill-opacity:1;stroke-width:0.000777217"
       inkscape:connector-curvature="0"
       d="m 9.3279173,290.22416 c -0.1686592,0.0575 -0.2728062,0.20053 -0.2728062,0.37696 0,0.22616 0.1997468,0.41192 0.4235877,0.39327 0.1593309,-0.014 0.2860193,-0.11036 0.3458636,-0.2658 0.024097,-0.0621 0.02643,-0.1811 0.00465,-0.24484 -0.072281,-0.2145 -0.2953446,-0.33032 -0.5013087,-0.25959 z m 0.2152893,0.1943 c 0.07383,0.0365 0.115031,0.11115 0.1088127,0.19586 -0.00387,0.0536 -0.021764,0.0917 -0.058292,0.12825 -0.036528,0.0365 -0.074614,0.0544 -0.1266864,0.0583 -0.087045,0.006 -0.1577772,-0.0326 -0.1966382,-0.10881 -0.038864,-0.0754 -0.025646,-0.17333 0.031862,-0.23471 0.055958,-0.0598 0.1639945,-0.077 0.2409381,-0.0389 z"
       id="path1957-9-6-6" />
  </g>
</svg>
