<?xml version="1.0" encoding="UTF-8" standalone="no"?>
<svg
   xmlns:dc="http://purl.org/dc/elements/1.1/"
   xmlns:cc="http://creativecommons.org/ns#"
   xmlns:rdf="http://www.w3.org/1999/02/22-rdf-syntax-ns#"
   xmlns:svg="http://www.w3.org/2000/svg"
   xmlns="http://www.w3.org/2000/svg"
   xmlns:xlink="http://www.w3.org/1999/xlink"
   xmlns:sodipodi="http://sodipodi.sourceforge.net/DTD/sodipodi-0.dtd"
   xmlns:inkscape="http://www.inkscape.org/namespaces/inkscape"
   width="50"
   height="50"
   viewBox="0 0 13.229166 13.229167"
   version="1.1"
   id="svg1683"
   inkscape:version="1.0alpha (9dee831, 2019-01-15)"
   sodipodi:docname="icon_tech.svg">
  <defs
     id="defs1677">
    <inkscape:path-effect
       effect="powerstroke"
       id="path-effect1505"
       is_visible="true"
       offset_points="0.17067398,0.059501125"
       sort_points="true"
       interpolator_type="CubicBezierJohan"
       interpolator_beta="0.2"
       start_linecap_type="zerowidth"
       linejoin_type="extrp_arc"
       miter_limit="4"
       end_linecap_type="zerowidth" />
    <linearGradient
       inkscape:collect="always"
       id="linearGradient1489">
      <stop
         style="stop-color:#c19206;stop-opacity:1"
         offset="0"
         id="stop1485" />
      <stop
         id="stop1495"
         offset="0.14548008"
         style="stop-color:#f3dd07;stop-opacity:0.99215686;" />
      <stop
         id="stop1493"
         offset="0.89999974"
         style="stop-color:#f3dd07;stop-opacity:0.85882353;" />
      <stop
         style="stop-color:#ffffff;stop-opacity:0.98440981"
         offset="1"
         id="stop1487" />
    </linearGradient>
    <linearGradient
       inkscape:collect="always"
       xlink:href="#linearGradient1489"
       id="linearGradient1491"
       x1="5.8799295"
       y1="293.74435"
       x2="5.8799295"
       y2="288.49747"
       gradientUnits="userSpaceOnUse" />
    <inkscape:path-effect
       effect="powerstroke"
       id="path-effect909"
       is_visible="true"
       offset_points="0,0.1322915"
       sort_points="true"
       interpolator_type="CubicBezierJohan"
       interpolator_beta="0.2"
       start_linecap_type="zerowidth"
       linejoin_type="extrp_arc"
       miter_limit="4"
       scale_width="1"
       end_linecap_type="zerowidth" />
  </defs>
  <sodipodi:namedview
     id="base"
     pagecolor="#ffffff"
     bordercolor="#666666"
     borderopacity="1.0"
     inkscape:pageopacity="0.0"
     inkscape:pageshadow="2"
     inkscape:zoom="11.313709"
     inkscape:cx="17.721068"
     inkscape:cy="21.114054"
     inkscape:document-units="mm"
     inkscape:current-layer="layer1"
     showgrid="false"
     units="px"
     inkscape:window-width="2160"
     inkscape:window-height="1356"
     inkscape:window-x="0"
     inkscape:window-y="42"
     inkscape:window-maximized="1"
     inkscape:snap-global="false"
     inkscape:document-rotation="0" />
  <metadata
     id="metadata1680">
    <rdf:RDF>
      <cc:Work
         rdf:about="">
        <dc:format>image/svg+xml</dc:format>
        <dc:type
           rdf:resource="http://purl.org/dc/dcmitype/StillImage" />
        <dc:title></dc:title>
      </cc:Work>
    </rdf:RDF>
  </metadata>
  <g
     inkscape:label="Calque 1"
     inkscape:groupmode="layer"
     id="layer1"
     transform="translate(0,-283.77082)">
    <path
       style="opacity:1;fill:#80c790;fill-opacity:1;stroke:none;stroke-width:0.19299737;stroke-miterlimit:4;stroke-dasharray:none;stroke-opacity:1"
       d="m 12.37754,290.32987 a 5.5857795,5.5857795 0 0 1 -5.58578,5.58579 5.5857795,5.5857795 0 0 1 -5.5857795,-5.58579 5.5857795,5.5857795 0 0 1 5.5857795,-5.58577 5.5857795,5.5857795 0 0 1 5.58578,5.58577 z"
       id="path1497"
       inkscape:connector-curvature="0" />
    <circle
       style="opacity:1;fill:#00801b;fill-opacity:1;stroke:none;stroke-width:0.704282;stroke-linecap:round;stroke-miterlimit:4;stroke-dasharray:none;stroke-opacity:1"
       id="path913"
       cx="6.7333059"
       cy="290.40924"
       r="4.6504788" />
    <circle
       r="3.8739052"
       cy="290.42218"
       cx="6.6238308"
       id="path890-6"
       style="opacity:1;fill:none;fill-opacity:1;stroke:#bb6e16;stroke-width:0.394328;stroke-linecap:round;stroke-miterlimit:4;stroke-dasharray:none;stroke-opacity:1" />
    <circle
       style="opacity:1;fill:none;fill-opacity:1;stroke:#0c6531;stroke-width:0.315562;stroke-linecap:round;stroke-miterlimit:4;stroke-dasharray:none;stroke-opacity:1"
       id="path890"
       cx="6.723083"
       cy="290.37851"
       r="3.1001151" />
    <path
       transform="matrix(0.19529671,0,0,0.19529671,17.45468,302.6766)"
       style="fill:#008080;fill-rule:nonzero;stroke:none;stroke-width:0.264583px;stroke-linecap:butt;stroke-linejoin:miter;stroke-opacity:1"
       d="m -59.839015,-41.558514 c 0,0 3.042642,0.854829 4.753186,0.655196 1.710545,-0.199631 4.495708,-0.595207 4.495708,-0.595207 l 0.281302,-16.867962 c 0,0 9.996051,-16.433215 -4.135829,-16.460023 -14.13188,-0.02681 -5.18437,16.480806 -5.18437,16.480806 z"
       id="path907"
       inkscape:connector-curvature="0"
       inkscape:path-effect="#path-effect909"
       inkscape:original-d="m -59.839015,-41.558514 c 0,0 3.042642,0.854829 4.753186,0.655196 1.710545,-0.199631 4.495708,-0.595207 4.495708,-0.595207 l 0.281302,-16.867962 c 0,0 9.996051,-16.433215 -4.135829,-16.460023 -14.13188,-0.02681 -5.18437,16.480806 -5.18437,16.480806 z" />
    <ellipse
       style="opacity:1;fill:#980000;fill-opacity:1;stroke:none;stroke-width:0.100578;stroke-linecap:round;stroke-miterlimit:4;stroke-dasharray:none;stroke-opacity:1"
       id="path849"
       cx="4.2578192"
       cy="290.8186"
       rx="0.41286901"
       ry="0.37823328" />
    <ellipse
       ry="0.37823328"
       rx="0.41286901"
       cy="289.5752"
       cx="4.8491373"
       id="path849-3"
       style="opacity:1;fill:#984000;fill-opacity:1;stroke:none;stroke-width:0.100578;stroke-linecap:round;stroke-miterlimit:4;stroke-dasharray:none;stroke-opacity:1" />
    <ellipse
       ry="0.37823328"
       rx="0.41286901"
       cy="288.30942"
       cx="5.4363527"
       id="path849-6"
       style="opacity:1;fill:#120098;fill-opacity:1;stroke:none;stroke-width:0.100578;stroke-linecap:round;stroke-miterlimit:4;stroke-dasharray:none;stroke-opacity:1" />
    <ellipse
       ry="0.37823328"
       rx="0.41286901"
       cy="288.32245"
       cx="7.9678998"
       id="path849-7"
       style="opacity:1;fill:#00985b;fill-opacity:1;stroke:none;stroke-width:0.100578;stroke-linecap:round;stroke-miterlimit:4;stroke-dasharray:none;stroke-opacity:1" />
    <ellipse
       ry="0.37823328"
       rx="0.41286901"
       cy="289.58826"
       cx="8.5159674"
       id="path849-5"
       style="opacity:1;fill:#005898;fill-opacity:1;stroke:none;stroke-width:0.100578;stroke-linecap:round;stroke-miterlimit:4;stroke-dasharray:none;stroke-opacity:1" />
    <ellipse
       ry="0.37823328"
       rx="0.41286901"
       cy="290.78879"
       cx="9.11623"
       id="path849-35"
       style="opacity:1;fill:#8e9800;fill-opacity:1;stroke:none;stroke-width:0.100578;stroke-linecap:round;stroke-miterlimit:4;stroke-dasharray:none;stroke-opacity:1" />
    <path
       style="fill:#232323;stroke-width:0.0165351;fill-opacity:1"
       d="m 6.2969656,294.73393 -0.037204,-0.007 -3.515e-4,-1.55729 c -1.913e-4,-0.85651 -2.929e-4,-1.91072 -2.149e-4,-2.3427 1.137e-4,-0.59368 -0.00486,-0.79429 -0.020317,-0.82176 -0.011253,-0.0199 -0.041916,-0.0757 -0.068141,-0.12379 -0.026225,-0.0481 -0.078922,-0.13966 -0.1171054,-0.20343 -0.038183,-0.0638 -0.1461064,-0.2499 -0.2398299,-0.41361 -0.093723,-0.1637 -0.1795886,-0.31251 -0.1908117,-0.3307 -0.01786,-0.0289 -0.038721,-0.0332 -0.1672048,-0.0339 -0.1223888,-7.2e-4 -0.1619222,-0.008 -0.2377425,-0.0436 -0.1312092,-0.0617 -0.2309889,-0.15763 -0.2954836,-0.28402 -0.05374,-0.10533 -0.055484,-0.1147 -0.048973,-0.26356 0.00561,-0.12831 0.01464,-0.16995 0.053501,-0.24676 0.1182853,-0.23378 0.3657638,-0.35815 0.622636,-0.31291 0.267609,0.0471 0.4586756,0.2618 0.4749868,0.53364 0.00892,0.14872 -0.020134,0.25415 -0.103425,0.37524 l -0.054618,0.0794 0.1697569,0.29663 c 0.093367,0.16314 0.2487786,0.43308 0.3453604,0.59986 l 0.1756035,0.30323 v 2.40439 2.40439 l -0.1116122,-0.002 c -0.061387,-9.5e-4 -0.1283539,-0.006 -0.1488161,-0.01 z m -0.713849,-6.17699 c 0.089666,-0.0605 0.1309859,-0.13548 0.1309859,-0.23791 0,-0.16837 -0.1227069,-0.28053 -0.2915846,-0.26653 -0.109509,0.01 -0.1667932,0.0475 -0.2168703,0.14553 -0.046273,0.0905 -0.046946,0.15098 -0.0027,0.24239 0.068357,0.14121 0.2575064,0.19918 0.3801666,0.11652 z m 1.2553744,3.78381 v -2.40484 l 0.1518361,-0.26145 c 0.083509,-0.14378 0.2391937,-0.41309 0.3459634,-0.59844 l 0.1941277,-0.33702 -0.057619,-0.0868 c -0.1856834,-0.27965 -0.1198444,-0.62401 0.1553089,-0.81231 0.2319799,-0.15875 0.5544584,-0.12326 0.7435037,0.0818 0.1136169,0.12327 0.1422344,0.19525 0.1502125,0.37788 0.00658,0.15058 0.00411,0.16588 -0.042692,0.26493 -0.059554,0.12606 -0.1639921,0.22778 -0.2969132,0.28923 -0.079576,0.0368 -0.1198143,0.0443 -0.2435186,0.0455 l -0.1481915,0.002 -0.3002963,0.52475 c -0.1651624,0.28859 -0.3105396,0.53707 -0.3230598,0.55215 -0.019095,0.023 -0.022763,0.40758 -0.022763,2.38528 v 2.35785 l -0.057873,0.0115 c -0.031831,0.007 -0.1006576,0.0118 -0.1529499,0.0124 l -0.095077,9.5e-4 z m 1.2349772,-3.7736 c 0.1307708,-0.0621 0.1901637,-0.25226 0.1174611,-0.37617 -0.052808,-0.09 -0.1120123,-0.1288 -0.2110283,-0.13831 -0.1128476,-0.0109 -0.1960682,0.0274 -0.2538612,0.11646 -0.094005,0.14498 -0.034533,0.34477 0.1211017,0.40683 0.063548,0.0254 0.1624753,0.0215 0.2263267,-0.009 z m -2.2849576,6.08715 c -1.1048898,-0.24223 -2.0592716,-0.89642 -2.68969,-1.84369 -0.2779399,-0.41764 -0.4937271,-0.91543 -0.5983362,-1.3803 -0.092395,-0.41058 -0.1016738,-0.50037 -0.1016738,-0.98384 0,-0.39892 0.0047,-0.4827 0.038332,-0.68276 0.053817,-0.32018 0.1106052,-0.53463 0.2250793,-0.85001 0.037412,-0.10306 0.1477703,-0.34448 0.2241979,-0.49044 0.53836,-1.02816 1.5066546,-1.81201 2.6375291,-2.13514 0.6420517,-0.18345 1.3949427,-0.21068 2.0489898,-0.0741 1.5146267,0.31629 2.7391333,1.41563 3.2317103,2.90137 0.05767,0.17392 0.121127,0.44135 0.162844,0.6862 0.04271,0.2507 0.04257,1.02396 -2.54e-4,1.2732 -0.08962,0.5219 -0.208392,0.88781 -0.429364,1.32281 -0.294841,0.58044 -0.7594881,1.12785 -1.2852746,1.51423 -0.1833371,0.13474 -0.2097314,0.15213 -0.3720404,0.24517 -0.090943,0.0521 -0.1765125,0.10151 -0.190154,0.10973 -0.077054,0.0463 -0.3676287,0.16951 -0.5539265,0.2347 -0.2911063,0.10187 -0.307978,0.1068 -0.5186175,0.15131 l -0.184126,0.0389 v -1.76058 -1.76058 l 0.1281471,-0.22267 c 0.1614827,-0.28061 0.1724257,-0.29954 0.26591,-0.46003 0.042378,-0.0728 0.088244,-0.15254 0.1019254,-0.1773 0.013679,-0.0248 0.063203,-0.11189 0.110049,-0.19362 0.072797,-0.12701 0.081669,-0.15151 0.061053,-0.16862 -0.048565,-0.0403 -0.106509,-0.16243 -0.1295924,-0.27314 -0.065952,-0.31631 0.1369714,-0.61777 0.4601241,-0.68356 0.1270425,-0.0258 0.280758,3.6e-4 0.4013253,0.0684 0.3273904,0.18477 0.3849612,0.64522 0.1144907,0.91569 -0.1183171,0.11832 -0.2322002,0.16316 -0.4153856,0.16355 l -0.1503552,3.6e-4 -0.123876,0.2155 c -0.068131,0.11853 -0.2143951,0.37238 -0.3250293,0.56412 l -0.201154,0.34864 v 1.5157 c 0,1.01208 0.00556,1.5157 0.016743,1.5157 0.024944,0 0.2265652,-0.0589 0.3307039,-0.0967 0.2136189,-0.0775 0.6470863,-0.29245 0.7104109,-0.35231 0.022522,-0.0214 0.043089,-0.0367 0.045702,-0.0342 0.010125,0.01 0.2017145,-0.12177 0.3515285,-0.24102 0.201404,-0.1603 0.5251921,-0.48434 0.6641161,-0.66463 0.1819605,-0.23614 0.3649655,-0.53134 0.4665775,-0.75261 0.02499,-0.0545 0.05591,-0.12127 0.06871,-0.14855 0.04407,-0.094 0.137112,-0.36412 0.179379,-0.52086 0.149764,-0.55533 0.179005,-1.15416 0.08365,-1.71312 -0.04219,-0.24733 -0.126458,-0.56245 -0.196509,-0.73484 -0.02327,-0.0573 -0.04232,-0.11074 -0.04232,-0.11881 0,-0.008 -0.05219,-0.11972 -0.115977,-0.24814 -0.587485,-1.18279 -1.7051756,-2.00119 -3.0008694,-2.19731 -0.3517535,-0.0532 -0.7238774,-0.0587 -1.0582478,-0.0156 -0.7901461,0.10209 -1.3842018,0.34906 -2.0255525,0.84209 -0.1634351,0.12563 -0.4971166,0.45525 -0.6299618,0.62229 -0.1449884,0.18231 -0.444821,0.63935 -0.444821,0.67805 0,0.003 -0.032672,0.0749 -0.072606,0.15977 -0.2063203,0.43844 -0.3246403,0.89795 -0.3593544,1.39558 -0.06943,0.9953 0.2300404,1.96814 0.849679,2.76021 0.1331189,0.17016 0.3799941,0.42363 0.4037324,0.41453 0.014335,-0.006 0.019164,-0.002 0.012337,0.01 -0.00617,0.01 0.010184,0.0365 0.036345,0.059 0.026161,0.0224 0.073672,0.0644 0.1055819,0.0933 0.2028449,0.18349 0.5301945,0.39508 0.8514147,0.55033 0.2513373,0.12146 0.3438584,0.1581 0.5745956,0.22751 l 0.1281472,0.0385 v -1.52141 -1.52141 l -0.1612157,-0.28089 c -0.08867,-0.15452 -0.1798195,-0.31227 -0.2025554,-0.35056 -0.022735,-0.0383 -0.096971,-0.16694 -0.1649669,-0.28588 l -0.1236293,-0.21627 -0.1005583,0.01 c -0.1810097,0.0169 -0.3950641,-0.0726 -0.5046076,-0.21085 -0.027813,-0.0351 -0.069593,-0.11063 -0.092845,-0.1678 -0.035987,-0.0885 -0.041176,-0.12239 -0.034888,-0.22795 0.016987,-0.28522 0.2045326,-0.49819 0.4811255,-0.54636 0.3113849,-0.0542 0.5909259,0.13609 0.664241,0.45222 0.039102,0.1686 -0.00177,0.33254 -0.1271869,0.51007 -0.015805,0.0223 -0.00645,0.0495 0.051404,0.14881 0.038901,0.0668 0.1929924,0.33493 0.3424249,0.59583 l 0.2716952,0.47436 -5.083e-4,1.75661 c -2.733e-4,0.96612 -0.00232,1.75781 -0.00454,1.75928 -0.00221,0.002 -0.07844,-0.0137 -0.1693826,-0.0336 z m -0.7854295,-4.86096 c 0.1854625,-0.11707 0.1675761,-0.39808 -0.030609,-0.48089 -0.1310261,-0.0548 -0.2636356,-0.0135 -0.3451604,0.10755 -0.046901,0.0696 -0.049868,0.19889 -0.00643,0.2804 0.068749,0.12903 0.2537687,0.17402 0.3822029,0.0929 z m 3.6743976,0.004 c 0.2333981,-0.13118 0.1354681,-0.50859 -0.1319686,-0.50859 -0.1215412,0 -0.2024234,0.0503 -0.258202,0.1604 -0.055837,0.11027 -0.014485,0.25883 0.0939,0.33734 0.085009,0.0616 0.1986029,0.0657 0.2962709,0.0109 z m -3.4180919,4.07504 c -0.6284608,-0.27344 -1.1679684,-0.70217 -1.5672325,-1.24542 -0.6345479,-0.8634 -0.8629019,-1.97446 -0.6215187,-3.02404 0.2429359,-1.05633 0.9567302,-1.97284 1.92367,-2.47001 0.3277566,-0.16852 0.6189239,-0.26993 1.0118208,-0.3524 0.20114,-0.0422 0.237064,-0.0446 0.6835485,-0.0454 0.4262493,-7.4e-4 0.4894095,0.003 0.6614047,0.0369 0.7633548,0.15158 1.4155807,0.48895 1.9442721,1.00569 0.3092368,0.30225 0.5231508,0.59287 0.7235183,0.98293 0.136916,0.26654 0.246386,0.57401 0.315202,0.88531 0.140524,0.63567 0.100838,1.39115 -0.102962,1.96009 -0.01745,0.0487 -0.04887,0.13688 -0.06982,0.19597 -0.125659,0.35428 -0.4474098,0.85784 -0.7723914,1.20886 -0.1984527,0.21436 -0.6200324,0.53588 -0.9134321,0.69666 -0.101208,0.0554 -0.4367267,0.21103 -0.4551179,0.21103 -0.00465,0 -0.00804,-0.3356 -0.00753,-0.74578 l 9.438e-4,-0.74578 0.076372,-0.13471 c 0.042004,-0.0741 0.1986323,-0.34674 0.3480629,-0.60587 0.243576,-0.42238 0.2694881,-0.47458 0.250399,-0.50432 -0.1166981,-0.18182 -0.1557464,-0.32419 -0.130862,-0.47708 0.030975,-0.19031 0.1573078,-0.35794 0.3310774,-0.43929 0.1233638,-0.0577 0.3276348,-0.0602 0.4632972,-0.006 0.1152259,0.0463 0.2390199,0.16585 0.2956014,0.28526 0.037029,0.0781 0.043093,0.11305 0.043093,0.24803 0,0.13543 -0.00598,0.16962 -0.043401,0.24802 -0.055735,0.11678 -0.1638809,0.22478 -0.2790335,0.27864 -0.075678,0.0354 -0.1169551,0.0429 -0.2459157,0.0447 l -0.1549732,0.002 -0.1657106,0.28779 c -0.091141,0.1583 -0.2386716,0.4143 -0.3278449,0.5689 l -0.1621344,0.2811 4.72e-4,0.46712 c 3.126e-4,0.29766 0.0064,0.46711 0.016859,0.46711 0.028023,0 0.2629597,-0.14827 0.4248911,-0.26816 0.3683455,-0.27269 0.7075563,-0.66312 0.9359527,-1.07725 0.2416785,-0.43823 0.3639842,-0.8385 0.4160412,-1.36161 0.02857,-0.28701 0.02855,-0.30872 -3.12e-4,-0.59339 -0.04806,-0.47356 -0.1388505,-0.79391 -0.352833,-1.24484 -0.17836,-0.37586 -0.6164812,-0.9029 -0.9714443,-1.16858 -0.4407343,-0.32988 -0.9338797,-0.55089 -1.4633583,-0.65583 -0.1685168,-0.0334 -0.2390717,-0.0377 -0.6200668,-0.0376 -0.2788351,3e-5 -0.4618723,0.008 -0.5208564,0.0203 -0.050018,0.0112 -0.1169861,0.0245 -0.1488161,0.0298 -0.2421863,0.0398 -0.6152489,0.17083 -0.9011643,0.31655 -0.3803042,0.19383 -0.8409245,0.57263 -1.1038601,0.90778 -0.4877655,0.62172 -0.74578,1.36023 -0.7447702,2.13172 7.225e-4,0.54914 0.1215338,1.05792 0.3645391,1.5352 0.086344,0.16957 0.2479335,0.43082 0.3247258,0.52498 0.019236,0.0236 0.056784,0.0719 0.083439,0.10747 0.1230151,0.16397 0.4716076,0.48175 0.7383827,0.67312 0.079146,0.0568 0.2608201,0.16036 0.2812601,0.16036 0.00855,0 0.014946,-0.19854 0.014946,-0.46394 0,-0.45691 -5.845e-4,-0.46498 -0.039021,-0.53326 -0.065225,-0.11586 -0.3586511,-0.62369 -0.4349564,-0.75276 -0.039425,-0.0667 -0.071681,-0.12398 -0.071681,-0.12732 0,-0.003 -0.025575,-0.0485 -0.056832,-0.10042 l -0.056832,-0.0943 -0.1539906,-0.003 c -0.1876132,-0.003 -0.2718728,-0.0362 -0.4009984,-0.1583 -0.1280489,-0.1211 -0.1659522,-0.21527 -0.1661851,-0.41288 -1.654e-4,-0.13561 0.00574,-0.16952 0.04318,-0.24803 0.1753143,-0.36765 0.6586797,-0.44111 0.9440621,-0.14346 0.1934501,0.20176 0.2058312,0.53885 0.027842,0.75799 l -0.035791,0.0441 0.082054,0.14609 c 0.1021646,0.18189 0.1210434,0.21484 0.3157877,0.55119 0.086881,0.15006 0.1832443,0.31748 0.2141408,0.37205 0.030896,0.0546 0.063078,0.10627 0.071515,0.11492 0.018341,0.0188 0.021248,1.53104 0.00294,1.5288 -0.00682,-7.2e-4 -0.057046,-0.021 -0.1116121,-0.0447 z M 4.3848522,291.0482 c 0.121497,-0.0576 0.1885271,-0.19691 0.1548988,-0.32179 -0.040178,-0.14921 -0.2014235,-0.24263 -0.3447025,-0.1997 -0.1427502,0.0427 -0.2114172,0.14876 -0.1965584,0.3034 0.00928,0.0966 0.04923,0.15659 0.138063,0.20739 0.076504,0.0438 0.1701501,0.0478 0.2482991,0.0107 z m 4.87448,-0.0107 c 0.105152,-0.0601 0.1338352,-0.11233 0.1338352,-0.24361 0,-0.13515 -0.030125,-0.1873 -0.1408865,-0.2439 -0.091999,-0.047 -0.1718325,-0.0468 -0.2554677,7.2e-4 -0.098198,0.0556 -0.1410374,0.12955 -0.1410374,0.24337 0,0.11383 0.04284,0.18776 0.1410374,0.24338 0.084381,0.0478 0.1792222,0.0479 0.262519,1.9e-4 z"
       id="path847"
       inkscape:connector-curvature="0" />
  </g>
</svg>
