<?xml version="1.0" encoding="UTF-8" standalone="no"?>
<!-- Created with Inkscape (http://www.inkscape.org/) -->

<svg
   xmlns:dc="http://purl.org/dc/elements/1.1/"
   xmlns:cc="http://creativecommons.org/ns#"
   xmlns:rdf="http://www.w3.org/1999/02/22-rdf-syntax-ns#"
   xmlns:svg="http://www.w3.org/2000/svg"
   xmlns="http://www.w3.org/2000/svg"
   xmlns:sodipodi="http://sodipodi.sourceforge.net/DTD/sodipodi-0.dtd"
   xmlns:inkscape="http://www.inkscape.org/namespaces/inkscape"
   width="50"
   height="50"
   viewBox="0 0 13.229167 13.229167"
   version="1.1"
   id="svg1483"
   inkscape:version="0.92.2 (5c3e80d, 2017-08-06)"
   sodipodi:docname="icon_poe.svg"
   inkscape:export-filename="/home/feel/software/dev/ufc-frontend/src/assets/icon/icon_solidarity.png"
   inkscape:export-xdpi="10.24"
   inkscape:export-ydpi="10.24">
  <defs
     id="defs1477" />
  <sodipodi:namedview
     id="base"
     pagecolor="#ffffff"
     bordercolor="#666666"
     borderopacity="1.0"
     inkscape:pageopacity="0.0"
     inkscape:pageshadow="2"
     inkscape:zoom="7.9195959"
     inkscape:cx="-25.647716"
     inkscape:cy="26.289133"
     inkscape:document-units="mm"
     inkscape:current-layer="g898"
     showgrid="false"
     fit-margin-top="0"
     fit-margin-left="0"
     fit-margin-right="0"
     fit-margin-bottom="0"
     inkscape:window-width="2160"
     inkscape:window-height="1356"
     inkscape:window-x="0"
     inkscape:window-y="42"
     inkscape:window-maximized="1"
     units="px" />
  <metadata
     id="metadata1480">
    <rdf:RDF>
      <cc:Work
         rdf:about="">
        <dc:format>image/svg+xml</dc:format>
        <dc:type
           rdf:resource="http://purl.org/dc/dcmitype/StillImage" />
        <dc:title></dc:title>
      </cc:Work>
    </rdf:RDF>
  </metadata>
  <g
     inkscape:label="Calque 1"
     inkscape:groupmode="layer"
     id="layer1"
     transform="translate(-117.17262,-495.43751)">
    <g
       id="g11983"
       transform="matrix(0.40750843,0,0,0.40750843,-27.781178,429.22481)"
       style="stroke:#000000;stroke-opacity:1">
      <g
         id="g898"
         transform="matrix(0.03470051,0,0,0.03470051,356.12888,172.20934)">
        <path
           inkscape:connector-curvature="0"
           id="path2187"
           d="m 426.22087,602.16989 c -17.25506,-4.27662 -31.59798,-12.57488 -43.92746,-25.4148 -16.99575,-17.69925 -25.61243,-38.81821 -25.58494,-62.70683 0.0275,-25.19632 8.71424,-46.35355 26.34868,-64.18542 38.36063,-38.79017 101.04345,-35.61142 135.25472,6.859 24.22546,30.07379 26.85768,71.61414 6.65327,104.99906 -5.66359,9.3582 -20.49693,24.18631 -29.49857,29.48819 -21.20076,12.48691 -46.76297,16.5331 -69.2457,10.9608 z M 338.09484,446.86783 C 237.38909,409.49397 161.05705,321.51354 139.16241,217.57797 c -3.46408,-16.44464 -3.7905,-20.66237 -1.59928,-20.66618 0.8243,-0.001 16.87582,-1.85834 35.67006,-4.12641 64.95687,-7.839 67.27456,-7.91991 69.77348,-2.43544 1.09031,2.39298 0.16736,4.89136 -6.49057,17.56629 -11.50788,21.9086 -13.88172,31.03803 -11.72135,45.0788 3.65539,23.75727 24.69016,45.1067 50.41633,51.17038 35.99784,8.48475 75.03062,-12.79488 85.26307,-46.48314 3.67831,-12.11001 2.75391,-27.58073 -2.27985,-38.15666 -4.03786,-8.48355 -6.57415,-11.92797 -19.20021,-26.07529 -12.03794,-13.48836 -11.79841,-16.48486 1.58585,-19.84001 6.27552,-1.57311 94.72118,-12.66572 100.98878,-12.66572 1.80718,0 9.52002,9.55094 29.77372,36.86903 28.30442,38.177 40.84612,52.76958 48.90065,56.89715 6.37345,3.26609 17.69127,2.65261 22.95695,-1.24442 5.17663,-3.83108 7.20452,-7.76607 13.17301,-25.56106 6.10547,-18.2033 9.43377,-24.38571 16.28531,-30.25042 7.35479,-6.29535 14.63807,-8.30741 27.96249,-7.72465 9.61239,0.42056 12.18958,1.02484 19.35952,4.54018 31.66548,15.5254 41.80517,58.39121 19.16706,81.02934 -8.62284,8.62282 -13.722,10.15079 -37.87344,11.34865 -10.88086,0.53972 -21.16269,1.51459 -22.84849,2.16643 -9.23701,3.57178 -15.24628,13.82914 -13.89176,23.71188 1.27291,9.28653 8.21661,20.32044 36.84412,58.54667 15.14891,20.22832 27.23173,37.28325 26.85066,37.89983 -0.97993,1.58551 -14.80458,10.38685 -27.78075,17.68635 -14.6425,8.23679 -32.55483,16.20556 -48.59201,21.61742 l -13.10564,4.42261 -3.73042,-4.79598 c -15.29328,-19.66155 -36.77477,-33.88671 -60.91916,-40.34093 -13.06662,-3.49293 -38.04469,-3.81408 -50.71267,-0.65206 -21.86085,5.45668 -40.1627,16.17353 -55.75975,32.65077 -5.36245,5.66503 -9.74986,10.80377 -9.74986,11.41939 0,2.1774 -5.56227,0.96484 -19.78342,-4.31294 z M 616.88465,361.8078 c -29.22084,-39.13716 -33.59557,-45.65791 -33.59557,-50.07551 0,-5.14897 2.37688,-5.88282 22.44476,-6.92972 11.23876,-0.58632 20.91505,-1.70811 23.8331,-2.76308 20.75141,-7.50215 33.79921,-22.52361 38.42632,-44.23872 7.21196,-33.84566 -13.82285,-70.93122 -46.80747,-82.52441 -23.35898,-8.21003 -46.82425,-3.95695 -62.93097,11.40625 -8.66161,8.26176 -12.00298,14.34594 -18.20695,33.1522 -6.69055,20.28095 -9.00954,21.95272 -18.27963,13.17761 -7.88619,-7.46512 -63.51898,-82.61819 -62.88932,-84.95574 0.31086,-1.15472 8.99456,-21.79299 19.29668,-45.86281 24.60933,-57.496986 26.48031,-65.016886 19.2872,-77.519736 -3.26444,-5.67416 -10.78188,-10.00632 -17.36597,-10.00767 -2.26474,-4.2e-4 -12.51925,1.67648 -22.78787,3.72643 -16.72579,3.33905 -19.36254,3.58346 -25.31857,2.34704 -20.24812,-4.2035 -32.86376,-22.0683797 -32.65257,-46.23892 0.0822,-9.38661 0.60889,-12.01266 4.04833,-20.17853 7.96249,-18.90435 24.94444,-31.70374 43.65713,-32.90467 18.13291,-1.16366 27.1578,5.13761 42.54111,29.70285 11.35967,18.14001 16.05125,22.1521 25.7403,22.01203 7.55199,-0.1092 12.19642,-2.32893 17.76194,-8.48927 6.59567,-7.30071 10.46101,-15.1029 28.67715,-57.88558 9.40624,-22.091424 17.50111,-40.622104 17.98867,-41.179274 1.39643,-1.59565 26.21896,11.69777 43.52955,23.31174 21.14403,14.185924 40.77414,30.668714 39.65191,33.294584 -7.74757,18.12878 -10.63725,33.78308 -9.76792,52.91562 2.34599,51.63208 40.73857,94.21473 92.02237,102.06537 6.7461,1.03269 9.6925,2.01056 10.0982,3.35139 0.315,1.04128 1.6481,7.92963 2.9621,15.30747 10.5898,59.457906 3.3993,122.726386 -20.2784,178.424746 -18.3987,43.28035 -47.0915,82.95455 -82.09603,113.51583 -5.9097,5.15958 -11.16343,9.38101 -11.67492,9.38101 -0.51152,0 -12.80312,-15.90232 -27.31466,-35.33853 z M 277.57471,286.11584 c -13.53967,-3.63845 -25.46322,-13.2146 -31.35471,-25.18191 -3.49136,-7.092 -3.7119,-8.29519 -3.21333,-17.53237 0.51788,-9.59477 0.83068,-10.48415 9.60259,-27.30327 4.98697,-9.56196 9.40163,-19.21197 9.81038,-21.44449 1.66802,-9.11151 -4.06718,-19.06814 -13.34856,-23.1737 -9.48748,-4.19679 -18.12289,-3.93869 -67.30982,2.01161 -25.31437,3.06242 -46.76141,5.28583 -47.66002,4.941 -1.30702,-0.50155 -1.63187,-5.61072 -1.62402,-25.54371 0.003,-13.70421 0.55069,-29.77266 1.21169,-35.70773 1.82641,-16.39877 6.10119,-37.909786 7.61903,-38.339206 0.743,-0.2103 6.14689,-1.26902 12.00863,-2.35293 20.98789,-3.88095 39.98629,-13.67061 55.66923,-28.68574 19.16213,-18.34609 30.98913,-43.7282197 33.32891,-71.52733 1.04437,-12.40826 -1.26425,-28.20618 -6.27985,-42.97349 l -4.21925,-12.42264 2.78186,-2.99488 c 1.53005,-1.64723 8.17737,-7.35384 14.77186,-12.6814 32.6783,-26.400204 72.56039,-46.995704 112.7054,-58.202144 30.75792,-8.58608 53.11461,-11.52099 86.92706,-11.41137 28.66074,0.0928 47.75816,2.35391 73.73809,8.73015 12.34845,3.03071 38.6349,11.40415 40.02219,12.74896 0.80565,0.78102 -35.92129,85.339734 -39.55452,91.068754 -3.12555,4.92846 -3.92596,5.48876 -7.36348,5.1553 -3.49971,-0.33941 -4.65306,-1.65064 -12.45802,-14.16263 -11.41523,-18.29937 -18.15106,-25.23216 -29.96793,-30.84395 -8.17678,-3.88316 -10.69982,-4.49613 -20.17803,-4.90245 -29.17638,-1.25077 -54.44109,15.34827 -66.45279,43.65973 -9.17364,21.62228 -7.72715,44.6151503 4.07361,64.75164 8.72122,14.88162 23.33962,24.72354 40.36555,27.17638 8.02403,1.15597 10.57583,0.93215 27.91142,-2.44812 13.47039,-2.62658 19.72033,-3.37775 21.25787,-2.5549 2.76168,1.47804 2.84591,7.02335 0.22699,14.95579 -3.648,11.05003 -39.16415,93.045466 -40.49158,93.482236 -0.72656,0.23877 -22.36332,2.91003 -48.08171,5.93553 -50.54764,5.94639 -63.36524,8.39733 -70.62764,13.50495 -7.17181,5.0439 -9.48535,8.91449 -10.02144,16.76611 -0.6125,8.96988 1.68708,13.18206 16.03073,29.36379 14.95354,16.86966 16.64202,20.30976 16.63895,33.89924 -0.003,9.35542 -0.42556,11.5957 -3.18435,16.84 -11.77122,22.37802 -38.67263,34.02013 -63.31111,27.39919 z M 114.48248,58.435494 C 95.266286,54.105574 80.666516,45.732614 67.122226,31.274264 56.954656,20.420554 51.857296,12.070904 46.927386,-1.8054657 c -3.54051,-9.9656403 -3.73261,-11.4273503 -3.74466,-28.4894703 -0.0123,-20.6928 1.21355,-26.10206 9.66387,-42.56427 19.40789,-37.808724 63.557264,-56.910074 104.995994,-45.426804 15.52562,4.30237 26.62649,10.99948 39.43862,23.793234 9.85374,9.83952 12.23317,13.03745 16.989,22.83254 7.43806,15.31953 9.69747,25.01918 9.63538,41.3653 -0.0584,15.43305 -2.72723,27.1003703 -9.08742,39.7299703 -11.63554,23.1050997 -30.8411,39.4780597 -55.37338,47.2064897 -10.95298,3.45048 -33.60026,4.35411 -44.96231,1.79397 z m 627.67328,-0.12564 c -4.7474,-0.97485 -13.8612,-4.40216 -20.9824,-7.89046 -10.9922,-5.38462 -13.9646,-7.54946 -23.4284,-17.06301 -16.55599,-16.64294 -25.18926,-35.4446697 -26.58795,-57.90366 -3.91178,-62.81215 54.51045,-110.489824 114.88795,-93.758364 28.0624,7.77653 51.1503,28.990984 61.0387,56.085914 24.6794,67.6231703 -34.0491,135.08415 -104.9279,120.52978 z"
           style="fill:#000000;stroke-width:1.1989938" />
        <g
           style="fill:#ffffff;fill-opacity:0.47661474;stroke:none;stroke-width:2.51316953;stroke-miterlimit:4;stroke-dasharray:none;stroke-opacity:1"
           transform="matrix(8.5107744,0,0,-8.5107744,600.74975,-87.120666)"
           id="g60">
          <path
             inkscape:connector-curvature="0"
             id="path62"
             style="fill:#ffffff;fill-opacity:0.47661474;fill-rule:nonzero;stroke:none;stroke-width:2.51316953;stroke-miterlimit:4;stroke-dasharray:none;stroke-opacity:1"
             d="m 0,0 c -10.64,6.774 -24.676,7.19 -35.948,-0.128 -15.386,-9.992 -19.762,-30.566 -9.768,-45.958 1.916,-2.948 4.224,-5.486 6.806,-7.602 -0.366,0.688 -0.5,1.35 -0.5,1.87 0,1.184 0.49,2.252 1.414,3.094 0.902,0.818 2.072,1.234 3.478,1.234 1.236,0 2.234,-0.352 2.962,-1.048 0.662,-0.632 1.04,-1.444 1.112,-2.364 0.388,0.524 0.698,1.096 0.946,1.73 0.228,0.59 0.76,2.286 1.99,7.038 l 3.22,12.61 h -4.134 -0.008 c -1.836,0.002 -3.32,1.296 -3.318,2.89 0.002,1.594 1.492,2.884 3.326,2.882 h 5.608 l 0.886,3.466 h -3.948 c -0.282,0 -0.55,0.046 -0.812,0.112 h -0.1 l 0.008,0.028 c -1.408,0.396 -2.444,1.296 -2.444,2.83 0,1.85 1.382,2.868 3.066,2.852 l 5.588,-0.046 c 0.264,0.194 0.698,1.638 1.442,3.002 2.254,4.164 4.694,7.208 7.25,9.05 C -9.25,-0.56 -6.278,0.4 -3.044,0.4 -1.862,0.4 -0.858,0.262 0,0" />
        </g>
        <g
           style="fill:#ffffff;fill-opacity:0.47661474;stroke:none;stroke-width:2.51316953;stroke-miterlimit:4;stroke-dasharray:none;stroke-opacity:1"
           transform="matrix(8.5107744,0,0,-8.5107744,685.95862,-2.8928357)"
           id="g64">
          <path
             inkscape:connector-curvature="0"
             id="path66"
             style="fill:#ffffff;fill-opacity:0.47661474;fill-rule:nonzero;stroke:none;stroke-width:2.51316953;stroke-miterlimit:4;stroke-dasharray:none;stroke-opacity:1"
             d="m 0,0 c -2.006,3.088 -4.452,5.71 -7.184,7.886 0.566,-0.822 0.878,-1.786 0.876,-2.862 0,-1.378 -0.414,-2.51 -1.226,-3.364 -0.818,-0.862 -1.892,-1.316 -3.1,-1.316 -1.148,0 -2.118,0.376 -2.884,1.116 -0.768,0.736 -1.178,1.684 -1.178,2.736 0,0.56 0.134,1.138 0.396,1.716 -0.54,-0.34 -1.046,-0.85 -1.436,-1.31 -1.582,-1.816 -3.108,-5.502 -4.19,-9.192 l 2.972,-0.024 c 1.85,-0.014 3.184,-1.05 3.184,-2.9 0,-1.85 -1.5,-2.876 -3.35,-2.876 h -4.39 l -0.876,-3.466 2.676,0.002 c 0.004,-0.002 0.008,-0.002 0.01,-0.002 1.834,-0.002 3.32,-1.296 3.318,-2.89 -0.004,-1.594 -1.492,-2.884 -3.326,-2.882 h -4.14 l -0.836,-3.302 c -1.66,-6.62 -3.25,-11.304 -4.852,-14.322 -1.63,-3.076 -3.594,-5.406 -5.832,-6.916 -2.278,-1.538 -4.914,-2.316 -7.832,-2.316 -0.88,0 -1.62,0.112 -2.308,0.272 10.616,-6.648 24.544,-7.014 35.74,0.256 C 5.618,-35.962 9.992,-15.386 0,0" />
        </g>
      </g>
    </g>
  </g>
</svg>
