<?xml version="1.0" encoding="UTF-8" standalone="no"?>
<!-- Created with Inkscape (http://www.inkscape.org/) -->

<svg
   xmlns:dc="http://purl.org/dc/elements/1.1/"
   xmlns:cc="http://creativecommons.org/ns#"
   xmlns:rdf="http://www.w3.org/1999/02/22-rdf-syntax-ns#"
   xmlns:svg="http://www.w3.org/2000/svg"
   xmlns="http://www.w3.org/2000/svg"
   xmlns:xlink="http://www.w3.org/1999/xlink"
   xmlns:sodipodi="http://sodipodi.sourceforge.net/DTD/sodipodi-0.dtd"
   xmlns:inkscape="http://www.inkscape.org/namespaces/inkscape"
   width="50"
   height="50"
   viewBox="0 0 13.229166 13.229167"
   version="1.1"
   id="svg1683"
   inkscape:version="0.92.2 (5c3e80d, 2017-08-06)"
   sodipodi:docname="icon_kidclothes.svg">
  <defs
     id="defs1677">
    <inkscape:path-effect
       effect="powerstroke"
       id="path-effect1721"
       is_visible="true"
       offset_points="0,0.13229166"
       sort_points="true"
       interpolator_type="CubicBezierJohan"
       interpolator_beta="0.2"
       start_linecap_type="zerowidth"
       linejoin_type="extrp_arc"
       miter_limit="4"
       end_linecap_type="zerowidth" />
    <inkscape:path-effect
       effect="powerstroke"
       id="path-effect1717"
       is_visible="true"
       offset_points="0,0.13229166"
       sort_points="true"
       interpolator_type="CubicBezierJohan"
       interpolator_beta="0.2"
       start_linecap_type="zerowidth"
       linejoin_type="extrp_arc"
       miter_limit="4"
       end_linecap_type="zerowidth" />
    <inkscape:path-effect
       effect="powerstroke"
       id="path-effect1713"
       is_visible="true"
       offset_points="0,0.13229166"
       sort_points="true"
       interpolator_type="CubicBezierJohan"
       interpolator_beta="0.2"
       start_linecap_type="zerowidth"
       linejoin_type="extrp_arc"
       miter_limit="4"
       end_linecap_type="zerowidth" />
    <inkscape:path-effect
       effect="powerstroke"
       id="path-effect1505"
       is_visible="true"
       offset_points="0.17067398,0.059501125"
       sort_points="true"
       interpolator_type="CubicBezierJohan"
       interpolator_beta="0.2"
       start_linecap_type="zerowidth"
       linejoin_type="extrp_arc"
       miter_limit="4"
       end_linecap_type="zerowidth" />
    <linearGradient
       inkscape:collect="always"
       id="linearGradient1489">
      <stop
         style="stop-color:#c19206;stop-opacity:1"
         offset="0"
         id="stop1485" />
      <stop
         id="stop1495"
         offset="0.14548008"
         style="stop-color:#f3dd07;stop-opacity:0.99215686;" />
      <stop
         id="stop1493"
         offset="0.89999974"
         style="stop-color:#f3dd07;stop-opacity:0.85882353;" />
      <stop
         style="stop-color:#ffffff;stop-opacity:0.98440981"
         offset="1"
         id="stop1487" />
    </linearGradient>
    <linearGradient
       inkscape:collect="always"
       xlink:href="#linearGradient1489"
       id="linearGradient1491"
       x1="5.8799295"
       y1="293.74435"
       x2="5.8799295"
       y2="288.49747"
       gradientUnits="userSpaceOnUse" />
    <radialGradient
       inkscape:collect="always"
       xlink:href="#linearGradient1438"
       id="radialGradient1440"
       cx="-182.68631"
       cy="9.8998499"
       fx="-182.68631"
       fy="9.8998499"
       r="0.51261503"
       gradientTransform="matrix(1.7576903,0.01260132,-0.08241633,11.495764,139.23538,-101.49863)"
       gradientUnits="userSpaceOnUse" />
    <linearGradient
       inkscape:collect="always"
       id="linearGradient1438">
      <stop
         style="stop-color:#5a2d00;stop-opacity:1"
         offset="0"
         id="stop1434" />
      <stop
         id="stop1444"
         offset="0.55184513"
         style="stop-color:#a75d2d;stop-opacity:1" />
      <stop
         style="stop-color:#a05a2c;stop-opacity:1"
         offset="1"
         id="stop1436" />
    </linearGradient>
    <radialGradient
       inkscape:collect="always"
       xlink:href="#linearGradient1450"
       id="radialGradient1452"
       cx="-182.3499"
       cy="9.2057781"
       fx="-182.3499"
       fy="9.2057781"
       r="1.72393"
       gradientTransform="matrix(0.91612248,0.0027095,-0.00852206,2.8814339,-14.756645,-15.393744)"
       gradientUnits="userSpaceOnUse" />
    <linearGradient
       inkscape:collect="always"
       id="linearGradient1450">
      <stop
         style="stop-color:#442d16;stop-opacity:1"
         offset="0"
         id="stop1446" />
      <stop
         id="stop1454"
         offset="0.45111889"
         style="stop-color:#6c3d1d;stop-opacity:0.97647059" />
      <stop
         style="stop-color:#99572a;stop-opacity:0.96470588"
         offset="1"
         id="stop1448" />
    </linearGradient>
    <inkscape:path-effect
       end_linecap_type="zerowidth"
       miter_limit="4"
       linejoin_type="extrp_arc"
       start_linecap_type="zerowidth"
       interpolator_beta="0.2"
       interpolator_type="CubicBezierJohan"
       sort_points="true"
       offset_points="0,0.13229166"
       is_visible="true"
       id="path-effect1721-7"
       effect="powerstroke" />
    <inkscape:path-effect
       end_linecap_type="zerowidth"
       miter_limit="4"
       linejoin_type="extrp_arc"
       start_linecap_type="zerowidth"
       interpolator_beta="0.2"
       interpolator_type="CubicBezierJohan"
       sort_points="true"
       offset_points="0,0.13229166"
       is_visible="true"
       id="path-effect1717-5"
       effect="powerstroke" />
    <inkscape:path-effect
       end_linecap_type="zerowidth"
       miter_limit="4"
       linejoin_type="extrp_arc"
       start_linecap_type="zerowidth"
       interpolator_beta="0.2"
       interpolator_type="CubicBezierJohan"
       sort_points="true"
       offset_points="0,0.13229166"
       is_visible="true"
       id="path-effect1713-3"
       effect="powerstroke" />
    <inkscape:path-effect
       end_linecap_type="zerowidth"
       miter_limit="4"
       linejoin_type="extrp_arc"
       start_linecap_type="zerowidth"
       interpolator_beta="0.2"
       interpolator_type="CubicBezierJohan"
       sort_points="true"
       offset_points="0.17067398,0.059501125"
       is_visible="true"
       id="path-effect1505-5"
       effect="powerstroke" />
    <radialGradient
       gradientUnits="userSpaceOnUse"
       gradientTransform="matrix(1.7576903,0.01260132,-0.08241633,11.495764,139.23538,-101.49863)"
       r="0.51261503"
       fy="9.8998499"
       fx="-182.68631"
       cy="9.8998499"
       cx="-182.68631"
       id="radialGradient1440-2"
       xlink:href="#linearGradient1438"
       inkscape:collect="always" />
    <radialGradient
       gradientUnits="userSpaceOnUse"
       gradientTransform="matrix(0.91612248,0.0027095,-0.00852206,2.8814339,-14.756645,-15.393744)"
       r="1.72393"
       fy="9.2057781"
       fx="-182.3499"
       cy="9.2057781"
       cx="-182.3499"
       id="radialGradient1452-3"
       xlink:href="#linearGradient1450"
       inkscape:collect="always" />
  </defs>
  <sodipodi:namedview
     id="base"
     pagecolor="#ffffff"
     bordercolor="#666666"
     borderopacity="1.0"
     inkscape:pageopacity="0.0"
     inkscape:pageshadow="2"
     inkscape:zoom="8.0000004"
     inkscape:cx="9.9239203"
     inkscape:cy="25.102671"
     inkscape:document-units="mm"
     inkscape:current-layer="g2090"
     showgrid="false"
     units="px"
     inkscape:window-width="2160"
     inkscape:window-height="1356"
     inkscape:window-x="0"
     inkscape:window-y="42"
     inkscape:window-maximized="1"
     inkscape:snap-global="false" />
  <metadata
     id="metadata1680">
    <rdf:RDF>
      <cc:Work
         rdf:about="">
        <dc:format>image/svg+xml</dc:format>
        <dc:type
           rdf:resource="http://purl.org/dc/dcmitype/StillImage" />
        <dc:title></dc:title>
      </cc:Work>
    </rdf:RDF>
  </metadata>
  <g
     inkscape:label="Calque 1"
     inkscape:groupmode="layer"
     id="layer1"
     transform="translate(0,-283.77082)">
    <g
       id="g1701"
       transform="matrix(1.5703751,0,0,1.5703751,303.39895,279.41861)">
      <g
         id="g2090"
         transform="matrix(0.81890658,0,0,0.81890658,-127.00357,53.668025)">
        <path
           inkscape:connector-curvature="0"
           id="path1908"
           d="m -76.563719,-60.32765 -0.13281,0.05271 -2.304251,0.923972 0.654225,1.85932 0.532783,0.05271 -0.38654,3.099552 0.146762,0.0021 c 0,0 0.189629,0.0025 0.431498,0.02946 0.241869,0.02703 0.536093,0.08166 0.718817,0.16795 0.160613,0.07584 0.380344,0.325675 0.538986,0.556553 0.158641,0.230881 0.265617,0.437185 0.265617,0.437185 l 0.03927,0.07441 1.298628,-0.04083 0.03307,-0.07441 c 0,0 0.09213,-0.198241 0.226859,-0.423746 0.134736,-0.225507 0.322069,-0.474765 0.458888,-0.558622 0.148677,-0.09113 0.393346,-0.14287 0.595828,-0.163815 0.202483,-0.02095 0.359151,-0.01602 0.359151,-0.01602 l 0.148312,0.0062 -0.255799,-3.197223 0.617016,0.05426 0.583944,-1.85725 -2.368846,-0.876949 -0.05839,0.08992 c 0,0 -0.132207,0.206656 -0.351917,0.413928 -0.219713,0.207277 -0.518224,0.402561 -0.834059,0.402561 -0.310232,0 -0.534157,-0.203841 -0.689362,-0.427882 -0.155209,-0.224038 -0.226343,-0.449067 -0.226343,-0.449067 z m -0.146246,0.343649 c 0.0309,0.08478 0.06114,0.19604 0.197406,0.39274 0.180967,0.261223 0.479459,0.541051 0.905886,0.541051 0.420827,0 0.770871,-0.243691 1.01596,-0.474905 0.200348,-0.189008 0.277548,-0.315844 0.320392,-0.378789 l 1.949236,0.720887 -0.44545,1.415933 -0.716754,-0.06253 0.257866,3.222543 c -0.07082,1.91e-4 -0.10954,-0.0046 -0.248047,0.0098 -0.22139,0.0229 -0.491577,0.0705 -0.705382,0.201538 -0.225666,0.138311 -0.405831,0.410795 -0.548804,0.65009 -0.118695,0.198657 -0.173019,0.318079 -0.198953,0.373104 l -0.982369,0.03152 c -0.02929,-0.05465 -0.0968,-0.186156 -0.238747,-0.392742 -0.168764,-0.245613 -0.382003,-0.521468 -0.642337,-0.644404 -0.238225,-0.112495 -0.547449,-0.16321 -0.802537,-0.191719 -0.172249,-0.01925 -0.231047,-0.01828 -0.309022,-0.02119 l 0.384987,-3.08405 -0.636654,-0.06253 -0.513662,-1.460891 z m 1.730127,2.035016 c -0.237355,0 -0.407789,0.07678 -0.523997,0.157615 -0.116237,-0.08077 -0.286679,-0.157096 -0.523999,-0.157096 -0.276979,0 -0.48741,0.184711 -0.590146,0.388607 -0.0948,0.2677 -0.07865,0.427021 0.142627,0.693496 0.03871,0.04725 0.08698,0.110932 0.14056,0.183452 0.107151,0.145037 0.234346,0.326652 0.3576,0.505912 0.24651,0.358521 0.472839,0.7028 0.472839,0.7028 l 5.19e-4,-0.001 5.16e-4,0.001 c 0,0 0.22633,-0.344795 0.472839,-0.703318 0.123254,-0.179255 0.249934,-0.360876 0.357085,-0.50591 0.05358,-0.07252 0.102367,-0.136208 0.141076,-0.183452 0.221284,-0.266475 0.237426,-0.425799 0.142626,-0.693499 -0.102735,-0.203893 -0.313166,-0.388607 -0.590145,-0.388607 z m 0,0.265618 c 0.158578,0 0.286361,0.107111 0.353467,0.240295 0.08662,0.183808 0.0029,0.273412 -0.109037,0.408244 -0.04333,0.05288 -0.09521,0.118597 -0.150379,0.19327 -0.110334,0.149347 -0.239083,0.335092 -0.363283,0.515731 -0.109194,0.158808 -0.189098,0.287597 -0.254765,0.395325 -0.06559,-0.107736 -0.145674,-0.236146 -0.254767,-0.394809 -0.124201,-0.180639 -0.25295,-0.366384 -0.363284,-0.515731 -0.05517,-0.07467 -0.107048,-0.140388 -0.150378,-0.19327 -0.111975,-0.134832 -0.195657,-0.224436 -0.109038,-0.408242 0.06711,-0.133186 0.19489,-0.240297 0.353468,-0.240297 0.158803,0 0.275751,0.05014 0.360185,0.106455 l 0.162264,0.156578 0.0016,0.0016 10e-4,-0.0016 0.163814,-0.158128 c 0.08439,-0.05593 0.201292,-0.105421 0.359151,-0.105421 z"
           style="color:#000000;font-style:normal;font-variant:normal;font-weight:normal;font-stretch:normal;font-size:medium;line-height:normal;font-family:sans-serif;font-variant-ligatures:normal;font-variant-position:normal;font-variant-caps:normal;font-variant-numeric:normal;font-variant-alternates:normal;font-feature-settings:normal;text-indent:0;text-align:start;text-decoration:none;text-decoration-line:none;text-decoration-style:solid;text-decoration-color:#000000;letter-spacing:normal;word-spacing:normal;text-transform:none;writing-mode:lr-tb;direction:ltr;text-orientation:mixed;dominant-baseline:auto;baseline-shift:baseline;text-anchor:start;white-space:normal;shape-padding:0;clip-rule:nonzero;display:inline;overflow:visible;visibility:visible;opacity:1;isolation:auto;mix-blend-mode:normal;color-interpolation:sRGB;color-interpolation-filters:linearRGB;solid-color:#000000;solid-opacity:1;vector-effect:none;fill:#000000;fill-opacity:1;fill-rule:nonzero;stroke:none;stroke-width:0.26458332px;stroke-linecap:butt;stroke-linejoin:miter;stroke-miterlimit:4;stroke-dasharray:none;stroke-dashoffset:0;stroke-opacity:1;color-rendering:auto;image-rendering:auto;shape-rendering:auto;text-rendering:auto;enable-background:accumulate" />
      </g>
    </g>
  </g>
</svg>
