<?xml version="1.0" encoding="UTF-8" standalone="no"?>
<!-- Created with Inkscape (http://www.inkscape.org/) -->

<svg
   xmlns:dc="http://purl.org/dc/elements/1.1/"
   xmlns:cc="http://creativecommons.org/ns#"
   xmlns:rdf="http://www.w3.org/1999/02/22-rdf-syntax-ns#"
   xmlns:svg="http://www.w3.org/2000/svg"
   xmlns="http://www.w3.org/2000/svg"
   xmlns:sodipodi="http://sodipodi.sourceforge.net/DTD/sodipodi-0.dtd"
   xmlns:inkscape="http://www.inkscape.org/namespaces/inkscape"
   width="50"
   height="50"
   viewBox="0 0 13.229166 13.229167"
   version="1.1"
   id="svg1683"
   inkscape:version="0.92.2 (5c3e80d, 2017-08-06)"
   sodipodi:docname="icon_theatre.svg">
  <defs
     id="defs1677" />
  <sodipodi:namedview
     id="base"
     pagecolor="#ffffff"
     bordercolor="#666666"
     borderopacity="1.0"
     inkscape:pageopacity="0.0"
     inkscape:pageshadow="2"
     inkscape:zoom="7.9195959"
     inkscape:cx="11.070823"
     inkscape:cy="31.052414"
     inkscape:document-units="mm"
     inkscape:current-layer="layer1"
     showgrid="false"
     units="px"
     inkscape:window-width="2160"
     inkscape:window-height="1356"
     inkscape:window-x="0"
     inkscape:window-y="42"
     inkscape:window-maximized="1" />
  <metadata
     id="metadata1680">
    <rdf:RDF>
      <cc:Work
         rdf:about="">
        <dc:format>image/svg+xml</dc:format>
        <dc:type
           rdf:resource="http://purl.org/dc/dcmitype/StillImage" />
        <dc:title></dc:title>
      </cc:Work>
    </rdf:RDF>
  </metadata>
  <g
     inkscape:label="Calque 1"
     inkscape:groupmode="layer"
     id="layer1"
     transform="translate(0,-283.77082)">
    <path
       inkscape:connector-curvature="0"
       style="fill:#000000;stroke-width:0.02053669"
       d="m 6.5206239,285.6684 c -2.5692991,0 -4.6488462,2.16958 -4.6488462,4.83435 0,2.66476 2.0795471,4.83596 4.6488462,4.83596 2.5692894,0 4.6488371,-2.1712 4.6488481,-4.83596 0,-2.66477 -2.0795587,-4.83435 -4.6488481,-4.83435 z m -0.01726,0.65303 c 2.2117333,0 4.0082231,1.86609 4.0082231,4.18132 0,2.31522 -1.7964898,4.18293 -4.0082231,4.18293 -2.2117416,0 -4.0082211,-1.86771 -4.0082211,-4.18293 0,-2.31523 1.7964795,-4.18132 4.0082211,-4.18132 z"
       id="path21"
       sodipodi:nodetypes="ssscssssss" />
    <path
       style="fill:#000000;stroke-width:0.03884514"
       d="m 3.5687133,292.72183 -0.086923,-0.0948 v -1.71309 -1.71309 l 0.090722,-0.0486 c 0.2308425,-0.12362 1.1299876,-0.40826 1.5917149,-0.50387 0.4355478,-0.0903 0.6408963,-0.10591 1.3855363,-0.10591 0.7482794,0 0.9478657,0.0155 1.3855368,0.10688 0.4659236,0.0974 1.3685717,0.38241 1.5917187,0.50261 l 0.090719,0.0489 v 1.7131 1.71308 l -0.086917,0.0948 c -0.0685,0.0747 -0.1342676,0.0947 -0.310297,0.0947 -0.5610577,-0.2445 -0.8898422,-2.39208 -0.78949,-3.06395 0.1143378,0.0192 0.190917,-0.13945 0.1359628,-0.28183 -0.075126,-0.19463 -0.2869648,-0.0657 -0.2563945,0.15607 -0.7335551,0.53048 -1.6238678,0.1898 -1.6591995,-0.58836 0.090414,-0.15105 -0.043237,-0.41177 -0.1593522,-0.31082 -0.068895,0.0599 -0.09313,0.22856 -0.044511,0.30979 -0.2115696,0.85989 -1.6291489,1.06514 -1.6161832,0.60635 0.030585,-0.22174 -0.1812692,-0.35069 -0.2563943,-0.15606 -0.054245,0.14053 0.019208,0.29684 0.1330598,0.28316 -0.03193,0.53701 -0.2374652,3.04218 -0.8312133,3.04565 -0.1738078,0 -0.2397961,-0.0204 -0.3080987,-0.0947 z m -0.086923,-4.01856 c 0,-0.61168 -0.3304011,-0.5522 3.0679732,-0.5522 3.3983749,0 3.0679735,-0.0595 3.0679735,0.5522 0,0.19943 -0.0097,0.36261 -0.021624,0.36261 -0.011887,0 -0.1811558,-0.0715 -0.3761595,-0.15893 -0.3832828,-0.1718 -0.98308,-0.35177 -1.4826057,-0.44486 -0.4864539,-0.0906 -1.9984613,-0.0759 -2.4906657,0.0244 -0.5203789,0.10599 -1.0614589,0.27478 -1.4208761,0.44323 -0.1597382,0.0749 -0.3024919,0.13611 -0.3172319,0.13611 -0.014729,0 -0.026805,-0.16317 -0.026805,-0.3626 z"
       id="path1675"
       inkscape:connector-curvature="0"
       sodipodi:nodetypes="ccccccsccccccccscccccccccccsssccccscc" />
  </g>
</svg>
