<?xml version="1.0" encoding="UTF-8" standalone="no"?>
<!-- Created with Inkscape (http://www.inkscape.org/) -->

<svg
   xmlns:dc="http://purl.org/dc/elements/1.1/"
   xmlns:cc="http://creativecommons.org/ns#"
   xmlns:rdf="http://www.w3.org/1999/02/22-rdf-syntax-ns#"
   xmlns:svg="http://www.w3.org/2000/svg"
   xmlns="http://www.w3.org/2000/svg"
   xmlns:sodipodi="http://sodipodi.sourceforge.net/DTD/sodipodi-0.dtd"
   xmlns:inkscape="http://www.inkscape.org/namespaces/inkscape"
   width="50"
   height="50"
   viewBox="0 0 13.229166 13.229167"
   version="1.1"
   id="svg1683"
   inkscape:version="0.92.2 (5c3e80d, 2017-08-06)"
   sodipodi:docname="icon_theatre.svg">
  <defs
     id="defs1677" />
  <sodipodi:namedview
     id="base"
     pagecolor="#ffffff"
     bordercolor="#666666"
     borderopacity="1.0"
     inkscape:pageopacity="0.0"
     inkscape:pageshadow="2"
     inkscape:zoom="7.9195959"
     inkscape:cx="-0.92473878"
     inkscape:cy="28.274495"
     inkscape:document-units="mm"
     inkscape:current-layer="layer1"
     showgrid="false"
     units="px"
     inkscape:window-width="2160"
     inkscape:window-height="1356"
     inkscape:window-x="0"
     inkscape:window-y="42"
     inkscape:window-maximized="1" />
  <metadata
     id="metadata1680">
    <rdf:RDF>
      <cc:Work
         rdf:about="">
        <dc:format>image/svg+xml</dc:format>
        <dc:type
           rdf:resource="http://purl.org/dc/dcmitype/StillImage" />
        <dc:title />
      </cc:Work>
    </rdf:RDF>
  </metadata>
  <g
     inkscape:label="Calque 1"
     inkscape:groupmode="layer"
     id="layer1"
     transform="translate(0,-283.77082)">
    <path
       style="fill:#000000;stroke-width:0.04551883"
       d="m 3.0565617,293.2401 -0.1018569,-0.11109 v -2.0074 -2.0074 l 0.1063082,-0.057 c 0.2705018,-0.14485 1.3241223,-0.4784 1.8651754,-0.59043 0.5103759,-0.10581 0.7510038,-0.12411 1.6235748,-0.12411 0.8768356,0 1.1107113,0.0182 1.6235754,0.12524 0.5459703,0.11414 1.6036955,0.44811 1.8651794,0.58897 l 0.106305,0.0573 v 2.00741 2.00739 l -0.101849,0.11109 c -0.080269,0.0876 -0.1573355,0.11097 -0.3636072,0.11097 -0.6574488,-0.2865 -1.0427192,-2.80305 -0.9251263,-3.59035 0.1339813,0.0225 0.223717,-0.1634 0.1593215,-0.33025 -0.088032,-0.22806 -0.336266,-0.077 -0.3004436,0.18289 -0.8595818,0.62161 -1.9028523,0.22241 -1.9442541,-0.68944 0.1059474,-0.177 -0.050665,-0.48251 -0.1867292,-0.36422 -0.080731,0.0702 -0.10913,0.26783 -0.052158,0.36301 -0.2479178,1.00762 -1.9090406,1.24814 -1.8938474,0.71052 0.035839,-0.25983 -0.2124117,-0.41094 -0.3004434,-0.18287 -0.063565,0.16467 0.022508,0.34784 0.1559197,0.33181 -0.037416,0.62927 -0.2782623,3.56483 -0.9740177,3.5689 -0.2036684,0 -0.2809936,-0.0239 -0.3610308,-0.11097 z m -0.1018569,-4.70896 c 0,-0.71677 -0.3871648,-0.64707 3.5950584,-0.64707 3.9822238,0 3.5950588,-0.0697 3.5950588,0.64707 0,0.2337 -0.01137,0.42491 -0.02534,0.42491 -0.01393,0 -0.2122793,-0.0838 -0.440785,-0.18623 -0.4491317,-0.20132 -1.1519755,-0.41221 -1.737321,-0.5213 -0.5700278,-0.10616 -2.3418018,-0.0889 -2.9185681,0.0286 -0.6097812,0.1242 -1.2438201,0.32199 -1.664986,0.51937 -0.1871816,0.0878 -0.3544608,0.1595 -0.3717331,0.1595 -0.017259,0 -0.03141,-0.19121 -0.03141,-0.4249 z"
       id="path1675"
       inkscape:connector-curvature="0"
       sodipodi:nodetypes="ccccccsccccccccscccccccccccsssccccscc" />
  </g>
</svg>
