<?xml version="1.0" encoding="UTF-8" standalone="no"?>
<!-- Created with Inkscape (http://www.inkscape.org/) -->

<svg
   xmlns:dc="http://purl.org/dc/elements/1.1/"
   xmlns:cc="http://creativecommons.org/ns#"
   xmlns:rdf="http://www.w3.org/1999/02/22-rdf-syntax-ns#"
   xmlns:svg="http://www.w3.org/2000/svg"
   xmlns="http://www.w3.org/2000/svg"
   xmlns:sodipodi="http://sodipodi.sourceforge.net/DTD/sodipodi-0.dtd"
   xmlns:inkscape="http://www.inkscape.org/namespaces/inkscape"
   width="50"
   height="50"
   viewBox="0 0 13.229167 13.229167"
   version="1.1"
   id="svg961"
   inkscape:version="0.92.2 (5c3e80d, 2017-08-06)"
   sodipodi:docname="icon_paint.svg">
  <defs
     id="defs955">
    <filter
       inkscape:collect="always"
       style="color-interpolation-filters:sRGB"
       id="filter914"
       x="-0.028614499"
       width="1.057229"
       y="-0.059043206"
       height="1.1180865">
      <feGaussianBlur
         inkscape:collect="always"
         stdDeviation="0.35455562"
         id="feGaussianBlur916" />
    </filter>
  </defs>
  <sodipodi:namedview
     id="base"
     pagecolor="#ffffff"
     bordercolor="#666666"
     borderopacity="1.0"
     inkscape:pageopacity="0.0"
     inkscape:pageshadow="2"
     inkscape:zoom="15.839192"
     inkscape:cx="20.345697"
     inkscape:cy="22.433995"
     inkscape:document-units="mm"
     inkscape:current-layer="layer1"
     showgrid="false"
     fit-margin-top="0"
     fit-margin-left="0"
     fit-margin-right="0"
     fit-margin-bottom="0"
     inkscape:window-width="2160"
     inkscape:window-height="1356"
     inkscape:window-x="0"
     inkscape:window-y="42"
     inkscape:window-maximized="1"
     units="px" />
  <metadata
     id="metadata958">
    <rdf:RDF>
      <cc:Work
         rdf:about="">
        <dc:format>image/svg+xml</dc:format>
        <dc:type
           rdf:resource="http://purl.org/dc/dcmitype/StillImage" />
        <dc:title></dc:title>
      </cc:Work>
    </rdf:RDF>
  </metadata>
  <g
     inkscape:label="Calque 1"
     inkscape:groupmode="layer"
     id="layer1"
     transform="translate(355.83487,35.459788)">
    <path
       transform="matrix(0.18926178,-0.03570708,0.03044356,0.07566348,-326.02367,-37.698908)"
       style="opacity:0.54100001;fill:#747474;fill-opacity:1;stroke:none;stroke-width:1.06500006;stroke-miterlimit:4;stroke-dasharray:none;stroke-opacity:1;filter:url(#filter914)"
       d="m -118.4004,77.638535 a 14.833458,3.0067821 0 0 1 -14.83346,3.006782 14.833458,3.0067821 0 0 1 -14.83345,-3.006782 14.833458,3.0067821 0 0 1 14.83345,-3.006783 14.833458,3.0067821 0 0 1 14.83346,3.006783 z"
       id="path23" />
    <path
       style="fill:#000000;stroke-width:0.07438284"
       d="M 25.470703 7.703125 C 16.164826 7.703125 8.6328125 15.561251 8.6328125 25.212891 C 8.6328125 34.864527 16.164826 42.728516 25.470703 42.728516 C 34.776542 42.728516 42.308556 34.864527 42.308594 25.212891 C 42.308594 15.561251 34.776542 7.703125 25.470703 7.703125 z M 25.408203 10.068359 C 33.418987 10.068359 39.925781 16.827257 39.925781 25.212891 C 39.925781 33.598517 33.418987 40.363281 25.408203 40.363281 C 17.397381 40.363281 10.890625 33.598517 10.890625 25.212891 C 10.890625 16.827257 17.397381 10.068359 25.408203 10.068359 z M 34.019531 15.527344 C 32.904171 15.845404 26.605164 21.209239 23.638672 24.427734 C 23.167289 24.939108 22.721319 25.381054 22.646484 25.410156 C 22.489256 25.471725 22.467831 25.528728 22.603516 25.523438 C 22.954785 25.510398 23.092267 25.563346 23.246094 25.771484 L 23.414062 26 L 22.982422 26.460938 C 22.745332 26.713674 22.174787 27.316541 21.712891 27.800781 L 20.873047 28.679688 L 21.021484 28.869141 C 21.239941 29.14686 21.204529 29.247916 20.966797 29.021484 L 20.761719 28.826172 L 20.501953 29.039062 C 20.313733 29.193229 20.215334 29.229538 20.148438 29.173828 C 20.097565 29.131497 20.074979 29.067533 20.097656 29.03125 C 20.119578 28.994778 20.100797 28.964844 20.054688 28.964844 C 20.008955 28.964844 20.043617 28.863384 20.132812 28.738281 C 20.222009 28.613179 20.280743 28.497099 20.265625 28.480469 C 20.250129 28.464103 20.152892 28.584217 20.052734 28.746094 C 19.878385 29.028349 19.855083 29.039062 19.482422 29.039062 C 18.681351 29.039062 17.972588 29.481147 17.609375 30.207031 C 17.52358 30.37923 17.384309 30.816121 17.300781 31.175781 C 17.217254 31.535418 17.073068 32.070395 16.992188 32.238281 C 16.855217 32.522608 16.091805 33.224729 15.667969 33.525391 L 15.666016 33.525391 C 15.124598 33.912562 18.09042 33.758449 19.669922 32.685547 C 20.146936 32.310115 20.601839 31.632601 20.726562 31.111328 C 20.782122 30.887867 20.801847 30.537083 20.775391 30.263672 C 20.731926 29.800098 20.732595 29.794231 20.982422 29.603516 C 21.121131 29.497764 21.267711 29.412109 21.306641 29.412109 C 21.34557 29.412109 21.42825 29.33621 21.490234 29.244141 C 21.552067 29.152094 22.189526 28.641211 22.908203 28.109375 C 23.626805 27.577543 24.218952 27.109292 24.222656 27.068359 C 24.227003 27.02745 24.463826 26.792355 24.748047 26.546875 C 25.320759 26.051708 28.000311 23.253071 29.447266 21.638672 C 32.22964 18.534414 34.384221 15.747767 34.169922 15.533203 C 34.14415 15.507432 34.093889 15.50614 34.019531 15.527344 z M 26.966797 21.568359 C 26.902167 21.648228 26.753506 21.879436 26.636719 22.083984 C 26.367238 22.556021 25.769186 23.198943 25.341797 23.472656 C 25.02375 23.676184 24.816406 23.740328 24.816406 23.634766 C 24.816406 23.570465 25.535203 22.732229 25.78125 22.509766 C 26.216954 22.115958 27.075269 21.43464 26.966797 21.568359 z M 22.414062 25.681641 C 22.409953 25.677819 22.381226 25.699851 22.322266 25.746094 C 22.250644 25.802246 20.333984 28.36341 20.333984 28.378906 L 20.335938 28.378906 C 20.335938 28.440127 22.25443 25.897367 22.351562 25.773438 C 22.396728 25.714515 22.418173 25.685463 22.414062 25.681641 z M 18.755859 30.017578 C 18.770963 30.049753 18.648448 30.308909 18.412109 30.720703 C 18.202648 31.085155 18.017071 31.396678 18.001953 31.414062 C 17.84121 31.583193 18.330439 30.561553 18.574219 30.21875 C 18.687279 30.060081 18.746797 29.998273 18.755859 30.017578 z "
       transform="matrix(0.26458333,0,0,0.26458333,-355.83487,-35.459788)"
       id="path21" />
  </g>
</svg>
