<?xml version="1.0" encoding="UTF-8" standalone="no"?>
<!-- Created with Inkscape (http://www.inkscape.org/) -->

<svg
   xmlns:dc="http://purl.org/dc/elements/1.1/"
   xmlns:cc="http://creativecommons.org/ns#"
   xmlns:rdf="http://www.w3.org/1999/02/22-rdf-syntax-ns#"
   xmlns:svg="http://www.w3.org/2000/svg"
   xmlns="http://www.w3.org/2000/svg"
   xmlns:xlink="http://www.w3.org/1999/xlink"
   xmlns:sodipodi="http://sodipodi.sourceforge.net/DTD/sodipodi-0.dtd"
   xmlns:inkscape="http://www.inkscape.org/namespaces/inkscape"
   width="50"
   height="50"
   viewBox="0 0 13.229166 13.229167"
   version="1.1"
   id="svg1683"
   inkscape:version="0.92.2 (5c3e80d, 2017-08-06)"
   sodipodi:docname="icon_donation.svg">
  <defs
     id="defs1677">
    <inkscape:path-effect
       effect="powerstroke"
       id="path-effect1721"
       is_visible="true"
       offset_points="0,0.13229166"
       sort_points="true"
       interpolator_type="CubicBezierJohan"
       interpolator_beta="0.2"
       start_linecap_type="zerowidth"
       linejoin_type="extrp_arc"
       miter_limit="4"
       end_linecap_type="zerowidth" />
    <inkscape:path-effect
       effect="powerstroke"
       id="path-effect1717"
       is_visible="true"
       offset_points="0,0.13229166"
       sort_points="true"
       interpolator_type="CubicBezierJohan"
       interpolator_beta="0.2"
       start_linecap_type="zerowidth"
       linejoin_type="extrp_arc"
       miter_limit="4"
       end_linecap_type="zerowidth" />
    <inkscape:path-effect
       effect="powerstroke"
       id="path-effect1713"
       is_visible="true"
       offset_points="0,0.13229166"
       sort_points="true"
       interpolator_type="CubicBezierJohan"
       interpolator_beta="0.2"
       start_linecap_type="zerowidth"
       linejoin_type="extrp_arc"
       miter_limit="4"
       end_linecap_type="zerowidth" />
    <inkscape:path-effect
       effect="powerstroke"
       id="path-effect1505"
       is_visible="true"
       offset_points="0.17067398,0.059501125"
       sort_points="true"
       interpolator_type="CubicBezierJohan"
       interpolator_beta="0.2"
       start_linecap_type="zerowidth"
       linejoin_type="extrp_arc"
       miter_limit="4"
       end_linecap_type="zerowidth" />
    <linearGradient
       inkscape:collect="always"
       id="linearGradient1489">
      <stop
         style="stop-color:#c19206;stop-opacity:1"
         offset="0"
         id="stop1485" />
      <stop
         id="stop1495"
         offset="0.14548008"
         style="stop-color:#f3dd07;stop-opacity:0.99215686;" />
      <stop
         id="stop1493"
         offset="0.89999974"
         style="stop-color:#f3dd07;stop-opacity:0.85882353;" />
      <stop
         style="stop-color:#ffffff;stop-opacity:0.98440981"
         offset="1"
         id="stop1487" />
    </linearGradient>
    <linearGradient
       inkscape:collect="always"
       xlink:href="#linearGradient1489"
       id="linearGradient1491"
       x1="5.8799295"
       y1="293.74435"
       x2="5.8799295"
       y2="288.49747"
       gradientUnits="userSpaceOnUse" />
    <radialGradient
       inkscape:collect="always"
       xlink:href="#linearGradient1438"
       id="radialGradient1440"
       cx="-182.68631"
       cy="9.8998499"
       fx="-182.68631"
       fy="9.8998499"
       r="0.51261503"
       gradientTransform="matrix(1.7576903,0.01260132,-0.08241633,11.495764,139.23538,-101.49863)"
       gradientUnits="userSpaceOnUse" />
    <linearGradient
       inkscape:collect="always"
       id="linearGradient1438">
      <stop
         style="stop-color:#5a2d00;stop-opacity:1"
         offset="0"
         id="stop1434" />
      <stop
         id="stop1444"
         offset="0.55184513"
         style="stop-color:#a75d2d;stop-opacity:1" />
      <stop
         style="stop-color:#a05a2c;stop-opacity:1"
         offset="1"
         id="stop1436" />
    </linearGradient>
    <radialGradient
       inkscape:collect="always"
       xlink:href="#linearGradient1450"
       id="radialGradient1452"
       cx="-182.3499"
       cy="9.2057781"
       fx="-182.3499"
       fy="9.2057781"
       r="1.72393"
       gradientTransform="matrix(0.91612248,0.0027095,-0.00852206,2.8814339,-14.756645,-15.393744)"
       gradientUnits="userSpaceOnUse" />
    <linearGradient
       inkscape:collect="always"
       id="linearGradient1450">
      <stop
         style="stop-color:#442d16;stop-opacity:1"
         offset="0"
         id="stop1446" />
      <stop
         id="stop1454"
         offset="0.45111889"
         style="stop-color:#6c3d1d;stop-opacity:0.97647059" />
      <stop
         style="stop-color:#99572a;stop-opacity:0.96470588"
         offset="1"
         id="stop1448" />
    </linearGradient>
    <inkscape:path-effect
       end_linecap_type="zerowidth"
       miter_limit="4"
       linejoin_type="extrp_arc"
       start_linecap_type="zerowidth"
       interpolator_beta="0.2"
       interpolator_type="CubicBezierJohan"
       sort_points="true"
       offset_points="0,0.13229166"
       is_visible="true"
       id="path-effect1721-7"
       effect="powerstroke" />
    <inkscape:path-effect
       end_linecap_type="zerowidth"
       miter_limit="4"
       linejoin_type="extrp_arc"
       start_linecap_type="zerowidth"
       interpolator_beta="0.2"
       interpolator_type="CubicBezierJohan"
       sort_points="true"
       offset_points="0,0.13229166"
       is_visible="true"
       id="path-effect1717-5"
       effect="powerstroke" />
    <inkscape:path-effect
       end_linecap_type="zerowidth"
       miter_limit="4"
       linejoin_type="extrp_arc"
       start_linecap_type="zerowidth"
       interpolator_beta="0.2"
       interpolator_type="CubicBezierJohan"
       sort_points="true"
       offset_points="0,0.13229166"
       is_visible="true"
       id="path-effect1713-3"
       effect="powerstroke" />
    <inkscape:path-effect
       end_linecap_type="zerowidth"
       miter_limit="4"
       linejoin_type="extrp_arc"
       start_linecap_type="zerowidth"
       interpolator_beta="0.2"
       interpolator_type="CubicBezierJohan"
       sort_points="true"
       offset_points="0.17067398,0.059501125"
       is_visible="true"
       id="path-effect1505-5"
       effect="powerstroke" />
    <radialGradient
       gradientUnits="userSpaceOnUse"
       gradientTransform="matrix(1.7576903,0.01260132,-0.08241633,11.495764,139.23538,-101.49863)"
       r="0.51261503"
       fy="9.8998499"
       fx="-182.68631"
       cy="9.8998499"
       cx="-182.68631"
       id="radialGradient1440-2"
       xlink:href="#linearGradient1438"
       inkscape:collect="always" />
    <radialGradient
       gradientUnits="userSpaceOnUse"
       gradientTransform="matrix(0.91612248,0.0027095,-0.00852206,2.8814339,-14.756645,-15.393744)"
       r="1.72393"
       fy="9.2057781"
       fx="-182.3499"
       cy="9.2057781"
       cx="-182.3499"
       id="radialGradient1452-3"
       xlink:href="#linearGradient1450"
       inkscape:collect="always" />
  </defs>
  <sodipodi:namedview
     id="base"
     pagecolor="#ffffff"
     bordercolor="#666666"
     borderopacity="1.0"
     inkscape:pageopacity="0.0"
     inkscape:pageshadow="2"
     inkscape:zoom="8.0000004"
     inkscape:cx="4.1158119"
     inkscape:cy="12.987027"
     inkscape:document-units="mm"
     inkscape:current-layer="g2069"
     showgrid="false"
     units="px"
     inkscape:window-width="2160"
     inkscape:window-height="1356"
     inkscape:window-x="0"
     inkscape:window-y="42"
     inkscape:window-maximized="1"
     inkscape:snap-global="false" />
  <metadata
     id="metadata1680">
    <rdf:RDF>
      <cc:Work
         rdf:about="">
        <dc:format>image/svg+xml</dc:format>
        <dc:type
           rdf:resource="http://purl.org/dc/dcmitype/StillImage" />
        <dc:title></dc:title>
      </cc:Work>
    </rdf:RDF>
  </metadata>
  <g
     inkscape:label="Calque 1"
     inkscape:groupmode="layer"
     id="layer1"
     transform="translate(0,-283.77082)">
    <g
       id="g1701"
       transform="matrix(1.5703751,0,0,1.5703751,303.39895,279.41861)">
      <g
         id="g2090"
         transform="matrix(0.81890658,0,0,0.81890658,-127.00357,53.668025)">
        <g
           id="g2081"
           transform="matrix(0.86811076,0,0,0.86811076,-11.487096,-17.774989)">
          <g
             id="g2069"
             transform="matrix(1.1584576,0,0,1.1584576,-0.16370497,3.6051307)">
            <path
               inkscape:connector-curvature="0"
               style="color:#000000;font-style:normal;font-variant:normal;font-weight:normal;font-stretch:normal;font-size:medium;line-height:normal;font-family:sans-serif;font-variant-ligatures:normal;font-variant-position:normal;font-variant-caps:normal;font-variant-numeric:normal;font-variant-alternates:normal;font-feature-settings:normal;text-indent:0;text-align:start;text-decoration:none;text-decoration-line:none;text-decoration-style:solid;text-decoration-color:#000000;letter-spacing:normal;word-spacing:normal;text-transform:none;writing-mode:lr-tb;direction:ltr;text-orientation:mixed;dominant-baseline:auto;baseline-shift:baseline;text-anchor:start;white-space:normal;shape-padding:0;clip-rule:nonzero;display:inline;overflow:visible;visibility:visible;opacity:1;isolation:auto;mix-blend-mode:normal;color-interpolation:sRGB;color-interpolation-filters:linearRGB;solid-color:#000000;solid-opacity:1;vector-effect:none;fill:#000000;fill-opacity:1;fill-rule:nonzero;stroke:none;stroke-width:0.24125887px;stroke-linecap:butt;stroke-linejoin:miter;stroke-miterlimit:4;stroke-dasharray:none;stroke-dashoffset:0;stroke-opacity:1;color-rendering:auto;image-rendering:auto;shape-rendering:auto;text-rendering:auto;enable-background:accumulate"
               d="m -64.388137,-45.528932 c -0.418657,0 -0.76053,0.341876 -0.76053,0.760532 0,0.418657 0.341873,0.76053 0.76053,0.76053 0.418656,0 0.760532,-0.341873 0.760532,-0.76053 0,-0.418656 -0.341876,-0.760532 -0.760532,-0.760532 z m 0,0.194139 c 0.314184,0 0.566393,0.252209 0.566393,0.566393 0,0.314182 -0.252209,0.568278 -0.566393,0.568278 -0.314182,0 -0.566392,-0.254096 -0.566392,-0.568278 0,-0.314184 0.25221,-0.566393 0.566392,-0.566393 z m 1.431533,1.330222 c -0.393674,0 -0.713882,0.320679 -0.713882,0.714353 0,0.393674 0.320208,0.714353 0.713882,0.714353 0.393673,0 0.716238,-0.320679 0.716238,-0.714353 0,-0.393674 -0.322565,-0.714353 -0.716238,-0.714353 z m 0,0.192725 c 0.2892,0 0.522099,0.232428 0.522099,0.521628 0,0.289199 -0.232899,0.521628 -0.522099,0.521628 -0.289199,0 -0.521627,-0.232429 -0.521627,-0.521628 0,-0.2892 0.232428,-0.521628 0.521627,-0.521628 z m -1.606352,1.134198 c -0.406164,0 -0.736968,0.331278 -0.736968,0.737443 0,0.406165 0.330804,0.737441 0.736968,0.737443 0.406167,0 0.739328,-0.331278 0.739328,-0.737443 0,-0.406165 -0.333161,-0.737443 -0.739328,-0.737443 z m 0,0.192255 c 0.301692,0 0.54519,0.243496 0.54519,0.545188 0,0.301691 -0.243498,0.543304 -0.54519,0.543304 -0.30169,0 -0.542832,-0.241613 -0.542832,-0.543304 0,-0.301692 0.241142,-0.545188 0.542832,-0.545188 z m 3.955799,0.356233 c -0.08584,-0.0046 -0.16491,0.0046 -0.231835,0.03063 -0.06692,0.02596 -0.134563,0.07082 -0.156442,0.158327 -0.0112,0.04455 -0.008,0.07003 -0.0071,0.105085 9.65e-4,0.03505 0.0045,0.07415 0.0052,0.119215 0.0014,0.08716 -0.0046,0.195772 -0.02828,0.311941 -0.02097,0.03551 -0.03169,0.07151 -0.05183,0.1065 1.31e-4,-0.0079 0.0045,-0.01274 0.0038,-0.0212 -0.0037,-0.04211 -0.0234,-0.09266 -0.05891,-0.12817 -0.07103,-0.07103 -0.148046,-0.08612 -0.231833,-0.0999 -0.08379,-0.01377 -0.164804,-0.03118 -0.259638,0.03204 -0.065,0.04334 -0.0749,0.07945 -0.105073,0.128169 -0.03018,0.04872 -0.06048,0.105003 -0.09094,0.160681 -0.03045,0.05567 -0.06119,0.109672 -0.08387,0.149373 -0.01132,0.01986 -0.02024,0.03695 -0.02639,0.04618 -0.0025,0.0021 -0.004,0.0041 -0.0057,0.0057 -0.0039,0.0037 -0.0081,0.0074 -0.01085,0.01038 -0.0054,0.0059 -0.0097,0.01073 -0.01601,0.0179 -0.01271,0.01438 -0.0298,0.0344 -0.04948,0.05702 -0.03935,0.04524 -0.09131,0.104554 -0.153143,0.17105 -0.123666,0.132979 -0.285063,0.290605 -0.425972,0.38639 -0.199789,0.09565 -0.394975,0.194298 -0.548488,0.302987 -0.158006,0.111866 -0.292708,0.234557 -0.293564,0.412779 -0.01014,0.09453 -0.01382,0.302991 -0.0179,0.518329 -0.0042,0.220512 -0.0071,0.425973 -0.0071,0.425973 v 0.0033 l 0.01225,0.208274 0.119215,-0.0052 1.109697,-0.04618 v -0.479221 c 0.492199,-0.372172 0.977441,-0.74934 1.339175,-1.18603 0.372199,-0.449331 0.616198,-0.968071 0.587598,-1.585149 v -0.01414 l -0.0052,-0.01271 c -0.0084,-0.02929 -0.02571,-0.09311 -0.07116,-0.156442 -0.04543,-0.06333 -0.129314,-0.12798 -0.240316,-0.133824 z m -6.131841,0.04477 c -0.111005,0.0059 -0.196768,0.0719 -0.2422,0.135234 -0.04544,0.06333 -0.06277,0.127617 -0.07116,0.156915 l -0.0038,0.01225 -0.0019,0.01414 c -0.02861,0.617078 0.215396,1.135818 0.587595,1.585145 0.361737,0.436693 0.84745,0.813858 1.339648,1.186034 v 0.479219 l 1.221374,0.05183 0.0146,-0.110733 0.0052,-0.05136 v -0.0071 c 0,0 -0.0028,-0.216023 -0.0071,-0.447178 -0.0041,-0.225939 -0.0075,-0.443298 -0.0179,-0.539532 -9.64e-4,-0.178223 -0.135556,-0.30138 -0.29356,-0.413252 -0.155086,-0.109802 -0.35221,-0.211632 -0.554144,-0.308169 -0.139542,-0.09609 -0.298275,-0.249972 -0.420318,-0.381209 -0.06183,-0.06649 -0.113788,-0.127226 -0.153142,-0.172462 -0.01968,-0.02263 -0.03535,-0.04123 -0.04807,-0.0556 -0.0064,-0.0072 -0.01241,-0.01167 -0.0179,-0.01744 -0.0027,-0.0029 -0.0051,-0.0072 -0.009,-0.01085 -0.0017,-0.0014 -0.0045,-0.0029 -0.0071,-0.0052 -0.0061,-0.0092 -0.01551,-0.02681 -0.02686,-0.04665 -0.02268,-0.03969 -0.05106,-0.09369 -0.08152,-0.149372 -0.03046,-0.05567 -0.06266,-0.113376 -0.09283,-0.162098 -0.03018,-0.04872 -0.04008,-0.08342 -0.105085,-0.126754 -0.09484,-0.06322 -0.174433,-0.04582 -0.258222,-0.03204 -0.08379,0.01377 -0.16222,0.02887 -0.233249,0.0999 -0.03552,0.03552 -0.05528,0.08606 -0.0589,0.128168 -4.82e-4,0.0063 0.0019,0.01002 0.0019,0.01603 -0.0191,-0.03311 -0.02823,-0.06771 -0.04807,-0.101311 -0.02364,-0.11617 -0.02964,-0.224776 -0.02827,-0.311941 7.23e-4,-0.04506 0.0024,-0.08417 0.0033,-0.119215 9.65e-4,-0.03505 0.0041,-0.06053 -0.0071,-0.105085 -0.02189,-0.08752 -0.08999,-0.132372 -0.156915,-0.158327 -0.06692,-0.02595 -0.143642,-0.03658 -0.229478,-0.03204 z m 3.556214,0.115451 c -0.327053,0 -0.594666,0.266199 -0.594666,0.593252 0,0.327051 0.267613,0.594665 0.594666,0.594665 0.327051,0 0.595135,-0.267614 0.595135,-0.594665 0,-0.327053 -0.268084,-0.593252 -0.595135,-0.593252 z m 2.561019,0.08058 h 4.82e-4 c 0.03177,0.0017 0.04178,0.01026 0.05843,0.03346 0.01349,0.0188 0.02164,0.04425 0.02874,0.06597 0.02178,0.543022 -0.184033,0.992259 -0.529168,1.408913 -0.347716,0.419771 -0.834213,0.799734 -1.339175,1.180849 l -0.02686,0.01933 -0.01225,0.03204 c -0.02965,0.07382 -0.01271,0.142776 -0.01271,0.142776 l -0.0033,-0.02686 v 0.238431 l -0.758646,0.03204 c 4.82e-4,-0.03408 0.0014,-0.182667 0.0052,-0.380739 0.0042,-0.219355 0.01351,-0.470578 0.0179,-0.507963 v -0.0071 -0.0071 c 1.59e-4,-0.03311 0.05696,-0.121443 0.192252,-0.217227 0.135286,-0.09578 0.32906,-0.196069 0.530581,-0.29215 l 0.0071,-0.0033 0.009,-0.0057 c 0.170293,-0.115757 0.335725,-0.281213 0.465083,-0.420318 0.06468,-0.06955 0.120316,-0.133667 0.160212,-0.179531 0.01995,-0.02295 0.03517,-0.04129 0.04618,-0.05372 0.0035,-0.004 0.0048,-0.0065 0.0071,-0.009 -0.0024,0.0019 -0.01257,0.0092 -0.01225,0.009 0.05414,-0.03249 0.04725,-0.04277 0.0589,-0.06032 0.01168,-0.01753 0.02265,-0.03857 0.03534,-0.06079 0.02538,-0.04441 0.05401,-0.09856 0.08388,-0.153142 0.02986,-0.05459 0.06175,-0.108327 0.08717,-0.149373 0.0119,-0.01918 0.0259,-0.03563 0.03487,-0.04665 0.01515,-9.65e-4 0.04985,-0.0071 0.08434,-0.0014 0.04426,0.0073 0.07263,0.02394 0.08199,0.02639 -0.0078,0.02083 -0.02304,0.05058 -0.03912,0.07869 -0.01769,0.03092 -0.02478,0.05708 -0.03723,0.09236 -0.01243,0.03528 -0.02693,0.07596 -0.03958,0.117798 -0.0253,0.08368 -0.04659,0.165771 -0.05655,0.220525 0.0087,-0.04811 0.0078,-0.02318 -0.0057,-0.0071 -0.01338,0.01612 -0.03534,0.03939 -0.0622,0.06597 -0.0537,0.05315 -0.125821,0.119501 -0.196023,0.180003 -0.03769,0.03248 -0.06474,0.05474 -0.09801,0.08198 -0.0031,0.0019 -0.0073,0.0033 -0.01038,0.0052 -0.03247,0.02021 -0.06091,0.03915 -0.08576,0.05702 -0.02485,0.01785 -0.04308,0.03039 -0.06738,0.06079 -0.0045,0.0055 -0.0096,0.0098 -0.0179,0.02638 -0.0021,0.0041 -0.007,0.01767 -0.0071,0.0179 -8.7e-5,2.42e-4 -0.0071,0.02996 -0.0071,0.03015 -1.3e-5,1.91e-4 0.01218,0.05878 0.01225,0.0589 3.2e-5,6.5e-5 0.02304,0.03388 0.02309,0.03393 4.9e-5,4.8e-5 0.03197,0.02307 0.03204,0.02309 1.3e-4,6.5e-5 0.05163,0.01412 0.05183,0.01414 2.03e-4,6e-6 0.02611,-0.0032 0.02639,-0.0033 4.83e-4,-1.09e-4 0.02145,-0.0048 0.02685,-0.0071 0.01085,-0.0046 0.01638,-0.0077 0.02166,-0.01085 0.02118,-0.01276 0.03883,-0.02675 0.06408,-0.04618 0.01862,-0.01433 0.04802,-0.04015 0.07115,-0.0589 0.05735,-0.03528 0.125082,-0.0757 0.196023,-0.115922 0.07666,-0.04347 0.154403,-0.08482 0.215343,-0.119217 0.03046,-0.0172 0.05689,-0.03354 0.07822,-0.04618 0.02133,-0.01264 0.03163,-0.01624 0.05513,-0.03581 l 0.02686,-0.02309 0.01085,-0.03393 c 0.07323,-0.229944 0.190575,-0.440618 0.334558,-0.683723 l 0.01085,-0.01601 0.0033,-0.01979 c 0.03124,-0.145725 0.03547,-0.275825 0.03393,-0.375553 -7.24e-4,-0.04986 -0.0025,-0.0923 -0.0033,-0.122986 -4.82e-4,-0.01959 -2.4e-4,-0.0194 0,-0.02498 0.0025,-0.0017 0.0019,-0.0025 0.009,-0.0052 0.02535,-0.0098 0.07241,-0.01896 0.129583,-0.01601 z m -6.104981,0.04618 c 0.05741,-0.0031 0.104625,0.0042 0.130055,0.01414 0.0075,0.0029 0.0078,0.0041 0.01038,0.0061 -2.4e-4,0.005 -7.23e-4,0.0055 -0.0014,0.02592 -9.65e-4,0.03068 -0.0031,0.07311 -0.0038,0.122986 -0.0014,0.09972 0.0027,0.229826 0.03393,0.375553 l 0.0038,0.01979 0.01038,0.01602 c 0.143981,0.243107 0.263685,0.453781 0.336913,0.683725 l 0.01038,0.03393 0.02686,0.02309 c 0.0235,0.01959 0.0338,0.02318 0.05513,0.03581 0.02132,0.01264 0.04822,0.02899 0.07869,0.04618 0.06093,0.03439 0.136803,0.07574 0.213456,0.119214 0.07218,0.04093 0.141469,0.08211 0.199323,0.117798 0.02227,0.01802 0.05172,0.04314 0.06974,0.05702 0.02525,0.01945 0.04289,0.03342 0.06408,0.04618 0.0053,0.0032 0.01038,0.0063 0.0212,0.01085 0.0054,0.0021 0.02443,0.007 0.02498,0.0071 2.42e-4,5.3e-5 0.02855,0.0033 0.02874,0.0033 2.03e-4,-5e-6 0.05124,-0.01407 0.05136,-0.01414 6.5e-5,-3.1e-5 0.03058,-0.02304 0.03063,-0.02309 4.8e-5,-4.8e-5 0.02307,-0.03386 0.02309,-0.03393 6.1e-5,-1.31e-4 0.01225,-0.05872 0.01225,-0.0589 -1.1e-5,-1.93e-4 -0.007,-0.03179 -0.0071,-0.03204 -8.5e-5,-2.42e-4 -0.005,-0.01188 -0.0071,-0.01601 -0.0083,-0.01657 -0.01156,-0.0208 -0.01603,-0.02639 -0.0243,-0.03039 -0.04442,-0.04293 -0.06927,-0.06078 -0.02485,-0.01785 -0.0533,-0.03679 -0.08576,-0.05702 -0.0031,-0.0019 -0.0077,-0.0033 -0.01085,-0.0052 -0.03327,-0.02725 -0.05985,-0.04951 -0.09754,-0.08199 -0.0702,-0.0605 -0.142319,-0.126852 -0.196023,-0.180002 -0.02685,-0.02657 -0.04928,-0.04986 -0.06267,-0.06597 -0.01338,-0.0161 -0.01389,-0.04102 -0.0052,0.0071 -0.0099,-0.05475 -0.03172,-0.136846 -0.05702,-0.220525 -0.01264,-0.04184 -0.02668,-0.08251 -0.03911,-0.117809 -0.01245,-0.03528 -0.01956,-0.06144 -0.03723,-0.09236 -0.01606,-0.02811 -0.03182,-0.05788 -0.03959,-0.07869 0.0091,-0.0021 0.03947,-0.01908 0.08387,-0.02639 0.03469,-0.0057 0.06894,7.24e-4 0.0834,0.0014 0.0094,0.01097 0.0239,0.02745 0.03581,0.04665 0.02542,0.04104 0.05591,0.09479 0.08576,0.149372 0.02986,0.05459 0.05802,0.108729 0.0834,0.153144 0.01269,0.02219 0.02416,0.04324 0.03581,0.06078 0.01168,0.01754 0.0061,0.02783 0.06032,0.06032 2.4e-4,1.92e-4 -0.01182,-0.007 -0.01414,-0.009 0.0021,0.0025 0.0032,0.0046 0.0071,0.009 0.01097,0.01245 0.02813,0.03079 0.04807,0.05372 0.0399,0.04586 0.09412,0.109979 0.158799,0.17953 0.129358,0.139103 0.296203,0.304563 0.466496,0.420319 l 0.0071,0.0038 0.009,0.0052 c 0.201521,0.09609 0.393879,0.196365 0.529167,0.292147 0.135284,0.09578 0.192093,0.184115 0.192252,0.217228 v 0.0071 0.0071 c 0.0042,0.03585 0.01375,0.299128 0.0179,0.529168 0.0034,0.186613 0.0045,0.299653 0.0052,0.359531 l -0.758645,-0.03204 v -0.230893 c 0.0031,-0.02118 0.0071,-0.06591 -0.01601,-0.123457 l -0.01271,-0.03204 -0.02638,-0.01933 c -0.504964,-0.381115 -0.991931,-0.761078 -1.339648,-1.180849 -0.345898,-0.417578 -0.549657,-0.867562 -0.52681,-1.412214 0.0071,-0.02094 0.01366,-0.04493 0.02639,-0.06267 0.01677,-0.02337 0.02666,-0.03176 0.0589,-0.03346 z m 3.543962,0.06597 c 0.222578,0 0.400999,0.17795 0.400999,0.400528 0,0.222578 -0.178421,0.400525 -0.400999,0.400525 -0.222578,0 -0.400528,-0.177947 -0.400528,-0.400525 0,-0.222578 0.17795,-0.400528 0.400528,-0.400528 z m -1.947977,2.76411 h 0.0019 v 0.0014 z"
               id="path2129" />
          </g>
        </g>
      </g>
    </g>
  </g>
</svg>
