<?xml version="1.0" encoding="UTF-8" standalone="no"?>
<!-- Created with Inkscape (http://www.inkscape.org/) -->

<svg
   xmlns:dc="http://purl.org/dc/elements/1.1/"
   xmlns:cc="http://creativecommons.org/ns#"
   xmlns:rdf="http://www.w3.org/1999/02/22-rdf-syntax-ns#"
   xmlns:svg="http://www.w3.org/2000/svg"
   xmlns="http://www.w3.org/2000/svg"
   xmlns:sodipodi="http://sodipodi.sourceforge.net/DTD/sodipodi-0.dtd"
   xmlns:inkscape="http://www.inkscape.org/namespaces/inkscape"
   width="50"
   height="50"
   viewBox="0 0 13.229167 13.229167"
   version="1.1"
   id="svg1483"
   inkscape:version="0.92.2 (5c3e80d, 2017-08-06)"
   sodipodi:docname="icon_localnodes.svg"
   inkscape:export-filename="/home/feel/software/dev/ufc-frontend/src/assets/icon/icon_solidarity.png"
   inkscape:export-xdpi="10.24"
   inkscape:export-ydpi="10.24">
  <defs
     id="defs1477" />
  <sodipodi:namedview
     id="base"
     pagecolor="#ffffff"
     bordercolor="#666666"
     borderopacity="1.0"
     inkscape:pageopacity="0.0"
     inkscape:pageshadow="2"
     inkscape:zoom="5.6"
     inkscape:cx="33.979787"
     inkscape:cy="21.173708"
     inkscape:document-units="mm"
     inkscape:current-layer="g11983"
     showgrid="false"
     fit-margin-top="0"
     fit-margin-left="0"
     fit-margin-right="0"
     fit-margin-bottom="0"
     inkscape:window-width="2160"
     inkscape:window-height="1356"
     inkscape:window-x="0"
     inkscape:window-y="42"
     inkscape:window-maximized="1"
     units="px" />
  <metadata
     id="metadata1480">
    <rdf:RDF>
      <cc:Work
         rdf:about="">
        <dc:format>image/svg+xml</dc:format>
        <dc:type
           rdf:resource="http://purl.org/dc/dcmitype/StillImage" />
        <dc:title></dc:title>
      </cc:Work>
    </rdf:RDF>
  </metadata>
  <g
     inkscape:label="Calque 1"
     inkscape:groupmode="layer"
     id="layer1"
     transform="translate(-117.17262,-495.43751)">
    <g
       id="g11983"
       transform="matrix(0.40750843,0,0,0.40750843,-27.781178,429.22481)"
       style="stroke:#000000;stroke-opacity:1">
      <path
         style="opacity:1;fill:#000000;fill-opacity:1;fill-rule:nonzero;stroke:none;stroke-width:0.43467563;stroke-opacity:1"
         d="M 22.419922 16.177734 C 22.396482 16.177734 22.373049 16.1815 22.349609 16.181641 C 22.327049 16.592191 22.434486 17.013194 22.699219 17.376953 C 22.902139 17.655635 23.162865 17.855615 23.460938 17.984375 L 23.863281 18.158203 L 24.302734 18.134766 C 24.648461 18.115236 24.985451 18.003278 25.285156 17.785156 C 25.651245 17.518729 25.885215 17.148756 25.988281 16.748047 C 24.829037 16.37454 23.626291 16.177734 22.419922 16.177734 z M 20.410156 16.359375 C 19.193682 16.571875 18.006402 16.976488 16.894531 17.578125 L 20.058594 21.326172 C 20.590822 21.090015 21.13973 20.902572 21.740234 20.832031 L 22.021484 19.238281 C 21.711105 19.012228 21.362482 18.849588 21.125 18.523438 C 20.650662 17.871683 20.422363 17.113857 20.410156 16.359375 z M 27.787109 17.490234 C 27.546126 18.216498 27.092757 18.878239 26.431641 19.359375 C 26.066754 19.624934 25.638332 19.670006 25.226562 19.789062 L 24.947266 21.365234 C 25.13138 21.457338 25.306261 21.5562 25.478516 21.666016 L 29.197266 18.375 C 28.742239 18.046825 28.274793 17.744474 27.787109 17.490234 z M 14.275391 19.513672 C 14.251834 19.536832 14.226533 19.556677 14.203125 19.580078 C 12.412496 21.370464 11.340099 23.601608 10.962891 25.923828 C 11.024637 25.938447 11.086905 25.940713 11.148438 25.958984 L 11.150391 25.958984 C 11.751465 26.137754 12.095888 26.635893 12.498047 27.066406 L 16.505859 26.197266 C 16.579111 25.135644 16.95332 24.183671 17.513672 23.347656 L 14.275391 19.513672 z M 31.554688 20.628906 L 27.566406 24.15625 C 27.924747 24.921046 28.308594 25.688226 28.308594 26.583984 C 28.308594 27.152668 28.111876 27.655875 27.960938 28.175781 L 31.888672 30.646484 C 32.356458 30.248823 32.791744 29.809459 33.396484 29.580078 C 33.566689 29.515515 33.737876 29.462711 33.910156 29.416016 C 34.338535 26.36229 33.557524 23.175928 31.554688 20.628906 z M 22.371094 23.894531 C 20.879205 23.894531 19.681641 25.092234 19.681641 26.583984 C 19.681641 28.07575 20.879343 29.273438 22.371094 29.273438 C 23.862166 29.273438 25.060547 28.075072 25.060547 26.583984 C 25.060547 25.092773 23.862875 23.894531 22.371094 23.894531 z M 10.806641 27.910156 C 10.814818 28.740393 10.918426 29.567356 11.103516 30.380859 C 11.325239 30.200034 11.496799 29.952526 11.585938 29.652344 C 11.617511 29.545686 11.63837 29.435771 11.644531 29.316406 L 11.667969 28.910156 L 11.478516 28.550781 C 11.332791 28.27367 11.102068 28.050146 10.806641 27.910156 z M 17.402344 29.328125 L 13.455078 30.185547 C 13.452937 30.192786 13.452712 30.19933 13.451172 30.207031 C 13.172995 31.143815 12.517254 31.865476 11.701172 32.275391 C 12.267899 33.632307 13.098864 34.905369 14.203125 36.009766 C 14.237426 36.044067 14.275926 36.071686 14.310547 36.105469 C 14.485382 35.948039 14.664649 35.794424 14.869141 35.664062 C 15.558576 35.224508 16.342918 35.256455 17.107422 35.238281 L 18.822266 31.011719 C 18.242323 30.540621 17.770834 29.98326 17.402344 29.328125 z M 26.230469 30.931641 C 25.180861 31.863455 23.878169 32.523438 22.371094 32.523438 C 22.153049 32.523438 21.957636 32.465279 21.748047 32.441406 L 20.181641 36.300781 C 20.415087 36.528129 20.684552 36.705358 20.867188 36.992188 C 21.336131 37.727782 21.548123 38.55492 21.537109 39.371094 C 24.585873 39.601526 27.700119 38.628226 30.130859 36.462891 C 29.799367 35.424707 29.849083 34.365444 30.111328 33.367188 L 26.230469 30.931641 z M 33.308594 31.814453 C 33.056258 31.991166 32.830304 32.19558 32.634766 32.425781 L 32.300781 32.820312 L 32.089844 33.294922 C 31.901973 33.719119 31.798038 34.17753 31.785156 34.646484 C 32.433701 33.761924 32.941853 32.810148 33.308594 31.814453 z M 17.214844 36.929688 C 16.769578 36.926005 16.322083 37.045832 15.916016 37.304688 C 15.888826 37.322021 15.86805 37.345092 15.841797 37.363281 C 16.997943 38.159525 18.26524 38.718699 19.580078 39.048828 C 19.538447 38.700494 19.427555 38.355452 19.224609 38.037109 C 19.03646 37.741609 18.794538 37.506839 18.515625 37.324219 L 18.123047 37.064453 L 17.658203 36.974609 C 17.511897 36.946424 17.363266 36.930915 17.214844 36.929688 z "
         transform="matrix(0.64927082,0,0,0.64927082,355.70748,162.48179)"
         id="path24248" />
      <path
         style="fill:#000000;fill-opacity:1;stroke:none;stroke-width:1.26377749;stroke-miterlimit:4;stroke-dasharray:none;stroke-opacity:1"
         id="path4-58-3"
         d="m 385.22957,167.71357 c -0.65278,-1.46755 -2.3718,-2.12767 -3.83907,-1.47489 -1.46756,0.65278 -2.12768,2.3718 -1.4749,3.83907 0.0641,0.14365 0.14083,0.27742 0.22409,0.40499 l -7.77381,6.87774 c -0.32795,-0.28476 -0.71205,-0.50601 -1.13538,-0.64064 l 0.31609,-1.78279 c 0.33979,-0.0192 0.67846,-0.1318 0.97394,-0.34686 0.81901,-0.59605 0.99964,-1.74357 0.40358,-2.56257 -0.59605,-0.81901 -1.74357,-0.99963 -2.56258,-0.40357 -0.819,0.59605 -0.99963,1.74355 -0.40357,2.56257 0.20037,0.27516 0.46341,0.47638 0.75494,0.60226 l -0.31693,1.78674 c -0.0469,-0.003 -0.0931,-0.007 -0.14055,-0.007 -0.63952,0 -1.23444,0.18937 -1.73623,0.51167 l -5.01791,-5.94416 c 0.23311,-0.28561 0.38805,-0.64008 0.427,-1.03435 0.10527,-1.06595 -0.67367,-2.01535 -1.73962,-2.12062 -1.06595,-0.10526 -2.01535,0.67367 -2.12062,1.73962 -0.10526,1.06596 0.67367,2.01535 1.73962,2.12061 0.36633,0.0361 0.71797,-0.0342 1.02701,-0.18259 l 5.03879,5.96843 c -0.52126,0.57291 -0.84215,1.33152 -0.84215,2.16521 0,0.0895 0.006,0.17723 0.0133,0.26472 l -3.30228,0.71769 c -0.19219,-0.36548 -0.52521,-0.65617 -0.95222,-0.78317 -0.84017,-0.24948 -1.72353,0.22945 -1.97301,1.06963 -0.24949,0.84017 0.22945,1.72353 1.06962,1.97301 0.84018,0.24949 1.72353,-0.22944 1.97302,-1.06962 0.0358,-0.12078 0.055,-0.24215 0.0618,-0.36266 l 3.30397,-0.71825 c 0.26247,0.72559 0.77583,1.33039 1.43764,1.70829 l -1.34874,3.32655 c -0.53029,-0.10216 -1.09869,-0.0118 -1.59004,0.30142 -1.0191,0.64967 -1.31882,2.00236 -0.66915,3.02147 0.64968,1.0191 2.00237,1.31882 3.02147,0.66915 1.01911,-0.64968 1.31883,-2.00237 0.66915,-3.02147 -0.17215,-0.27037 -0.39483,-0.48825 -0.64657,-0.65307 l 1.34874,-3.3257 c 0.2588,0.0672 0.52832,0.10639 0.80772,0.10639 0.99625,0 1.88807,-0.45437 2.47989,-1.16642 l 3.25261,2.04301 c -0.30339,0.68495 -0.34826,1.48505 -0.0615,2.24084 0.57799,1.52372 2.28176,2.29052 3.80548,1.71253 1.52372,-0.578 2.29052,-2.28177 1.71253,-3.80549 -0.578,-1.52372 -2.28177,-2.29051 -3.80549,-1.71252 -0.48288,0.18316 -0.88872,0.47977 -1.20085,0.84723 l -3.25346,-2.04356 c 0.18768,-0.40867 0.2952,-0.86164 0.2952,-1.34 0,-0.66633 -0.2032,-1.2858 -0.55061,-1.80029 l 7.77099,-6.87493 c 0.82493,0.69398 2.00321,0.9031 3.0542,0.43547 1.46756,-0.65278 2.12768,-2.37152 1.4749,-3.83907 z m -14.97387,14.45684 c -1.3112,0 -2.37772,-1.06653 -2.37772,-2.37774 0,-1.3112 1.06652,-2.37743 2.37772,-2.37743 1.31121,0 2.37772,1.06651 2.37772,2.37743 0,1.31094 -1.0668,2.37774 -2.37772,2.37774 z"
         inkscape:connector-curvature="0" />
    </g>
  </g>
</svg>
