<?xml version="1.0" encoding="UTF-8" standalone="no"?>
<!-- Created with Inkscape (http://www.inkscape.org/) -->

<svg
   xmlns:dc="http://purl.org/dc/elements/1.1/"
   xmlns:cc="http://creativecommons.org/ns#"
   xmlns:rdf="http://www.w3.org/1999/02/22-rdf-syntax-ns#"
   xmlns:svg="http://www.w3.org/2000/svg"
   xmlns="http://www.w3.org/2000/svg"
   xmlns:xlink="http://www.w3.org/1999/xlink"
   xmlns:sodipodi="http://sodipodi.sourceforge.net/DTD/sodipodi-0.dtd"
   xmlns:inkscape="http://www.inkscape.org/namespaces/inkscape"
   width="50"
   height="50"
   viewBox="0 0 13.229166 13.229167"
   version="1.1"
   id="svg1683"
   inkscape:version="0.92.2 (5c3e80d, 2017-08-06)"
   sodipodi:docname="icon_bakery.svg">
  <defs
     id="defs1677">
    <inkscape:path-effect
       effect="powerstroke"
       id="path-effect1505"
       is_visible="true"
       offset_points="0.17067398,0.059501125"
       sort_points="true"
       interpolator_type="CubicBezierJohan"
       interpolator_beta="0.2"
       start_linecap_type="zerowidth"
       linejoin_type="extrp_arc"
       miter_limit="4"
       end_linecap_type="zerowidth" />
    <linearGradient
       inkscape:collect="always"
       id="linearGradient1489">
      <stop
         style="stop-color:#c19206;stop-opacity:1"
         offset="0"
         id="stop1485" />
      <stop
         id="stop1495"
         offset="0.14548008"
         style="stop-color:#f3dd07;stop-opacity:0.99215686;" />
      <stop
         id="stop1493"
         offset="0.89999974"
         style="stop-color:#f3dd07;stop-opacity:0.85882353;" />
      <stop
         style="stop-color:#ffffff;stop-opacity:0.98440981"
         offset="1"
         id="stop1487" />
    </linearGradient>
    <linearGradient
       inkscape:collect="always"
       xlink:href="#linearGradient1489"
       id="linearGradient1491"
       x1="5.8799295"
       y1="293.74435"
       x2="5.8799295"
       y2="288.49747"
       gradientUnits="userSpaceOnUse" />
  </defs>
  <sodipodi:namedview
     id="base"
     pagecolor="#ffffff"
     bordercolor="#666666"
     borderopacity="1.0"
     inkscape:pageopacity="0.0"
     inkscape:pageshadow="2"
     inkscape:zoom="16"
     inkscape:cx="23.695497"
     inkscape:cy="30.523572"
     inkscape:document-units="mm"
     inkscape:current-layer="layer1"
     showgrid="false"
     units="px"
     inkscape:window-width="2160"
     inkscape:window-height="1356"
     inkscape:window-x="0"
     inkscape:window-y="42"
     inkscape:window-maximized="1"
     inkscape:snap-global="false" />
  <metadata
     id="metadata1680">
    <rdf:RDF>
      <cc:Work
         rdf:about="">
        <dc:format>image/svg+xml</dc:format>
        <dc:type
           rdf:resource="http://purl.org/dc/dcmitype/StillImage" />
        <dc:title></dc:title>
      </cc:Work>
    </rdf:RDF>
  </metadata>
  <g
     inkscape:label="Calque 1"
     inkscape:groupmode="layer"
     id="layer1"
     transform="translate(0,-283.77082)">
    <path
       style="opacity:1;fill:#80c790;fill-opacity:1;stroke:none;stroke-width:0.19299737;stroke-miterlimit:4;stroke-dasharray:none;stroke-opacity:1"
       d="m 12.37754,290.32987 a 5.5857795,5.5857795 0 0 1 -5.58578,5.58579 5.5857795,5.5857795 0 0 1 -5.5857795,-5.58579 5.5857795,5.5857795 0 0 1 5.5857795,-5.58577 5.5857795,5.5857795 0 0 1 5.58578,5.58577 z"
       id="path1497"
       inkscape:connector-curvature="0" />
    <path
       style="opacity:1;fill:#c57f36;fill-opacity:1;stroke:#eda61b;stroke-width:0.18794806;stroke-linecap:round;stroke-miterlimit:4;stroke-dasharray:none;stroke-opacity:1"
       d="m 4.3799877,291.79519 c -0.6730767,-0.0207 -1.1473672,-0.0587 -1.3403957,-0.1072 -0.1109004,-0.0278 -0.1623154,-0.081 -0.2204988,-0.22788 -0.062672,-0.15833 -0.2922195,-0.41948 -0.2910954,-0.63071 0.00162,-0.29713 0.1324999,-0.68214 0.2598647,-0.99703 0.1005171,-0.24845 0.2626222,-0.40991 0.4394289,-0.62726 0.2781729,-0.34195 0.6113269,-0.35139 0.7075258,-0.35065 0.099272,7.8e-4 0.2055385,0.0978 0.2639727,0.24109 0.083988,0.20588 0.1268715,0.46143 0.2143855,1.27729 0.037118,0.34557 0.07003,0.63148 0.073184,0.63539 0.00323,0.003 0.01124,-0.0105 0.017952,-0.0319 0.1725855,-0.50314 0.2436592,-0.67871 0.3213558,-0.91007 0.2271945,-0.65695 0.2909093,-0.82066 0.3922107,-1.0079 0.2542365,-0.46983 0.6358702,-0.78507 0.81279,-0.67135 0.092438,0.0594 0.153137,0.19331 0.175529,0.38716 0.017063,0.14759 0.00833,0.27511 -0.041323,0.59836 -0.077875,0.50876 -0.077632,0.80611 8.167e-4,1.01295 0.049086,0.12959 0.099361,0.17257 0.1903356,0.16292 0.178982,-0.0189 0.3538883,-0.32999 0.5347625,-0.95087 0.1002584,-0.34416 0.1610539,-0.50412 0.263714,-0.69384 0.1500641,-0.27736 0.3717678,-0.49684 0.5364282,-0.53108 0.263156,-0.0547 0.3898658,0.34876 0.2897935,0.92266 -0.074802,0.42891 -0.082007,0.85549 -0.018114,1.06782 0.082435,0.22577 0.1275994,0.2331 0.326709,0.21259 0.1365836,-0.0837 0.2746876,-0.34987 0.3931571,-0.75758 0.1362683,-0.46897 0.3343994,-0.85983 0.494305,-0.97512 0.04949,-0.0357 0.067281,-0.04 0.1269119,-0.0308 0.1661242,0.0257 0.5082462,0.043 0.7220656,0.30509 0.229864,0.28175 0.592938,0.66836 0.743844,1.04869 0.157875,0.39792 0.10334,0.68703 0.05669,0.96515 -0.0958,0.57063 -0.617595,0.55923 -3.3189916,0.63991 -1.0137917,0.0302 -2.545639,0.0421 -3.1272958,0.0242 z"
       id="path1566"
       inkscape:connector-curvature="0"
       sodipodi:nodetypes="cccccccccccccccccccccccccccsccccc" />
    <path
       style="fill:#060606;fill-opacity:1;stroke-width:0.28527924"
       d="m 2.7958198,292.11445 c -1.4669922,-0.5903 -0.988901,-2.62639 0.8499965,-3.61998 1.2756133,-0.68925 4.8525032,-0.68925 6.1281243,0 1.8938154,1.02327 2.3166264,3.04422 0.7606644,3.6358 -0.9006764,0.34243 -6.8788179,0.33021 -7.7387852,-0.0159 z m 7.8541902,-1.3318 c 0.08831,-0.62047 -0.8159284,-1.80055 -1.3796816,-1.80055 -0.1607871,0 -0.4172958,0.32867 -0.5700205,0.73037 -0.3440143,0.90482 -0.9162909,0.6343 -0.6767965,-0.31993 0.2651454,-1.05642 -0.6970535,-0.91287 -1.0709804,0.15979 -0.3458179,0.99199 -0.9429851,0.84152 -0.6882553,-0.17343 0.2737493,-1.09068 -0.7688308,-0.88629 -1.2501325,0.24508 l -0.3944266,0.92716 -0.1149842,-0.78452 c -0.1365675,-0.93177 -0.4460437,-0.98612 -1.2182063,-0.21395 -0.5691954,0.56919 -0.7477972,1.43933 -0.3724794,1.81466 0.1089434,0.10894 1.8741149,0.16243 3.9225943,0.11886 3.585883,-0.0763 3.727812,-0.10245 3.813369,-0.70354 z"
       id="path1564"
       inkscape:connector-curvature="0" />
    <path
       style="fill:#803300;stroke-width:0.31154624"
       d="m 6.0440194,288.60162 c -0.1192458,-0.006 -0.2649595,0.0498 -0.4137135,0.1588 0.3985266,-0.24683 0.731414,-0.0373 0.5591357,0.73005 -0.2630832,1.17195 0.3536538,1.34562 0.7108333,0.20017 0.021026,-0.0674 0.044638,-0.13037 0.068979,-0.19139 -0.3461412,0.98514 -0.9403729,0.83355 -0.6861768,-0.17928 0.1197633,-0.47717 -0.01213,-0.70612 -0.2390336,-0.71835 z m 1.7935798,0.0121 c -0.2533872,-0.032 -0.6366542,0.26374 -0.8504008,0.83954 0.4287625,-1.01624 1.2738587,-1.08391 1.0196464,0.0514 0.0089,-0.0542 0.02054,-0.11128 0.0355,-0.17092 0.1160031,-0.46218 -0.00323,-0.69451 -0.2047703,-0.72002 z m 0.1692456,0.89094 c -9.69e-5,4.3e-4 -2.101e-4,8.1e-4 -4.279e-4,0.002 -0.2473547,1.10185 0.3438123,1.41421 0.699132,0.36942 0.1577463,-0.46385 0.422738,-0.8433 0.5888054,-0.8433 0.089794,-0.0269 0.4411513,0.0776 -0.00485,-0.10865 -0.1607869,0 -0.4172795,0.32877 -0.570004,0.73046 -0.3225122,0.84828 -0.8457025,0.66348 -0.7124993,-0.14918 z m -3.9294113,-0.54535 c -0.1181946,0.011 -0.2663502,0.0957 -0.4433833,0.2382 0.4278973,-0.30006 0.6328133,-0.0618 0.7379964,0.7405 l 0.1186797,0.90598 0.1592101,-0.35813 -0.1262002,-0.77811 c -0.076823,-0.52412 -0.2084903,-0.7705 -0.4463027,-0.74844 z m -0.4797408,0.26578 c -0.00995,0.008 -0.01868,0.0138 -0.028869,0.0226 0.00962,-0.007 0.019408,-0.0155 0.028869,-0.0226 z"
       id="path1520-6"
       inkscape:connector-curvature="0"
       sodipodi:nodetypes="cccccccccccccccscccccccccccccccc" />
  </g>
</svg>
