<?xml version="1.0" encoding="UTF-8" standalone="no"?>
<!-- Created with Inkscape (http://www.inkscape.org/) -->

<svg
   xmlns:dc="http://purl.org/dc/elements/1.1/"
   xmlns:cc="http://creativecommons.org/ns#"
   xmlns:rdf="http://www.w3.org/1999/02/22-rdf-syntax-ns#"
   xmlns:svg="http://www.w3.org/2000/svg"
   xmlns="http://www.w3.org/2000/svg"
   xmlns:xlink="http://www.w3.org/1999/xlink"
   xmlns:sodipodi="http://sodipodi.sourceforge.net/DTD/sodipodi-0.dtd"
   xmlns:inkscape="http://www.inkscape.org/namespaces/inkscape"
   width="50"
   height="50"
   viewBox="0 0 13.229166 13.229167"
   version="1.1"
   id="svg1683"
   inkscape:version="0.92.2 (5c3e80d, 2017-08-06)"
   sodipodi:docname="icon_clothesand.svg">
  <defs
     id="defs1677">
    <inkscape:path-effect
       effect="powerstroke"
       id="path-effect1505"
       is_visible="true"
       offset_points="0.17067398,0.059501125"
       sort_points="true"
       interpolator_type="CubicBezierJohan"
       interpolator_beta="0.2"
       start_linecap_type="zerowidth"
       linejoin_type="extrp_arc"
       miter_limit="4"
       end_linecap_type="zerowidth" />
    <linearGradient
       inkscape:collect="always"
       id="linearGradient1489">
      <stop
         style="stop-color:#c19206;stop-opacity:1"
         offset="0"
         id="stop1485" />
      <stop
         id="stop1495"
         offset="0.14548008"
         style="stop-color:#f3dd07;stop-opacity:0.99215686;" />
      <stop
         id="stop1493"
         offset="0.89999974"
         style="stop-color:#f3dd07;stop-opacity:0.85882353;" />
      <stop
         style="stop-color:#ffffff;stop-opacity:0.98440981"
         offset="1"
         id="stop1487" />
    </linearGradient>
    <linearGradient
       inkscape:collect="always"
       xlink:href="#linearGradient1489"
       id="linearGradient1491"
       x1="5.8799295"
       y1="293.74435"
       x2="5.8799295"
       y2="288.49747"
       gradientUnits="userSpaceOnUse" />
  </defs>
  <sodipodi:namedview
     id="base"
     pagecolor="#ffffff"
     bordercolor="#666666"
     borderopacity="1.0"
     inkscape:pageopacity="0.0"
     inkscape:pageshadow="2"
     inkscape:zoom="16"
     inkscape:cx="14.382997"
     inkscape:cy="29.086072"
     inkscape:document-units="mm"
     inkscape:current-layer="layer1"
     showgrid="false"
     units="px"
     inkscape:window-width="2160"
     inkscape:window-height="1356"
     inkscape:window-x="0"
     inkscape:window-y="42"
     inkscape:window-maximized="1"
     inkscape:snap-global="false" />
  <metadata
     id="metadata1680">
    <rdf:RDF>
      <cc:Work
         rdf:about="">
        <dc:format>image/svg+xml</dc:format>
        <dc:type
           rdf:resource="http://purl.org/dc/dcmitype/StillImage" />
        <dc:title></dc:title>
      </cc:Work>
    </rdf:RDF>
  </metadata>
  <g
     inkscape:label="Calque 1"
     inkscape:groupmode="layer"
     id="layer1"
     transform="translate(0,-283.77082)">
    <path
       style="opacity:1;fill:#80c790;fill-opacity:1;stroke:none;stroke-width:0.19299737;stroke-miterlimit:4;stroke-dasharray:none;stroke-opacity:1"
       d="m 12.37754,290.32987 a 5.5857795,5.5857795 0 0 1 -5.58578,5.58579 5.5857795,5.5857795 0 0 1 -5.5857795,-5.58579 5.5857795,5.5857795 0 0 1 5.5857795,-5.58577 5.5857795,5.5857795 0 0 1 5.58578,5.58577 z"
       id="path1497"
       inkscape:connector-curvature="0" />
    <g
       id="g2090"
       transform="matrix(0.65697847,0,0,0.65697847,54.584,327.19723)">
      <path
         inkscape:connector-curvature="0"
         id="path2083"
         d="m -78.869565,-59.31037 2.19829,-0.818512 0.30402,0.479414 0.222168,0.233863 0.152008,0.140316 0.397566,0.02339 0.385868,0.01169 0.467722,-0.268941 0.292328,-0.374176 0.198781,-0.175395 2.057974,0.806817 -0.467722,1.625333 -0.666501,-0.08185 0.292325,3.285746 -0.982216,0.09354 -0.385871,0.409257 -0.479414,0.701583 -1.052372,0.04677 -0.631426,-0.876977 -0.549574,-0.315712 -0.958829,-0.105238 0.374179,-3.063576 -0.491109,-0.07016 z"
         style="fill:#e894de;fill-opacity:1;stroke:none;stroke-width:0.26458332px;stroke-linecap:butt;stroke-linejoin:miter;stroke-opacity:1" />
      <path
         inkscape:connector-curvature="0"
         id="path2085"
         d="m -75.478583,-57.579799 c 0,0 -0.315712,-0.327406 -0.619731,-0.245555 -0.30402,0.08185 -0.42095,0.456031 -0.42095,0.456031 l 0.128622,0.315711 0.92375,1.286235 0.958829,-1.426551 -0.02339,-0.409258 -0.479414,-0.198781 -0.339101,0.08185 z"
         style="fill:#c12929;fill-opacity:1;stroke:none;stroke-width:0.26458332px;stroke-linecap:butt;stroke-linejoin:miter;stroke-opacity:1" />
      <path
         inkscape:connector-curvature="0"
         id="path1908"
         d="m -76.563719,-60.32765 -0.13281,0.05271 -2.304251,0.923972 0.654225,1.85932 0.532783,0.05271 -0.38654,3.099552 0.146762,0.0021 c 0,0 0.189629,0.0025 0.431498,0.02946 0.241869,0.02703 0.536093,0.08166 0.718817,0.16795 0.160613,0.07584 0.380344,0.325675 0.538986,0.556553 0.158641,0.230881 0.265617,0.437185 0.265617,0.437185 l 0.03927,0.07441 1.298628,-0.04083 0.03307,-0.07441 c 0,0 0.09213,-0.198241 0.226859,-0.423746 0.134736,-0.225507 0.322069,-0.474765 0.458888,-0.558622 0.148677,-0.09113 0.393346,-0.14287 0.595828,-0.163815 0.202483,-0.02095 0.359151,-0.01602 0.359151,-0.01602 l 0.148312,0.0062 -0.255799,-3.197223 0.617016,0.05426 0.583944,-1.85725 -2.368846,-0.876949 -0.05839,0.08992 c 0,0 -0.132207,0.206656 -0.351917,0.413928 -0.219713,0.207277 -0.518224,0.402561 -0.834059,0.402561 -0.310232,0 -0.534157,-0.203841 -0.689362,-0.427882 -0.155209,-0.224038 -0.226343,-0.449067 -0.226343,-0.449067 z m -0.146246,0.343649 c 0.0309,0.08478 0.06114,0.19604 0.197406,0.39274 0.180967,0.261223 0.479459,0.541051 0.905886,0.541051 0.420827,0 0.770871,-0.243691 1.01596,-0.474905 0.200348,-0.189008 0.277548,-0.315844 0.320392,-0.378789 l 1.949236,0.720887 -0.44545,1.415933 -0.716754,-0.06253 0.257866,3.222543 c -0.07082,1.91e-4 -0.10954,-0.0046 -0.248047,0.0098 -0.22139,0.0229 -0.491577,0.0705 -0.705382,0.201538 -0.225666,0.138311 -0.405831,0.410795 -0.548804,0.65009 -0.118695,0.198657 -0.173019,0.318079 -0.198953,0.373104 l -0.982369,0.03152 c -0.02929,-0.05465 -0.0968,-0.186156 -0.238747,-0.392742 -0.168764,-0.245613 -0.382003,-0.521468 -0.642337,-0.644404 -0.238225,-0.112495 -0.547449,-0.16321 -0.802537,-0.191719 -0.172249,-0.01925 -0.231047,-0.01828 -0.309022,-0.02119 l 0.384987,-3.08405 -0.636654,-0.06253 -0.513662,-1.460891 z m 1.730127,2.035016 c -0.237355,0 -0.407789,0.07678 -0.523997,0.157615 -0.116237,-0.08077 -0.286679,-0.157096 -0.523999,-0.157096 -0.276979,0 -0.48741,0.184711 -0.590146,0.388607 -0.0948,0.2677 -0.07865,0.427021 0.142627,0.693496 0.03871,0.04725 0.08698,0.110932 0.14056,0.183452 0.107151,0.145037 0.234346,0.326652 0.3576,0.505912 0.24651,0.358521 0.472839,0.7028 0.472839,0.7028 l 5.19e-4,-0.001 5.16e-4,0.001 c 0,0 0.22633,-0.344795 0.472839,-0.703318 0.123254,-0.179255 0.249934,-0.360876 0.357085,-0.50591 0.05358,-0.07252 0.102367,-0.136208 0.141076,-0.183452 0.221284,-0.266475 0.237426,-0.425799 0.142626,-0.693499 -0.102735,-0.203893 -0.313166,-0.388607 -0.590145,-0.388607 z m 0,0.265618 c 0.158578,0 0.286361,0.107111 0.353467,0.240295 0.08662,0.183808 0.0029,0.273412 -0.109037,0.408244 -0.04333,0.05288 -0.09521,0.118597 -0.150379,0.19327 -0.110334,0.149347 -0.239083,0.335092 -0.363283,0.515731 -0.109194,0.158808 -0.189098,0.287597 -0.254765,0.395325 -0.06559,-0.107736 -0.145674,-0.236146 -0.254767,-0.394809 -0.124201,-0.180639 -0.25295,-0.366384 -0.363284,-0.515731 -0.05517,-0.07467 -0.107048,-0.140388 -0.150378,-0.19327 -0.111975,-0.134832 -0.195657,-0.224436 -0.109038,-0.408242 0.06711,-0.133186 0.19489,-0.240297 0.353468,-0.240297 0.158803,0 0.275751,0.05014 0.360185,0.106455 l 0.162264,0.156578 0.0016,0.0016 10e-4,-0.0016 0.163814,-0.158128 c 0.08439,-0.05593 0.201292,-0.105421 0.359151,-0.105421 z"
         style="color:#000000;font-style:normal;font-variant:normal;font-weight:normal;font-stretch:normal;font-size:medium;line-height:normal;font-family:sans-serif;font-variant-ligatures:normal;font-variant-position:normal;font-variant-caps:normal;font-variant-numeric:normal;font-variant-alternates:normal;font-feature-settings:normal;text-indent:0;text-align:start;text-decoration:none;text-decoration-line:none;text-decoration-style:solid;text-decoration-color:#000000;letter-spacing:normal;word-spacing:normal;text-transform:none;writing-mode:lr-tb;direction:ltr;text-orientation:mixed;dominant-baseline:auto;baseline-shift:baseline;text-anchor:start;white-space:normal;shape-padding:0;clip-rule:nonzero;display:inline;overflow:visible;visibility:visible;opacity:1;isolation:auto;mix-blend-mode:normal;color-interpolation:sRGB;color-interpolation-filters:linearRGB;solid-color:#000000;solid-opacity:1;vector-effect:none;fill:#000000;fill-opacity:1;fill-rule:nonzero;stroke:none;stroke-width:0.26458332px;stroke-linecap:butt;stroke-linejoin:miter;stroke-miterlimit:4;stroke-dasharray:none;stroke-dashoffset:0;stroke-opacity:1;color-rendering:auto;image-rendering:auto;shape-rendering:auto;text-rendering:auto;enable-background:accumulate" />
    </g>
    <g
       id="g2069"
       transform="matrix(0.65697847,0,0,0.65697847,50.803295,318.74495)">
      <path
         inkscape:connector-curvature="0"
         id="path2050"
         d="m -65.234512,-40.433283 -0.01225,-1.762154 -0.123865,-0.09246 c -0.187383,-0.139877 -0.453758,-0.116128 -0.808141,0.07205 l -0.29982,0.159205 -0.231892,-0.65908 c -0.213965,-0.608142 -0.226163,-0.665617 -0.157789,-0.743674 0.131567,-0.150196 0.727284,-0.494181 1.180306,-0.681549 0.682014,-0.282072 0.616916,-0.285511 0.840999,0.04447 0.267814,0.394372 0.682162,0.79824 0.946365,0.922433 0.461317,0.216845 0.89082,0.09733 1.308367,-0.364075 0.208798,-0.230729 0.557236,-0.748971 0.610005,-0.907274 0.02291,-0.06871 0.493913,0.135887 0.847553,0.368159 0.365876,0.240306 1.056238,0.815192 1.056238,0.879563 0,0.0394 -0.540581,1.053258 -0.588913,1.104503 -0.0097,0.01032 -0.128651,-0.05487 -0.264236,-0.144897 -0.374412,-0.248597 -0.529704,-0.318222 -0.709753,-0.318222 -0.119676,0 -0.178827,0.027 -0.217514,0.09929 -0.0388,0.07249 -0.04383,0.597765 -0.01863,1.946167 l 0.0345,1.846878 -0.135017,-0.02833 c -0.725326,-0.152194 -1.692741,-0.153401 -3.022632,-0.0038 l -0.221604,0.02492 -0.01225,-1.762154 z"
         style="opacity:1;fill:#bebebe;fill-opacity:1;stroke:#bebebe;stroke-width:0.06788225;stroke-linecap:round;stroke-linejoin:round;stroke-miterlimit:4;stroke-dasharray:none;stroke-opacity:1" />
      <path
         inkscape:connector-curvature="0"
         id="path2064"
         d="m -63.502894,-43.345118 c -0.128217,-0.01582 -0.297119,-0.09704 -0.465338,-0.223785 -0.116814,-0.08802 -0.379032,-0.349107 -0.468403,-0.466391 l -0.05569,-0.07308 h 0.989102 0.989103 l -0.05721,0.08477 c -0.117697,0.174403 -0.324633,0.402725 -0.458814,0.506232 -0.158937,0.122606 -0.34009,0.188609 -0.472747,0.172252 z"
         style="opacity:1;fill:#51321e;fill-opacity:1;stroke:#51321e;stroke-width:0.21200001;stroke-linecap:round;stroke-linejoin:round;stroke-miterlimit:4;stroke-dasharray:none;stroke-opacity:1" />
      <path
         inkscape:connector-curvature="0"
         id="path1881"
         d="m -62.102668,-44.849975 -0.04702,0.10387 c 0,0 -0.07228,0.158229 -0.188103,0.363286 h -2.361096 c -0.106228,-0.158758 -0.173633,-0.275437 -0.173633,-0.275437 l -0.05478,-0.09767 -0.10542,0.03669 c -0.798158,0.281281 -1.591715,0.588349 -2.195214,1.152385 l -0.06459,0.06098 0.02945,0.08165 0.636654,1.796791 0.14056,-0.0956 c 0.355079,-0.241054 0.606761,-0.352441 0.758095,-0.378788 0.138591,-0.02413 0.171121,0.0087 0.210838,0.06821 l 0.03307,3.642672 0.134877,-0.0021 c 1.227433,-0.02043 2.253969,-0.355182 3.615282,0.02946 l 0.170016,0.04702 -0.05064,-3.947562 c 6.75e-4,-0.02366 1.51e-4,-0.02069 0.0016,-0.02532 0.03216,0.0057 0.122869,0.04117 0.230478,0.107487 0.113898,0.07019 0.24457,0.162626 0.371036,0.245978 0.126466,0.08335 0.245898,0.159711 0.365353,0.197406 l 0.10387,0.03307 0.862996,-1.5782 -0.0801,-0.07028 c -0.632007,-0.550346 -1.221184,-1.193586 -2.234488,-1.466577 z m 0.122989,0.340032 c 0.835334,0.256164 1.370917,0.776597 1.959054,1.296561 l -0.63872,1.169953 c -0.06245,-0.03115 -0.122219,-0.05851 -0.205155,-0.11317 -0.121013,-0.07976 -0.252251,-0.173088 -0.377238,-0.250113 -0.124989,-0.07703 -0.235273,-0.143537 -0.366903,-0.151929 -0.06582,-0.0042 -0.151069,0.01898 -0.203089,0.0801 -0.05202,0.06112 -0.06607,0.135101 -0.06666,0.214458 v 0.0021 l 0.04702,3.627171 c -1.28859,-0.313328 -2.313268,-0.07093 -3.39049,-0.03152 l -0.03152,-3.468523 -0.01964,-0.02946 c -0.09083,-0.149612 -0.279035,-0.237374 -0.49971,-0.198954 -0.182089,0.0317 -0.433459,0.173834 -0.711068,0.347266 l -0.491961,-1.39423 c 0.524531,-0.464764 1.215012,-0.753711 1.9451,-1.013891 0.04805,0.08282 0.169098,0.303683 0.423749,0.609264 0.298511,0.358214 0.695653,0.74259 1.156517,0.74259 0.233307,0 0.443762,-0.110839 0.626835,-0.261998 0.183073,-0.151162 0.343961,-0.346755 0.478523,-0.538986 0.224025,-0.320035 0.319768,-0.538993 0.365353,-0.636653 z m -2.520776,0.400491 h 1.993678 c -0.01916,0.02898 -0.0349,0.05666 -0.0553,0.08578 -0.125889,0.179837 -0.27454,0.356314 -0.42943,0.484208 -0.154892,0.127892 -0.311856,0.203087 -0.458888,0.203087 -0.299812,0 -0.673166,-0.311703 -0.953431,-0.648021 -0.0354,-0.04248 -0.06436,-0.08322 -0.09663,-0.125058 z"
         style="color:#000000;font-style:normal;font-variant:normal;font-weight:normal;font-stretch:normal;font-size:medium;line-height:normal;font-family:sans-serif;font-variant-ligatures:normal;font-variant-position:normal;font-variant-caps:normal;font-variant-numeric:normal;font-variant-alternates:normal;font-feature-settings:normal;text-indent:0;text-align:start;text-decoration:none;text-decoration-line:none;text-decoration-style:solid;text-decoration-color:#000000;letter-spacing:normal;word-spacing:normal;text-transform:none;writing-mode:lr-tb;direction:ltr;text-orientation:mixed;dominant-baseline:auto;baseline-shift:baseline;text-anchor:start;white-space:normal;shape-padding:0;clip-rule:nonzero;display:inline;overflow:visible;visibility:visible;opacity:1;isolation:auto;mix-blend-mode:normal;color-interpolation:sRGB;color-interpolation-filters:linearRGB;solid-color:#000000;solid-opacity:1;vector-effect:none;fill:#000000;fill-opacity:1;fill-rule:nonzero;stroke:none;stroke-width:0.26458332px;stroke-linecap:butt;stroke-linejoin:miter;stroke-miterlimit:4;stroke-dasharray:none;stroke-dashoffset:0;stroke-opacity:1;color-rendering:auto;image-rendering:auto;shape-rendering:auto;text-rendering:auto;enable-background:accumulate" />
    </g>
    <g
       id="g2076"
       transform="matrix(0.45188522,0,0,0.45188522,36.810126,312.23198)">
      <path
         transform="scale(0.26458333)"
         inkscape:connector-curvature="0"
         id="path2056"
         d="m -240.81457,-191.76381 c -4.09158,-0.46329 -7.94623,-1.82513 -9.51451,-3.36145 -1.39311,-1.36474 -1.3955,-2.34317 -0.009,-3.72956 0.48543,-0.48543 0.91899,-0.84622 0.96347,-0.80174 0.0445,0.0445 -0.0114,0.48048 -0.12413,0.96891 -0.28858,1.25021 0.11675,2.0512 1.43643,2.83855 2.29921,1.37176 5.90216,2.0517 10.87177,2.0517 6.34019,0 11.1293,-1.29323 12.14983,-3.28091 0.31377,-0.61112 0.31766,-0.72464 0.0665,-1.93833 -0.14676,-0.70906 -0.24782,-1.3082 -0.2246,-1.33143 0.0232,-0.0232 0.51773,0.25841 1.09888,0.62587 2.44269,1.54448 2.81944,2.97492 1.19845,4.55034 -1.6993,1.65153 -5.35575,2.91989 -9.8696,3.4236 -1.86131,0.20771 -6.14477,0.19943 -8.04334,-0.0156 z"
         style="opacity:1;fill:#cbc1bb;fill-opacity:1;stroke:#cbc1bb;stroke-width:1.01291335;stroke-linecap:round;stroke-linejoin:round;stroke-miterlimit:4;stroke-dasharray:none;stroke-opacity:1" />
      <path
         transform="scale(0.26458333)"
         inkscape:connector-curvature="0"
         id="path2060"
         d="m -239.03089,-195.16416 c -2.91999,-0.15808 -5.45029,-0.61553 -7.17497,-1.29715 l -0.22186,-0.0877 -0.0541,-0.40821 c -0.0298,-0.22451 -0.062,-0.46211 -0.0716,-0.52801 l -0.0175,-0.1198 0.21535,0.10812 c 0.28084,0.141 0.83557,0.35881 1.32472,0.52014 4.40011,1.45123 11.40584,1.45997 15.83196,0.0197 1.06875,-0.34776 2.04686,-0.81228 2.55084,-1.21144 0.066,-0.0523 0.12693,-0.0883 0.13529,-0.0799 0.0285,0.0285 0.10282,0.72394 0.0814,0.76168 -0.0398,0.0702 -0.30168,0.28389 -0.52135,0.42555 -0.99241,0.63998 -2.74723,1.18858 -4.92188,1.53872 -0.855,0.13766 -1.75257,0.23714 -2.98437,0.33077 -0.57543,0.0437 -3.5141,0.0631 -4.17188,0.0275 z"
         style="opacity:1;fill:#917c6f;fill-opacity:1;stroke:#917c6f;stroke-width:0.80125988;stroke-linecap:round;stroke-linejoin:round;stroke-miterlimit:4;stroke-dasharray:none;stroke-opacity:1" />
      <g
         transform="translate(-22.489583,28.045833)"
         id="g2047">
        <path
           inkscape:connector-curvature="0"
           id="path1949"
           d="m -38.830537,-84.301245 -0.01137,0.0021 c -0.0895,0.0075 -0.126288,0.03569 -0.181901,0.06615 -0.05561,0.03045 -0.117253,0.06934 -0.183452,0.113689 -0.132392,0.0887 -0.28607,0.201083 -0.439766,0.312124 -0.153694,0.11104 -0.30792,0.219273 -0.42943,0.29714 -0.06076,0.03893 -0.113432,0.0697 -0.150378,0.08785 -0.0098,0.0048 -0.01466,0.0054 -0.02222,0.0078 -0.0067,-0.0027 -0.01049,-0.0032 -0.0186,-0.0078 -0.03525,-0.01985 -0.08543,-0.0532 -0.142627,-0.09405 -0.11439,-0.0817 -0.258791,-0.195524 -0.404627,-0.308507 -0.145836,-0.112985 -0.292592,-0.225483 -0.425813,-0.312642 -0.06661,-0.04358 -0.130685,-0.08055 -0.19327,-0.109037 -0.06259,-0.02848 -0.121658,-0.0568 -0.22066,-0.04289 -0.141176,0.01983 -0.222509,0.09463 -0.318325,0.183452 -0.09582,0.08882 -0.193281,0.202517 -0.293005,0.33021 -0.199451,0.255389 -0.401587,0.568121 -0.548804,0.847495 -0.16701,0.316934 -0.326689,0.914678 -0.463021,1.460892 -0.0028,0.01128 -0.0024,0.0085 -0.0052,0.01964 -0.323353,0.143229 -0.597583,0.308332 -0.801502,0.50178 -0.235641,0.223527 -0.382924,0.491429 -0.382924,0.778764 0,0.287337 0.147283,0.55368 0.382924,0.777213 0.235638,0.223531 0.560861,0.412684 0.952912,0.569989 0.784106,0.314611 1.841799,0.501261 3.008085,0.501261 1.166292,0 2.223463,-0.18665 3.007569,-0.501261 0.392054,-0.157305 0.715724,-0.346458 0.951364,-0.569989 0.235639,-0.223533 0.384472,-0.489876 0.384472,-0.777213 0,-0.287335 -0.148833,-0.555237 -0.384472,-0.778764 -0.23564,-0.223536 -0.55931,-0.411136 -0.951364,-0.568442 -0.02703,-0.01085 -0.05643,-0.02054 -0.08423,-0.03101 -0.06376,-0.379942 -0.128834,-0.749324 -0.179317,-0.917774 -0.05236,-0.174715 -0.208737,-0.593066 -0.444933,-0.99632 -0.1181,-0.201628 -0.255469,-0.398934 -0.415997,-0.55449 -0.160528,-0.155554 -0.351838,-0.276736 -0.57826,-0.285253 z m 0.0098,0.386538 c 0.0903,0.007 0.198432,0.05997 0.316259,0.174151 0.122102,0.118316 0.244821,0.289478 0.351917,0.472321 0.214193,0.365689 0.371689,0.785291 0.41031,0.914157 0.02312,0.07714 0.07636,0.361579 0.13126,0.670761 -8.52e-4,-2.54e-4 -0.0017,-2.65e-4 -0.0026,-5.19e-4 0.01027,0.04914 0.0219,0.11798 0.03256,0.172601 0.012,0.06974 0.02431,0.133548 0.03566,0.202054 0.01656,0.09994 0.03047,0.217345 0.04651,0.33228 -0.01773,0.01753 -0.03458,0.03502 -0.05736,0.05323 -0.13284,0.106162 -0.343705,0.214106 -0.606166,0.302824 -0.52492,0.177427 -1.26293,0.287837 -2.076876,0.287837 -0.81394,0 -1.549371,-0.110423 -2.074291,-0.287837 -0.185251,-0.06261 -0.343056,-0.134895 -0.467672,-0.209288 -0.0019,-0.196072 0.0092,-0.389374 0.04806,-0.545187 0.134355,-0.538293 0.151082,-0.992966 0.266134,-1.211297 0.134844,-0.255889 0.317013,-0.723112 0.49971,-0.957046 0.09135,-0.116969 0.181737,-0.215971 0.254249,-0.283189 0.05622,-0.05212 0.09489,-0.07264 0.102836,-0.0801 0.0063,0.0015 0.01025,0.0017 0.02015,0.0062 0.03348,0.01524 0.08335,0.04474 0.14056,0.08216 0.114435,0.07487 0.258373,0.18285 0.402561,0.294558 0.144187,0.111704 0.289552,0.226464 0.415993,0.316775 0.06322,0.04515 0.122066,0.08387 0.177769,0.115239 0.0557,0.03136 0.09728,0.06239 0.191203,0.06615 0.09825,0.0039 0.144249,-0.02588 0.203087,-0.05478 0.05884,-0.0289 0.119964,-0.0657 0.187587,-0.109037 0.135244,-0.08667 0.292473,-0.198933 0.447,-0.310576 0.154527,-0.111641 0.307861,-0.223094 0.429948,-0.30489 0.06104,-0.0409 0.11398,-0.07454 0.152445,-0.0956 0.02541,-0.01392 0.01968,-0.01244 0.02119,-0.01395 z m 1.694987,2.821016 c 0.277641,0.126468 0.50311,0.268103 0.656291,0.413412 0.182546,0.173167 0.265616,0.342664 0.265616,0.513149 0,0.170481 -0.08307,0.338428 -0.265616,0.511595 -0.182547,0.173167 -0.462855,0.342525 -0.818555,0.485241 -0.711401,0.285438 -1.71971,0.468706 -2.835487,0.468706 -1.115774,0 -2.124601,-0.183268 -2.836002,-0.468706 -0.355701,-0.142716 -0.636008,-0.312074 -0.818555,-0.485241 -0.182544,-0.173167 -0.267684,-0.341114 -0.267684,-0.511595 0,-0.170485 0.08514,-0.339982 0.267684,-0.513149 0.09977,-0.09464 0.221345,-0.190228 0.366903,-0.28112 -0.0343,0.126907 -0.08138,0.307255 -0.09922,0.375687 -0.0024,0.0069 -0.0036,0.01418 -0.0057,0.02119 -0.0016,0.0063 -0.0124,0.04806 -0.0124,0.04806 l 0.0041,0.0036 c -0.0049,0.02693 -0.01292,0.0528 -0.01292,0.08113 0,0.205793 0.133975,0.375423 0.314709,0.504362 0.180737,0.128934 0.422963,0.233921 0.714684,0.321943 0.583446,0.176045 1.369063,0.279569 2.238108,0.279569 0.869045,0 1.656728,-0.103524 2.240174,-0.279569 0.291722,-0.08802 0.532397,-0.193009 0.713134,-0.321943 0.180735,-0.128939 0.314193,-0.298569 0.314193,-0.504362 0,-0.07177 -0.0208,-0.137287 -0.04961,-0.199988 -0.01337,-0.08367 -0.04099,-0.256013 -0.0739,-0.461989 z m -0.310058,0.579811 c 0.01332,0.109704 0.01799,0.15173 0.02532,0.213423 -0.02604,0.02911 -0.05809,0.05977 -0.105421,0.09353 -0.132641,0.09462 -0.344257,0.190249 -0.61288,0.271304 -0.537253,0.162108 -1.299877,0.267682 -2.140956,0.267682 -0.841079,0 -1.601121,-0.105574 -2.13837,-0.267682 -0.114181,-0.03445 -0.212461,-0.07258 -0.304893,-0.111107 -0.01322,-0.08727 -0.02163,-0.126169 -0.03824,-0.285768 0.113414,0.05737 0.240154,0.109537 0.380857,0.157096 0.551847,0.186537 1.301985,0.299207 2.131134,0.299204 0.829154,0 1.581872,-0.112662 2.133722,-0.299204 0.275923,-0.09326 0.500951,-0.203504 0.669208,-0.337965 0,0 5.18e-4,-5.16e-4 5.18e-4,-5.16e-4 z"
           style="color:#000000;font-style:normal;font-variant:normal;font-weight:normal;font-stretch:normal;font-size:medium;line-height:normal;font-family:sans-serif;font-variant-ligatures:normal;font-variant-position:normal;font-variant-caps:normal;font-variant-numeric:normal;font-variant-alternates:normal;font-feature-settings:normal;text-indent:0;text-align:start;text-decoration:none;text-decoration-line:none;text-decoration-style:solid;text-decoration-color:#000000;letter-spacing:normal;word-spacing:normal;text-transform:none;writing-mode:lr-tb;direction:ltr;text-orientation:mixed;dominant-baseline:auto;baseline-shift:baseline;text-anchor:start;white-space:normal;shape-padding:0;clip-rule:nonzero;display:inline;overflow:visible;visibility:visible;opacity:1;isolation:auto;mix-blend-mode:normal;color-interpolation:sRGB;color-interpolation-filters:linearRGB;solid-color:#000000;solid-opacity:1;vector-effect:none;fill:#000000;fill-opacity:1;fill-rule:nonzero;stroke:none;stroke-width:0.38011107;stroke-linecap:butt;stroke-linejoin:miter;stroke-miterlimit:4;stroke-dasharray:none;stroke-dashoffset:0;stroke-opacity:1;color-rendering:auto;image-rendering:auto;shape-rendering:auto;text-rendering:auto;enable-background:accumulate" />
      </g>
      <path
         transform="scale(0.26458333)"
         inkscape:connector-curvature="0"
         id="path2054"
         d="m -241.60195,-198.03523 c -1.76177,-0.27379 -3.0358,-0.61319 -4.24102,-1.12981 -0.98229,-0.42106 -0.97611,-0.33787 -0.28691,-3.8611 0.42673,-2.18144 0.67196,-2.97295 1.38766,-4.47872 0.77929,-1.63957 2.11992,-3.50839 2.51682,-3.50839 0.0826,0 1.0105,0.64563 2.0621,1.43475 2.56327,1.92347 2.80679,2.03498 3.66281,1.67731 0.36832,-0.15389 1.56797,-0.91706 2.66589,-1.69593 1.09793,-0.77887 2.14026,-1.41613 2.31629,-1.41613 0.56297,0 1.91415,1.66385 2.79912,3.44686 0.86702,1.74686 1.62677,4.6876 1.7356,6.71797 0.0428,0.79938 0.005,0.88619 -0.55626,1.26969 -0.8495,0.58065 -3.0038,1.22374 -5.18377,1.54743 -2.28351,0.33907 -6.68372,0.33712 -8.87833,-0.004 z"
         style="opacity:1;fill:#eac9b3;fill-opacity:1;stroke:#e8c5ad;stroke-width:1.01291335;stroke-linecap:round;stroke-linejoin:round;stroke-miterlimit:4;stroke-dasharray:none;stroke-opacity:1" />
    </g>
    <g
       id="g2081"
       transform="matrix(0.65697847,0,0,0.65697847,53.953884,320.98296)">
      <path
         inkscape:connector-curvature="0"
         id="path2062"
         d="m -74.980434,-43.204555 2.224154,-0.326597 1.16582,-0.268716 1.686719,-0.01241 0.07855,0.876432 -2.26136,0.04134 -0.02066,-0.347266 -0.901237,0.136427 -1.480013,0.124023 z"
         style="fill:#51321e;fill-opacity:1;stroke:none;stroke-width:0.26458332px;stroke-linecap:butt;stroke-linejoin:miter;stroke-opacity:1" />
      <path
         transform="scale(0.26458333)"
         inkscape:connector-curvature="0"
         id="path2052"
         d="m -295.54712,-165.35181 c 0.0675,-0.96142 0.21708,-1.82742 0.33607,-1.94587 0.11793,-0.11738 1.79639,-0.49235 3.72991,-0.83326 l 3.5155,-0.61982 1.39892,-0.91842 1.39893,-0.91842 0.74912,0.73521 c 0.83905,0.82346 1.08102,0.8926 1.35198,0.3863 0.15572,-0.29096 0.0779,-0.46935 -0.46849,-1.07416 -0.53428,-0.59139 -0.60839,-0.75649 -0.40148,-0.89445 0.76144,-0.50771 0.81064,-0.50319 1.42018,0.13045 0.7384,0.7676 1.11078,0.98047 1.4724,0.8417 0.46607,-0.17885 0.31172,-0.85066 -0.34074,-1.48305 -0.3403,-0.32983 -0.61872,-0.6445 -0.61872,-0.69927 0,-0.0548 0.16899,-0.20511 0.37554,-0.3341 0.34154,-0.2133 0.44357,-0.16776 1.12701,0.50299 0.53958,0.52955 0.86985,0.72077 1.17126,0.67814 0.65901,-0.0932 0.61471,-0.68225 -0.10367,-1.37853 -0.34408,-0.3335 -0.6256,-0.66115 -0.6256,-0.72812 0,-0.067 0.20821,-0.2582 0.46269,-0.42494 0.46212,-0.30279 0.46382,-0.30203 1.40018,0.62269 0.63159,0.62374 1.02991,0.89039 1.2207,0.81717 0.60675,-0.23283 0.51095,-0.66338 -0.33977,-1.52709 l -0.84002,-0.85284 0.46109,-0.30212 0.46109,-0.30212 1.41722,1.33321 c 1.95267,1.83694 2.99959,2.32976 4.94921,2.32976 1.31341,0 1.64728,-0.0688 2.65165,-0.54613 0.63198,-0.30037 1.68396,-0.95192 2.33775,-1.44788 l 1.1887,-0.90176 0.39741,0.55812 c 0.37185,0.52221 0.39765,0.74045 0.4012,3.39243 0.004,3.32836 -0.24232,4.77397 -0.84245,4.93488 -0.21396,0.0574 -1.75235,0.1054 -3.41864,0.10672 -2.74906,0.002 -3.1747,0.0453 -4.59619,0.46598 -4.26972,1.26344 -7.51058,1.58761 -19.22677,1.9232 l -3.69483,0.10583 z"
         style="opacity:1;fill:#dcb8a1;fill-opacity:1;stroke:#dcb8a1;stroke-width:1.01291335;stroke-linecap:round;stroke-linejoin:round;stroke-miterlimit:4;stroke-dasharray:none;stroke-opacity:1" />
      <path
         inkscape:connector-curvature="0"
         id="path1853"
         d="m -73.338391,-46.838297 c -0.04748,0 -0.05578,0.0095 -0.07028,0.0155 -0.0145,0.0061 -0.02785,0.01376 -0.04289,0.0217 -0.03008,0.01588 -0.06435,0.0363 -0.107487,0.06253 -0.08628,0.05246 -0.20189,0.126526 -0.335899,0.214457 -0.268012,0.175862 -0.614794,0.409553 -0.962731,0.644922 -0.347935,0.235368 -0.697273,0.471899 -0.968933,0.652157 -0.13583,0.09013 -0.251619,0.16648 -0.337963,0.220658 -0.04317,0.02709 -0.07774,0.04792 -0.103352,0.06253 -0.02561,0.01461 -0.05228,0.02409 -0.02946,0.01757 -0.01753,0.005 -0.15721,0.03232 -0.32608,0.06253 -0.168865,0.03021 -0.379566,0.0668 -0.590143,0.103353 -0.210577,0.03656 -0.420674,0.07333 -0.585494,0.103869 -0.08241,0.01527 -0.153725,0.02915 -0.20929,0.04082 -0.05556,0.01167 -0.08445,0.016 -0.127125,0.03307 -0.12823,0.05129 -0.253521,0.145117 -0.310057,0.314709 -0.02703,0.0811 -0.02495,0.154965 -0.02946,0.267684 -0.0045,0.112719 -0.0062,0.247096 -0.0062,0.376721 3e-6,0.259251 0.0062,0.500228 0.0062,0.500228 l 0.0015,0.09767 a 0.13281676,0.13281676 0 0 0 0.101801,0.218591 c 1.596631,-0.01135 2.974901,-0.03739 4.04885,-0.08785 0.992376,-0.04663 1.644878,-0.118616 2.068608,-0.22686 v 0.361736 h 2.533179 v -1.061434 c 0.0078,-0.009 0.01617,-0.01625 0.02325,-0.02687 l 0.0098,-0.0155 0.0057,-0.0155 c 0.226867,-0.657325 0.202594,-1.623978 0.105937,-2.249992 l -0.0021,-0.0098 -0.0041,-0.0098 c -0.03869,-0.124165 -0.121028,-0.236897 -0.195337,-0.33383 -0.07431,-0.09693 -0.142626,-0.172082 -0.142626,-0.172082 l -0.02894,-0.03307 -0.113686,-0.01964 -0.04858,0.04858 c 0,0 -0.214479,0.215027 -0.52555,0.429947 -0.311065,0.214923 -0.716253,0.419613 -1.064532,0.419613 -0.340498,0 -0.700193,-0.233133 -0.985988,-0.482141 -0.142891,-0.124503 -0.265586,-0.250453 -0.363284,-0.347782 -0.04885,-0.04866 -0.09105,-0.08796 -0.129191,-0.120923 -0.01908,-0.01648 -0.03709,-0.0315 -0.0584,-0.04496 -0.0213,-0.01346 -0.04391,-0.03307 -0.09973,-0.03307 z m -0.0098,0.283187 c 0.02687,0.02364 0.06407,0.05804 0.109553,0.103353 0.09597,0.09561 0.22437,0.228475 0.376722,0.361218 0.304707,0.265487 0.705506,0.547254 1.160137,0.547254 0.446849,0 0.882864,-0.23929 1.214911,-0.468705 0.266054,-0.183818 0.381926,-0.301409 0.451136,-0.36742 0.0202,0.02426 0.02237,0.02467 0.04703,0.05684 0.06506,0.08488 0.132016,0.193476 0.150378,0.24598 0.08859,0.583308 0.09709,1.514511 -0.09198,2.085661 -0.0064,0.0038 -0.01849,0.01487 -0.05271,0.02377 -0.042,0.01091 -0.08683,0.01611 -0.118856,0.01964 0.01686,-0.0019 -0.01846,-7.08e-4 -0.05271,0 -0.03425,7.09e-4 -0.08074,0.0014 -0.136941,0.0021 -0.112403,0.0014 -0.262779,0.0025 -0.420129,0.0036 -0.314711,0.0022 -0.662869,0.0041 -0.825791,0.0041 -0.189984,0 -0.392803,0.05319 -0.582393,0.111104 -0.18959,0.05791 -0.367051,0.122638 -0.478523,0.150378 -1.565926,0.389699 -3.672625,0.319252 -5.615162,0.406177 -0.0017,-0.08388 -0.0036,-0.17014 -0.0036,-0.353467 0,-0.127621 0.0014,-0.260377 0.0057,-0.366902 0.0043,-0.106526 0.02121,-0.204724 0.01757,-0.193787 0.03701,-0.111029 0.05043,-0.111747 0.156061,-0.153996 -0.01344,0.0054 0.03237,-0.0067 0.08423,-0.01757 0.05187,-0.01089 0.121796,-0.02628 0.203089,-0.04134 0.162584,-0.03012 0.371504,-0.06476 0.581877,-0.101286 0.210373,-0.03652 0.421981,-0.07291 0.592212,-0.103353 0.170227,-0.03045 0.287075,-0.05191 0.351398,-0.07028 0.04328,-0.01237 0.05671,-0.02358 0.08785,-0.04134 0.03114,-0.01776 0.06819,-0.03999 0.113171,-0.06821 0.08996,-0.05645 0.206883,-0.134044 0.343648,-0.224792 0.06583,-0.04368 0.160015,-0.108261 0.233577,-0.157613 a 0.13230489,0.13230489 0 0 0 0.001,0.0015 l 0.328144,0.337964 a 0.13230489,0.13230489 0 1 0 0.189137,-0.183968 l -0.294039,-0.306441 c 0.108685,-0.07335 0.207452,-0.139024 0.321942,-0.216525 l 0.380339,0.380339 a 0.13230489,0.13230489 0 1 0 0.187587,-0.185518 l -0.3452,-0.345199 c 0.10168,-0.06874 0.182007,-0.12098 0.28112,-0.187586 l 0.380339,0.380856 a 0.13230489,0.13230489 0 1 0 0.186036,-0.187586 l -0.342098,-0.343648 c 0.105227,-0.07029 0.221636,-0.148719 0.314193,-0.209806 l 0.437697,0.436149 a 0.13264369,0.13264369 0 0 0 0.187587,-0.187586 l -0.398941,-0.396875 c 0.07487,-0.04858 0.157133,-0.102649 0.209288,-0.134358 0.03161,-0.01922 0.05384,-0.03146 0.07441,-0.04289 z m 3.361552,2.855123 v 0.674378 h -2.004012 v -0.422197 l -0.172082,0.05478 c -0.310394,0.09594 -0.995191,0.169695 -1.928048,0.220142 0.548206,-0.05279 1.073909,-0.12782 1.554943,-0.24753 0.138162,-0.03438 0.311835,-0.09726 0.492477,-0.152446 0.180644,-0.05518 0.36849,-0.09974 0.505912,-0.09974 0.164484,0 0.512601,-0.0014 0.827857,-0.0036 0.157626,-0.0011 0.306893,-0.0027 0.42013,-0.0041 0.05662,-6.89e-4 0.104947,-7.5e-4 0.14056,-0.0015 0.03561,-7.37e-4 0.04595,-7.82e-4 0.07596,-0.0041 0.01135,-0.0013 0.05445,-0.0093 0.0863,-0.01395 z"
         style="color:#000000;font-style:normal;font-variant:normal;font-weight:normal;font-stretch:normal;font-size:medium;line-height:normal;font-family:sans-serif;font-variant-ligatures:normal;font-variant-position:normal;font-variant-caps:normal;font-variant-numeric:normal;font-variant-alternates:normal;font-feature-settings:normal;text-indent:0;text-align:start;text-decoration:none;text-decoration-line:none;text-decoration-style:solid;text-decoration-color:#000000;letter-spacing:normal;word-spacing:normal;text-transform:none;writing-mode:lr-tb;direction:ltr;text-orientation:mixed;dominant-baseline:auto;baseline-shift:baseline;text-anchor:start;white-space:normal;shape-padding:0;clip-rule:nonzero;display:inline;overflow:visible;visibility:visible;opacity:1;isolation:auto;mix-blend-mode:normal;color-interpolation:sRGB;color-interpolation-filters:linearRGB;solid-color:#000000;solid-opacity:1;vector-effect:none;fill:#000000;fill-opacity:1;fill-rule:nonzero;stroke:none;stroke-width:0.26458332px;stroke-linecap:round;stroke-linejoin:miter;stroke-miterlimit:4;stroke-dasharray:none;stroke-dashoffset:0;stroke-opacity:1;color-rendering:auto;image-rendering:auto;shape-rendering:auto;text-rendering:auto;enable-background:accumulate" />
    </g>
  </g>
</svg>
