<?xml version="1.0" encoding="UTF-8" standalone="no"?>
<!-- Created with Inkscape (http://www.inkscape.org/) -->

<svg
   xmlns:dc="http://purl.org/dc/elements/1.1/"
   xmlns:cc="http://creativecommons.org/ns#"
   xmlns:rdf="http://www.w3.org/1999/02/22-rdf-syntax-ns#"
   xmlns:svg="http://www.w3.org/2000/svg"
   xmlns="http://www.w3.org/2000/svg"
   xmlns:sodipodi="http://sodipodi.sourceforge.net/DTD/sodipodi-0.dtd"
   xmlns:inkscape="http://www.inkscape.org/namespaces/inkscape"
   width="50"
   height="50"
   viewBox="0 0 13.229167 13.229167"
   version="1.1"
   id="svg1483"
   inkscape:version="0.92.2 (5c3e80d, 2017-08-06)"
   sodipodi:docname="icon_fairpay.svg"
   inkscape:export-filename="/home/feel/software/dev/ufc-frontend/src/assets/icon/icon_solidarity.png"
   inkscape:export-xdpi="10.24"
   inkscape:export-ydpi="10.24">
  <defs
     id="defs1477" />
  <sodipodi:namedview
     id="base"
     pagecolor="#ffffff"
     bordercolor="#666666"
     borderopacity="1.0"
     inkscape:pageopacity="0.0"
     inkscape:pageshadow="2"
     inkscape:zoom="7.9195959"
     inkscape:cx="-25.647716"
     inkscape:cy="26.289133"
     inkscape:document-units="mm"
     inkscape:current-layer="g898"
     showgrid="false"
     fit-margin-top="0"
     fit-margin-left="0"
     fit-margin-right="0"
     fit-margin-bottom="0"
     inkscape:window-width="2160"
     inkscape:window-height="1356"
     inkscape:window-x="0"
     inkscape:window-y="42"
     inkscape:window-maximized="1"
     units="px" />
  <metadata
     id="metadata1480">
    <rdf:RDF>
      <cc:Work
         rdf:about="">
        <dc:format>image/svg+xml</dc:format>
        <dc:type
           rdf:resource="http://purl.org/dc/dcmitype/StillImage" />
        <dc:title></dc:title>
      </cc:Work>
    </rdf:RDF>
  </metadata>
  <g
     inkscape:label="Calque 1"
     inkscape:groupmode="layer"
     id="layer1"
     transform="translate(-117.17262,-495.43751)">
    <g
       id="g11983"
       transform="matrix(0.40750843,0,0,0.40750843,-27.781178,429.22481)"
       style="stroke:#000000;stroke-opacity:1">
      <g
         id="g898"
         transform="matrix(0.03470051,0,0,0.03470051,356.12888,172.20934)">
        <path
           style="color:#000000;font-style:normal;font-variant:normal;font-weight:normal;font-stretch:normal;font-size:medium;line-height:normal;font-family:sans-serif;font-variant-ligatures:normal;font-variant-position:normal;font-variant-caps:normal;font-variant-numeric:normal;font-variant-alternates:normal;font-feature-settings:normal;text-indent:0;text-align:start;text-decoration:none;text-decoration-line:none;text-decoration-style:solid;text-decoration-color:#000000;letter-spacing:normal;word-spacing:normal;text-transform:none;writing-mode:lr-tb;direction:ltr;text-orientation:mixed;dominant-baseline:auto;baseline-shift:baseline;text-anchor:start;white-space:normal;shape-padding:0;clip-rule:nonzero;display:inline;overflow:visible;visibility:visible;opacity:1;isolation:auto;mix-blend-mode:normal;color-interpolation:sRGB;color-interpolation-filters:linearRGB;solid-color:#000000;solid-opacity:1;vector-effect:none;fill:#000000;fill-opacity:1;fill-rule:nonzero;stroke:none;stroke-width:41.44051743;stroke-linecap:butt;stroke-linejoin:miter;stroke-miterlimit:4;stroke-dasharray:none;stroke-dashoffset:0;stroke-opacity:1;color-rendering:auto;image-rendering:auto;shape-rendering:auto;text-rendering:auto;enable-background:accumulate"
           d="m 561.12804,-158.09017 c -63.59499,6.9e-4 -127.21927,24.27344 -175.85135,72.905939 L 191.62826,108.4642 l 3.03317,12.0231 c 0.037,0.21218 0.11088,0.29707 0.14619,0.43852 v 0.14619 c 0.037,0.14218 0.11077,0.26053 0.14617,0.40198 0.1485,0.49509 0.17215,0.87484 0.29235,1.2425 0.2546,0.73552 0.60076,1.55505 0.95017,2.37538 0.7001,1.64074 1.65423,3.73387 2.92355,6.10291 2.53668,4.73807 6.26916,10.72333 11.43837,17.10276 10.3392,12.75813 26.63129,27.02671 49.73684,31.64739 L 137.90808,302.33192 c -11.5625,11.56233 -19.04482,28.57187 -17.24893,46.6671 0.2192,17.26783 7.41077,33.65032 18.92997,45.16881 l 1.49832,1.53486 c 8.2142,8.21386 18.82611,10.4044 29.0162,13.37523 -13.96189,24.36363 -15.61552,55.09803 5.66438,76.37766 12.14229,12.14221 28.87258,17.54128 44.32827,17.54128 16.7132,0 34.02825,-5.70652 47.36146,-19.0396 l 10.92677,-10.92677 c 3.38241,8.68414 4.42059,18.6367 10.78058,24.99634 l 1.49831,1.64448 c 11.69372,11.69389 28.44962,19.07616 46.00932,19.07616 17.56003,0 34.16955,-7.38369 45.86314,-19.07616 l 45.16879,-45.27841 c 2.89589,8.00947 3.14409,16.84812 9.50154,23.20564 11.69372,11.69387 27.65106,17.54128 44.36483,17.54128 17.56001,0 34.0197,-7.56251 46.81329,-18.52797 l 0.25581,-0.29235 203.47886,-203.44232 4.82385,-4.82386 C 804.21572,199.63899 824.89261,102.65694 798.99511,17.651535 788.22202,-20.80713 767.90676,-57.107347 737.78336,-87.230714 695.07459,-129.94015 640.00309,-152.96842 583.85862,-156.77459 c -7.56391,-0.71359 -15.13119,-1.27904 -22.73058,-1.27904 z m 6.21253,41.73361 c 51.08916,0 102.23523,19.462163 141.17078,58.397857 77.87105,77.871407 77.87092,204.470843 0,282.341543 -77.87111,77.8707 -204.4339,77.8707 -282.30501,0 -77.87095,-77.8707 -77.87105,-204.470136 0,-282.341543 38.93562,-38.935694 90.04515,-58.397857 141.13423,-58.397857 z M 395.9111,-86.134379 c -4.7229,4.78107 -9.13522,9.76736 -13.37523,14.837005 4.23537,-5.077074 8.6464,-10.050228 13.37523,-14.837005 z m -17.4682,19.843577 c -3.47809,4.394301 -6.73942,8.909324 -9.86697,13.484857 3.11754,-4.583971 6.39417,-9.083015 9.86697,-13.484857 z m -15.12936,21.597686 c -2.3352,3.733346 -4.5762,7.497939 -6.68761,11.328749 2.09857,-3.832382 4.36491,-7.59385 6.68761,-11.328749 z m -11.80381,21.195724 c -1.03893,2.112326 -1.98663,4.259079 -2.96009,6.395261 0.96738,-2.13751 1.92763,-4.281569 2.96009,-6.395261 z m -16.99311,45.936228 c -7.41103,28.700754 -9.5543,58.451572 -6.28564,87.779494 -0.0987,-0.88079 -0.31353,-1.74929 -0.40198,-2.6312 -26.76839,26.56083 -46.15282,34.60516 -62.85626,31.02616 -13.82857,-2.96306 -19.71389,-12.95179 -25.5445,-21.70735 z m 470.36215,22.474769 c 0.39588,2.480178 0.7409,4.965689 1.05977,7.455035 -0.31793,-2.491049 -0.66457,-4.973173 -1.05977,-7.455035 z m 2.33884,18.856887 c 0.4321,5.3617 0.68986,10.703849 0.76741,16.079489 -0.074,-5.366977 -0.33937,-10.726339 -0.76741,-16.079489 z m 0.62125,25.87338 c -0.0941,3.680058 -0.28774,7.36311 -0.54817,11.036398 0.26401,-3.676432 0.45096,-7.353122 0.54817,-11.036398 z m -1.31561,20.209018 c -0.61983,5.68947 -1.39056,11.3521 -2.41192,16.99311 1.0246,-5.63055 1.78764,-11.31421 2.41192,-16.99311 z m -474.93018,22.10933 c 0.13305,0.65143 0.33661,1.28634 0.47507,1.93684 -0.14078,-0.64928 -0.33968,-1.28663 -0.47507,-1.93684 z m 470.87376,2.66773 c -0.9675,4.49686 -2.0634,8.96671 -3.28899,13.41178 1.231,-4.44836 2.31652,-8.91152 3.28899,-13.41178 z m -5.1162,19.84358 c -1.89786,6.20697 -3.98718,12.35417 -6.39526,18.41834 2.41033,-6.05532 4.49345,-12.22055 6.39526,-18.41834 z m -459.28921,2.11957 c 5.65293,17.83116 13.50616,35.06699 23.38837,51.41788 L 200.91053,368.44062 c -3.60801,3.6066 -10.2266,6.24907 -17.13931,6.24907 -6.91549,0 -12.55108,-2.07213 -16.29877,-6.7607 l -0.29236,-0.58471 -2.04648,-1.93685 c -4.28281,-4.28464 -7.74739,-11.49531 -7.74739,-17.13929 0,-6.90913 2.60453,-13.53058 6.21253,-17.1393 z m 450.95709,20.75718 c -2.12941,5.06092 -4.45363,10.0509 -6.94341,14.98317 2.49404,-4.93171 4.80933,-9.92281 6.94341,-14.98317 z m -9.75733,20.39174 c -3.26086,6.06805 -6.70636,12.04713 -10.52477,17.87018 3.81521,-5.8131 7.26428,-11.81291 10.52477,-17.87018 z m -11.58456,19.40504 c -3.68346,5.52276 -7.68755,10.88921 -11.8769,16.15259 4.19096,-5.26298 8.19065,-10.6303 11.8769,-16.15259 z m -14.94663,19.98974 c -4.70565,5.66942 -9.6382,11.2085 -14.94663,16.51805 -0.006,0.006 0.006,0.0302 0,0.0365 -5.23952,5.23945 -10.70587,10.08402 -16.29878,14.72738 5.59585,-4.65795 11.05432,-9.51946 16.29878,-14.76392 5.31247,-5.31243 10.23599,-10.84534 14.94663,-16.51805 z m -367.0513,4.09297 c 3.6524,4.19875 7.22682,8.43284 11.2191,12.42508 8.07522,8.0752 16.73594,15.2054 25.61759,21.89006 -1.0847,-0.81876 -2.21438,-1.53764 -3.28901,-2.37538 L 237.23559,455.19686 c -4.2805,4.27842 -11.49469,7.60122 -17.1393,7.60122 -6.7352,0 -11.02865,-1.91167 -15.20244,-5.95672 -8.3896,-9.78519 -8.77356,-24.51959 1.09633,-34.38823 l 0.14619,-0.14617 25.28867,-26.787 z m 331.74947,30.47799 c -5.44244,4.31951 -10.98072,8.46685 -16.70076,12.24235 5.71207,-3.78959 11.26466,-7.91438 16.70076,-12.24235 z m -20.68408,14.69082 c -4.17874,2.64088 -8.41499,5.13302 -12.71744,7.49159 4.29154,-2.36784 8.5491,-4.84278 12.71744,-7.49159 z m -242.7275,9.46497 c 17.07058,9.05974 35.06133,15.71574 53.46437,20.39175 -0.18099,-0.046 -0.36726,-0.0632 -0.54817,-0.10963 l -154.8018,154.8018 c -4.28125,4.27841 -11.45869,7.56468 -17.10276,7.56468 -6.91545,0 -13.53225,-2.45977 -17.13928,-6.06637 l -1.53487,-1.49831 c -9.69061,-9.68812 -9.51045,-26.8588 -1.09632,-36.32507 z m 221.27596,2.6312 c -2.83134,1.40311 -5.71373,2.6974 -8.58791,3.98333 2.8765,-1.29532 5.75457,-2.56972 8.58791,-3.98333 z m -25.83684,10.96331 c -2.24832,0.80514 -4.49388,1.6012 -6.7607,2.33883 2.26353,-0.73928 4.51592,-1.53109 6.7607,-2.33883 z m -18.89343,5.99326 -65.70672,65.70672 -64.64693,64.50076 c -9.98837,9.98812 -26.22858,10.64197 -33.84004,2.08302 l -0.14619,-0.29235 -0.25581,-0.14619 c -7.55311,-7.55265 -8.19072,-24.553 1.49832,-34.24204 l 89.53363,-89.53362 c 24.72303,1.04958 49.52994,-1.60309 73.56374,-8.0763 z m -99.10824,5.62784 c 0.26779,0.0399 0.5361,0.0706 0.80398,0.10962 -0.2681,-0.0389 -0.53598,-0.0698 -0.80398,-0.10962 z"
           id="path907"
           inkscape:connector-curvature="0" />
      </g>
    </g>
  </g>
</svg>
