<?xml version="1.0" encoding="UTF-8" standalone="no"?>
<!-- Created with Inkscape (http://www.inkscape.org/) -->

<svg
   xmlns:dc="http://purl.org/dc/elements/1.1/"
   xmlns:cc="http://creativecommons.org/ns#"
   xmlns:rdf="http://www.w3.org/1999/02/22-rdf-syntax-ns#"
   xmlns:svg="http://www.w3.org/2000/svg"
   xmlns="http://www.w3.org/2000/svg"
   xmlns:sodipodi="http://sodipodi.sourceforge.net/DTD/sodipodi-0.dtd"
   xmlns:inkscape="http://www.inkscape.org/namespaces/inkscape"
   width="50"
   height="50"
   viewBox="0 0 13.229166 13.229167"
   version="1.1"
   id="svg1683"
   inkscape:version="0.92.2 (5c3e80d, 2017-08-06)"
   sodipodi:docname="logo_theatre.svg">
  <defs
     id="defs1677" />
  <sodipodi:namedview
     id="base"
     pagecolor="#ffffff"
     bordercolor="#666666"
     borderopacity="1.0"
     inkscape:pageopacity="0.0"
     inkscape:pageshadow="2"
     inkscape:zoom="7.9195959"
     inkscape:cx="11.070823"
     inkscape:cy="31.052414"
     inkscape:document-units="mm"
     inkscape:current-layer="layer1"
     showgrid="false"
     units="px"
     inkscape:window-width="2160"
     inkscape:window-height="1356"
     inkscape:window-x="0"
     inkscape:window-y="42"
     inkscape:window-maximized="1" />
  <metadata
     id="metadata1680">
    <rdf:RDF>
      <cc:Work
         rdf:about="">
        <dc:format>image/svg+xml</dc:format>
        <dc:type
           rdf:resource="http://purl.org/dc/dcmitype/StillImage" />
        <dc:title></dc:title>
      </cc:Work>
    </rdf:RDF>
  </metadata>
  <g
     inkscape:label="Calque 1"
     inkscape:groupmode="layer"
     id="layer1"
     transform="translate(0,-283.77082)">
    <path
       inkscape:connector-curvature="0"
       style="fill:#000000;stroke-width:0.02259422"
       d="m 6.5206238,285.33431 c -2.8267127,0 -5.114606,2.38695 -5.114606,5.3187 0,2.93174 2.2878933,5.32047 5.114606,5.32047 2.826702,0 5.1145962,-2.38873 5.1146082,-5.32047 0,-2.93175 -2.2879062,-5.3187 -5.1146082,-5.3187 z m -0.018989,0.71845 c 2.4333229,0 4.4097992,2.05306 4.4097992,4.60025 0,2.54717 -1.9764763,4.60201 -4.4097992,4.60201 -2.4333322,0 -4.4097978,-2.05484 -4.4097978,-4.60201 0,-2.54719 1.9764656,-4.60025 4.4097978,-4.60025 z"
       id="path21"
       sodipodi:nodetypes="ssscssssss" />
    <path
       style="fill:#000000;stroke-width:0.04273697"
       d="m 3.2729665,293.09441 -0.095632,-0.10427 v -1.88473 -1.88472 l 0.099811,-0.0535 c 0.2539702,-0.136 1.2431991,-0.44916 1.7511861,-0.55435 0.4791846,-0.0993 0.7051066,-0.11652 1.5243507,-0.11652 0.8232482,0 1.0428307,0.017 1.5243513,0.11759 0.5126036,0.10712 1.5056865,0.42072 1.7511902,0.55296 l 0.099808,0.0538 v 1.88473 1.88472 l -0.095625,0.10427 c -0.075363,0.0822 -0.1477197,0.10426 -0.3413851,0.10426 -0.6172691,-0.269 -0.978994,-2.63175 -0.8685876,-3.37093 0.1257931,0.0212 0.2100446,-0.15342 0.1495847,-0.31006 -0.082652,-0.21413 -0.3157154,-0.0723 -0.2820822,0.17171 -0.8070488,0.58363 -1.7865603,0.20881 -1.8254318,-0.64731 0.099473,-0.16619 -0.047569,-0.45302 -0.1753175,-0.34197 -0.075797,0.0659 -0.1024606,0.25147 -0.048971,0.34084 -0.2327664,0.94603 -1.7923705,1.17184 -1.7781057,0.66709 0.03365,-0.24396 -0.1994303,-0.38582 -0.2820821,-0.1717 -0.05968,0.15462 0.021133,0.32659 0.1463908,0.31154 -0.035129,0.59081 -0.2612563,3.34697 -0.9144911,3.35079 -0.1912212,0 -0.2638208,-0.0224 -0.3389664,-0.10426 z m -0.095632,-4.42117 c 0,-0.67296 -0.3635035,-0.60753 3.3753481,-0.60753 3.7388524,0 3.3753483,-0.0654 3.3753483,0.60753 0,0.21941 -0.01067,0.39894 -0.02379,0.39894 -0.013078,0 -0.1993055,-0.0787 -0.4138463,-0.17485 -0.4216832,-0.18902 -1.0815731,-0.38702 -1.6311453,-0.48943 -0.5351909,-0.0997 -2.1986837,-0.0835 -2.7402012,0.0268 -0.5725148,0.11661 -1.1678046,0.30231 -1.5632312,0.48763 -0.175742,0.0824 -0.332798,0.14976 -0.3490148,0.14976 -0.016205,0 -0.029491,-0.17952 -0.029491,-0.39893 z"
       id="path1675"
       inkscape:connector-curvature="0"
       sodipodi:nodetypes="ccccccsccccccccscccccccccccsssccccscc" />
  </g>
</svg>
